<?xml version="1.0" encoding="UTF-8"?>
<svg width="484px" height="311px" viewBox="0 0 484 311" version="1.1" xmlns="http://www.w3.org/2000/svg" xmlns:xlink="http://www.w3.org/1999/xlink">
    <title>characters/@2 people jigsaw</title>
    <defs>
        <polygon id="path-1" points="0.733039285 0.650081562 118.194028 0.650081562 118.194028 89.7669842 0.733039285 89.7669842"></polygon>
        <polygon id="path-3" points="0.290022919 0.823654913 34.9492565 0.823654913 34.9492565 16.15 0.290022919 16.15"></polygon>
        <polygon id="path-5" points="0.183697475 0.823654913 35.491019 0.823654913 35.491019 16.15 0.183697475 16.15"></polygon>
    </defs>
    <g id="Page-1" stroke="none" stroke-width="1" fill="none" fill-rule="evenodd">
        <g id="V7:-Wyred-World-On-Demand" transform="translate(-189.000000, -697.000000)">
            <g id="characters/@2-people-jigsaw" transform="translate(189.500000, 697.000000)">
                <path d="M188.5,50.703833 L197.588528,54 C197.588528,54 201.783544,46.7960989 201.484766,43.275091 C201.21425,40.1363126 198.90477,37.6540696 194.794543,39.8125418 C191.358586,41.6157655 188.5,50.703833 188.5,50.703833" id="Fill-5" fill="#FF9393"></path>
                <path d="M128.135416,62.6580743 C124.837757,53.9232658 134.934755,43.1784238 145.514745,49.8990882 C155.2037,56.0566143 166.824616,67.0193128 166.824616,67.0193128 C166.824616,67.0193128 189.949866,43.6223576 191.944284,44.0046339 C193.193397,44.2430428 201.5,51.2350001 201.5,51.2350001 C201.5,51.2350001 192.31069,73.8468501 181.076999,84.3902777 C159.704671,104.445398 132.220016,73.4810158 128.135416,62.6580743" id="Fill-7" fill="#FFE359"></path>
                <path d="M151.501102,280.06578 C151.364759,279.799372 163.921513,275 163.921513,275 C163.921513,275 164.506469,294.601136 168.5,299.400508 L157.89603,302 C157.89603,302 154.087222,285.111377 151.501102,280.06578" id="Fill-9" fill="#FF9393"></path>
                <path d="M119.5,128.551494 C121.303756,128.551494 155.207012,124 155.207012,124 L168.5,285.941915 C168.5,285.941915 167.40384,287.627653 160.990484,288.745997 C157.734725,289.317504 152.871536,288.745997 152.871536,288.745997 L119.5,128.551494 Z" id="Fill-11" fill="#3F465C"></path>
                <path d="M157.3826,310 L188.586968,310 C188.586968,310 190.05231,309.094127 189.270246,307.684539 C187.957201,305.324393 183.717589,305.141593 177.300545,302.651457 C169.105333,299.474806 167.170753,293.328678 165.894753,294.059877 C163.606186,295.371971 165.948263,300.734092 161.346431,300.734092 C157.71189,300.734092 158.131735,297.082163 156.905129,297.75649 C156.407077,298.028659 156.172458,306.193707 157.3826,310" id="Fill-13" fill="#121A36"></path>
                <path d="M104.498898,280.06578 C104.635241,279.799372 92.0784871,275 92.0784871,275 C92.0784871,275 91.4935315,294.601136 87.5,299.400508 L98.1039695,302 C98.1039695,302 101.912778,285.111377 104.498898,280.06578" id="Fill-15" fill="#FF9393"></path>
                <path d="M98.6174002,310 L67.4130316,310 C67.4130316,310 65.9476899,309.094127 66.7297543,307.684539 C68.0427992,305.324393 72.2824114,305.141593 78.6994554,302.651457 C86.8946668,299.474806 88.8292471,293.328678 90.1052469,294.059877 C92.3938142,295.371971 90.0517372,300.734092 94.6535686,300.734092 C98.2881099,300.734092 97.8682648,297.082163 99.0948711,297.75649 C99.5929226,298.028659 99.8275419,306.193707 98.6174002,310" id="Fill-17" fill="#121A36"></path>
                <path d="M94.5705054,123.529106 C97.4302705,121.112379 125.88189,127.758377 125.88189,127.758377 C125.88189,127.758377 126.319982,133.927605 126.482238,144.975497 C126.563366,150.618635 126.340264,165.513561 126.340264,165.513561 C117.935394,212.672604 104.480301,287.336296 103.417523,288.08844 C102.091079,289.025538 99.442247,289.194051 95.0694431,288.803594 C91.7999813,288.511778 89.5,286.378647 89.5,286.378647 C89.5,286.378647 89.5446204,127.778927 94.5705054,123.529106" id="Fill-19" fill="#121A36"></path>
                <path d="M91.2500652,143.069861 C91.2500652,143.069861 109.474154,148.880627 126.674653,147.885322 C149.034883,146.588534 158.44356,140.926443 158.44356,140.926443 C158.44356,140.926443 163.477955,72.7624735 151.566703,56.1850621 C147.505765,50.5394912 135.912035,39.6283002 122.810077,42.4614103 C109.708118,45.2945205 88.4132572,52.5507517 85.9566399,61.0046533 C83.5710473,69.210761 91.2793106,97.1619121 91.8934649,97.7400978 C92.5076192,98.3224135 91.2500652,143.069861 91.2500652,143.069861" id="Fill-21" fill="#FFEB87"></path>
                <path d="M114.515753,27.0428727 C114.515753,27.0428727 113.947983,16.6032601 119.629679,13.9747885 C127.306566,10.4220192 135.383291,16.7683133 135.499244,29.9519347 C135.58321,39.6570607 128.642025,38.44392 128.642025,38.44392 C128.642025,38.44392 128.749981,43.2263354 133.919885,44.5591397 C133.919885,44.5591397 132.556438,49.8532199 127.122641,50.7775176 C118.674067,52.2176065 114.831625,46.2096713 114.587724,45.8383017 C114.387805,45.5370797 118.058316,45.9249546 118.258235,40.2636311 C118.450158,34.6023076 114.515753,27.0428727 114.515753,27.0428727" id="Fill-23" fill="#FF9393"></path>
                <g id="Group-27" transform="translate(142.500000, 0.000000)">
                    <mask id="mask-2" fill="white">
                        <use xlink:href="#path-1"></use>
                    </mask>
                    <g id="Clip-26"></g>
                    <path d="M30.0439048,5.81594932 C32.0381502,5.61753238 33.8176943,7.07258995 34.0158801,9.06916043 C34.1273597,10.1976568 33.697957,11.2972173 32.8804402,12.0826177 C29.7631415,15.083674 28.0042418,19.432312 28.4666756,24.0744417 C29.3007078,32.4162206 36.9845394,38.4100657 45.3744082,37.0335482 C52.7279301,35.8265118 58.0541756,29.0720684 57.5421954,21.6314331 C57.2077567,16.7743517 54.5570206,12.6654675 50.7749734,10.2720631 C49.8294616,9.67267863 49.2060019,8.67646024 49.0945223,7.56036494 C48.8963365,5.56379446 50.3496996,3.78217567 52.3480738,3.58375872 L81.6548105,0.648841456 L84.5863099,29.9938804 C84.7844958,31.9904509 86.5640398,33.4455085 88.5582852,33.2470916 C89.6730808,33.135482 90.6681391,32.5154291 91.2626967,31.5688149 C93.6574427,27.7782246 97.7615419,25.1285317 102.608838,24.7937031 C110.044937,24.281126 116.787386,29.6094476 117.997146,36.9715429 C119.37206,45.3753271 113.385195,53.0681173 105.053131,53.903122 C100.416407,54.3660948 96.0728331,52.6010108 93.0752717,49.4800776 C92.2907859,48.6657414 91.1925059,48.2317044 90.0653237,48.3474476 C88.0710783,48.5458645 86.6177152,50.3274833 86.8159011,52.3199201 L89.7474005,81.6649591 L8.82562929,89.7669842 L0.733039285,8.75086659 L30.0439048,5.81594932 Z" id="Fill-25" fill="#FF5959" mask="url(#mask-2)"></path>
                </g>
                <path d="M145.5,87.8249033 C145.5,87.8249033 150.301974,88.489518 153.724166,85.9665221 C157.142165,83.439293 161.436681,82 161.436681,82 C162.669677,83.4773919 158.123529,86.39831 158.123529,86.39831 C158.123529,86.39831 156.710197,87.6513415 162.501922,85.2849746 C165.005659,84.2647698 167.97072,84.4467981 168.448821,87.1729883 C168.926921,89.8991785 166.012186,93.8910999 161.512171,95.4277568 C156.999574,96.9644137 155.330416,96.3167319 149.710639,96.9855798 C146.057784,97.4216009 145.5,87.8249033 145.5,87.8249033" id="Fill-28" fill="#FF9393"></path>
                <path d="M85.7289497,61.156756 C87.851856,57.2100933 98.164861,44.7295474 103.938677,66.4382585 C109.62285,87.828757 106.815398,91.3373608 106.815398,91.3373608 C106.815398,91.3373608 146.514967,83.1919449 147.79849,84.5433153 C148.605276,85.3946373 150.5,99.2389514 150.5,99.2389514 C150.5,99.2389514 134.429478,109.818487 108.143743,115.554579 C81.8580075,121.286538 80.9860268,69.9633928 85.7289497,61.156756" id="Fill-30" fill="#FAE271"></path>
                <path d="M135.608995,25.8135815 C132.535906,24.1656047 131.689874,35.6472047 126.501703,26.5729024 C126.120159,25.6550419 125.054324,22.5885536 125.738615,21.8959862 C126.422906,21.2075908 131.519838,18.2036839 133.133106,16.7601397 C135.953214,14.2276792 133.879605,7.40630717 130.541094,6.33407927 C125.062618,4.56928393 113.342579,10.2433304 110.953781,12.9092978 C109.050208,15.0328932 107.300082,18.2662652 109.581052,25.6550419 C112.280891,34.3955768 114.487211,38.5927023 118.0082,38.7679302 C119.795651,38.8555442 121.699224,32.117614 121.699224,32.117614 C121.699224,32.117614 118.879116,30.3319582 118.879116,27.3405675 C118.879116,24.3491768 120.255992,23.9277954 121.699224,24.0446141 C123.366406,24.178121 123.573767,26.3726419 124.063139,27.273814 C124.780608,29.0552977 126.617825,33.598707 127.136228,34.6375582 C127.783194,35.9392512 128.247682,38.1462884 128.836587,38.6344233 C129.429639,39.1267302 132.063123,41 134.713196,41 C137.363268,41 140.83449,37.9543721 141.481456,36.2980512 C141.792498,35.5011814 138.122209,27.1611675 135.608995,25.8135815" id="Fill-32" fill="#121A36"></path>
                <path d="M283.842349,80 C285.072162,79.7678591 286.301976,79.5397206 287.531789,79.3115822 C289.593535,78.9313514 291.522653,78.30297 293.5,77.8266809 C292.463099,75.3251625 291.108697,72.6275252 289.641762,70.3461404 C285.630803,64.1063531 280.321707,67.6124812 281.732376,72.579496 C282.134275,73.9923536 282.990322,77.0061829 283.842349,80" id="Fill-34" fill="#FF9393"></path>
                <path d="M328.030088,64.3281455 C325.66924,62.2185071 314.885019,70.1959597 302.62424,90.7251486 C299.609429,84.9389451 296.557602,79.3853323 293.579808,74.4397197 C290.585562,75.5210624 283.873187,79.2751578 281.5,79.6424062 C284.309162,89.3622488 287.052516,105.402845 295.3525,114.298419 C297.746252,116.865078 302.011407,118.085159 305.725423,117.995387 C316.896264,117.726071 342.882041,77.602137 328.030088,64.3281455" id="Fill-36" fill="#3F465C"></path>
                <path d="M329.651382,270.065857 L343.5,252 C343.5,252 336.12876,294.200486 339.030692,303 L328.819883,302.15723 L326.5,299.215796 C326.5,299.215796 331.971264,296.509842 329.651382,270.065857" id="Fill-38" fill="#FF9393"></path>
                <g id="Group-42" transform="translate(304.500000, 294.000000)">
                    <mask id="mask-4" fill="white">
                        <use xlink:href="#path-3"></use>
                    </mask>
                    <g id="Clip-41"></g>
                    <path d="M2.15354514,15.6457163 L32.9117396,16.1504038 C33.9158021,16.1504038 34.742191,15.3913538 34.8083021,14.4102413 C35.0190312,11.3255913 35.2256285,5.16436625 33.5811146,4.65160375 C32.9323993,4.45376625 31.5605937,7.63127875 28.494691,6.87222875 C22.0736493,5.28145375 25.441184,1.23991625 22.8463229,0.84424125 C20.0985799,0.42837875 20.0985799,6.42406625 7.68208681,8.79004125 C4.33521181,9.42796625 3.17000347,9.58139125 1.36847569,11.1439038 C0.517295139,11.8827663 0.294170139,12.9244413 0.290022919,13.8167288 C0.28590625,14.8261038 1.12055903,15.6457163 2.15354514,15.6457163" id="Fill-40" fill="#FF5959" mask="url(#mask-4)"></path>
                </g>
                <path d="M379.347847,270.065857 L365.5,252 C365.5,252 372.868885,294.200486 369.966243,303 L380.17955,302.15723 L382.5,299.215796 C382.5,299.215796 377.027397,296.509842 379.347847,270.065857" id="Fill-43" fill="#FF9393"></path>
                <path d="M342.909252,287.512372 C342.909252,287.512372 340.644976,288 334.152428,288 C330.411097,288 326.466874,286.95918 326.466874,286.95918 C326.876716,274.985646 328.816365,227.177566 328.564779,214.97456 C328.438986,208.774712 322.340048,121.132711 325.318505,117.125142 C328.292903,113.113476 360.5,121.132711 360.5,120.952411 C360.5,120.768014 350.611038,209.815533 350.083518,217.797888 C349.495131,226.636667 344.804265,278.202355 342.909252,287.512372" id="Fill-45" fill="#FFEB87"></path>
                <path d="M384.860346,220.662205 C386.10327,211.0548 387.5,117.317797 387.5,117.317797 C387.5,117.317797 361.386128,115.914746 355.217235,119.00475 C349.048342,122.094755 361.415227,217.761468 362.308968,222.398533 C363.41887,228.162976 365.821579,287.074678 365.821579,287.074678 C365.821579,287.074678 369.733256,288.416012 376.775105,287.868781 C381.360206,287.514932 384.457123,286.519218 384.457123,286.519218 L384.860346,220.662205 Z" id="Fill-47" fill="#FAE271"></path>
                <path d="M370.988106,57.0742145 C370.988106,57.0742145 340.023606,55.5529504 339.815048,56.1311128 C327.505861,90.1360813 330.940686,145 330.940686,145 L376.5,144.495646 L371.686138,57.0742145 L370.988106,57.0742145 Z" id="Fill-49" fill="#FFFFFF"></path>
                <path d="M353.242719,22.0130541 C361.107427,21.6816153 366.342321,27.7081425 363.139555,34.7734473 C360.114033,41.4466843 361.857624,53.285516 367.265641,55.7147197 C368.930914,56.462478 361.560843,62.6345148 350.270783,60.5852531 C343.560226,59.3686302 342.521491,54.7850744 342.521491,54.7850744 C342.521491,54.7850744 348.568412,54.5466001 349.302122,49.7811571 C349.462878,48.7464214 344.994669,52.0284737 342.245319,42.3237845 C339.994727,34.3773375 342.612174,22.4617091 353.242719,22.0130541" id="Fill-51" fill="#FF9393"></path>
                <path d="M359.683447,18.0645312 C359.863788,17.6981197 364.466586,12.4448481 370.204713,14.4580533 C375.946939,16.4712584 378.274979,23.0337309 377.274905,26.9695676 C376.270733,30.9054043 372.72539,33.9972592 370.905584,33.2232663 C370.905584,33.2232663 372.237649,39.5469537 368.270144,46.2576375 C366.298688,49.6006285 362.654977,49.991742 362.12625,50 C361.597522,50.0123269 360.646633,45.2572104 359.781815,43.2975261 C359.326863,42.2641631 362.327084,43.1616656 361.179459,38.5218246 C360.117905,34.2195764 356.097118,36.0557512 356.289755,38.3365604 C356.39632,39.5757725 354.928999,38.9047042 354.760954,38.2006999 C353.711696,33.7502402 351.744338,29.8144035 347.72765,29.2627277 C344.805303,28.8633802 342.280528,31.5476538 341.891155,34.1001838 C341.550966,36.3274722 339.153248,33.0627039 339.542621,27.8588361 C339.891008,23.2066442 342.477263,19.2913925 347.764538,17.5663762 C355.773323,14.9562083 359.683447,18.0645312 359.683447,18.0645312" id="Fill-53" fill="#121A36"></path>
                <path d="M346.496918,55.05142 C346.227546,54.3560893 327.709231,60.8789532 325.566317,64.5666891 C323.419383,68.2502861 318.610893,148.403701 321.292551,151.851382 C323.974209,155.303202 333.804274,154.992787 333.804274,154.992787 C333.804274,154.992787 333.892724,130.734852 335.637611,96.4277335 C337.386518,62.1206151 346.693922,55.5563625 346.496918,55.05142" id="Fill-55" fill="#FF5959"></path>
                <path d="M387.696039,64.1724531 C387.696039,64.1724531 372.592107,56 366.5,56 C366.5,56 371.068077,93.5940941 371.717795,116.070365 C372.363502,138.546636 372.716435,152 372.716435,152 C372.716435,152 389.56498,151.100949 391.706642,149.752373 C393.844294,148.399747 391.377773,122.416368 387.696039,64.1724531" id="Fill-57" fill="#FF5959"></path>
                <path d="M349.074027,40.920667 C347.944964,40.920667 346.990885,39.5826175 346.990885,37.9979788 C346.990885,36.4173825 347.944964,35.079333 349.074027,35.079333 C350.20309,35.079333 351.157168,36.4173825 351.157168,37.9979788 C351.157168,39.5826175 350.20309,40.920667 349.074027,40.920667 M341.695539,40.920667 C340.566476,40.920667 339.612398,39.5826175 339.612398,37.9979788 C339.612398,36.4173825 340.566476,35.079333 341.695539,35.079333 C342.824602,35.079333 343.782847,36.4173825 343.782847,37.9979788 C343.782847,39.5826175 342.824602,40.920667 341.695539,40.920667 M358.448164,34.9176352 C358.314843,34.6508338 357.985707,34.5336028 357.706566,34.6629611 L352.198739,37.1814047 C351.898767,35.3663466 350.611385,34 349.074027,34 C347.457509,34 346.132631,35.5118747 345.92015,37.4603335 L344.849416,37.4603335 C344.636935,35.5118747 343.312057,34 341.695539,34 C339.933201,34 338.5,35.7948459 338.5,37.9979788 C338.5,40.2051541 339.933201,42 341.695539,42 C343.312057,42 344.636935,40.4881253 344.849416,38.5396665 L345.92015,38.5396665 C346.132631,40.4881253 347.457509,42 349.074027,42 C350.74054,42 352.094582,40.3911066 352.240402,38.353714 L358.181522,35.6371905 C358.456497,35.5078322 358.577319,35.188479 358.448164,34.9176352" id="Fill-59" fill="#0E1011"></path>
                <g id="Group-63" transform="translate(369.500000, 294.000000)">
                    <mask id="mask-6" fill="white">
                        <use xlink:href="#path-5"></use>
                    </mask>
                    <g id="Clip-62"></g>
                    <path d="M33.6214036,16.1504038 L2.22787636,16.1504038 C1.22053091,16.1504038 0.39144,15.3913538 0.325112727,14.4102413 C0.113694545,11.3255913 -0.0935781818,5.16436625 1.55631273,4.65160375 C2.20714909,4.45376625 3.58344,7.63127875 6.65522182,6.87222875 C13.1014036,5.28145375 9.72285818,1.23991625 12.3262036,0.84424125 C15.0829309,0.42837875 15.0829309,6.42406625 27.5400218,8.79004125 C30.89784,9.42796625 32.6016218,10.0860788 34.40904,11.6485913 C35.2630036,12.3874538 35.491019,13.4291288 35.491019,14.3214163 C35.4951491,15.3307913 34.6577673,16.1504038 33.6214036,16.1504038" id="Fill-61" fill="#FF5959" mask="url(#mask-6)"></path>
                </g>
                <path d="M277.568777,45.9078217 C276.252446,47.398094 276.395971,49.6703498 277.888633,50.9845735 C278.729281,51.7256155 279.869281,52.0163004 280.972374,51.8156869 C285.196115,51.0377975 289.723309,52.1350309 293.192518,55.1892703 C299.429712,60.6795317 299.806978,70.3335485 293.836331,76.2905435 C288.599712,81.518779 280.078417,81.9036296 274.374317,77.1912575 C270.659065,74.1165474 268.883453,69.6088831 269.145899,65.1749136 C269.211511,64.0694918 268.768633,62.9927291 267.936187,62.2598754 C266.439424,60.9456518 264.163525,61.0889472 262.847194,62.5792195 L243.5,84.4870412 L265.44295,103.803263 C266.935612,105.117487 267.079137,107.389742 265.762806,108.884109 C265.028777,109.715222 263.950288,110.157391 262.838993,110.091885 C258.402014,109.829859 253.887122,111.602628 250.807482,115.311932 C246.083453,121.006901 246.473022,129.514554 251.70554,134.74279 C257.676187,140.703879 267.345683,140.327217 272.844748,134.100008 C275.903885,130.636353 277.002878,126.116406 276.223741,121.899427 C276.018705,120.798099 276.309856,119.659924 277.052086,118.820622 C278.368417,117.33035 280.644317,117.187055 282.141079,118.501278 L304.084029,137.8175 L357.5,77.3304588 L296.915971,24 L277.568777,45.9078217 Z" id="Fill-64" fill="#2E66FF"></path>
                <path d="M337.618712,94 C338.642147,93.1927537 339.673971,92.3896901 340.7016,91.5866264 C342.421307,90.2398217 343.901932,88.7257122 345.5,87.3370813 C343.327298,85.5176402 340.764516,83.6731033 338.302401,82.2635593 C331.566186,78.415546 328.353271,84.221027 332.06532,88.1401449 C333.12231,89.2569053 335.3789,91.6368179 337.618712,94" id="Fill-66" fill="#FF9393"></path>
                <path d="M380.381923,63.2111989 C377.817623,65.0294695 373.290475,72.3679278 367.05244,95.4293191 C358.949089,91.5884779 349.911049,86.7710823 345.351391,84.3235676 C342.787091,86.1581821 338.007983,92.5364302 337.5,94.1544867 C342.750516,102.796379 353.158079,114.670299 363.423406,121.064891 C366.385965,122.907678 373.095409,124.08036 375.749115,121.530695 C378.419075,118.964687 389.879179,101.999609 392.923016,86.5872123 C395.629551,72.8745919 388.371485,57.5398291 380.381923,63.2111989" id="Fill-68" fill="#121A36"></path>
            </g>
        </g>
    </g>
</svg>