<?xml version="1.0" encoding="UTF-8"?>
<svg width="320px" height="363px" viewBox="0 0 320 363" version="1.1" xmlns="http://www.w3.org/2000/svg" xmlns:xlink="http://www.w3.org/1999/xlink">
    <title>Group 16</title>
    <defs>
        <polygon id="path-1" points="0 363 170 363 170 0 0 0"></polygon>
    </defs>
    <g id="Page-1" stroke="none" stroke-width="1" fill="none" fill-rule="evenodd">
        <g id="V7:-About-us" transform="translate(-938.000000, -3577.000000)">
            <g id="Group-16" transform="translate(938.000000, 3577.000000)">
                <path d="M186,107.901268 L182.502189,116 C182.502189,116 175.314756,115.016867 173.253329,112.904154 C171.412376,111.01865 171.251431,108.073558 175.162629,106.385111 C178.435557,104.972329 186,107.901268 186,107.901268" id="Fill-5" fill="#F5F5F8"></path>
                <path d="M233.398725,81.1282723 C223.05535,93.9392929 214.870349,106.858081 214.870349,106.858081 L182.480168,106.055934 L180,119.690211 C180,119.690211 216.505107,135.106543 226.503142,131.434665 C230.458852,129.981468 241.070202,123.235434 250.852961,108.54459 C260.560597,93.9704011 259.262209,86.5255439 253.578678,79.2073414 C248.197881,72.2791024 238.666278,74.6044398 233.398725,81.1282723" id="Fill-7" fill="#030409"></path>
                <path d="M264.155875,301.654131 C265.380283,302.996994 266.99051,313.773017 265.20553,314.276591 C260.096831,315.717657 227.48377,317 227.48377,317 C227.48377,317 225.168855,311.917444 230.666777,311.917444 C236.163565,311.917444 246.870045,303.693548 250.438871,301.110591 C253.356344,298.998093 262.930332,300.311267 264.155875,301.654131" id="Fill-9" fill="#C0C0C4"></path>
                <path d="M298.478544,301.702038 C298.478544,301.702038 291.258989,300.35215 287.06517,301.396033 C284.677085,301.990723 277.950722,310.011529 267.209984,311.406452 C258.049264,312.595831 263.756515,317 263.756515,317 L299.150052,315.233252 C299.150052,315.233252 301.452364,310.632778 298.478544,301.702038" id="Fill-11" fill="#C0C0C4"></path>
                <path d="M262.87046,286.852927 C262.87046,286.852927 261.171764,297.751489 262.87046,301.385073 C264.569155,305.018658 249,301.385073 249,301.385073 C249,301.385073 257.060477,295.522013 253.81186,286.852927 C250.564354,278.183841 262.87046,286.852927 262.87046,286.852927" id="Fill-13" fill="#F5F5F8"></path>
                <path d="M270,149.32621 L234,144 C234,144 237.223847,183.568851 239.308751,196.123889 C241.394769,208.680047 246.325359,231.699482 247.841349,240.639547 C249.358453,249.58073 251.63411,289.150701 250.306644,291.433842 C248.979177,293.715864 255.805032,294.339251 259.02888,293.837856 C262.252727,293.335341 266.044373,291.242461 266.044373,291.242461 C266.044373,291.242461 270.595687,255.098322 268.509668,239.688238 C266.423649,224.279273 270,205.256454 270,205.256454 L270,149.32621 Z" id="Fill-15" fill="#F05555"></path>
                <path d="M297.494873,287 L287.147833,287 C287.147833,287 288.845285,296.798281 285.078193,302.195896 C283.969747,303.784513 294.983478,305.266934 296.755136,304.95918 C299.417261,304.496465 298.972027,302.195896 298.972027,302.195896 C298.972027,302.195896 296.312221,293.630798 297.494873,287" id="Fill-17" fill="#F5F5F8"></path>
                <path d="M295.739919,144 C294.972964,144.761873 255.096914,146.857023 255.001045,146.857023 C254.905175,146.857023 261.42317,192.943597 267.750553,207.797873 C274.075681,222.65327 274.652025,233.888651 277.526981,247.029834 C280.403064,260.171017 283.087409,287.213015 283.087409,289.87957 C283.087409,292.546124 282.89567,293.878281 282.89567,293.878281 C282.89567,293.878281 297.082092,294.449685 298.616003,293.116408 C300.149914,291.784251 303.983564,261.693642 300.724003,239.221759 C297.465569,216.749877 300.368722,216.915696 299.979605,194.467342 C299.591615,172.018988 299.979605,148.1903 299.979605,148.1903 L295.739919,144 Z" id="Fill-19" fill="#FF6C6C"></path>
                <path d="M257.284283,168.933244 C241.607142,168.419552 236.56594,164.55627 232.992614,163.490999 C230.925262,148.716483 226.747977,88.8540096 234.500829,79.1584774 C239.700023,72.6565317 250.428966,68.6294482 254.615214,67.5229474 L266.939771,63 L277.139829,67.0816842 C284.279758,67.08837 296.143783,73.8332334 301.441584,80.7296417 C306.42676,87.2182159 302.615885,153.197087 302.472458,163.490999 C291.188861,166.911902 273.014089,169.449166 257.284283,168.933244" id="Fill-21" fill="#121A36"></path>
                <path d="M275.992003,39.4393888 C275.992003,39.4393888 274.868294,32.5937051 270.093633,30.9784817 C265.31787,29.3621397 261.105064,29.6473765 258.483077,32.5937051 C255.862191,35.5411522 253.240204,42.7660331 253.052919,46.093796 C252.865634,49.4215589 253.052919,54.9350189 255.674906,56.9316766 C258.295792,58.9272158 259.606785,58.8321368 260.074997,58.8321368 C260.54321,58.8321368 259.466873,64.4798259 255.11195,66.2482942 C253.634603,66.8478508 257.640295,71.4765173 262.040386,71.951912 C266.441579,72.4273067 275.617433,69.2897017 275.992003,66.438452 C276.131916,65.3724493 270.37456,62.0513979 273.744585,49.9920325 C276.256405,41.0009205 275.992003,39.4393888 275.992003,39.4393888" id="Fill-23" fill="#F5F5F8"></path>
                <path d="M265.593716,40.194939 C264.274099,42.6344017 263.828844,44.9673666 264.417135,45.4388407 C265.005425,45.9103149 266.509603,46.7911395 266.999845,45.6596016 C267.490088,44.5280636 267.493548,42.6776663 269.515652,42.3171273 C270.831808,42.0819449 272.750097,42.8640373 273.14229,44.0421679 C273.490651,45.0893952 272.195258,48.5073053 271.606967,49.3559588 C271.018677,50.2035029 270.69108,50.8125365 270.69108,50.8125365 C270.69108,50.8125365 272.554,56.0930468 274.613017,55.998752 C276.672033,55.9044572 280.838514,44.0421679 281.574454,39.1221967 C282.313855,34.172273 282.334618,32.5237775 279.612332,29.5995285 C277.945509,27.8079268 271.084427,23 263.142505,23 C255.201737,23 252.640943,26.6885918 252.211837,28.8451699 C251.639696,31.7250449 252.168004,34.1855852 254.516552,35.6332881 C256.86856,37.0832097 259.867688,37.8031785 261.770981,37.0477105 C264.882,35.8118936 267.13596,37.3427978 265.593716,40.194939" id="Fill-25" fill="#F05555"></path>
                <path d="M288,168.655478 C289.938818,165.144644 292.426292,162 292.426292,162 L302,167.94141 C302,167.94141 298.833072,173.433094 295.698553,177 C292.132286,175.261749 289.334601,172.507324 288,168.655478" id="Fill-27" fill="#545A6E"></path>
                <path d="M297.797801,78.0586561 C307.372542,79.223274 317.488166,100.498368 319.836041,126.483005 C322.185021,152.466531 298.517507,173 298.517507,173 L287.768277,166.276524 C287.768277,166.276524 291.833734,145.016973 298.608023,129.752595 C298.608023,129.752595 293.821756,121.287188 288.853356,105.114652 C283.892682,88.965431 289.575269,77.0583503 297.797801,78.0586561" id="Fill-29" fill="#080B17"></path>
                <path d="M62,186 L59.8844103,186 L59.8844103,179.950223 L48.1155897,179.950223 L48.1155897,186 L46,186 L46,179.645271 C46,178.737752 46.8007393,178 47.7857397,178 L60.2142603,178 C61.1992607,178 62,178.737752 62,179.645271 L62,186 Z" id="Fill-61" fill="#8C7D31"></path>
                <path d="M118.000998,289.691482 C117.879121,289.443327 128.961807,285 128.961807,285 C128.961807,285 129.473691,303.148893 133,307.593338 L123.641003,310 C123.641003,310 120.283001,294.361726 118.000998,289.691482" id="Fill-63" fill="#F05555"></path>
                <path d="M88,153.1388 C89.6571379,153.1388 120.789984,149 120.789984,149 L133,296.221422 C133,296.221422 131.993359,297.754186 126.102936,298.770439 C123.109977,299.286951 118.648624,298.770439 118.648624,298.770439 L88,153.1388 Z" id="Fill-65" fill="#464C62"></path>
                <path d="M122.828636,317 L152.145411,317 C152.145411,317 153.518315,316.150308 152.783863,314.830209 C151.553223,312.617137 147.569833,312.445148 141.542702,310.11248 C133.841945,307.130584 132.026056,301.369533 130.826644,302.056349 C128.676493,303.286467 130.876378,308.315142 126.555257,308.315142 C123.137453,308.315142 123.53186,304.892454 122.382182,305.52118 C121.913752,305.776316 121.690525,313.430381 122.828636,317" id="Fill-67" fill="#FFE359"></path>
                <path d="M74.9990021,289.691482 C75.1208792,289.443327 64.0381929,285 64.0381929,285 C64.0381929,285 63.5263093,303.148893 60,307.593338 L69.3589966,310 C69.3589966,310 72.7169995,294.361726 74.9990021,289.691482" id="Fill-69" fill="#F05555"></path>
                <path d="M70.1711753,317 L40.8540322,317 C40.8540322,317 39.4811104,316.150308 40.2167281,314.830209 C41.4473842,312.617137 45.4308237,312.445148 51.4568748,310.11248 C59.1588851,307.130584 60.9736402,301.369533 62.1730672,302.056349 C64.3232455,303.286467 62.1233321,308.315142 66.4456646,308.315142 C69.8623546,308.315142 69.4690998,304.892454 70.6187917,305.52118 C71.0860709,305.776316 71.3093008,313.430381 70.1711753,317" id="Fill-71" fill="#FFE359"></path>
                <path d="M65.6582642,148.481663 C68.2850881,146.282042 94.4295678,152.329601 94.4295678,152.329601 C94.4295678,152.329601 94.8354099,157.93992 94.9836983,167.990856 C95.0584,173.123677 94.8521341,186.672536 94.8521341,186.672536 C87.1288704,229.57129 74.7651817,297.486677 73.7873699,298.171053 C72.5676138,299.024287 70.1336764,299.176371 66.115394,298.820763 C63.1117167,298.556854 61,296.613315 61,296.613315 C61,296.613315 61.0401382,152.348612 65.6582642,148.481663" id="Fill-73" fill="#121A36"></path>
                <path d="M64,155.240135 C64,155.240135 83.5861389,158.673501 94.532321,158.343 C111.137815,157.84068 123,154 123,154 L122.351304,157.158454 C122.351304,157.158454 109.323703,160.884924 93.2662458,160.997112 C77.2076699,161.1093 64.7527108,157.915472 64.7527108,157.915472 L64,155.240135 Z" id="Fill-75" fill="#DE4E4E"></path>
                <mask id="mask-2" fill="white">
                    <use xlink:href="#path-1"></use>
                </mask>
                <g id="Clip-78"></g>
                <polygon id="Fill-77" fill="#FF7979" mask="url(#mask-2)" points="20 229 88 229 88 185 20 185"></polygon>
                <polygon id="Fill-79" fill="#FFE359" mask="url(#mask-2)" points="20 184 87 184 87 197.524961 53.4219925 206 20 197.524961"></polygon>
                <polygon id="Fill-80" fill="#FFE359" mask="url(#mask-2)" points="51 210 57 210 57 206 51 206"></polygon>
                <polygon id="Fill-81" fill="#FFEA83" mask="url(#mask-2)" points="51 209 57 209 57 205 51 205"></polygon>
                <path d="M89.3800168,89.4599269 C79.6041842,86.5124551 72,80.6597612 72,80.6597612 C73.2133005,80.0871667 79.5495515,76.6960732 76.3455733,65.6455557 C73.5388201,55.9625939 73.5797946,48.3865574 78.6481125,41.9034537 C82.2868757,37.248205 91.2011057,35.0734578 96.8737975,36.3698562 C102.546489,37.6673664 107.825371,42.7506712 109.052329,50.083216 C109.49622,52.7393873 110.379448,59.0434858 107.241484,66.5883909 C104.10352,74.133296 114,82.3297358 114,82.3297358 C114,82.3297358 99.1558494,92.4073986 89.3800168,89.4599269" id="Fill-118" fill="#FFED93" mask="url(#mask-2)"></path>
                <path d="M102.976135,48 C102.976135,48 104.986127,60.2040954 102.308386,65.9521447 C99.685729,71.582932 95.3948238,68.2984905 95.3948238,68.2984905 C95.3948238,68.2984905 96.7359424,75.9083502 100.728946,77.3918248 C101.469765,77.6661736 108.424922,84.2992189 102.856974,84.949691 C96.2266996,85.7251688 81,77.2789878 81,77.2789878 C86.0328486,76.3685481 84.6984748,73.4204051 84.8176354,70.0187015 C84.936796,66.616998 89.0332222,65.4676094 89.7650481,62.3358296 C90.8464866,57.7061941 89.3873315,53.7480493 89.3873315,53.7480493 C89.3873315,53.7480493 98.0883027,55.096562 102.976135,48" id="Fill-119" fill="#F05555" mask="url(#mask-2)"></path>
                <path d="M155,81.361952 L163.391478,84 C163.391478,84 167.263354,78.2365321 166.985756,75.4209645 C166.737144,72.9087939 164.606665,70.9238027 160.811715,72.6495078 C157.638851,74.0933335 155,81.361952 155,81.361952" id="Fill-120" fill="#F05555" mask="url(#mask-2)"></path>
                <path d="M104.336621,97.6084238 C102.216102,90.0620174 110.436605,80.0566201 119.931432,86.0715208 C128.629247,91.5803205 137.67359,101.504301 137.67359,101.504301 C137.67359,101.504301 154.63215,78.6659425 156.420674,79.00371 C157.545209,79.2171526 165,85.4752018 165,85.4752018 C165,85.4752018 160.551047,107.616022 150.467125,117.049305 C131.28297,134.994987 107.135661,107.570913 104.336621,97.6084238" id="Fill-121" fill="#BFC1C9" mask="url(#mask-2)"></path>
                <path d="M63.3036086,154.563671 C63.3036086,154.563671 79.7484565,159.794394 95.2686763,158.896301 C115.443609,157.730337 122.786509,153.19986 122.786509,153.19986 C122.786509,153.19986 123.266864,116.455867 122.786509,101.871865 C122.307281,87.2889748 118.543368,85.1793463 118.543368,85.1793463 C118.543368,85.1793463 102.83935,72.7961161 91.0153873,75.3458989 C79.1914245,77.8956817 59.9783305,84.4235258 57.7614784,92.0317486 C55.6088992,99.4165598 58.6466406,124.211919 59.2002898,124.734325 C59.7550666,125.255618 63.3036086,154.563671 63.3036086,154.563671" id="Fill-122" fill="#FFFFFF" mask="url(#mask-2)"></path>
                <path d="M49.104505,172.330989 L58.7710574,172 C58.7710574,172 59.5973136,178.541081 58.1104828,180.694128 C56.6236519,182.846097 53.3186269,184.006177 50.8398582,181.853129 C48.3610895,179.700082 49.104505,172.330989 49.104505,172.330989" id="Fill-123" fill="#C94747" mask="url(#mask-2)"></path>
                <path d="M64.3257758,85.0483943 C54.7516022,87.1777629 44.7523642,106.08109 43.312374,122.081039 C41.8723837,138.082107 42.0030853,141.049333 42.0030853,141.049333 C42.0030853,141.049333 46.1923545,172.01759 47.8948845,174.081991 C49.5974144,176.147512 59.264784,174.081991 59.264784,174.081991 C59.264784,174.081991 61.3798762,143.887745 60.3319907,137.823357 C59.2852416,131.758969 67.9729177,115.33225 69.1049069,112.661859 C70.3414574,109.741678 70.8063003,107.887861 71.8541859,101.177158 C72.900935,94.4675742 68.0968001,84.2094163 64.3257758,85.0483943" id="Fill-124" fill="#BFC1C9" mask="url(#mask-2)"></path>
            </g>
        </g>
    </g>
</svg>