<?xml version="1.0" encoding="UTF-8"?>
<svg width="288px" height="264px" viewBox="0 0 288 264" version="1.1" xmlns="http://www.w3.org/2000/svg" xmlns:xlink="http://www.w3.org/1999/xlink">
    <title>Group 66</title>
    <defs>
        <polygon id="path-1" points="0 0.684067188 28.0693248 0.684067188 28.0693248 14.4758 0 14.4758"></polygon>
        <polygon id="path-3" points="0.407390501 0.710116981 29.7774057 0.710116981 29.7774057 14 0.407390501 14"></polygon>
        <polygon id="path-5" points="0.673094296 0.709920237 30.496 0.709920237 30.496 14 0.673094296 14"></polygon>
    </defs>
    <g id="Page-1" stroke="none" stroke-width="1" fill="none" fill-rule="evenodd">
        <g id="Event-calendar" transform="translate(-283.000000, -683.000000)">
            <g id="Group-66" transform="translate(283.000000, 683.000000)">
                <path d="M104.1246,41.0141 L112.0076,43.5821 C112.0076,43.5821 115.6456,37.9721 115.3836,35.2311 C115.1506,32.7851 113.1486,30.8531 109.5846,32.5331 C106.6036,33.9391 104.1246,41.0141 104.1246,41.0141" id="Fill-1" fill="#F0F0F6"></path>
                <path d="M52.5426,53.4929 C49.7706,46.0539 58.2606,36.8999 67.1556,42.6249 C75.3046,47.8689 85.0766,57.2079 85.0766,57.2079 C85.0766,57.2079 104.5236,37.2799 106.1996,37.6029 C107.2516,37.8049 114.2376,43.7629 114.2376,43.7629 C114.2376,43.7629 106.5096,63.0249 97.0616,72.0039 C79.0886,89.0859 55.9786,62.7129 52.5426,53.4929" id="Fill-3" fill="#FFDEDF"></path>
                <path d="M72.6954,238.0449 C72.5854,237.8119 82.5844,233.6499 82.5844,233.6499 C82.5844,233.6499 83.0474,250.6519 86.2284,254.8159 L77.7844,257.0719 C77.7844,257.0719 74.7544,242.4209 72.6954,238.0449" id="Fill-5" fill="#F0F0F6"></path>
                <path d="M44.5426,109.3545 C46.0866,109.3545 75.1076,105.4775 75.1076,105.4775 L86.4896,243.3855 C86.4896,243.3855 85.5516,244.8215 80.0616,245.7735 C77.2716,246.2575 73.1116,245.7735 73.1116,245.7735 L44.5426,109.3545 Z" id="Fill-7" fill="#FF4852"></path>
                <path d="M76.9747,263.1728 L103.5197,263.1728 C103.5197,263.1728 104.7627,262.3918 104.0977,261.1778 C102.9837,259.1428 99.3757,258.9858 93.9197,256.8398 C86.9467,254.0988 85.3027,248.8018 84.2167,249.4328 C82.2697,250.5638 84.2617,255.1868 80.3487,255.1868 C77.2547,255.1868 77.6107,252.0398 76.5697,252.6188 C76.1467,252.8538 75.9447,259.8918 76.9747,263.1728" id="Fill-9" fill="#FF4852"></path>
                <path d="M31.5983,238.0449 C31.7083,237.8119 21.7093,233.6499 21.7093,233.6499 C21.7093,233.6499 21.2463,250.6519 18.0653,254.8159 L26.5093,257.0719 C26.5093,257.0719 29.5393,242.4209 31.5983,238.0449" id="Fill-11" fill="#F0F0F6"></path>
                <g id="Group-15" transform="translate(0.000000, 248.697000)">
                    <mask id="mask-2" fill="white">
                        <use xlink:href="#path-1"></use>
                    </mask>
                    <g id="Clip-14"></g>
                    <path d="M27.3185,14.4758 L0.7745,14.4758 C0.7745,14.4758 -0.4695,13.6948 0.1955,12.4808 C1.3105,10.4458 4.9175,10.2888 10.3745,8.1428 C17.3475,5.4018 18.9905,0.1048 20.0775,0.7358 C22.0245,1.8668 20.0315,6.4898 23.9455,6.4898 C27.0395,6.4898 26.6825,3.3428 27.7235,3.9218 C28.1475,4.1568 28.3495,11.1948 27.3185,14.4758" id="Fill-13" fill="#FF4852" mask="url(#mask-2)"></path>
                </g>
                <path d="M23.6949,104.979 C26.1629,102.919 50.7189,108.582 50.7189,108.582 C50.7189,108.582 51.1009,113.836 51.2399,123.249 C51.3099,128.056 51.1159,140.745 51.1159,140.745 C43.8619,180.92 32.2499,244.524 31.3309,245.165 C30.1849,245.964 27.8989,246.106 24.1239,245.774 C21.3039,245.526 19.3199,243.706 19.3199,243.706 C19.3199,243.706 19.3579,108.601 23.6949,104.979" id="Fill-16" fill="#FF4852"></path>
                <path d="M20.6671,121.7258 C20.6671,121.7258 35.9411,126.6538 50.3541,125.8088 C69.0921,124.7098 76.9791,119.9068 76.9791,119.9068 C76.9791,119.9068 81.1971,62.1198 71.2131,48.0668 C67.8131,43.2808 58.0981,34.0278 47.1161,36.4308 C36.1351,38.8328 18.2901,44.9838 16.2311,52.1518 C14.2321,59.1098 20.6921,82.8048 21.2071,83.2968 C21.7221,83.7878 20.6671,121.7258 20.6671,121.7258" id="Fill-18" fill="#FFDEDF"></path>
                <path d="M40.0665,22.2961 C40.0665,22.2961 39.5675,13.4381 44.5425,11.2071 C51.2675,8.1921 58.3405,13.5771 58.4415,24.7631 C58.5155,32.9991 52.4355,31.9691 52.4355,31.9691 C52.4355,31.9691 52.5295,36.0281 57.0575,37.1601 C57.0575,37.1601 55.8635,41.6501 51.1055,42.4361 C43.7065,43.6581 40.3435,38.5591 40.1285,38.2441 C39.9555,37.9891 43.1705,38.3181 43.3415,33.5131 C43.5135,28.7091 40.0665,22.2961 40.0665,22.2961" id="Fill-20" fill="#F0F0F6"></path>
                <path d="M90.4493,4.3762 C92.1403,4.2072 93.6483,5.4402 93.8173,7.1312 C93.9123,8.0862 93.5473,9.0192 92.8553,9.6842 C90.2123,12.2252 88.7193,15.9102 89.1123,19.8412 C89.8183,26.9052 96.3343,31.9842 103.4493,30.8162 C109.6863,29.7932 114.2013,24.0762 113.7673,17.7712 C113.4843,13.6572 111.2383,10.1782 108.0293,8.1492 C107.2263,7.6422 106.7003,6.7982 106.6053,5.8542 C106.4363,4.1622 107.6713,2.6542 109.3623,2.4852 L134.2163,0.0002 L136.7013,24.8542 C136.8703,26.5452 138.3783,27.7792 140.0703,27.6102 C141.0133,27.5162 141.8583,26.9892 142.3653,26.1882 C144.3943,22.9782 147.8733,20.7322 151.9873,20.4492 C158.2913,20.0152 164.0093,24.5302 165.0323,30.7662 C166.2003,37.8822 161.1213,44.3982 154.0573,45.1042 C150.1263,45.4972 146.4413,44.0042 143.9003,41.3612 C143.2353,40.6692 142.3023,40.3042 141.3473,40.3992 C139.6573,40.5682 138.4233,42.0762 138.5923,43.7672 L141.0773,68.6222 L72.4553,75.4832 L65.5943,6.8612 L90.4493,4.3762 Z" id="Fill-22" fill="#2062FF"></path>
                <path d="M66.3116,74.8762 C66.3116,74.8762 70.3206,75.4252 73.1766,73.3372 C76.0326,71.2502 79.6156,70.0592 79.6156,70.0592 C80.6466,71.2812 76.8526,73.6972 76.8526,73.6972 C76.8526,73.6972 75.6696,74.7332 80.5076,72.7762 C82.5976,71.9302 85.0706,72.0832 85.4706,74.3372 C85.8716,76.5912 83.4366,79.8952 79.6786,81.1632 C75.9116,82.4342 74.5196,81.9012 69.8256,82.4542 C66.7766,82.8132 66.3116,74.8762 66.3116,74.8762" id="Fill-24" fill="#F0F0F6"></path>
                <path d="M16.027,52.1172 C17.853,48.7752 26.715,38.1992 31.673,56.5902 C36.559,74.7132 34.146,77.6872 34.146,77.6872 C34.146,77.6872 68.261,70.7862 69.363,71.9322 C70.056,72.6522 71.685,84.3802 71.685,84.3802 C71.685,84.3802 57.874,93.3462 35.288,98.2022 C12.701,103.0602 11.951,59.5772 16.027,52.1172" id="Fill-26" fill="#FFDEDF"></path>
                <path d="M58.152,21.2077 C55.559,19.8237 54.845,29.4607 50.463,21.8457 C50.141,21.0737 49.24,18.4997 49.819,17.9207 C50.398,17.3417 54.701,14.8217 56.06,13.6097 C58.442,11.4867 56.692,5.7607 53.873,4.8587 C49.247,3.3787 39.355,8.1417 37.336,10.3797 C35.731,12.1597 34.252,14.8737 36.178,21.0737 C38.457,28.4107 40.32,31.9307 43.294,32.0787 C44.8,32.1537 46.409,26.4977 46.409,26.4977 C46.409,26.4977 44.028,24.9987 44.028,22.4887 C44.028,19.9797 45.19,19.6247 46.409,19.7217 C47.818,19.8347 47.993,21.6757 48.403,22.4337 C49.009,23.9287 50.562,27.7427 50.998,28.6147 C51.544,29.7067 51.936,31.5587 52.436,31.9687 C52.935,32.3797 55.159,33.9527 57.397,33.9527 C59.633,33.9527 62.566,31.3977 63.111,30.0067 C63.374,29.3357 60.274,22.3407 58.152,21.2077" id="Fill-28" fill="#FF4852"></path>
                <path d="M185.2325,66.8151 C186.3035,66.6131 187.3755,66.4141 188.4485,66.2141 C190.2425,65.8801 191.9235,65.3291 193.6475,64.9151 C192.7435,62.7251 191.5615,60.3661 190.2855,58.3711 C186.7915,52.9121 182.1645,55.9781 183.3945,60.3221 C183.7445,61.5581 184.4915,64.1961 185.2325,66.8151" id="Fill-30" fill="#2062FF"></path>
                <path d="M223.0499,53.1303 C221.0409,51.3203 211.8609,58.1653 201.4209,75.7813 C198.8559,70.8163 196.2579,66.0523 193.7229,61.8073 C191.1729,62.7333 185.4589,65.9573 183.4419,66.2703 C185.8329,74.6093 188.1659,88.3733 195.2319,96.0063 C197.2709,98.2093 200.9009,99.2583 204.0619,99.1813 C213.5709,98.9493 235.6919,64.5203 223.0499,53.1303" id="Fill-32" fill="#F0F0F6"></path>
                <path d="M224.2477,229.1389 L235.9087,213.8299 C235.9087,213.8299 229.7037,249.5939 232.1467,257.0519 L223.5477,256.3369 L221.5937,253.8449 C221.5937,253.8449 226.2027,251.5519 224.2477,229.1389" id="Fill-34" fill="#2062FF"></path>
                <g id="Group-38" transform="translate(203.000000, 249.697000)">
                    <mask id="mask-4" fill="white">
                        <use xlink:href="#path-3"></use>
                    </mask>
                    <g id="Clip-37"></g>
                    <path d="M1.9874,13.5632 L28.0504,14.0002 C28.9014,14.0002 29.6024,13.3402 29.6584,12.4912 C29.8364,9.8152 30.0114,4.4752 28.6174,4.0302 C28.0674,3.8552 26.9054,6.6142 24.3094,5.9562 C18.8674,4.5752 21.7204,1.0702 19.5214,0.7282 C17.1924,0.3652 17.1934,5.5642 6.6724,7.6172 C3.8364,8.1702 2.8484,8.3032 1.3204,9.6602 C0.6024,10.2992 0.4094,11.2022 0.407390501,11.9782 C0.4044,12.8532 1.1124,13.5632 1.9874,13.5632" id="Fill-36" fill="#F0F0F6" mask="url(#mask-4)"></path>
                </g>
                <path d="M266.2028,229.1389 L254.5418,213.8299 C254.5418,213.8299 260.7468,249.5939 258.3038,257.0519 L266.9028,256.3369 L268.8578,253.8449 C268.8578,253.8449 264.2488,251.5519 266.2028,229.1389" id="Fill-39" fill="#2062FF"></path>
                <path d="M234.0616,244.4655 C234.0616,244.4655 232.1096,244.8805 226.5046,244.8805 C223.2796,244.8805 219.8766,243.9915 219.8766,243.9915 C220.2286,233.7635 221.9006,192.9115 221.6846,182.4845 C221.5746,177.1885 216.3126,102.3035 218.8816,98.8775 C221.4506,95.4525 249.2416,102.3035 249.2416,102.1475 C249.2416,101.9915 240.7076,178.0795 240.2506,184.8975 C239.7446,192.4485 235.6966,236.5095 234.0616,244.4655" id="Fill-41" fill="#FF4852"></path>
                <path d="M270.4161,186.6882 C271.4631,178.5142 272.6391,98.7482 272.6391,98.7482 C272.6391,98.7482 250.6431,97.5542 245.4471,100.1842 C240.2501,102.8132 250.6691,184.2192 251.4211,188.1672 C252.3551,193.0712 254.3791,243.2042 254.3791,243.2042 C254.3791,243.2042 257.6731,244.3432 263.6041,243.8792 C267.4671,243.5772 270.0771,242.7292 270.0771,242.7292 L270.4161,186.6882 Z" id="Fill-43" fill="#FF4852"></path>
                <path d="M258.1266,48.9785 C258.1266,48.9785 232.6546,47.6795 232.4826,48.1735 C222.3586,77.2105 225.1836,124.0585 225.1836,124.0585 L262.6626,123.6255 L258.7006,48.9785 L258.1266,48.9785 Z" id="Fill-45" fill="#FFFFFF"></path>
                <path d="M244.1344,18.4299 C250.8164,18.1419 255.2614,23.3649 252.5424,29.4839 C249.9734,35.2649 251.4524,45.5209 256.0454,47.6219 C257.4624,48.2709 251.2004,53.6169 241.6104,51.8439 C235.9114,50.7909 235.0284,46.8179 235.0284,46.8179 C235.0284,46.8179 240.1644,46.6099 240.7874,42.4839 C240.9224,41.5869 237.1284,44.4309 234.7934,36.0229 C232.8814,29.1409 235.1044,18.8189 244.1344,18.4299" id="Fill-47" fill="#2062FF"></path>
                <path d="M249.7394,13.8371 C249.8954,13.5251 253.8244,9.0571 258.7294,10.7691 C263.6334,12.4821 265.6224,18.0611 264.7654,21.4091 C263.9094,24.7561 260.8804,27.3861 259.3264,26.7281 C259.3264,26.7281 260.4624,32.1071 257.0764,37.8141 C255.3904,40.6571 252.2794,40.9891 251.8264,40.997115 C251.3724,41.0061 250.5624,36.9621 249.8234,35.2951 C249.4354,34.4191 251.9984,35.1821 251.0184,31.2351 C250.1104,27.5771 246.6764,29.1371 246.8424,31.0761 C246.9314,32.1301 245.6774,31.5591 245.5354,30.9631 C244.6394,27.1751 242.9554,23.8281 239.5284,23.3611 C237.0304,23.0201 234.8734,25.3051 234.5414,27.4731 C234.2504,29.3681 232.2024,26.5901 232.5354,22.1671 C232.8334,18.2111 235.0424,14.8811 239.5574,13.4141 C246.3984,11.1911 249.7394,13.8371 249.7394,13.8371" id="Fill-49" fill="#F0F0F6"></path>
                <path d="M238.3805,45.9084 C238.1475,45.3194 222.0205,50.8384 220.1515,53.9564 C218.2835,57.0754 214.0945,124.8784 216.4295,127.7974 C218.7655,130.7174 227.3275,130.4534 227.3275,130.4534 C227.3275,130.4534 227.4025,109.9314 228.9235,80.9104 C230.4455,51.8894 238.5505,46.3364 238.3805,45.9084" id="Fill-51" fill="#FFDEDF"></path>
                <path d="M273.5299,53.8828 C273.5299,53.8828 260.3449,46.8168 255.0269,46.8178 C255.0269,46.8178 259.0139,79.3208 259.5799,98.7518 C260.1469,118.1818 260.4529,129.8168 260.4529,129.8168 C260.4529,129.8168 275.1629,129.0398 277.0309,127.8718 C278.8989,126.7038 276.7429,104.2378 273.5299,53.8828" id="Fill-53" fill="#FFDEDF"></path>
                <path d="M240.359,33.7653 C239.409,33.7653 238.608,32.6073 238.608,31.2353 C238.608,29.8643 239.409,28.7063 240.359,28.7063 C241.308,28.7063 242.11,29.8643 242.11,31.2353 C242.11,32.6073 241.308,33.7653 240.359,33.7653 M234.16,33.7653 C233.21,33.7653 232.408,32.6073 232.408,31.2353 C232.408,29.8643 233.21,28.7063 234.16,28.7063 C235.109,28.7063 235.911,29.8643 235.911,31.2353 C235.911,32.6073 235.109,33.7653 234.16,33.7653 M248.235,28.5673 C248.126,28.3343 247.847,28.2343 247.613,28.3443 L242.987,30.5263 C242.733,28.9553 241.651,27.7713 240.359,27.7713 C239.002,27.7713 237.889,29.0803 237.71,30.7683 L236.809,30.7683 C236.63,29.0803 235.517,27.7713 234.16,27.7713 C232.679,27.7713 231.474,29.3253 231.474,31.2353 C231.474,33.1463 232.679,34.7003 234.16,34.7003 C235.517,34.7003 236.63,33.3903 236.809,31.7033 L237.71,31.7033 C237.889,33.3903 239.002,34.7003 240.359,34.7003 C241.758,34.7003 242.898,33.3073 243.021,31.5433 L248.012,29.1893 C248.245,29.0793 248.345,28.8003 248.235,28.5673" id="Fill-55" fill="#0E1011"></path>
                <g id="Group-59" transform="translate(257.000000, 249.697000)">
                    <mask id="mask-6" fill="white">
                        <use xlink:href="#path-5"></use>
                    </mask>
                    <g id="Clip-58"></g>
                    <path d="M28.9161,14 L2.4001,14 C1.5501,14 0.8481,13.34 0.7921,12.492 C0.6141,9.816 0.4391,4.475 1.8331,4.03 C2.3841,3.855 3.5451,6.614 6.1411,5.956 C11.5831,4.576 8.7301,1.07 10.9291,0.728 C13.2581,0.365 13.2581,5.565 23.7791,7.617 C26.6141,8.17 28.0551,8.74 29.5831,10.097 C30.3021,10.736 30.4941,11.639 30.4961095,12.415 C30.4991,13.29 29.7911,14 28.9161,14" id="Fill-57" fill="#F0F0F6" mask="url(#mask-6)"></path>
                </g>
                <path d="M178.9406,38.6936 C177.8166,39.9686 177.9386,41.9126 179.2136,43.0366 C179.9326,43.6706 180.9046,43.9186 181.8476,43.7446 C185.4536,43.0796 189.3176,44.0176 192.2806,46.6306 C197.6056,51.3256 197.9296,59.5806 192.8296,64.6786 C188.3586,69.1466 181.0816,69.4776 176.2136,65.4456 C173.0396,62.8166 171.5236,58.9626 171.7476,55.1716 C171.8036,54.2246 171.4256,53.3046 170.7146,52.6776 C169.4396,51.5536 167.4946,51.6756 166.3706,52.9506 L149.8506,71.6856 L168.5866,88.2046 C169.8616,89.3286 169.9836,91.2746 168.8586,92.5496 C168.2326,93.2606 167.3116,93.6386 166.3646,93.5826 C162.5736,93.3586 158.7206,94.8736 156.0906,98.0486 C152.0596,102.9166 152.3906,110.1936 156.8576,114.6636 C161.9556,119.7636 170.2116,119.4406 174.9056,114.1156 C177.5196,111.1526 178.4566,107.2886 177.7916,103.6826 C177.6176,102.7396 177.8656,101.7676 178.5006,101.0486 C179.6246,99.7736 181.5686,99.6516 182.8426,100.7756 L201.5796,117.2956 L247.1886,65.5666 L195.4606,19.9576 L178.9406,38.6936 Z" id="Fill-60" fill="#FFDEDF"></path>
                <path d="M231.1725,79.0315 C232.0285,78.3565 232.8855,77.6835 233.7445,77.0105 C235.1815,75.8845 236.4165,74.6175 237.7525,73.4525 C235.9385,71.9295 233.7975,70.3855 231.7435,69.2085 C226.1195,65.9865 223.4375,70.8445 226.5385,74.1265 C227.4205,75.0605 229.3035,77.0535 231.1725,79.0315" id="Fill-62" fill="#2062FF"></path>
                <path d="M266.944,53.2397 C264.735,54.7987 260.834,61.0887 255.46,80.8477 C248.476,77.5547 240.692,73.4277 236.763,71.3327 C234.551,72.9037 230.434,78.3707 229.998,79.7567 C234.522,87.1587 243.489,97.3367 252.332,102.8137 C254.884,104.3937 260.667,105.4007 262.952,103.2147 C265.251,101.0147 275.127,86.4797 277.749,73.2727 C280.081,61.5217 273.829,48.3807 266.944,53.2397" id="Fill-64" fill="#F0F0F6"></path>
            </g>
        </g>
    </g>
</svg>