<?xml version="1.0" encoding="UTF-8"?>
<svg width="429px" height="332px" viewBox="0 0 429 332" version="1.1" xmlns="http://www.w3.org/2000/svg" xmlns:xlink="http://www.w3.org/1999/xlink">
    <title>characters/@clock people</title>
    <defs>
        <polygon id="path-1" points="0.677514026 0.152553286 37.9136525 0.152553286 37.9136525 16 0.677514026 16"></polygon>
        <polygon id="path-3" points="0.332685542 0.544389176 62.2895422 0.544389176 62.2895422 72.8452253 0.332685542 72.8452253"></polygon>
    </defs>
    <g id="Page-1" stroke="none" stroke-width="1" fill="none" fill-rule="evenodd">
        <g id="V7:-Wyred-World-On-Demand" transform="translate(-179.000000, -1601.000000)">
            <g id="characters/@clock-people" transform="translate(179.000000, 1606.000000)">
                <g id="Group-72" transform="translate(69.000000, 0.000000)">
                    <polygon id="Fill-1" fill="#EAEAED" points="286.53833 95 30 237.534831 57.1876048 265.451685 97.5396286 287.947676 148.717206 297 201.546818 287.320342 244.465135 262.004521 270.246327 233.8144 291.166027 190.228701 297 139.857618"></polygon>
                    <line x1="148.5" y1="19" x2="148.5" y2="45" id="Stroke-2" stroke="#C8CAD1" stroke-width="5"></line>
                    <line x1="148.5" y1="279" x2="148.5" y2="253" id="Stroke-3" stroke="#C8CAD1" stroke-width="5"></line>
                    <line x1="278" y1="148.5" x2="252" y2="148.5" id="Stroke-4" stroke="#C8CAD1" stroke-width="5"></line>
                    <line x1="19" y1="148.5" x2="45" y2="148.5" id="Stroke-5" stroke="#C8CAD1" stroke-width="5"></line>
                    <line x1="216" y1="38" x2="203" y2="60" id="Stroke-6" stroke="#C8CAD1" stroke-width="5"></line>
                    <line x1="82" y1="260" x2="95" y2="238" id="Stroke-7" stroke="#C8CAD1" stroke-width="5"></line>
                    <line x1="211" y1="263" x2="198" y2="240" id="Stroke-8" stroke="#C8CAD1" stroke-width="5"></line>
                    <line x1="86" y1="35" x2="99" y2="58" id="Stroke-9" stroke="#C8CAD1" stroke-width="5"></line>
                    <line x1="148.5" y1="66" x2="148.5" y2="161" id="Stroke-10" stroke="#121A36" stroke-width="5"></line>
                    <line x1="65" y1="195" x2="159" y2="143" id="Stroke-11" stroke="#121A36" stroke-width="5"></line>
                    <g id="Group-71" stroke="#121A36" stroke-width="9.76">
                        <path d="M296.597135,148.805502 C296.597135,66.9906362 230.311441,0.66590114 148.544734,0.66590114 C66.7780262,0.66590114 0.492331878,66.9906362 0.492331878,148.805502 C0.492331878,230.620368 66.7780262,296.945103 148.544734,296.945103 C230.311441,296.945103 296.597135,230.620368 296.597135,148.805502 Z" id="Stroke-12"></path>
                    </g>
                </g>
                <g id="Group-14" transform="translate(55.500000, 188.000000) scale(-1, 1) translate(-55.500000, -188.000000) translate(0.000000, 49.000000)">
                    <path d="M24.9578031,65 C24.9578031,65.5472298 18.2858056,73.6374961 18.0070459,89.5405599 C17.7282861,105.443624 25.7914771,102.702336 29.6836927,99.6861494 C33.5785136,96.6699625 39,71.8545031 39,71.8545031 L24.9578031,65 Z" id="Fill-39" fill="#FF5959"></path>
                    <path d="M77.8373525,232.810048 C77.8373525,232.810048 81.8797481,253.783158 77.7797216,260.997783 C73.6796951,268.212409 67,269.436945 67,269.436945 C67,269.436945 70.5154846,271.65463 75.7873393,271.932815 C81.0591939,272.211001 88.9683481,271.65463 89.5528901,269.712531 C90.1401763,267.770432 88.9683481,263.610648 89.5528901,256.396022 C90.1401763,249.181397 94.5311016,234.473961 93.9465597,231.143534 C93.3620178,227.815707 77.8373525,232.810048 77.8373525,232.810048" id="Fill-41" fill="#FF7979"></path>
                    <path d="M53.9059095,231.453178 L65.7943357,231.450546 C67.2543636,241.743331 60.4044647,258.940968 62.0700936,266.809289 C63.7357225,274.674977 45.6818668,269.054748 45.6818668,269.054748 L45,265.682611 C45,265.682611 51.5766316,262.5 52.5343682,253.905138 C53.0756976,249.058842 51.6547079,233.561751 50.8218935,231.876999 C49.989079,230.192246 53.9059095,231.453178 53.9059095,231.453178" id="Fill-42" fill="#FF7979"></path>
                    <path d="M37,127 C37,127 68.1259744,133.955017 68.6718194,135.625994 C69.2176643,137.294364 68.917834,188.831355 68.917834,188.831355 C68.917834,188.831355 65.4377522,256.436833 63.7976548,258.152126 C61.2350025,260.831946 49.8183866,260.266264 48.7241341,258.548364 C47.6298816,256.833071 42.4148842,201.563103 41.5948355,197.389571 C40.7747868,193.216039 40.1674382,184.032184 38.4658371,166.759341 C37.235764,154.256994 37,127 37,127" id="Fill-43" fill="#FAE271"></path>
                    <path d="M60.1252572,129.208102 L95.5486168,125 C95.5486168,125 97.9076211,151.155417 96.6106793,169.11016 C95.3290558,186.825717 94.7290926,194.290432 95.5486168,202.704008 C96.365588,211.12284 93.1972716,258.807652 91.9973452,259.441102 C89.2119841,260.913017 87.9201485,260.981356 83.0872533,261 C77.7820468,261.020783 75.2826256,259.680288 75.2826256,259.680288 C75.2826256,259.680288 75.4970805,225.439849 73.2044551,211.12284 C71.0599058,197.728407 65.3794031,178.107245 64.0824614,170.345518 C58.9049065,139.369577 60.1252572,129.208102 60.1252572,129.208102" id="Fill-44" fill="#FFED93"></path>
                    <path d="M87,78.1226185 L105.171636,73 C105.171636,73 110.151295,99.5902089 110.421157,104.955131 C110.688178,110.320054 111.404022,142.135597 110.6967,145.859701 C110.148455,148.746277 107.06919,151.775074 104.935862,144.400611 C102.805375,137.023513 100.294241,124.760834 98.9989044,116.093205 C98.2830607,111.286635 95.0106322,98.8870011 92.4142784,92.429078 C89.8207652,85.9685211 87,78.1226185 87,78.1226185" id="Fill-45" fill="#FF5959"></path>
                    <path d="M22,71.126936 L39.7409981,77.7245901 C39.7409981,77.7245901 36.7518712,109.28499 36.5090207,133.416785 C36.5090207,133.416785 44.4223275,134.968246 60.9800757,135 C84.4228916,135.039245 98.3919577,129.204173 98.3919577,129.204173 C94.2092468,109.411211 91.1762,81.3455426 91.7290723,80.5040721 C92.3801181,79.5100852 108.229983,77.0356362 107.997467,75.5919885 C105.561212,60.5770005 100.879883,54.2344171 95.9789546,48.0312023 C91.7962437,42.7351978 74.0888312,37.765263 70.7560968,37.3655646 C59.9957564,36.0718038 51.1937205,38.6277702 51.1937205,38.6277702 C51.1937205,38.6277702 46.8301635,39.4508335 40.7175668,43.1454146 C31.2050643,48.8989687 24.2063219,64.1111763 22,71.126936" id="Fill-46" fill="#121A36"></path>
                    <path d="M4.76026979,63.5152313 C1.63513213,61.0948961 -1.73665788,60.5421194 1.01850127,69.8489152 C5.20109526,83.983466 14.6972105,99.2261532 20.0842026,101.819554 C23.6396699,103.529545 30.1287257,104.260554 30.9447776,97.7150581 C32.1754153,87.8529026 12.5088269,69.5156994 4.76026979,63.5152313" id="Fill-47" fill="#FF5959"></path>
                    <path d="M45.1744851,265.845836 C45.1744851,265.845836 28.6643683,271.334474 28.1110001,272.768949 C27.5576319,274.203424 29.07225,275.713655 32.6782362,275.975135 C36.2816244,276.234171 61.3728452,274.413586 63.588916,273.106185 C64.9112841,272.324189 62.6926154,264.68506 61.8612641,265.010078 C60.6791865,265.471944 62.6224701,267.888802 56.1067545,268.150282 C49.5910388,268.411762 47.8348092,268.670799 45.9850526,266.715808 C44.5795493,265.22757 45.1744851,265.845836 45.1744851,265.845836" id="Fill-48" fill="#FF5959"></path>
                    <path d="M72.652174,266.922882 C72.652174,266.922882 55.682853,272.910405 55.1140937,274.475265 C54.5453344,276.040126 56.1020794,277.687628 59.8056904,277.972875 C63.5119717,278.255456 89.3010672,276.26939 91.5761044,274.843154 C92.9379225,273.987413 90.6575448,265.653932 89.8004005,266.011157 C88.5881154,266.515005 90.5854485,269.151541 83.888508,269.436788 C77.1915675,269.71937 75.386491,270.004617 73.4852862,267.871928 C72.040691,266.248419 72.652174,266.922882 72.652174,266.922882" id="Fill-50" fill="#FF5959"></path>
                    <path d="M41.0825798,35 L61.8714036,34.1392615 L84.7841866,33.8238356 C84.7841866,33.8238356 88.3521325,4.78594109 66.4733153,0.431459806 C59.8875137,-0.878359611 54.2159823,1.0302344 51.4273308,2.99763662 C48.6284925,4.97038505 45.6055433,7.49913845 43.1785252,13.7354827 C40.7515071,19.971827 40.9195902,28.3145748 41.0825798,35" id="Fill-40" fill="#121A36"></path>
                    <path d="M51.9834569,12.4391759 C51.2431883,12.676825 49.4909421,16.7978756 50.1424894,21.853319 C50.7302682,26.4064588 53.730158,29.1394229 57.5618102,29.2501458 C60.0182819,29.3230608 59.5469498,38.5643683 52.6460943,39.2314059 C52.6460943,39.2314059 53.8077891,42.9770791 59.5913105,44.5569051 C67.1409408,46.620131 75.0343662,40.8949493 72.5252162,39.3394282 C69.5807772,37.5138514 69.8829842,32.6987576 69.8829842,32.6987576 C69.733267,32.6771531 66.9939961,32.7851754 66.9939961,32.7851754 C66.3729468,32.2288606 66.8082358,25.4234559 66.3091784,21.499546 C65.6409959,16.2415608 64.0856001,12.0016856 64.0856001,12.0016856 C63.2427476,11.9773806 52.659957,12.2204308 51.9834569,12.4391759" id="Fill-49" fill="#FF5959"></path>
                </g>
                <g id="Group-35" transform="translate(265.500000, 49.000000)">
                    <path d="M53.5,85.9181822 L51.3325197,94 C51.3325197,94 44.9508416,93.8843139 42.9186987,92.113653 C41.1058718,90.5338374 40.6422545,87.7573705 43.8730008,85.7103893 C46.5748902,83.9986767 53.5,85.9181822 53.5,85.9181822" id="Fill-1" fill="#FF5959"></path>
                    <path d="M95.179418,54.9979096 C86.9516087,67.8859668 82.7173212,82.2111683 82.7173212,82.2111683 L50.2450827,83.5000475 L49.5,96.266997 C49.5,96.266997 85.5806869,106.329209 94.5467433,101.851895 C98.0929116,100.080787 107.277708,92.7203775 114.760434,78.1735123 C122.185438,63.7411488 120.101333,57.0648137 113.912058,50.9925489 C108.053171,45.2439718 99.3696538,48.4353422 95.179418,54.9979096" id="Fill-3" fill="#121A36"></path>
                    <g id="Group-7" transform="translate(87.500000, 259.000000)">
                        <mask id="mask-2" fill="white">
                            <use xlink:href="#path-1"></use>
                        </mask>
                        <g id="Clip-6"></g>
                        <path d="M36.1529673,1.69462857 C37.3224367,2.9464381 38.8587224,12.9913905 37.155702,13.4607238 C32.2777429,14.8047238 1.13945714,16.0001524 1.13945714,16.0001524 C1.13945714,16.0001524 -1.07074694,11.2611048 4.17790612,11.2611048 C9.42655918,11.2611048 19.6485592,3.59634286 23.0553755,1.1879619 C25.8425592,-0.781561905 34.983498,0.442819048 36.1529673,1.69462857" id="Fill-5" fill="#F0F0F5" mask="url(#mask-2)"></path>
                    </g>
                    <path d="M155.518751,261.614745 C155.518751,261.614745 148.488463,260.433013 144.404635,261.346433 C142.079559,261.867147 135.529861,268.885221 125.072524,270.106007 C116.153702,271.146713 121.709973,275 121.709973,275 L156.172384,273.454491 C156.172384,273.454491 158.414084,269.429078 155.518751,261.614745" id="Fill-8" fill="#F0F0F5"></path>
                    <path d="M123.389019,247.660092 C123.389019,247.660092 121.933374,258.014288 123.389019,261.465935 C124.844664,264.917582 111.5,261.465935 111.5,261.465935 C111.5,261.465935 118.408355,255.8953 115.625123,247.660092 C112.84121,239.424885 123.389019,247.660092 123.389019,247.660092" id="Fill-10" fill="#FF5959"></path>
                    <path d="M130.5,117.971325 L96.5,113 C96.5,113 99.5442921,149.930909 101.513995,161.649299 C103.484452,173.368437 108.140251,194.852276 109.573037,203.197133 C111.005068,211.541991 113.154246,248.4729 111.900936,250.603788 C110.647626,252.734676 117.094406,253.317119 120.138699,252.848324 C123.182991,252.379528 126.7642,250.426588 126.7642,250.426588 C126.7642,250.426588 131.062557,216.691263 129.0921,202.309637 C127.122397,187.927263 130.5,170.172104 130.5,170.172104 L130.5,117.971325 Z" id="Fill-12" fill="#F0F0F5"></path>
                    <path d="M154.209289,247 L145.341042,247 C145.341042,247 146.795727,256.253628 143.566966,261.351475 C142.61733,262.852479 152.056781,264.251658 153.575487,263.961567 C155.856747,263.524964 155.476181,261.351475 155.476181,261.351475 C155.476181,261.351475 153.195633,253.262608 154.209289,247" id="Fill-14" fill="#FF5959"></path>
                    <path d="M153.639621,113 C152.921635,113.711067 115.590919,115.666874 115.500982,115.666874 C115.411045,115.666874 121.513922,158.681166 127.43617,172.545469 C133.359173,186.409771 133.897285,196.896133 136.589353,209.16091 C139.281421,221.425687 141.79437,246.665558 141.79437,249.154292 C141.79437,251.642276 141.614496,252.886269 141.614496,252.886269 C141.614496,252.886269 154.896474,253.419943 156.331689,252.175202 C157.76766,250.93121 161.356833,222.847072 158.305772,201.8736 C155.255467,180.899379 157.972475,181.055065 157.608948,160.1033 C157.24542,139.150786 157.608948,116.910867 157.608948,116.910867 L153.639621,113 Z" id="Fill-16" fill="#F0F0F5"></path>
                    <path d="M117.309718,137.937173 C102.479729,137.451847 97.7106434,133.807768 94.3314664,132.803257 C92.3755799,118.86501 88.4235968,62.3904279 95.757033,53.2437353 C100.675579,47.1098229 110.825249,43.3107401 114.78406,42.2663497 L126.443511,38 L136.092449,41.8502489 C142.845492,41.8570209 154.0687,48.2204283 159.079805,54.7260472 C163.795783,60.8479205 160.190518,123.092232 160.054714,132.803257 C149.380793,136.029731 132.188263,138.423251 117.309718,137.937173" id="Fill-18" fill="#3F465C"></path>
                    <path d="M135.492715,15.7650034 C135.492715,15.7650034 134.466763,9.40918749 130.10737,7.90814732 C125.747257,6.40785061 121.90048,6.67252139 119.506593,9.40918749 C117.113427,12.1458536 114.71954,18.8548117 114.548189,21.94462 C114.377557,25.0336848 114.548189,30.1538748 116.942075,32.0080572 C119.335961,33.8614961 120.532545,33.7730247 120.959484,33.7730247 C121.387144,33.7730247 120.405111,39.0166286 116.428739,40.6581822 C115.079523,41.2157751 118.73767,45.5137014 122.755079,45.955315 C126.773208,46.3969286 135.150731,43.4833197 135.492715,40.835125 C135.620148,39.8455834 130.364398,36.7624663 133.440812,25.5637699 C135.733903,17.214745 135.492715,15.7650034 135.492715,15.7650034" id="Fill-20" fill="#FF5959"></path>
                    <path d="M126.187594,16.1532233 C124.956113,18.4447358 124.540738,20.6362929 125.089433,21.0793784 C125.638899,21.5224638 127.042233,22.3497057 127.5,21.2860024 C127.956982,20.2237909 127.960064,18.4850163 129.84736,18.1463618 C131.075758,17.925565 132.866724,18.660311 133.233548,19.7672786 C133.557987,20.7511669 132.348854,23.9616714 131.800159,24.7590759 C131.251464,25.5557345 130.94552,26.1278667 130.94552,26.1278667 C130.94552,26.1278667 132.684083,31.0875888 134.606057,30.9988225 C136.52726,30.9108022 140.415906,19.7672786 141.102545,15.1447192 C141.793038,10.495306 141.812304,8.94749083 139.272277,6.19946613 C137.716357,4.51663668 131.311574,0 123.899566,0 C116.488329,0 114.097806,3.46486827 113.697844,5.49082784 C113.163791,8.19633424 113.65623,10.5087329 115.847928,11.8678265 C118.043479,13.2299039 120.84244,13.906467 122.618764,13.1970828 C125.523303,12.0356619 127.627148,13.4730787 126.187594,16.1532233" id="Fill-22" fill="#F0F0F5"></path>
                    <path d="M85.4351014,82 L23.5648986,82 C23.2529731,82 23,82.2320858 23,82.5182565 L23,84.4817435 C23,84.7679142 23.2529731,85 23.5648986,85 L85.4351014,85 C85.7470269,85 86,84.7679142 86,84.4817435 L86,82.5182565 C86,82.2320858 85.7470269,82 85.4351014,82" id="Fill-24" fill="#FFE359"></path>
                    <path d="M70.8159627,85 L21.3974543,85 C20.5428878,85 19.7656646,84.501672 19.4024549,83.7208815 L3.11337199,48.7008984 C2.74561269,47.9093912 3.3173457,47 4.18328614,47 L53.6025529,47 C54.4571193,47 55.2343426,47.498328 55.5975523,48.2791185 L71.8866351,83.2991016 C72.2543944,84.0906088 71.6826614,85 70.8159627,85" id="Fill-26" fill="#FFE359"></path>
                    <path d="M67.8159627,85 L18.3974543,85 C17.5428878,85 16.7656646,84.501672 16.4024549,83.7208815 L0.113371986,48.7008984 C-0.25438731,47.9093912 0.317345698,47 1.18328614,47 L50.6025529,47 C51.4571193,47 52.2343426,47.498328 52.5975523,48.2791185 L68.8866351,83.2991016 C69.2543944,84.0906088 68.6826614,85 67.8159627,85" id="Fill-28" fill="#FAE271"></path>
                    <path d="M101.273884,112 L104.5,119.906657 C104.5,119.906657 99.011637,124.062931 96.1776541,123.999276 C93.6497443,123.94311 91.5169608,122.031224 92.9754854,118.243398 C94.1952879,115.074894 101.273884,112 101.273884,112" id="Fill-30" fill="#FF5959"></path>
                    <g id="Group-34" transform="translate(99.500000, 51.000000)">
                        <mask id="mask-4" fill="white">
                            <use xlink:href="#path-3"></use>
                        </mask>
                        <g id="Clip-33"></g>
                        <path d="M59.3128301,2.57940707 C65.9278301,8.88100303 61.2529265,30.2862253 47.9204566,50.7409727 C34.5872277,71.1949828 4.60909518,72.8452253 4.60909518,72.8452253 L0.332685542,61.7860939 C0.332685542,61.7860939 15.8018422,48.4551141 29.8455289,41.0762152 C29.8455289,41.0762152 31.1267819,32.1252354 36.7542759,17.4013566 C42.3734205,2.69738687 53.6314446,-2.83217879 59.3128301,2.57940707" id="Fill-32" fill="#121A36" mask="url(#mask-4)"></path>
                    </g>
                </g>
            </g>
        </g>
    </g>
</svg>