<?xml version="1.0" encoding="UTF-8"?>
<svg width="31px" height="31px" viewBox="0 0 31 31" version="1.1" xmlns="http://www.w3.org/2000/svg" xmlns:xlink="http://www.w3.org/1999/xlink">
    <title>Slice 1</title>
    <defs>
        <polygon id="path-1" points="0.0005 0.0004 17.7195 0.0004 17.7195 10.1104 0.0005 10.1104"></polygon>
    </defs>
    <g id="Page-1" stroke="none" stroke-width="1" fill="none" fill-rule="evenodd">
        <g id="Group-2-Copy" fill="#2E66FF">
            <circle id="Oval" cx="15.5" cy="15.5" r="15.5"></circle>
        </g>
        <g id="Group-3" transform="translate(7.000000, 11.000000)">
            <mask id="mask-2" fill="white">
                <use xlink:href="#path-1"></use>
            </mask>
            <g id="Clip-2"></g>
            <path d="M8.8595,10.1104 L8.8595,10.1104 C8.5275,10.1104 8.2105,9.9784 7.9755,9.7444 L0.3665,2.1334 C-0.1215,1.6454 -0.1215,0.8544 0.3665,0.3664 C0.8545,-0.1216 1.6455,-0.1216 2.1335,0.3664 L8.8595,7.0924 L15.5865,0.3664 C16.0745,-0.1216 16.8655,-0.1216 17.3535,0.3664 C17.8415,0.8544 17.8415,1.6454 17.3535,2.1334 L9.7435,9.7444 C9.5085,9.9784 9.1905,10.1104 8.8595,10.1104" id="Fill-1" fill="#FFFFFF" mask="url(#mask-2)"></path>
        </g>
    </g>
</svg>