<?xml version="1.0" encoding="UTF-8"?>
<svg width="98px" height="98px" viewBox="0 0 98 98" version="1.1" xmlns="http://www.w3.org/2000/svg" xmlns:xlink="http://www.w3.org/1999/xlink">
    <title>Group 11</title>
    <defs>
        <polygon id="path-1" points="0 0 98 0 98 98 0 98"></polygon>
    </defs>
    <g id="Page-1" stroke="none" stroke-width="1" fill="none" fill-rule="evenodd">
        <g id="V7:-Wyred-World-2020" transform="translate(-928.000000, -3636.000000)">
            <g id="Group-11" transform="translate(928.000000, 3636.000000)">
                <mask id="mask-2" fill="white">
                    <use xlink:href="#path-1"></use>
                </mask>
                <g id="Clip-2"></g>
                <path d="M2.970625,14.67679 L95.0314167,14.67679 L95.0314167,2.9345507 L2.970625,2.9345507 L2.970625,14.67679 Z M96.5157083,0 L1.488375,0 C0.665583333,0 0,0.657952907 0,1.46929361 L0,16.1460836 L0,54.1923114 C0,55.0036521 0.665583333,55.6595867 1.488375,55.6595867 C2.309125,55.6595867 2.970625,55.0036521 2.970625,54.1923114 L2.970625,17.613359 L95.0314167,17.613359 L95.0314167,61.5307064 C95.0314167,62.3440654 95.6949583,63 96.5157083,63 C97.3385,63 98,62.3440654 98,61.5307064 L98,16.1460836 L98,1.46929361 C98,0.657952907 97.3385,0 96.5157083,0 L96.5157083,0 Z" id="Fill-1" fill="#FF5959" mask="url(#mask-2)"></path>
                <path d="M87.4353508,8.41997926 C87.1629986,8.70826132 87,9.08365019 87,9.49222261 C87,9.88212928 87.1629986,10.2782579 87.4353508,10.562392 C87.7200825,10.8320083 88.0935351,11 88.5020633,11 C88.8899587,11 89.2799175,10.8320083 89.5667125,10.562392 C89.8349381,10.2782579 90,9.88212928 90,9.49222261 C90,9.08365019 89.8349381,8.70826132 89.5667125,8.41997926 C89.0116919,7.86000691 87.9924347,7.86000691 87.4353508,8.41997926" id="Fill-3" fill="#FF5959" mask="url(#mask-2)"></path>
                <path d="M80.4989691,8 C79.6762887,8 79,8.65979381 79,9.50103093 C79,10.3237113 79.6762887,11 80.4989691,11 C81.3237113,11 82,10.3237113 82,9.50103093 C82,8.65979381 81.3237113,8 80.4989691,8" id="Fill-4" fill="#FF5959" mask="url(#mask-2)"></path>
                <path d="M71.4350515,8.41997926 C71.1484536,8.70826132 71,9.08365019 71,9.49222261 C71,9.88212928 71.1484536,10.2782579 71.4350515,10.562392 C71.7195876,10.8320083 72.1092784,11 72.4989691,11 C72.8886598,11 73.2804124,10.8320083 73.5649485,10.562392 C73.8329897,10.2782579 74,9.88212928 74,9.49222261 C74,9.08365019 73.8329897,8.70826132 73.5484536,8.41997926 C72.9938144,7.86000691 71.9896907,7.86000691 71.4350515,8.41997926" id="Fill-5" fill="#FF5959" mask="url(#mask-2)"></path>
                <path d="M35.4408732,56.5586112 C35.7337573,56.8535579 36.1173943,57 36.5010313,57 C36.8826057,57 37.2683053,56.8535579 37.5591268,56.5586112 L64.5622207,29.5596425 C65.1459264,28.9738742 65.1459264,28.023032 64.5622207,27.4393262 C63.9764524,26.8535579 63.0256102,26.8535579 62.4398419,27.4393262 L35.4408732,54.4382949 C34.8530423,55.0240633 34.8530423,55.9749055 35.4408732,56.5586112" id="Fill-6" fill="#FF5959" mask="url(#mask-2)"></path>
                <path d="M59.9957547,52.9957547 C58.6201258,54.3734277 56.3778302,54.3734277 55.0022013,52.9957547 C53.6265723,51.6180818 53.6265723,49.3778302 55.0022013,48.0042453 C55.6930818,47.3154088 56.5944969,46.9720126 57.5,46.9720126 C58.4034591,46.9720126 59.3089623,47.3154088 59.9957547,48.0042453 C61.3734277,49.3778302 61.3734277,51.6180818 59.9957547,52.9957547 M52.9009434,45.9009434 C50.3663522,48.4375786 50.3663522,52.5644654 52.9009434,55.0970126 C54.166195,56.3663522 55.8361635,57 57.5,57 C59.1658805,57 60.831761,56.3663522 62.0990566,55.0970126 C64.6336478,52.5644654 64.6336478,48.4375786 62.0990566,45.9009434 C59.5644654,43.3663522 55.4355346,43.3663522 52.9009434,45.9009434" id="Fill-7" fill="#FF5959" mask="url(#mask-2)"></path>
                <path d="M39.0018476,31.0027318 C39.6927552,30.3159799 40.5942057,29.9726039 41.5017886,29.9726039 C42.4032391,29.9726039 43.3087779,30.3159799 43.9955973,31.0027318 C45.3733244,32.3803235 45.3733244,34.620443 43.9955973,35.9959908 C42.6219584,37.3715386 40.3795747,37.3715386 39.0018476,35.9959908 C37.6261646,34.620443 37.6261646,32.3803235 39.0018476,31.0027318 M41.5017886,40 C43.1656905,40 44.8316365,39.3663896 46.0989819,38.0991687 C48.6336727,35.562683 48.6336727,31.4380835 46.0989819,28.9015978 C43.564291,26.3651122 39.4351979,26.3671561 36.9025512,28.9015978 C34.3658163,31.4380835 34.3658163,35.562683 36.9025512,38.0991687 C38.1678525,39.3663896 39.8358426,40 41.5017886,40" id="Fill-8" fill="#FF5959" mask="url(#mask-2)"></path>
                <path d="M92.6094256,79.132306 C62.2459473,103.767508 22.245862,92.8552145 15.4553208,90.7467305 L15.4553208,66.0425696 C35.7330284,66.1366051 39.1058408,68.1635917 42.084614,69.9544449 C45.147095,71.7933606 47.7951202,73.3898738 62.3459883,73.1328435 C62.3623216,73.1349332 64.0446445,73.0659739 65.1675542,74.2132065 C65.9923824,75.0616153 66.3537551,76.4261744 66.2414642,78.2692695 C66.212881,78.7164603 66.1332565,80.070571 63.521981,81.1488443 C63.4974812,81.1551133 63.481148,81.1760101 63.4586898,81.1822791 C63.4464398,81.1864585 63.4341899,81.1843688 63.42194,81.1885481 C60.6432489,82.2981666 54.5223702,83.2468799 41.1270783,81.4706545 C40.3267499,81.3724397 39.5713379,81.9491906 39.4651719,82.7829717 C39.3610476,83.6146631 39.9347523,84.3794848 40.7493723,84.4860584 C45.8453407,85.161024 50.2716466,85.4995517 54.0078734,85.4995517 C58.4505125,85.4995517 61.911116,85.018926 64.3713091,84.0660333 C75.3656159,81.8321686 82.7788616,78.6077971 87.6869978,76.4721473 C90.724979,75.1514714 93.5955445,73.8976653 94.2407072,74.4514297 C94.9757026,75.0825121 95.0389939,75.5652275 95.0287856,75.8703203 C94.9716193,77.159651 93.2729632,78.65377 92.6094256,79.132306 L92.6094256,79.132306 Z M2.97060658,90.3371538 L12.4847142,90.3371538 L12.4847142,66.04048 L2.97060658,66.04048 L2.97060658,90.3371538 Z M81.1986214,71.5217026 C83.9160629,70.3284971 87.6339148,68.6901903 88.352577,69.1436502 C89.1018641,69.7287598 89.1855719,70.1947577 89.1816245,70.4914919 C89.1774053,71.396322 88.2954107,72.5059404 87.5522487,73.2310583 C87.2133341,73.3773357 86.8887111,73.5173441 86.5252967,73.6761595 C82.5379464,75.4105914 76.8662316,77.8764102 68.9241975,79.9096659 C69.0956965,79.3997847 69.1773626,78.9066209 69.2039041,78.4552507 C69.2569871,77.6131109 69.2039041,76.8461994 69.1018214,76.1189919 C73.7792508,74.7502535 77.8584755,72.9928352 81.1986214,71.5217026 L81.1986214,71.5217026 Z M96.147612,72.1235295 C95.0512438,71.1769059 93.7445853,71.1037672 92.0214293,71.5530477 C92.0990121,71.2186994 92.1480118,70.8780821 92.1520952,70.522837 C92.1602618,69.5114334 91.8233889,68.0340318 90.1594408,66.7279837 C88.1565783,65.1586363 85.0940973,66.5043882 80.026712,68.7298942 C76.745774,70.1717713 72.7339239,71.9082928 68.1524523,73.2373274 C67.8992872,72.8131229 67.6093724,72.418174 67.2704578,72.0671083 C65.1961373,69.9439965 62.2847387,70.0965429 62.2336974,70.0965429 C48.5750321,70.3305867 46.2659214,68.9430412 43.5913547,67.33399 C40.2062923,65.302824 36.3781911,63 13.9710384,63 L1.48632412,63 C0.665579205,63 0,63.679145 0,64.5212848 L0,91.8584386 C0,92.6984888 0.665579205,93.3776338 1.48632412,93.3776338 L13.7321648,93.3776338 C15.6064032,94.0024472 28.2666997,98.0020889 44.6530147,98 C59.9245867,98 78.421972,94.5165077 94.3734147,81.5751384 C94.7307042,81.3222875 97.8544348,79.0278222 97.9953089,76.0186874 C98.042267,75.0051941 97.758477,73.5068957 96.147612,72.1235295 L96.147612,72.1235295 Z" id="Fill-9" fill="#FF5959" mask="url(#mask-2)"></path>
                <path d="M7.5,70 C6.67198582,70 6,70.6723832 6,71.500887 C6,72.3276168 6.67198582,73 7.5,73 C8.32801418,73 9,72.3276168 9,71.500887 C9,70.6723832 8.32801418,70 7.5,70" id="Fill-10" fill="#FF5959" mask="url(#mask-2)"></path>
            </g>
        </g>
    </g>
</svg>