<svg xmlns="http://www.w3.org/2000/svg" xmlns:xlink="http://www.w3.org/1999/xlink" width="42.384" height="42.384" viewBox="0 0 42.384 42.384">
  <defs>
    <clipPath id="clip-path">
      <rect id="Rectangle_589" data-name="Rectangle 589" width="42.384" height="42.384" transform="translate(0 0)" fill="none"/>
    </clipPath>
  </defs>
  <g id="Group_399" data-name="Group 399" transform="translate(0 0)">
    <g id="Group_398" data-name="Group 398" clip-path="url(#clip-path)">
      <path id="Path_312" data-name="Path 312" d="M21.192,0A21.194,21.194,0,1,1,6.207,6.208,21.112,21.112,0,0,1,21.192,0M35.015,7.381A19.56,19.56,0,1,0,40.73,21.192,19.524,19.524,0,0,0,35.015,7.381" fill="#fff"/>
      <path id="Path_313" data-name="Path 313" d="M22.811,16.862V15.125a.909.909,0,0,1,.951-1.032h2.429V10.385H22.846a4.205,4.205,0,0,0-4.553,4.529v1.948H16.134v4.33h2.183V32.011h4.33V21.192h3.2l.141-1.7.258-2.629Z" fill="#fff" fill-rule="evenodd"/>
    </g>
  </g>
</svg>
