<?xml version="1.0" encoding="UTF-8"?>
<svg width="266px" height="178px" viewBox="0 0 266 178" version="1.1" xmlns="http://www.w3.org/2000/svg" xmlns:xlink="http://www.w3.org/1999/xlink">
    <title>Group 4</title>
    <g id="Page-1" stroke="none" stroke-width="1" fill="none" fill-rule="evenodd">
        <g id="Flexible-Terms-Promise" transform="translate(-912.000000, -186.000000)">
            <g id="Group-4" transform="translate(912.000000, 186.000000)">
                <g id="shape/@quarter-doughnut-copy" transform="translate(189.000000, 101.000000) rotate(-319.000000) translate(-189.000000, -101.000000) translate(135.000000, 47.000000)" fill="#131A33">
                    <path d="M107.213057,68.9630571 C86.1222,68.9630571 68.9630571,86.1222 68.9630571,107.213057 L-8.57142857e-05,107.213057 C-8.57142857e-05,48.0950571 48.0950571,-8.57142857e-05 107.213057,-8.57142857e-05 L107.213057,68.9630571 Z" id="Fill-1"></path>
                </g>
                <g id="shape/@quarter-doughnut-copy-3" transform="translate(64.000000, 64.000000) rotate(-529.000000) translate(-64.000000, -64.000000) translate(10.000000, 10.000000)" fill="#FF5959">
                    <path d="M107.213057,68.9630571 C86.1222,68.9630571 68.9630571,86.1222 68.9630571,107.213057 L-8.57142857e-05,107.213057 C-8.57142857e-05,48.0950571 48.0950571,-8.57142857e-05 107.213057,-8.57142857e-05 L107.213057,68.9630571 Z" id="Fill-1"></path>
                </g>
            </g>
        </g>
    </g>
</svg>