<?xml version="1.0" encoding="UTF-8"?>
<svg width="258px" height="378px" viewBox="0 0 258 378" version="1.1" xmlns="http://www.w3.org/2000/svg" xmlns:xlink="http://www.w3.org/1999/xlink">
    <title>Group 76 Copy</title>
    <defs>
        <polygon id="path-1" points="0 0.582204904 118.963197 0.582204904 118.963197 77.253523 0 77.253523"></polygon>
    </defs>
    <g id="Page-1" stroke="none" stroke-width="1" fill="none" fill-rule="evenodd">
        <g id="V7:-Smart-Meetings" transform="translate(-931.000000, -3007.000000)">
            <g id="Group-76-Copy" transform="translate(931.000000, 3007.000000)">
                <path d="M129,132.640417 L137.392267,135.5 C137.392267,135.5 141.263062,129.25529 140.985784,126.206356 C140.738083,123.485888 138.604894,121.333472 134.811737,123.203794 C131.635985,124.768836 129,132.640417 129,132.640417" id="Fill-1" fill="#FF5959"></path>
                <path d="M91.7160899,136.053551 C100.840714,141.938916 110.330945,152.540367 110.330945,152.540367 C110.330945,152.540367 128.121239,128.145336 129.999838,128.503915 C131.178338,128.733873 139,135.418244 139,135.418244 C139,135.418244 134.332673,159.068834 123.74951,169.14411 C103.625552,188.31247 78.2897464,159.018165 75.3532199,148.377738 C73.1284608,140.317517 81.7513471,129.630319 91.7160899,136.053551 Z" id="Fill-3" fill="#FAE271"></path>
                <path d="M91.0009573,349.377651 C90.8816117,349.119309 101.9615,344.5 101.9615,344.5 C101.9615,344.5 102.473531,363.374388 106,367.997553 L96.6409977,370.5 C96.6409977,370.5 93.2839224,354.236023 91.0009573,349.377651" id="Fill-5" fill="#FF5959"></path>
                <path d="M60,205.803366 C61.694817,205.803366 93.5192913,201.5 93.5192913,201.5 L106,354.60881 C106,354.60881 104.967875,356.20522 98.9465143,357.261781 C95.8882265,357.797774 91.3293592,357.261781 91.3293592,357.261781 L60,205.803366 Z" id="Fill-7" fill="#3F465C"></path>
                <path d="M94.8562901,377.5 L125.118595,377.5 C125.118595,377.5 126.536089,376.650077 125.775869,375.331751 C124.504876,373.118173 120.394935,372.944411 114.174593,370.613732 C106.223957,367.629557 104.351123,361.868966 103.111806,362.556459 C100.890537,363.787904 103.163279,368.815672 98.7009451,368.815672 C95.177008,368.815672 95.5808749,365.393315 94.3969904,366.020369 C93.9099744,366.277235 93.6803246,373.930322 94.8562901,377.5" id="Fill-9" fill="#131A33"></path>
                <path d="M44.9990427,349.377651 C45.1183883,349.119309 34.0385,344.5 34.0385,344.5 C34.0385,344.5 33.526469,363.374388 30,367.997553 L39.3590023,370.5 C39.3590023,370.5 42.7160776,354.236023 44.9990427,349.377651" id="Fill-11" fill="#FF5959"></path>
                <path d="M41.1437099,377.5 L10.881405,377.5 C10.881405,377.5 9.46391121,376.650077 10.2241314,375.331751 C11.4951244,373.118173 15.6050645,372.944411 21.8254075,370.613732 C29.7760431,367.629557 31.6488771,361.868966 32.8881943,362.556459 C35.1094625,363.787904 32.8367211,368.815672 37.2990549,368.815672 C40.822992,368.815672 40.4191251,365.393315 41.6030096,366.020369 C42.0900256,366.277235 42.3196754,373.930322 41.1437099,377.5" id="Fill-13" fill="#131A33"></path>
                <path d="M35.9329464,201.003748 C38.7126225,198.702562 66.3958476,205.031794 66.3958476,205.031794 C66.3958476,205.031794 66.8265017,210.899236 66.9831031,221.415617 C67.0614039,226.790224 66.8421618,240.965995 66.8421618,240.965995 C58.66365,285.852703 45.575682,356.913945 44.5381972,357.631853 C43.2501501,358.524387 40.6701409,358.683491 36.4184109,358.314836 C33.239401,358.035434 31,356.002008 31,356.002008 C31,356.002008 31.0430654,205.051197 35.9329464,201.003748" id="Fill-15" fill="#3F465C"></path>
                <path d="M33.4951408,207.853404 C33.4951408,207.853404 50.43674,213.333339 66.4305036,212.391053 C87.2135343,211.170715 94.7808077,206.424527 94.7808077,206.424527 C94.7808077,206.424527 95.2739904,167.929815 94.7808077,152.652419 C94.2876249,137.375023 90.4076634,135.162195 90.4076634,135.162195 C90.4076634,135.162195 74.2289563,122.190311 62.0458004,124.862697 C49.8664974,127.531221 30.0698323,134.37052 27.7850089,142.341335 C25.5656864,150.080441 28.6981676,176.055103 29.2684102,176.603483 C29.8386528,177.148001 33.4951408,207.853404 33.4951408,207.853404" id="Fill-17" fill="#FFED93"></path>
                <path d="M48.2583258,109.024221 C48.2583258,109.024221 46.4871337,98.3927861 52.2204054,95.0472029 C59.9712958,90.5199227 69.2546523,96.094616 70.8487252,109.588213 C72.0269529,119.525209 64.5224892,119.080154 64.5224892,119.080154 C64.5224892,119.080154 66.3629888,124.766111 72,125.537283 C72,125.537283 69.9554283,130.317784 64.2914642,131.890822 C55.4855594,134.34246 50.7379946,128.625809 50.4376621,128.272835 C50.1912353,127.988921 54.1302124,127.962064 53.7066665,122.137987 C53.2792702,116.313909 48.2583258,109.024221 48.2583258,109.024221" id="Fill-19" fill="#FF5959"></path>
                <path d="M42.9304292,94.6283106 C41.1537999,97.0292108 39.6612712,100.562243 42.938432,107.921099 C46.811804,116.630706 49.640806,120.710284 53.4061398,120.491666 C55.3148158,120.382357 56.563258,113.218695 56.563258,113.218695 C56.563258,113.218695 53.3621242,111.696173 53.0180023,108.61209 C52.6738804,105.528007 54.0863807,104.938518 55.6349292,104.895575 C57.6796535,104.837016 58.0077697,107.764943 58.7960489,108.237315 C59.5883295,108.713591 61.5450226,107.866445 61.0328412,106.960739 C60.5206598,106.055034 59.0321325,103.013894 59.6843636,102.225305 C60.3325932,101.436717 65.4063903,97.7631445 66.9549389,96.0922741 C69.659897,93.1643471 66.6748396,86.3676526 63.0015385,85.6337189 C56.9714026,84.4352208 45.1672215,91.60669 42.9304292,94.6283106" id="Fill-21" fill="#131A33"></path>
                <path d="M34,207.9177 C34,207.9177 54.2489627,211.841281 65.5661386,211.465782 C82.7355715,210.891039 95,206.5 95,206.5 L94.3288696,210.11322 C94.3288696,210.11322 80.8602414,214.370152 64.2583931,214.496595 C47.6565447,214.62687 34.7785113,210.975335 34.7785113,210.975335 L34,207.9177 Z" id="Fill-23" fill="#FF5959"></path>
                <path d="M18.1146675,225.862718 L28.7474144,225.5 C28.7474144,225.5 29.6580077,232.63736 28.0212947,234.985279 C26.3845818,237.333198 22.7500585,238.596861 20.0222035,236.248943 C17.2982735,233.901024 18.1146675,225.862718 18.1146675,225.862718" id="Fill-25" fill="#FF5959"></path>
                <path d="M34.0704228,135.550602 C24.1767097,137.77381 13.8428433,157.518846 12.3548912,174.229765 C10.866939,190.940684 11.0032697,194.04076 11.0032697,194.04076 C11.0032697,194.04076 15.3307954,226.383974 17.0914089,228.541223 C18.8481272,230.698472 28.8392194,228.541223 28.8392194,228.541223 C28.8392194,228.541223 31.0283008,197.005037 29.9454455,190.672968 C28.8625903,184.337019 37.8409402,167.179907 39.009489,164.390227 C40.2871023,161.340591 40.7662073,159.404499 41.8490625,152.39732 C42.9319177,145.390141 37.9655854,134.673735 34.0704228,135.550602" id="Fill-27" fill="#FAE271"></path>
                <path d="M175.444558,134.5 C175.444558,134.5 172.035806,136.483675 169.555671,142.671213 C167.140501,148.702347 163.120314,166.91019 160.044029,191.938822 C159.283557,198.141619 168.607946,194.97537 169.960747,191.938822 C171.313548,188.902274 180.626473,139.337114 175.444558,134.5" id="Fill-29" fill="#FAE271"></path>
                <polygon id="Fill-31" fill="#131A33" points="187 291.595393 128.367844 295.5 126 260.408447 184.632156 256.5"></polygon>
                <polygon id="Fill-33" fill="#131A33" points="198 291.000295 134.381042 295.5 132 260.404607 191.055294 256.5"></polygon>
                <path d="M192,355.864636 L182.825009,354.5 C182.533007,366.635914 181,366.58731 181,366.58731 L181.107579,369.421267 L190.052043,371.5 C189.587146,368.785683 190.224939,363.52903 192,355.864636" id="Fill-35" fill="#FF7979"></path>
                <path d="M160.708241,377.5 L190.231694,377.5 C191.152108,377.5 191.908719,376.798854 191.97112,375.898475 C192.162223,373.051747 191.397812,366.81423 189.888488,366.342968 C189.295679,366.155229 187.35735,369.657128 184.486906,369.254831 C180.372343,368.67629 182.622677,364.480908 180.824749,364.5 C178.27411,364.523054 177.369297,370.04793 166.027923,372.446386 C159.604524,373.806532 159,374.990434 159,375.814185 C158.996115,376.745215 159.760527,377.5 160.708241,377.5" id="Fill-37" fill="#131A33"></path>
                <path d="M224,356.001425 L214.778705,355.5 C215.422328,366.208733 214,366.29036 214,366.29036 L214.397298,369.217284 L223.821216,370.5 C223.125944,367.954004 223.169646,363.087458 224,356.001425" id="Fill-39" fill="#FF7979"></path>
                <path d="M194.708241,377.5 L224.231694,377.5 C225.152108,377.5 225.908719,376.798854 225.97112,375.898475 C226.162223,373.051747 225.397812,366.81423 223.888488,366.342968 C223.295679,366.155229 221.35735,369.657128 218.486906,369.254831 C214.372343,368.67629 216.622677,364.480908 214.824749,364.5 C212.27411,364.523054 211.369297,370.04793 200.027923,372.446386 C193.604524,373.806532 193,374.990434 193,375.814185 C192.996115,376.745215 193.760527,377.5 194.708241,377.5" id="Fill-41" fill="#131A33"></path>
                <path d="M203.448007,137.980048 C212.757041,135.142262 220,129.505195 220,129.505195 C218.842218,128.954579 212.811617,125.689393 215.860053,115.046733 C218.534256,105.72478 218.495273,98.4281659 213.669233,92.1827266 C210.203684,87.7007961 201.713283,85.6061481 196.310301,86.8575462 C190.907319,88.1050939 185.882468,92.9990232 184.712991,100.060759 C184.288081,102.617462 183.449956,108.689631 186.43602,115.955441 C189.425982,123.221251 180,131.114685 180,131.114685 C180,131.114685 194.138973,140.817834 203.448007,137.980048" id="Fill-43" fill="#131A33"></path>
                <path d="M166,211.5 L208,214.925021 C208,214.925021 199.058389,279.137391 199.953325,292.1099 C202.041509,322.404888 193.491191,359.131949 193.034037,360.17687 C192.693109,360.962497 180.241491,360.068508 180.241491,360.068508 C180.241491,360.068508 180.803247,304.15359 178.1843,294.98537 C175.596347,285.925512 170.94733,222.11176 166,211.5" id="Fill-45" fill="#FF5959"></path>
                <path d="M192,216.5 C192,216.5 206.298766,288.164726 206.376519,290.96883 C206.458159,294.131644 212.001944,331.256131 211.939741,361.318288 C211.939741,361.72714 224.71455,361.318288 224.71455,361.318288 C224.71455,361.318288 231.475168,315.34178 227.972398,290.72969 C227.634172,288.353723 232,222.58263 232,222.58263 L192,216.5 Z" id="Fill-47" fill="#FF5959"></path>
                <path d="M174.740133,219.634636 C174.740133,219.634636 181.429889,227.812596 217,220.378087 L214.413294,127.893565 C214.413294,127.893565 205.594451,124.919761 199.850956,125.601579 C194.103583,126.283396 187.390558,127.808819 184.625459,129.607739 C166.863672,141.175527 174.740133,219.634636 174.740133,219.634636" id="Fill-49" fill="#131A33"></path>
                <path d="M213.932061,127.5 L230.438926,133.450926 C231.684433,143.144425 233,228.475893 233,228.475893 C233,228.475893 230.37665,232.423805 219.836544,234.302841 C213.141942,235.496126 201.087767,235.5 201.087767,235.5 C201.087767,235.5 201.523694,193.006672 201.523694,189.124623 C201.523694,185.242574 197.106035,147.216315 213.932061,127.5" id="Fill-51" fill="#FAE271"></path>
                <path d="M189.940215,97.5 C189.940215,97.5 188.014772,109.375453 190.579447,114.964812 C193.093759,120.44579 197.204214,117.248553 197.204214,117.248553 C197.204214,117.248553 195.918002,124.653292 192.094233,126.097081 C191.385267,126.364163 184.717885,132.816698 190.052565,133.451501 C196.406143,134.202426 211,125.984829 211,125.984829 C206.176705,125.098428 207.455169,122.234075 207.338945,118.924586 C207.226595,115.615097 203.302099,114.496451 202.600881,111.450173 C201.562613,106.944623 202.961175,103.09323 202.961175,103.09323 C202.961175,103.09323 194.624042,104.405413 189.940215,97.5" id="Fill-53" fill="#FF7979"></path>
                <polygon id="Fill-55" fill="#F0F0F5" points="189 163.907515 212.598256 152.5 230 190.252242 205.848209 200.5"></polygon>
                <path d="M216,176.38873 C216,176.38873 208.877081,171.847003 205.191849,170.730445 C201.386837,169.574152 198.18871,172.915878 201.179218,177.4735 C204.065917,181.864234 212.159054,185.5 212.159054,185.5 L216,176.38873 Z" id="Fill-57" fill="#FF7979"></path>
                <path d="M224.45961,132.75501 C226.486021,132.094864 230.913962,132.37282 235.918116,137.831576 C240.926137,143.286471 248.614126,166.619369 253.018864,178.131398 C257.365594,189.492867 258.347862,197.974399 254.995002,200.414239 C251.386906,203.035523 242.987353,201.155456 237.7473,192.079406 C235.29163,187.825129 217.927913,134.886009 224.45961,132.75501" id="Fill-59" fill="#FAE271"></path>
                <path d="M212.921581,173.5 C212.921581,173.5 211.10741,175.107829 209.387481,178.05876 C207.934573,180.550311 207,184.836557 207,184.836557 C207,184.836557 241.001971,204.329051 250.426238,203.472581 C259.713068,202.623896 260.506277,192.112665 252.546698,186.370418 C247.724615,182.890033 212.921581,173.5 212.921581,173.5" id="Fill-61" fill="#FFE359"></path>
                <path d="M156.350344,237.763251 C156.350344,237.763251 154.070712,247.245176 154.001077,250.387203 C153.938772,253.238854 156.592234,256.75316 158.945166,252.579922 C161.906488,247.334522 162.778759,243.418156 162.994994,239.90385 C163.211229,236.393267 156.350344,237.763251 156.350344,237.763251" id="Fill-63" fill="#FF7979"></path>
                <path d="M154.01627,242.898979 L163.502592,245.5 C163.502592,245.5 169.620806,226.056685 170.756384,219.442995 C171.637036,214.346241 172.853726,190.129839 171.123322,187.368935 C169.392918,184.608031 162.54469,185.286558 161.297099,186.959479 C158.863719,190.215629 153.672507,238.188284 154.01627,242.898979" id="Fill-65" fill="#FAE271"></path>
                <path d="M188,127.5 C188,127.5 177.816098,130.951621 174.036705,135.494449 C165.431732,145.829964 168.550986,233.579297 168.550986,233.579297 C168.550986,233.579297 170.604753,236.504661 176.993819,235.134848 C179.097772,234.685982 169.670521,136.384441 188,127.5" id="Fill-67" fill="#FAE271"></path>
                <path d="M149.574416,264.5 L149.015017,255.800369 C148.768568,252.032122 151.585124,248.765777 155.285766,248.514826 C158.974672,248.267859 162.198064,251.135869 162.440601,254.904116 L163,263.603747 L160.23821,263.786981 L159.678811,255.08735 C159.534071,252.868625 157.648544,251.183669 155.465713,251.331053 C153.286794,251.474454 151.632067,253.39841 151.776807,255.617135 L152.336206,264.316766 L149.574416,264.5 Z" id="Fill-69" fill="#131A33"></path>
                <g id="Group-73" transform="translate(0.000000, 0.500000)">
                    <mask id="mask-2" fill="white">
                        <use xlink:href="#path-1"></use>
                    </mask>
                    <g id="Clip-72"></g>
                </g>
            </g>
        </g>
    </g>
</svg>