<svg xmlns="http://www.w3.org/2000/svg" xmlns:xlink="http://www.w3.org/1999/xlink" width="42.385" height="42.384" viewBox="0 0 42.385 42.384">
  <defs>
    <clipPath id="clip-path">
      <rect id="Rectangle_588" data-name="Rectangle 588" width="42.385" height="42.384" transform="translate(0 0)" fill="none"/>
    </clipPath>
  </defs>
  <g id="Group_397" data-name="Group 397" transform="translate(0 0)">
    <g id="Group_396" data-name="Group 396" clip-path="url(#clip-path)">
      <path id="Path_310" data-name="Path 310" d="M21.192,0A21.194,21.194,0,1,1,6.207,6.208,21.089,21.089,0,0,1,21.192,0M35.015,7.381A19.56,19.56,0,1,0,40.73,21.192,19.524,19.524,0,0,0,35.015,7.381" fill="#fff"/>
      <path id="Path_311" data-name="Path 311" d="M15.771,21.192a5.427,5.427,0,1,1,5.421,5.433,5.434,5.434,0,0,1-5.421-5.433M26.8,10.573H15.6A5.035,5.035,0,0,0,10.573,15.6V26.8A5.043,5.043,0,0,0,15.6,31.823H26.8A5.036,5.036,0,0,0,31.824,26.8V15.6A5.027,5.027,0,0,0,26.8,10.573M15.6,11.828H26.8A3.771,3.771,0,0,1,30.568,15.6V26.8A3.77,3.77,0,0,1,26.8,30.567H15.6A3.771,3.771,0,0,1,11.828,26.8V15.6A3.771,3.771,0,0,1,15.6,11.828m12.321,1.584a1.1,1.1,0,1,0,1.1,1.1,1.1,1.1,0,0,0-1.1-1.1m.129,7.78a6.852,6.852,0,1,0-6.853,6.853,6.853,6.853,0,0,0,6.853-6.853" fill="#fff" fill-rule="evenodd"/>
    </g>
  </g>
</svg>
