<?xml version="1.0" encoding="UTF-8"?>
<svg width="115px" height="112px" viewBox="0 0 115 112" version="1.1" xmlns="http://www.w3.org/2000/svg" xmlns:xlink="http://www.w3.org/1999/xlink">
    <title>Group 11</title>
    <defs>
        <polygon id="path-1" points="0 0.49152 114.99976 0.49152 114.99976 98.99952 0 98.99952"></polygon>
        <polygon id="path-3" points="0.0063338927 0.157848387 68.9950802 0.157848387 68.9950802 71.3961058 0.0063338927 71.3961058"></polygon>
    </defs>
    <g id="Page-1" stroke="none" stroke-width="1" fill="none" fill-rule="evenodd">
        <g id="V7:-Wyred-World-2020" transform="translate(-250.000000, -3625.000000)">
            <g id="Group-11" transform="translate(250.000000, 3625.000000)">
                <g id="Group-3" transform="translate(0.000000, 13.000000)">
                    <mask id="mask-2" fill="white">
                        <use xlink:href="#path-1"></use>
                    </mask>
                    <g id="Clip-2"></g>
                    <path d="M111.513823,92.01792 C111.513823,93.94272 109.95174,95.50992 108.030281,95.50992 L6.96684375,95.50992 C5.04778125,95.50992 3.48330208,93.94272 3.48330208,92.01792 L3.48330208,88.52832 L111.513823,88.52832 L111.513823,92.01792 Z M11.6147604,72.55152 L103.38476,72.55152 L110.29674,85.03632 L4.70038542,85.03632 L11.6147604,72.55152 Z M114.990177,86.74272 C114.985385,86.55312 114.944656,86.36832 114.879969,86.18832 C114.858406,86.13792 114.846427,86.08752 114.822469,86.04192 C114.803302,86.00592 114.79851,85.96752 114.779344,85.93392 L106.233406,70.49952 L106.233406,7.89552 C106.233406,3.81312 102.919969,0.49152 98.8470521,0.49152 L92.3255938,0.49152 C91.3648646,0.49152 90.5862188,1.27152 90.5862188,2.23872 C90.5862188,3.20352 91.3648646,3.98352 92.3255938,3.98352 L98.8470521,3.98352 C100.996115,3.98352 102.749865,5.73792 102.749865,7.89552 L102.749865,69.05952 L12.4101771,69.05952 L12.4101771,7.89552 C12.4101771,5.73792 14.1591354,3.98352 16.3129896,3.98352 L22.6906979,3.98352 C23.6514271,3.98352 24.4300729,3.20352 24.4300729,2.23872 C24.4300729,1.27152 23.6514271,0.49152 22.6906979,0.49152 L16.3129896,0.49152 C12.2352813,0.49152 8.92423958,3.81312 8.92423958,7.89552 L8.92423958,70.20912 L0.21778125,85.93392 C0.19621875,85.96752 0.191427083,86.00832 0.172260417,86.04672 C0.155489583,86.08992 0.13871875,86.13792 0.119552083,86.18352 C0.05246875,86.36832 0.00934375,86.56032 0.00455208333,86.74992 C0.00455208333,86.76192 -0.000239583333,86.76912 -0.000239583333,86.78112 L-0.000239583333,92.01792 C-0.000239583333,95.86752 3.12632292,98.99952 6.96684375,98.99952 L108.030281,98.99952 C111.873198,98.99952 114.99976,95.86752 114.99976,92.01792 L114.99976,86.78112 C114.99976,86.76672 114.990177,86.75712 114.990177,86.74272 L114.990177,86.74272 Z" id="Fill-1" fill="#FF5959" mask="url(#mask-2)"></path>
                </g>
                <g id="Group-6" transform="translate(22.000000, 0.000000)">
                    <mask id="mask-4" fill="white">
                        <use xlink:href="#path-3"></use>
                    </mask>
                    <g id="Clip-5"></g>
                    <path d="M3.73219987,30.884609 C5.32662459,17.0434219 16.5335674,5.70588968 30.3728836,3.92995742 C39.3345667,2.78295097 47.9889783,5.3516671 54.7441131,11.1662187 C61.4121473,16.9036606 65.3195766,25.2170477 65.4720026,33.9738155 C65.7502406,49.8704574 53.5247048,63.5935703 37.6482025,65.2104639 C33.3028508,65.6562542 28.9865325,65.1815477 24.8226404,63.8080316 C23.2475713,63.2875413 21.5176568,63.29718 19.8191953,63.8393574 L9.4082551,67.1623026 L10.3639421,57.4344348 C10.5550796,55.4729574 10.0832847,53.5596735 9.0308192,52.0463961 C4.74837344,45.8944897 2.86845233,38.3811155 3.73219987,30.884609 M6.13714398,54.041609 C6.71539513,54.8729477 6.97427745,55.9548929 6.86298225,57.089851 L5.64599343,69.4731832 C5.58792636,70.0587348 5.82987245,70.6346477 6.28957002,71.0057381 C6.6065194,71.2611639 6.99847206,71.3961058 7.39526364,71.3961058 C7.57430375,71.3961058 7.75576331,71.3671897 7.93238396,71.3093574 L20.8958554,67.1791703 C21.875737,66.8610929 22.8459408,66.8490445 23.7169467,67.1357961 C28.3574727,68.6659413 33.1649415,69.1864316 38.0062827,68.6972671 C55.6901223,66.8972381 69.2995897,51.6174735 68.9898988,33.9135735 C68.8205365,24.161609 64.4679264,14.9012187 57.0450204,8.51557355 C49.5229165,2.03595097 39.8837844,-0.819516774 29.9204444,0.452792903 C14.4963813,2.43354774 2.01196318,15.0650768 0.236078895,30.4846026 C-0.729285996,38.8293155 1.36838659,47.1957155 6.13714398,54.041609" id="Fill-4" fill="#FF5959" mask="url(#mask-4)"></path>
                </g>
                <path d="M37.7387181,47 L61.2612819,47 C63.3217419,47 65,45.3335096 65,43.2850645 C65,42.304633 64.2037461,41.5163952 63.2163914,41.5163952 C62.2363866,41.5163952 61.4376828,42.304633 61.4376828,43.2850645 C61.4376828,43.3848107 61.3568324,43.4602285 61.2612819,43.4602285 L37.7387181,43.4602285 C37.6407176,43.4602285 37.5623172,43.3848107 37.5623172,43.2850645 L37.5623172,27.7125026 C37.5623172,27.6176222 37.6407176,27.5373387 37.7387181,27.5373387 L61.2612819,27.5373387 C61.3568324,27.5373387 61.4376828,27.6176222 61.4376828,27.7125026 C61.4376828,28.6929342 62.2363866,29.4836048 63.2163914,29.4836048 C64.2037461,29.4836048 65,28.6929342 65,27.7125026 C65,25.6640575 63.3217419,24 61.2612819,24 L37.7387181,24 C35.6733581,24 34,25.6640575 34,27.7125026 L34,43.2850645 C34,45.3335096 35.6733581,47 37.7387181,47" id="Fill-7" fill="#FF5959"></path>
                <path d="M74.4939759,29.2068678 L74.4939759,41.7939154 L65.7686747,35.5028244 L74.4939759,29.2068678 Z M61,35.5028244 C61,36.0720878 61.2746988,36.6072928 61.7349398,36.9430123 L75.2289157,46.6715788 C75.5325301,46.892959 75.886747,47 76.2481928,47 C76.5228916,47 76.7975904,46.9343158 77.0506024,46.80538 C77.6337349,46.5012863 78,45.8930988 78,45.2313909 L78,25.7718251 C78,25.1052516 77.6337349,24.4994969 77.0506024,24.197836 C76.4626506,23.8913095 75.7638554,23.94483 75.2289157,24.3316372 L61.7349398,34.0626365 C61.2746988,34.3934904 61,34.9311282 61,35.5028244 L61,35.5028244 Z" id="Fill-9" fill="#FF5959"></path>
            </g>
        </g>
    </g>
</svg>