<?xml version="1.0" encoding="utf-8"?>
<!-- Generator: Adobe Illustrator 25.2.0, SVG Export Plug-In . SVG Version: 6.00 Build 0)  -->
<svg version="1.1" id="Layer_1" xmlns="http://www.w3.org/2000/svg" xmlns:xlink="http://www.w3.org/1999/xlink" x="0px" y="0px"
	 width="102.22px" height="82.22px" viewBox="0 0 102.22 82.22" style="enable-background:new 0 0 102.22 82.22;"
	 xml:space="preserve">
<style type="text/css">
	.st0{fill:#FFFFFF;}
</style>
<g>
	<path class="st0" d="M33.79,67.36c-10.6,0-17.4-8.6-17.4-19.2c0-26.8,18.4-35.8,31-37v12.2c-7.6,1.2-16,7.4-16.4,16.6
		c1-0.6,2.4-1,4.2-1c9,0,14.2,5.4,14.2,13.8C49.39,60.56,43.19,67.36,33.79,67.36z M73.19,67.36c-10.6,0-17.4-8.6-17.4-19.2
		c0-26.8,18.4-35.8,31-37v12.2c-7.6,1.2-16,7.4-16.4,16.6c1-0.6,2.4-1,4.2-1c9,0,14.2,5.4,14.2,13.8
		C88.79,60.56,82.59,67.36,73.19,67.36z"/>
</g>
</svg>
