<?xml version="1.0" encoding="UTF-8"?>
<svg width="106px" height="105px" viewBox="0 0 106 105" version="1.1" xmlns="http://www.w3.org/2000/svg" xmlns:xlink="http://www.w3.org/1999/xlink">
    <title>Group 5</title>
    <g id="Page-1" stroke="none" stroke-width="1" fill="none" fill-rule="evenodd">
        <g id="V7:-Smart-Meetings" transform="translate(-979.000000, -2556.000000)" fill="#FF5959">
            <g id="Group-5" transform="translate(979.000000, 2556.000000)">
                <path d="M94.4986264,10 C94.7678571,10 95.0192308,9.88824923 95.2101648,9.69785902 C95.396978,9.50746881 95.5,9.25637448 95.5,8.98734484 C95.5,8.7252134 95.396978,8.46446159 95.2101648,8.27407138 C94.8282967,7.90294844 94.168956,7.91122628 93.7980769,8.28372886 C93.6098901,8.46446159 93.5,8.7252134 93.5,8.98734484 C93.5,9.25637448 93.6098901,9.51712629 93.7980769,9.69785902 C93.9793956,9.88824923 94.2403846,10 94.4986264,10" id="Fill-1"></path>
                <path d="M86.4993127,10 C87.0587629,10 87.5,9.55983494 87.5,9.00962861 C87.5,8.44979367 87.0587629,8 86.4993127,8 C85.9494845,8 85.5,8.44979367 85.5,9.00962861 C85.5,9.55983494 85.9494845,10 86.4993127,10" id="Fill-3"></path>
                <path d="M77.4993127,10 C77.7701031,10 78.0312715,9.88842079 78.2099656,9.69832289 C78.3982818,9.50822498 78.5,9.25751615 78.5,8.98889954 C78.5,8.72717054 78.3982818,8.46681906 78.2099656,8.27672115 C77.8388316,7.90616799 77.1694158,7.90616799 76.7996564,8.2863638 C76.6113402,8.46681906 76.5,8.72717054 76.5,8.98889954 C76.5,9.25751615 76.6113402,9.51786763 76.7996564,9.69832289 C76.9797251,9.88842079 77.2408935,10 77.4993127,10" id="Fill-5"></path>
                <path d="M73.9122368,99.8905145 L3.67334535,99.8905145 L3.67334535,78.5536742 C3.67334535,77.6945586 2.96234151,77 2.08558218,77 C1.20882285,77 0.5,77.6945586 0.5,78.5536742 L0.5,101.446326 C0.5,102.305441 1.20882285,103 2.08558218,103 L73.9122368,103 C74.7889962,103 75.5,102.305441 75.5,101.446326 C75.5,100.585073 74.7889962,99.8905145 73.9122368,99.8905145" id="Fill-7"></path>
                <g id="Group-11" transform="translate(1.500000, 0.000000)">
                    <path d="M100.859914,15.7720681 L80.5554231,15.7720681 L3.55632066,15.7720681 L3.55632066,3.15597491 L100.859914,3.15597491 L100.859914,15.7720681 Z M100.859914,54.6200072 L100.859914,89.7403656 L90.3224682,89.7403656 C89.4549578,89.7403656 88.7536123,90.4472832 88.7536123,91.3190036 L88.7536123,99.5136093 L74.9899769,90.0179283 C74.7288606,89.8379462 74.4181106,89.7403656 74.1008866,89.7403656 L44.2645707,89.7403656 L44.2645707,69.8165663 L80.5554231,69.8165663 C81.4207755,69.8165663 82.124279,69.1118172 82.124279,68.2379283 L82.124279,54.6200072 L100.859914,54.6200072 Z M30.3153484,66.6636272 C29.9959665,66.6636272 29.6895325,66.7612079 29.4241002,66.94119 L15.6626227,76.4347025 L15.6626227,68.2379283 C15.6626227,67.3683763 14.9591193,66.6636272 14.0916089,66.6636272 L3.55632066,66.6636272 L3.55632066,18.9250072 L78.9844092,18.9250072 L78.9844092,66.6636272 L30.3153484,66.6636272 Z M102.433086,0.000867383515 L1.98746476,0.000867383515 C1.11779635,0.000867383515 0.416450868,0.705616487 0.416450868,1.57733692 L0.416450868,17.3485376 L0.416450868,68.2379283 C0.416450868,69.1118172 1.11779635,69.8165663 1.98746476,69.8165663 L12.520595,69.8165663 L12.520595,79.4293441 C12.520595,80.0169964 12.8464509,80.5526057 13.3622095,80.8258315 C13.5931141,80.9472652 13.8434405,81.0079821 14.0916089,81.0079821 C14.4045168,81.0079821 14.7152668,80.9147384 14.9828571,80.7304194 L30.8008953,69.8165663 L41.1247009,69.8165663 L41.1247009,91.3190036 C41.1247009,92.1885556 41.8282043,92.8933047 42.6957148,92.8933047 L73.6131818,92.8933047 L89.433378,103.809326 C89.6988102,103.993645 90.0117182,104.086889 90.3224682,104.086889 C90.5706366,104.086889 90.825279,104.024004 91.0540255,103.904738 C91.5654682,103.631513 91.8913241,103.095903 91.8913241,102.508251 L91.8913241,92.8933047 L102.433086,92.8933047 C103.298439,92.8933047 103.999784,92.1885556 103.999784,91.3190036 L103.999784,53.0413692 C103.999784,52.1739857 103.298439,51.4670681 102.433086,51.4670681 L82.124279,51.4670681 L82.124279,18.9250072 L100.859914,18.9250072 L100.859914,42.003914 C100.859914,42.8734659 101.563418,43.5803835 102.433086,43.5803835 C103.298439,43.5803835 103.999784,42.8734659 103.999784,42.003914 L103.999784,17.3485376 L103.999784,1.57733692 C103.999784,0.705616487 103.298439,0.000867383515 102.433086,0.000867383515 L102.433086,0.000867383515 Z" id="Fill-9"></path>
                </g>
                <path d="M33.1174298,41.3490302 C32.4261448,41.8856131 32.3242245,42.8531523 32.8870015,43.5080369 C33.782127,44.5600774 34.2762186,45.8825219 34.2762186,47.2345417 L34.2762186,54.9283798 L16.7237814,54.9283798 L16.7237814,47.2345417 C16.7237814,45.8825219 17.2156573,44.5600774 18.1129985,43.5080369 C18.6735598,42.8531523 18.5716396,41.8856131 17.8825702,41.3490302 C17.1912851,40.8061097 16.176514,40.9096237 15.6159527,41.5687334 C14.2488922,43.1615818 13.5,45.1769365 13.5,47.2345417 L13.5,56.4641899 C13.5,57.3134274 14.2200886,58 15.1107829,58 L35.8892171,58 C36.7799114,58 37.5,57.3134274 37.5,56.4641899 L37.5,47.2345417 C37.5,45.1769365 36.7466765,43.1615818 35.3818316,41.5687334 C34.8212703,40.9096237 33.8087149,40.8061097 33.1174298,41.3490302" id="Fill-12"></path>
                <path d="M25.9990233,30.8422595 C27.7434478,30.8422595 29.1577405,32.2585056 29.1577405,34.0009767 C29.1577405,35.7434478 27.7434478,37.159694 25.9990233,37.159694 C24.2565522,37.159694 22.840306,35.7434478 22.840306,34.0009767 C22.840306,32.2585056 24.2565522,30.8422595 25.9990233,30.8422595 M25.9990233,40 C29.3081556,40 32,37.3101091 32,34.0009767 C32,30.6918444 29.3081556,28 25.9990233,28 C22.6918444,28 20,30.6918444 20,34.0009767 C20,37.3101091 22.6918444,40 25.9990233,40" id="Fill-14"></path>
                <path d="M67.9477612,30 L43.0479744,30 C42.1908316,30 41.5,30.4470426 41.5,31.0013755 C41.5,31.5529574 42.1908316,32 43.0479744,32 L67.9477612,32 C68.8049041,32 69.5,31.5529574 69.5,31.0013755 C69.5,30.4470426 68.8049041,30 67.9477612,30" id="Fill-16"></path>
                <path d="M68.0089606,42 L58.9889913,42 C58.1656426,42 57.5,42.4467354 57.5,43.0006873 C57.5,43.55189 58.1656426,44 58.9889913,44 L68.0089606,44 C68.8323093,44 69.5,43.55189 69.5,43.0006873 C69.5,42.4467354 68.8323093,42 68.0089606,42" id="Fill-18"></path>
                <path d="M45.0585656,44 L52.9414344,44 C53.8032547,44 54.5,43.55189 54.5,42.9993127 C54.5,42.4467354 53.8032547,42 52.9414344,42 L45.0585656,42 C44.1967453,42 43.5,42.4467354 43.5,42.9993127 C43.5,43.55189 44.1967453,44 45.0585656,44" id="Fill-20"></path>
                <path d="M64.0045486,52 L45.991343,52 C45.1655581,52 44.5,52.4467354 44.5,53.0006873 C44.5,53.5532646 45.1655581,54 45.991343,54 L64.0045486,54 C64.8303336,54 65.5,53.5532646 65.5,53.0006873 C65.5,52.4467354 64.8303336,52 64.0045486,52" id="Fill-22"></path>
                <path d="M73.5,78.9993127 C73.5,79.55189 74.221993,80 75.1150428,80 L92.8849572,80 C93.7757855,80 94.5,79.55189 94.5,78.9993127 C94.5,78.44811 93.7757855,78 92.8849572,78 L75.1150428,78 C74.221993,78 73.5,78.44811 73.5,78.9993127" id="Fill-24"></path>
                <path d="M66.8984601,78 L54.1015399,78 C53.2149732,78 52.5,78.4470426 52.5,79 C52.5,79.5529574 53.2149732,80 54.1015399,80 L66.8984601,80 C67.7828269,80 68.5,79.5529574 68.5,79 C68.5,78.4470426 67.7828269,78 66.8984601,78" id="Fill-26"></path>
            </g>
        </g>
    </g>
</svg>