<?xml version="1.0" encoding="UTF-8"?>
<svg width="107px" height="106px" viewBox="0 0 107 106" version="1.1" xmlns="http://www.w3.org/2000/svg" xmlns:xlink="http://www.w3.org/1999/xlink">
    <title>Group 22</title>
    <defs>
        <polygon id="path-1" points="0.00110166289 0 105.759637 0 105.759637 106 0.00110166289 106"></polygon>
    </defs>
    <g id="Page-1" stroke="none" stroke-width="1" fill="none" fill-rule="evenodd">
        <g id="V7:-Smart-Meetings" transform="translate(-256.000000, -2554.000000)">
            <g id="Group-22" transform="translate(256.000000, 2554.000000)">
                <g id="Group-3" transform="translate(0.500000, 0.000000)">
                    <mask id="mask-2" fill="white">
                        <use xlink:href="#path-1"></use>
                    </mask>
                    <g id="Clip-2"></g>
                    <path d="M102.5549,88.331125 C102.5549,90.1044167 101.118331,91.5420417 99.3490608,91.5420417 L64.897859,91.5420417 L40.8617782,91.5420417 L6.41057634,91.5420417 C4.64350907,91.5420417 3.20473734,90.1044167 3.20473734,88.331125 L3.20473734,81.9070833 L8.45305933,81.9070833 L71.0297147,81.9070833 L102.5549,81.9070833 L102.5549,88.331125 Z M42.463596,102.786875 L63.2960412,102.786875 L63.2960412,94.7551667 L42.463596,94.7551667 L42.463596,102.786875 Z M33.339624,61.5749583 C35.3578704,62.6040417 37.5281463,63.1450833 39.7270654,63.1450833 C41.9259845,63.1450833 44.0962604,62.6040417 46.1123035,61.5749583 C46.5750019,62.9595833 47.3175227,64.395 48.5029119,65.7509167 C47.6634448,67.0273333 43.8450813,69.0015833 39.7402853,70.2161667 C35.6244728,68.999375 31.7972959,67.0229167 30.9732521,65.7420833 C32.149828,64.388375 32.8813322,62.9595833 33.339624,61.5749583 L33.339624,61.5749583 Z M27.2804781,31.0822917 C28.8580593,27.9950417 32.2820276,24.664875 39.7402853,24.664875 C47.5180253,24.664875 50.8957237,28.3174583 52.3675454,31.568125 C50.2677759,31.1419167 47.2580329,31.1419167 43.4176361,32.7230833 C37.0235847,35.370875 30.0015854,32.4536667 27.2804781,31.0822917 L27.2804781,31.0822917 Z M23.8344766,40.4566667 C24.3214116,40.61125 24.8524131,40.5229167 25.264435,40.2181667 C25.6742536,39.9134167 25.9166194,39.4342083 25.9166194,38.9240833 C25.9166194,38.5729583 25.9254327,36.4882917 25.934246,36.152625 C25.940856,35.8832083 25.9893292,35.1301667 26.2008485,34.1430417 C28.5297638,35.28475 32.8637056,37.0205 37.7330556,37.0205 C39.9694312,37.0205 42.3203798,36.6517083 44.6382785,35.6955 C49.4084788,33.7256667 52.3433088,34.7194167 53.4119218,35.2538333 C53.4625983,35.6425 53.4890382,35.9649167 53.4978515,36.1813333 C53.5220881,36.7245833 53.5375113,38.3477083 53.5375113,38.9240833 C53.5375113,39.4342083 53.7997071,39.9112083 54.2095257,40.2159583 C54.6017177,40.5030417 55.1194992,40.591375 55.591011,40.4677083 C55.8730367,40.6775 56.4238681,41.7617917 56.2718386,43.466625 C56.1154025,45.2244583 55.3310185,46.1895 55.1261092,46.2667917 C54.692054,46.057 54.1874924,46.0525833 53.7534373,46.2579583 C53.3171788,46.461125 52.9976965,46.8497917 52.8787169,47.3201667 C51.7550208,51.7522917 49.4327154,55.4335833 46.3370427,57.6860833 C42.3005499,60.6231667 37.1447676,60.6231667 33.1104781,57.67725 C30.0170087,55.4269583 27.6969067,51.7456667 26.5776172,47.3201667 C26.4586376,46.8497917 26.1722052,46.4589167 25.7359467,46.2535417 C25.5200208,46.1541667 25.2930782,46.103375 25.068339,46.103375 C24.8413964,46.103375 24.6144539,46.1541667 24.3963246,46.2601667 C24.1253156,46.1895 23.3409316,45.2244583 23.1844955,43.466625 C23.0236527,41.664625 23.6471939,40.55825 23.8344766,40.4566667 L23.8344766,40.4566667 Z M28.1596051,67.1686667 C30.1315816,70.5937917 36.9662982,72.7778333 39.3084335,73.4337083 C39.4494463,73.47125 39.5948658,73.4955417 39.7402853,73.4955417 C39.8857048,73.4955417 40.0333277,73.47125 40.1721372,73.4337083 C42.5120692,72.7778333 49.3379724,70.5982083 51.3187623,67.1752917 C52.277209,67.356375 53.2290457,67.5529167 54.1676625,67.7958333 L54.1698658,67.7958333 C54.1985091,67.8046667 54.2293556,67.8112917 54.2602022,67.8223333 L54.6457842,67.9217083 C55.5623677,68.17125 56.4701379,68.4450833 57.3712982,68.741 C59.6120805,69.4609167 61.70524,70.2934583 63.5912868,71.212125 C67.5440533,73.133375 69.4256935,74.6946667 69.4256935,78.4024583 L69.4256935,78.6939583 L10.0548772,78.6939583 L10.0548772,78.4024583 C10.0548772,74.6946667 11.9365174,73.133375 15.8914872,71.212125 C17.7687207,70.3000833 19.8530669,69.4675417 22.0894426,68.747625 C23.1492423,68.4009167 24.2178553,68.0762917 25.3018915,67.7980417 C26.244915,67.5573333 27.198955,67.356375 28.1596051,67.1686667 L28.1596051,67.1686667 Z M3.20473734,12.8480833 C3.20473734,11.0792083 4.64350907,9.63495833 6.41057634,9.63495833 L45.0304705,9.63495833 C45.7751946,13.296375 49.0118802,16.059 52.8809203,16.059 C56.747757,16.059 59.9866459,13.296375 60.73137,9.63495833 L99.3490608,9.63495833 C101.118331,9.63495833 102.5549,11.0792083 102.5549,12.8480833 L102.5549,78.6939583 L72.6315325,78.6939583 L72.6315325,78.4024583 C72.6315325,72.5260833 68.8572354,70.1985 64.9881954,68.3192083 C62.9677457,67.3387083 60.73798,66.4531667 58.3561848,65.6824583 C57.2435053,65.3202917 56.1198091,64.984625 54.9784864,64.6865 L54.9718764,64.6865 C53.7181841,64.361875 52.4424584,64.1145417 51.1601228,63.8915 C49.9064305,62.5510417 49.2388228,61.089125 48.9061206,59.7354167 C51.9489135,57.273125 54.2954554,53.682375 55.6152475,49.4247083 C56.1903156,49.3253333 56.7455537,49.0603333 57.2523186,48.64075 C58.4531311,47.6447917 59.2815816,45.8140833 59.4644577,43.7515 C59.7354667,40.7150417 58.594144,38.193125 56.7323337,37.4555417 C56.7235204,36.8835833 56.7125038,36.3204583 56.6992838,36.0377917 C56.6882672,35.7507083 56.6353874,35.0352083 56.4547147,34.0767917 C56.4525113,34.06575 56.450308,34.059125 56.4481047,34.0502917 C55.6747373,29.9737083 52.5305915,21.4539583 39.7402853,21.4539583 C23.3012717,21.4539583 22.7460336,35.4724583 22.7306104,36.0709167 C22.7262037,36.23875 22.7217971,36.8460417 22.7173904,37.4555417 C20.8599868,38.19975 19.7208673,40.7194583 19.9918764,43.7515 C20.1747525,45.8185 21.0032029,47.6447917 22.2062188,48.64075 C22.7107804,49.0603333 23.2660185,49.3253333 23.8410865,49.4247083 C25.1608787,53.6867917 27.5118273,57.2775417 30.5590268,59.7420417 C30.2307313,61.0869167 29.5631236,62.5422083 28.3204478,63.8760417 C27.0359089,64.1079167 25.75798,64.361875 24.5042876,64.6865 C23.4665212,64.9559167 22.3538416,65.2805417 21.1045559,65.6890833 C18.7293707,66.4597917 16.5040117,67.343125 14.4923753,68.3192083 C10.6255385,70.1985 6.84903817,72.5260833 6.84903817,78.4024583 L6.84903817,78.6939583 L3.20473734,78.6939583 L3.20473734,12.8480833 Z M52.8809203,3.21091667 C55.5315212,3.21091667 57.6885771,5.372875 57.6885771,8.0295 C57.6885771,10.6883333 55.5315212,12.8480833 52.8809203,12.8480833 C50.228116,12.8480833 48.0732634,10.6883333 48.0732634,8.0295 C48.0732634,5.372875 50.228116,3.21091667 52.8809203,3.21091667 L52.8809203,3.21091667 Z M60.73137,6.42404167 C59.9866459,2.762625 56.747757,0 52.8809203,0 C49.0118802,0 45.7751946,2.762625 45.0304705,6.42404167 L6.41057634,6.42404167 C2.8764418,6.42404167 0.00110166289,9.30591667 0.00110166289,12.8480833 L0.00110166289,80.301625 L0.00110166289,88.331125 C0.00110166289,91.8732917 2.8764418,94.7551667 6.41057634,94.7551667 L39.257757,94.7551667 L39.257757,102.786875 L28.8426361,102.786875 C27.9591024,102.786875 27.2408182,103.504583 27.2408182,104.390125 C27.2408182,105.277875 27.9591024,106 28.8426361,106 L40.8617782,106 L64.897859,106 L76.9170011,106 C77.8027381,106 78.518819,105.277875 78.518819,104.390125 C78.518819,103.504583 77.8027381,102.786875 76.9170011,102.786875 L66.5018802,102.786875 L66.5018802,94.7551667 L99.3490608,94.7551667 C102.883195,94.7551667 105.760739,91.8732917 105.760739,88.331125 L105.760739,80.301625 L105.760739,12.8480833 C105.760739,9.30591667 102.883195,6.42404167 99.3490608,6.42404167 L60.73137,6.42404167 Z" id="Fill-1" fill="#FF5959" mask="url(#mask-2)"></path>
                </g>
                <path d="M53.4986254,84 C52.3934708,84 51.5,84.8989691 51.5,86.0041237 C51.5,87.1065292 52.3934708,88 53.4986254,88 C54.6037801,88 55.5,87.1065292 55.5,86.0041237 C55.5,84.8989691 54.6037801,84 53.4986254,84" id="Fill-4" fill="#FF5959"></path>
                <path d="M61.2330583,52.5171582 L69.0727755,57.7110868 L69.0727755,62.3764792 C69.0727755,63.2707537 69.8388332,64 70.7863877,64 C71.7339423,64 72.5,63.2707537 72.5,62.3764792 L72.5,56.8658747 C72.5,56.3373384 72.2289334,55.8422538 71.7692988,55.5367286 L65.2047731,51.1902421 L71.7692988,46.8392955 C72.2289334,46.5360004 72.5,46.0409157 72.5,45.5101493 L72.5,16.6190606 C72.5,15.7247861 71.7339423,15 70.7863877,15 C69.8388332,15 69.0727755,15.7247861 69.0727755,16.6190606 L69.0727755,44.6671673 L61.2330583,49.8633261 C60.7757808,50.164391 60.5,50.6617058 60.5,51.1902421 C60.5,51.7210086 60.7757808,52.2138631 61.2330583,52.5171582" id="Fill-6" fill="#FF5959"></path>
                <path d="M78.2139489,20 L86.7860511,20 C87.7337917,20 88.5,19.1059147 88.5,17.997249 C88.5,16.8940853 87.7337917,16 86.7860511,16 L78.2139489,16 C77.2662083,16 76.5,16.8940853 76.5,17.997249 C76.5,19.1059147 77.2662083,20 78.2139489,20" id="Fill-8" fill="#FF5959"></path>
                <path d="M93.25,20 L96.75,20 C97.7152682,20 98.5,19.1059147 98.5,17.997249 C98.5,16.8940853 97.7152682,16 96.75,16 L93.25,16 C92.2823246,16 91.5,16.8940853 91.5,17.997249 C91.5,19.1059147 92.2823246,20 93.25,20" id="Fill-10" fill="#FF5959"></path>
                <path d="M89.1662847,32 L95.8337153,32 C96.7550997,32 97.5,31.1059147 97.5,29.997249 C97.5,28.8940853 96.7550997,28 95.8337153,28 L89.1662847,28 C88.2471923,28 87.5,28.8940853 87.5,29.997249 C87.5,31.1059147 88.2471923,32 89.1662847,32" id="Fill-12" fill="#FF5959"></path>
                <path d="M78.09956,32 L82.8982398,32 C83.7827283,32 84.5,31.1059147 84.5,29.997249 C84.5,28.8940853 83.7827283,28 82.8982398,28 L78.09956,28 C77.2150715,28 76.5,28.8940853 76.5,29.997249 C76.5,31.1059147 77.2150715,32 78.09956,32" id="Fill-14" fill="#FF5959"></path>
                <path d="M78.09956,44 L90.90044,44 C91.7827283,44 92.5,43.1065292 92.5,42.0013746 C92.5,40.8934708 91.7827283,40 90.90044,40 L78.09956,40 C77.2150715,40 76.5,40.8934708 76.5,42.0013746 C76.5,43.1065292 77.2150715,44 78.09956,44" id="Fill-16" fill="#FF5959"></path>
                <path d="M78.114872,53 L95.885128,53 C96.7780834,53 97.5,52.1065292 97.5,50.9958763 C97.5,49.8934708 96.7780834,49 95.885128,49 L78.114872,49 C77.2219166,49 76.5,49.8934708 76.5,50.9958763 C76.5,52.1065292 77.2219166,53 78.114872,53" id="Fill-18" fill="#FF5959"></path>
                <path d="M78.2493984,64 L88.7481953,64 C89.715538,64 90.5,63.1010309 90.5,61.9958763 C90.5,60.8934708 89.715538,60 88.7481953,60 L78.2493984,60 C77.2820557,60 76.5,60.8934708 76.5,61.9958763 C76.5,63.1010309 77.2820557,64 78.2493984,64" id="Fill-20" fill="#FF5959"></path>
            </g>
        </g>
    </g>
</svg>