<?xml version="1.0" encoding="UTF-8"?>
<svg width="106px" height="106px" viewBox="0 0 106 106" version="1.1" xmlns="http://www.w3.org/2000/svg" xmlns:xlink="http://www.w3.org/1999/xlink">
    <title>Group 24</title>
    <defs>
        <polygon id="path-1" points="0 0 106 0 106 106 0 106"></polygon>
        <path d="M41.8629474,0.0548582219 C18.8182105,0.125711251 0.192315789,18.9017639 0.265049617,41.9865663 L0.265049617,41.9865663 C0.338210526,65.0713688 19.0790526,83.7256428 42.126,83.6527895 L42.126,83.6527895 C65.1751579,83.5795084 83.7988421,64.8056699 83.7283061,41.7230816 L83.7283061,41.7230816 C83.6551579,18.6825623 64.9828421,0.0526440648 42,0.0548582219 L42,0.0548582219 C41.9535789,0.0548582219 41.9093684,0.0548582219 41.8629474,0.0548582219" id="path-3"></path>
        <path d="M41.8629474,0.0548582219 C18.8182105,0.125711251 0.192315789,18.9017639 0.265049617,41.9865663 L0.265049617,41.9865663 C0.338210526,65.0713688 19.0790526,83.7256428 42.126,83.6527895 L42.126,83.6527895 C65.1751579,83.5795084 83.7988421,64.8056699 83.7283061,41.7230816 L83.7283061,41.7230816 C83.6551579,18.6825623 64.9828421,0.0526440648 42,0.0548582219 L42,0.0548582219 C41.9535789,0.0548582219 41.9093684,0.0548582219 41.8629474,0.0548582219" id="path-5"></path>
        <path d="M41.8629474,0.0548582219 C18.8182105,0.125711251 0.192315789,18.9017639 0.265049617,41.9865663 L0.265049617,41.9865663 C0.338210526,65.0713688 19.0790526,83.7256428 42.126,83.6527895 L42.126,83.6527895 C65.1751579,83.5795084 83.7988421,64.8056699 83.7283061,41.7230816 L83.7283061,41.7230816 C83.6551579,18.6825623 64.9828421,0.0526440648 42,0.0548582219 L42,0.0548582219 C41.9535789,0.0548582219 41.9093684,0.0548582219 41.8629474,0.0548582219 L41.8629474,0.0548582219 Z" id="path-7"></path>
        <path d="M0.265049617,41.9865663 C0.338210526,65.0713688 19.0790526,83.7256428 42.126,83.6527895 C65.1751579,83.5795084 83.7988421,64.8056699 83.7283061,41.7230816 C83.6551579,18.6825623 64.9828421,0.0526440648 42,0.0548582219 C41.9535789,0.0548582219 41.9093684,0.0548582219 41.8629474,0.0548582219 C18.8182105,0.125711251 0.192315789,18.9017639 0.265049617,41.9865663 Z" id="path-9"></path>
    </defs>
    <g id="Page-1" stroke="none" stroke-width="1" fill="none" fill-rule="evenodd">
        <g id="V7:-Smart-Meetings" transform="translate(-731.000000, -2553.000000)">
            <g id="Group-24" transform="translate(731.000000, 2553.000000)">
                <mask id="mask-2" fill="white">
                    <use xlink:href="#path-1"></use>
                </mask>
                <g id="Clip-2"></g>
                <path d="M53,96.0514583 C29.222875,96.0514583 9.94854167,76.7749167 9.94854167,53 C9.94854167,29.2206667 29.222875,9.94854167 53,9.94854167 C76.7793333,9.94854167 96.0536667,29.2206667 96.0536667,53 C96.0536667,76.7749167 76.7793333,96.0514583 53,96.0514583 M104.394542,51.3945417 L99.5362083,51.3945417 C98.7036667,26.9880417 79.0119583,7.29854167 54.6076667,6.466 L54.6076667,1.60545833 C54.6076667,0.719916667 53.88775,0 53,0 C52.1144583,0 51.3945417,0.719916667 51.3945417,1.60545833 L51.3945417,6.466 C26.99025,7.29854167 7.29854167,26.9880417 6.466,51.3945417 L1.60766667,51.3945417 C0.719916667,51.3945417 0,52.1144583 0,53 C0,53.8855417 0.719916667,54.60325 1.60766667,54.60325 L6.466,54.60325 C7.29854167,79.00975 26.99025,98.7014583 51.3945417,99.534 L51.3945417,104.394542 C51.3945417,105.282292 52.1144583,106 53,106 C53.88775,106 54.6076667,105.282292 54.6076667,104.394542 L54.6076667,99.534 C79.0119583,98.7014583 98.7036667,79.00975 99.5362083,54.60325 L104.394542,54.60325 C105.282292,54.60325 106,53.8855417 106,53 C106,52.1144583 105.282292,51.3945417 104.394542,51.3945417" id="Fill-1" fill="#FF5959" mask="url(#mask-2)"></path>
                <g id="Group-6" mask="url(#mask-2)">
                    <g transform="translate(12.000000, 10.000000)">
                        <mask id="mask-4" fill="white">
                            <use xlink:href="#path-3"></use>
                        </mask>
                        <g id="Clip-5" stroke="none" fill="none"></g>
                        <path d="M14.1155368,59.9996204 C14.3012211,60.1036858 14.5068,60.1523973 14.7145895,60.1523973 C14.8516421,60.1523973 14.9909053,60.1302557 15.1235368,60.0837584 C18.3376421,58.9523241 22.0557474,58.0400914 26.1717474,57.37363 C26.8503789,57.2651363 27.3123789,56.6274591 27.2040632,55.9454987 C27.0935368,55.2635383 26.4569053,54.8096361 25.7716421,54.9114873 C22.0645895,55.513738 18.6581684,56.3108346 15.6253263,57.2806354 C15.0970105,54.7564963 14.6173263,51.5216127 14.6084842,48.8181268 C14.5421684,28.5430898 25.2565895,15.4064954 41.8974316,15.3533556 C58.5404842,15.30243 69.3344842,28.3703855 69.4008,48.6454226 C69.4096421,51.3444801 68.9476421,54.5860062 68.4348,57.1145737 C65.3953263,56.1647002 61.9844842,55.3875311 58.2730105,54.8096361 C57.5988,54.7077848 56.9555368,55.1705437 56.8494316,55.8502899 C56.7433263,56.5344645 57.2097474,57.1699276 57.8905895,57.2762071 C62.0088,57.9160986 65.7335368,58.8017614 68.9564842,59.9132683 C69.2902737,60.0284045 69.6528,59.9951921 69.9644842,59.824702 C70.2717474,59.6519978 70.4950105,59.359729 70.5723789,59.0165347 C71.2178526,56.2377674 71.9031158,52.0530104 71.8921951,48.6365659 C71.8213263,26.8448313 60.0458526,12.8026466 41.8885895,12.8600384 C23.7357474,12.9177828 12.0464842,27.0352488 12.1169018,48.8269834 C12.1282737,52.2478562 12.8378526,56.4259708 13.5010105,59.1980955 C13.5828,59.5390757 13.8038526,59.8313445 14.1155368,59.9996204" id="Fill-4" stroke="none" fill="#FF5959" fill-rule="evenodd" mask="url(#mask-4)"></path>
                    </g>
                </g>
                <g id="Group-9" mask="url(#mask-2)">
                    <g transform="translate(12.000000, 10.000000)">
                        <mask id="mask-6" fill="white">
                            <use xlink:href="#path-5"></use>
                        </mask>
                        <g id="Clip-8" stroke="none" fill="none"></g>
                        <path d="M42.0017684,13.1367629 L41.8890316,13.1367629 C23.9019789,13.194331 12.3232421,27.2055175 12.3914659,48.826762 C12.4028211,52.2254933 13.1124,56.3792521 13.7689263,59.1314494 C13.8330316,59.3993624 14.0076632,59.6252065 14.2464,59.7558417 L14.2486105,59.7580559 C14.4785053,59.8886912 14.7636632,59.9174752 15.0355579,59.8222664 C18.2673474,58.6841897 21.9987158,57.7675286 26.1279789,57.1010673 C26.6540842,57.0147152 27.0144,56.5165298 26.9326105,55.9895604 C26.8464,55.4559485 26.3512421,55.0994692 25.8140842,55.1858214 C22.1424,55.7814296 18.7404,56.5740979 15.7075579,57.5461129 L15.4179789,57.6391075 L15.3538737,57.3379821 C15.0510316,55.8810667 14.3414526,52.1324987 14.3304,48.8179054 C14.2662947,28.3768066 25.0868211,15.1295044 41.8978737,15.0763646 L41.9973474,15.0763646 C58.7509263,15.0763646 69.6112421,28.2395288 69.6775579,48.6452011 C69.6864,51.9553661 69.0011368,55.7105766 68.7049263,57.1697062 L68.6452421,57.4708315 L68.3534526,57.3778369 C65.3139789,56.4279635 61.9075579,55.6552227 58.2292421,55.081756 C57.7075579,55.0020463 57.2035579,55.3673823 57.1217684,55.8943517 C57.0421895,56.4213211 57.4047158,56.9172923 57.9330316,57.0036444 C62.0733474,57.64575 65.8113474,58.5358411 69.0453474,59.6517763 C69.3084,59.7403426 69.5869263,59.7159869 69.8300842,59.5831375 C70.0688211,59.4480739 70.2434526,59.2178015 70.3031368,58.9543168 C70.9441895,56.1910487 71.6250316,52.0328616 71.6141117,48.6363445 C71.5808211,38.0106043 68.7601895,29.0521245 63.4615579,22.73292 C58.1960842,16.4535703 50.7775579,13.1367629 42.0017684,13.1367629 M14.7128211,60.4289455 C14.4541895,60.4289455 14.2021895,60.3647349 13.9811368,60.2407421 C13.6053474,60.0370397 13.3312421,59.6805604 13.2317684,59.2620847 C12.5664,56.476675 11.8501895,52.2764189 11.8388399,48.826762 C11.7706105,26.8689656 23.5659789,12.6407917 41.8890316,12.5832236 L42.0017684,12.5832236 C50.9477684,12.5832236 58.5121895,15.9664558 63.8837684,22.3764407 C69.2686105,28.7974964 72.1334526,37.8777549 72.1667421,48.6363445 C72.1776632,52.0793589 71.4901895,56.2862575 70.8425053,59.0783096 C70.7474526,59.4945712 70.4777684,59.8554788 70.0975579,60.0658237 C69.7195579,60.2717403 69.2686105,60.3138093 68.8662947,60.1743174 C65.6632421,59.069453 61.9561895,58.1882185 57.8468211,57.548327 C57.0178737,57.4199059 56.4475579,56.6383085 56.5779789,55.8057854 C56.7039789,54.9821189 57.4666105,54.4175088 58.3132421,54.5348592 C61.9009263,55.0928268 65.2344,55.8412119 68.2230316,56.7600871 C68.5391368,55.1503949 69.1337684,51.700738 69.1249263,48.6452011 C69.0586105,28.580509 58.4149263,15.6299039 41.9973474,15.6299039 L41.8978737,15.6299039 C25.4228211,15.6830436 14.8189263,28.7089302 14.8830316,48.8179054 C14.8896632,51.038705 15.2367158,53.9791057 15.8335579,56.9239347 C18.8177684,55.9895604 22.1446105,55.2190337 25.7300842,54.6389246 C26.5789263,54.5016468 27.3415579,55.068471 27.4764,55.9009941 C27.6068211,56.7290889 27.0409263,57.5129005 26.2164,57.6479641 C22.1202947,58.3099971 18.4198737,59.2178015 15.2146105,60.3448075 C15.0488211,60.4023756 14.8786105,60.4289455 14.7128211,60.4289455" id="Fill-7" stroke="none" fill="#FF5959" fill-rule="evenodd" mask="url(#mask-6)"></path>
                    </g>
                </g>
                <g id="Group-12" mask="url(#mask-2)">
                    <g transform="translate(12.000000, 10.000000)">
                        <mask id="mask-8" fill="white">
                            <use xlink:href="#path-7"></use>
                        </mask>
                        <g id="Clip-11" stroke="none" fill="none"></g>
                        <path d="M73.9679684,92.5869211 L63.9034421,92.6201335 C63.7995474,90.0959943 63.4436526,87.8596956 63.0833368,85.7075349 C62.2256526,80.5906177 61.4188105,75.7371852 64.1200737,67.1064006 C65.6232316,67.6953664 67.0468105,68.3197588 68.3664947,68.9928625 C71.7817579,70.7376184 73.9104947,74.1673478 73.9215474,77.946914 L73.9679684,92.5869211 Z M60.6274421,86.1193681 C60.9877579,88.2604581 61.3127053,90.3151959 61.4143895,92.626776 L42.1540737,92.6887724 L22.8959684,92.7485546 C22.9843895,90.4347604 23.2982842,88.3800225 23.6431263,86.2389326 C24.4853368,81.0245925 25.3430211,75.635334 22.3676526,66.3801571 C22.6815474,66.2738775 22.9888105,66.1609555 23.3093368,66.0568901 C24.5892316,65.6384144 25.6657579,65.3151475 26.7489158,65.0339495 C26.9102842,64.9830239 27.0871263,64.9453833 27.2529158,64.8966718 C28.2299684,70.3922098 34.5056526,74.6367491 42.0855474,74.6123934 C49.6676526,74.5880377 55.9190211,70.3036436 56.8584947,64.7948206 C57.0486,64.8501745 57.2453368,64.8922435 57.4354421,64.9475974 C58.4721789,65.2110821 59.5531263,65.5277066 60.8374421,65.9373257 C61.1557579,66.041391 61.4652316,66.1520989 61.7769158,66.2561643 C58.8612316,75.5290544 59.7520737,80.9160988 60.6274421,86.1193681 L60.6274421,86.1193681 Z M21.1850211,85.8381701 C20.8379684,87.9947592 20.4975474,90.2354862 20.4091263,92.7551971 L10.3446,92.7884094 L10.2959252,78.1484023 C10.2849158,74.3666219 12.3937579,70.9258217 15.7979684,69.1589243 C17.1110211,68.4769639 18.5346,67.843715 20.0311263,67.2481067 C22.7876526,75.8589639 22.0117579,80.7190388 21.1850211,85.8381701 L21.1850211,85.8381701 Z M31.1699684,63.9733683 C31.2097579,63.9667258 31.2429158,63.9401559 31.2804947,63.9290851 C31.3556526,63.9047294 31.4219684,63.8803737 31.4882842,63.8449472 C31.5855474,63.7962357 31.6695474,63.7430959 31.7469158,63.6722429 C31.7668105,63.6567438 31.7911263,63.6523155 31.8110211,63.6323881 C33.5484947,61.8942747 34.4879684,59.925889 34.9941789,58.2121314 C37.2047053,59.4299178 39.6053368,60.0720234 42.0391263,60.0653809 C44.4707053,60.0587384 46.8647053,59.4033479 49.0686,58.1700624 C49.6787053,60.2048728 50.7419684,62.0226958 52.3026,63.5637492 C52.3335474,63.5925332 52.3711263,63.6013899 52.4020737,63.6323881 C52.4683895,63.6810995 52.5391263,63.7275968 52.6164947,63.7674517 C52.6916526,63.8073065 52.7646,63.8360905 52.8441789,63.8560179 C52.8861789,63.8693029 52.9193368,63.8958728 52.9613368,63.9047294 C53.4631263,63.9910815 53.9494421,64.1040035 54.4423895,64.2080689 C53.8411263,68.6208841 48.5314421,72.099325 42.0767053,72.1215527 C35.6263895,72.141394 30.2968105,68.7005938 29.6623895,64.2922069 C30.1619684,64.181499 30.6571263,64.0663629 31.1699684,63.9733683 L31.1699684,63.9733683 Z M27.6596526,43.9618159 C27.5668105,43.6009083 27.3170211,43.299783 26.9788105,43.1425778 C26.6406,42.9875868 26.2515474,42.9875868 25.9155474,43.1492203 C25.8735474,43.1691477 25.8337579,43.1824326 25.7961789,43.1846468 C25.6215474,43.2090025 25.4447053,43.0695106 25.3452316,42.9875868 C24.8434421,42.5757536 24.2023895,41.5041015 24.0498632,39.8368412 C23.8641789,37.819744 24.5936526,36.3362587 25.3761789,36.1214855 C26.0150211,35.9487812 26.4549158,36.1812677 26.7467053,36.340687 C26.7931263,36.3628286 26.8329158,36.382756 26.8727053,36.4026834 C27.0628105,36.5311045 27.2772316,36.6240991 27.5181789,36.621885 C28.2056526,36.6196708 28.7582842,36.1104147 28.7560737,35.4218118 C28.7604947,35.3863853 29.3639684,31.8370914 32.2221789,30.2362558 C34.4769158,28.9697579 37.5738632,29.2155293 41.4290211,30.9713559 C41.7561789,31.1197045 42.1319684,31.1174903 42.4547053,30.9713559 C46.1617579,29.2996673 49.2034421,29.0716091 51.4913368,30.3048946 C54.3473368,31.8370914 55.1298632,35.1118298 55.1807053,35.3576013 C55.1851263,35.3996702 55.2094421,35.4350968 55.2182842,35.4793799 C55.2249158,35.5214489 55.2182842,35.5613037 55.2293368,35.6011585 C55.2403895,35.6343709 55.2647053,35.6565125 55.2779684,35.6897248 C55.3155474,35.776077 55.3575474,35.8513583 55.4083895,35.9266396 C55.4481789,35.9842077 55.4857579,36.0373475 55.5299684,36.0838448 C55.5918632,36.1480554 55.6581789,36.1967668 55.7311263,36.2476924 C55.7863895,36.2853331 55.8416526,36.3274021 55.9035474,36.353972 C55.9787053,36.3871843 56.0582842,36.4048976 56.1422842,36.4270392 C56.2152316,36.4425383 56.2837579,36.4602515 56.3589158,36.4646798 C56.3832316,36.466894 56.4031263,36.4757506 56.4230211,36.4757506 C56.4871263,36.4757506 56.5423895,36.4491807 56.6064947,36.4425383 C56.6683895,36.4314675 56.7280737,36.4425383 56.7899684,36.4203967 C56.8164947,36.4137542 56.8562842,36.3938268 56.8916526,36.382756 L56.9181789,36.3694711 C56.9911263,36.340687 57.0773368,36.298618 57.1834421,36.2432641 C57.4752316,36.0838448 57.9129158,35.8380734 58.5495474,36.0152059 C59.3342842,36.2255509 60.0748105,37.7046078 59.9001789,39.721705 C59.7564947,41.3911795 59.1242842,42.4650457 58.6269158,42.8813072 C58.5274421,42.9632311 58.3417579,43.0872239 58.1781789,43.0850097 C58.1383895,43.0805814 58.0986,43.0672965 58.0588105,43.047369 C57.7183895,42.8879497 57.3293368,42.8901639 56.9911263,43.047369 C56.6551263,43.2067884 56.4075474,43.5101279 56.3191263,43.8710355 C55.1232316,48.6491866 52.6231263,52.6302412 49.2808105,55.0857415 C44.8686,58.3228392 39.1986,58.3405525 34.7687053,55.1322388 C31.4087053,52.6988801 28.8842842,48.7333246 27.6596526,43.9618159 L27.6596526,43.9618159 Z M69.4982842,66.7698488 C67.7320737,65.8686868 65.8022842,65.0383779 63.7398632,64.2944211 C63.7376526,64.2899927 63.7376526,64.2899927 63.7354421,64.2899927 L63.7332316,64.2899927 C63.0369158,64.0353647 62.3207053,63.7918074 61.5934421,63.561535 C60.2604947,63.1342027 59.1353368,62.8065075 58.0919684,62.5430227 C56.7369158,62.1422603 55.3022842,61.814565 53.8322842,61.5377954 C52.5214421,60.1583755 51.6615474,58.5287558 51.2570211,56.6910054 C54.5507053,54.0783 57.0707053,50.1924542 58.4368105,45.5715082 C59.0601789,45.5183684 59.6680737,45.2570979 60.2184947,44.8009815 C61.3967053,43.822324 62.2057579,42.0000727 62.3826,39.9386924 C62.6522842,36.7901609 61.3436526,34.184098 59.1972316,33.6062029 C58.4301789,33.4002863 57.7648105,33.4401412 57.2210211,33.5685623 C56.6573368,32.0585071 55.4791263,29.8864189 53.2686,28.4560734 C50.2910211,26.5363992 46.4822842,26.5430416 41.9462842,28.4715725 C37.3152316,26.4832594 33.4888105,26.4323338 30.5576526,28.3298665 C28.2786,29.8067093 27.1534421,32.0872911 26.6428105,33.6549144 C26.1144947,33.5419924 25.4623895,33.5065659 24.7152316,33.7169108 C22.5732316,34.3080908 21.2800737,36.918582 21.5696526,40.0671135 C21.7619684,42.1284938 22.5820737,43.9418885 23.7647053,44.9161177 C24.3173368,45.3700199 24.9252316,45.6268621 25.5530211,45.6755736 C26.9456526,50.2876629 29.4899684,54.1602238 32.8013368,56.7485735 C32.4741789,58.2143455 31.7668105,60.0188836 30.2835474,61.6108626 C28.8135474,61.8964889 27.3855474,62.2352549 26.0747053,62.631589 C24.9893368,62.9150012 23.8641789,63.2493389 22.5334421,63.6855278 C21.8083895,63.9202285 21.0966,64.1682141 20.4002842,64.4272705 L20.3980737,64.4272705 C20.3958632,64.4272705 20.3958632,64.4272705 20.3936526,64.4294846 C18.3356526,65.1867264 16.4124947,66.0325344 14.6507053,66.942553 C10.4131263,69.1389969 7.79144211,73.4366759 7.80684767,78.1528307 L7.85775789,94.0460507 C7.85996842,94.7346536 8.41923158,95.290407 9.10670526,95.2881994 L42.1629158,95.1841275 L75.2213368,95.0778479 C75.9088105,95.0756338 76.4658632,94.515452 76.4636592,93.8290633 L76.4106,77.9380574 C76.3973368,73.2196885 73.7469158,68.9397228 69.4982842,66.7698488 L69.4982842,66.7698488 Z" id="Fill-10" stroke="none" fill="#FF5959" fill-rule="evenodd" mask="url(#mask-8)"></path>
                    </g>
                </g>
                <g id="Group-15" mask="url(#mask-2)">
                    <g transform="translate(12.000000, 10.000000)">
                        <mask id="mask-10" fill="white">
                            <use xlink:href="#path-9"></use>
                        </mask>
                        <g id="Clip-14" stroke="none" fill="none"></g>
                        <path d="M26.4546947,42.7511148 C26.6757474,42.7511148 26.8901684,42.7976121 27.0935368,42.8906067 C27.5113263,43.0854525 27.8119579,43.4507885 27.9269053,43.8936199 C29.1360632,48.6031322 31.6251158,52.5133337 34.9298526,54.9068376 C39.2470105,58.0376558 44.8175368,58.0155142 49.1170105,54.8625544 C52.4084842,52.4446948 54.8688,48.51678 56.0514316,43.8050536 C56.1597474,43.360008 56.4581684,42.9924579 56.8737474,42.7976121 C57.2893263,42.6049804 57.7601684,42.6005521 58.1779579,42.7976121 C58.2265895,42.8175395 58.3415368,42.7577573 58.4498526,42.6669768 C58.9074316,42.2861418 59.4888,41.2809145 59.6236421,39.6977921 C59.7938526,37.7404772 59.0555368,36.4363386 58.4785895,36.2835618 C57.9635368,36.1418557 57.6120632,36.3278449 57.3313263,36.4784076 C57.1986947,36.5470465 57.1036421,36.5935438 57.0240632,36.624542 L57.0218526,36.6267561 L56.8582737,36.6887525 C56.8030105,36.7086799 56.7366947,36.7086799 56.6902737,36.7108941 L56.6018526,36.724179 C56.5576421,36.737464 56.4979579,36.7529631 56.4250105,36.7529631 L56.3277474,36.7396781 C56.2702737,36.737464 56.2039579,36.7219649 56.1332211,36.7086799 L56.0315368,36.6843242 C55.9475368,36.6621826 55.8679579,36.6400411 55.7905895,36.6046146 C55.7154316,36.5758305 55.6535368,36.5293332 55.5982737,36.4916925 C55.5010105,36.4252678 55.4148,36.3610573 55.3308,36.2769193 C55.2777474,36.2215654 55.2335368,36.1573548 55.1871158,36.0931443 C55.1208,35.991293 55.0677474,35.9005126 55.0235368,35.7964472 C55.0080632,35.7787339 54.9837474,35.7388791 54.9660632,35.6835252 L54.9063789,35.3868281 C54.9019579,35.3823998 54.1769053,32.0611641 51.3629053,30.5488948 C49.1568,29.3621065 46.1991158,29.5879505 42.5694316,31.2242127 C42.1671158,31.4057736 41.7117474,31.4079877 41.3160632,31.2219985 C37.5493263,29.5060267 34.5319579,29.2536128 32.3590105,30.4780417 C29.6069053,32.0190951 29.0343789,35.426683 29.0299579,35.4621095 C29.0343789,36.2459211 28.3690105,36.8946691 27.5179579,36.8968833 L27.5091158,36.8968833 C27.2438526,36.8968833 26.9852211,36.8105312 26.7199579,36.6311844 L26.6226947,36.5869013 C26.3508,36.4385528 25.9816421,36.2414928 25.4466947,36.3898413 C24.8586947,36.5492606 24.1424842,37.8268293 24.3237474,39.8107141 C24.4630105,41.2919852 25.0244842,42.3636373 25.5196421,42.7732564 C25.6788,42.9038917 25.7473263,42.9016775 25.7561684,42.90832 C25.9860632,42.8020404 26.2248,42.7511148 26.4546947,42.7511148 L26.4546947,42.7511148 Z M41.9924842,57.7963126 C39.4238526,57.7963126 36.8530105,56.983717 34.6071158,55.3563115 C31.1962737,52.8875262 28.6320632,48.8644027 27.3919579,44.0308976 C27.3212211,43.7496997 27.1266947,43.5172132 26.8636421,43.3932204 C26.5961684,43.2714417 26.2999579,43.2714417 26.0346947,43.3976487 C25.9551158,43.4352894 25.8821684,43.4552168 25.8136421,43.4596451 C25.5395368,43.5061424 25.2809053,43.2913692 25.1681684,43.2005887 C24.6265895,42.7555431 23.9346947,41.613038 23.7755368,39.8616397 C23.5721684,37.6696241 24.3922737,36.104215 25.3030105,35.8562294 C26.0634316,35.652527 26.5917474,35.9425816 26.8769053,36.0953584 L26.9918526,36.1529265 C27.2018526,36.2902042 27.3543789,36.343344 27.5113263,36.343344 L27.5157474,36.343344 C28.0661684,36.3411299 28.4817474,35.9470099 28.4795368,35.4200405 C28.4861684,35.3491875 29.1183789,31.6581875 32.0871158,29.9931413 C34.4236421,28.6845744 37.6045895,28.9259176 41.5437474,30.7171707 C41.7935368,30.834521 42.0853263,30.834521 42.3417474,30.7171707 C46.1305895,29.0122697 49.2518526,28.7864257 51.6237474,30.0617802 C54.6632211,31.693614 55.4214316,35.1543416 55.4501684,35.3026902 C55.4700632,35.3558299 55.4811158,35.3912564 55.4899579,35.4244688 L55.4988,35.52632 C55.5606947,35.6503128 55.5960632,35.7100951 55.6380632,35.7720915 C55.6712211,35.8185888 55.6977474,35.8584436 55.7309053,35.8938701 C55.7751158,35.9403674 55.8325895,35.9802222 55.8856421,36.0178629 C55.9519579,36.0621461 55.9829053,36.0865018 56.0094316,36.0975726 C56.0669053,36.1241425 56.1177474,36.1352132 56.1663789,36.1484982 L56.1929053,36.4363386 L56.2525895,36.1662114 C56.2945895,36.1772822 56.3343789,36.1861389 56.3741684,36.188353 L56.4515368,36.201638 C56.4957474,36.1794964 56.5311158,36.1728539 56.5686947,36.1662114 C56.5974316,36.1617831 56.6328,36.159569 56.6703789,36.1573548 L56.8140632,36.1175 C56.8803789,36.0865018 56.9577474,36.0510753 57.0550105,35.9979355 C57.3755368,35.8252312 57.8928,35.5418191 58.6244842,35.7499499 C59.5352211,35.991293 60.3641684,37.554488 60.1762737,39.7465036 C60.0259579,41.4979019 59.3429053,42.6448353 58.8035368,43.092095 C58.6819579,43.1939462 58.4410105,43.360008 58.1845895,43.360008 L58.1757474,43.360008 C58.0829053,43.3511514 58.0121684,43.3334381 57.9392211,43.2980116 C57.6783789,43.1718047 57.3777474,43.1718047 57.1080632,43.2980116 C56.8472211,43.4242186 56.6549053,43.6544909 56.5863789,43.937903 C55.3750105,48.7780506 52.8395368,52.8144591 49.4441684,55.3076 C47.1850105,56.9660037 44.5898526,57.7963126 41.9924842,57.7963126 L41.9924842,57.7963126 Z M29.9782737,64.5052088 C30.7608,68.6456827 35.9776421,71.8451398 42.0256421,71.8451398 L42.0764842,71.8451398 C48.1488,71.8252124 53.3744842,68.5859004 54.1304842,64.423285 L54.0155368,64.3989293 C53.6508,64.3192196 53.2860632,64.2417241 52.9146947,64.1775136 C52.8461684,64.1642286 52.8019579,64.1398729 52.7710105,64.1265879 C52.6737474,64.0978039 52.5809053,64.0623774 52.4880632,64.0158801 C52.3952211,63.9649545 52.3156421,63.9140289 52.2382737,63.8542466 C52.1940632,63.8254626 52.1498526,63.8011068 52.1056421,63.7590379 C50.6312211,62.3021225 49.5546947,60.5573666 48.9048,58.5734818 C46.7185895,59.7403426 44.4085895,60.3337367 42.0389053,60.3425934 L42.0013263,60.3425934 C39.6449053,60.3425934 37.3437474,59.7624842 35.1597474,58.6133366 C34.5120632,60.6282196 33.4510105,62.3818321 32.0053263,63.8298909 L31.9058526,63.9007439 C31.8395368,63.9627403 31.7334316,64.0313792 31.6096421,64.0933756 C31.5389053,64.1310163 31.4571158,64.1620145 31.3664842,64.1930127 C31.3289053,64.2107259 31.2824842,64.2350816 31.2161684,64.2461524 C30.7961684,64.3214338 30.3872211,64.4144284 29.9782737,64.5052088 L29.9782737,64.5052088 Z M42.0212211,72.3986791 C35.4780632,72.3986791 30.0512211,68.9357373 29.3880632,64.3302904 L29.3526947,64.0778765 L29.8434316,63.9671686 C30.2612211,63.874174 30.6768,63.7811794 31.1056421,63.7036839 L31.2073263,63.6616149 C31.2537474,63.64833 31.3045895,63.6306167 31.3554316,63.6018327 C31.4460632,63.5553354 31.5079579,63.5154806 31.5654316,63.464555 L31.6494316,63.409201 C33.0708,61.9810697 34.1208,60.1942448 34.7286947,58.1328645 L34.8259579,57.8029551 L35.1288,57.9690169 C37.3172211,59.1779467 39.6316421,59.7890541 42.0013263,59.7890541 L42.0389053,59.7890541 C44.4218526,59.7801975 46.7429053,59.153591 48.9357474,57.9269479 L49.2363789,57.7608861 L49.3358526,58.0907956 C49.9415368,60.1189635 51.0048,61.8947175 52.4969053,63.367132 C52.5123789,63.3715604 52.5565895,63.3937019 52.5985895,63.4357709 C52.6229053,63.45127 52.6803789,63.4889107 52.7466947,63.5243372 C52.7997474,63.5531212 52.8550105,63.5730487 52.9169053,63.5885478 L53.0185895,63.6306167 C53.3877474,63.6970415 53.7613263,63.7767511 54.1326947,63.8564608 L54.7516421,63.9893102 L54.7162737,64.2439383 C54.0840632,68.8715267 48.6528,72.3765375 42.0764842,72.3986791 L42.0212211,72.3986791 Z M64.2944842,67.4743936 C61.7125895,75.8837624 62.5128,80.6331295 63.3550105,85.6614804 C63.7175368,87.8269261 64.0535368,89.9702302 64.1684842,92.3415925 L73.6914316,92.3105943 L73.6472211,77.9473569 C73.6339579,74.271856 71.5626947,70.9351212 68.2402737,69.2390768 C67.0532211,68.6323977 65.7600632,68.0567169 64.2944842,67.4743936 L64.2944842,67.4743936 Z M63.6379579,92.8951318 L63.6269053,92.6294329 C63.5274316,90.1850035 63.1848,87.9819171 62.8112211,85.7522608 C61.9469053,80.6021313 61.1312211,75.737628 63.8568,67.0249197 L63.9452211,66.7415075 L64.2215368,66.8500012 C65.8175368,67.4743936 67.2123789,68.0943576 68.4922737,68.7453198 C72.0003789,70.5387871 74.1865895,74.0637252 74.1998526,77.9473569 L74.2440632,92.8641336 L63.6379579,92.8951318 Z M22.7144842,66.5533042 C25.6191158,75.7398422 24.7525895,81.0981025 23.9170105,86.2814444 C23.5743789,88.4003928 23.2825895,90.3377803 23.1853263,92.4722278 L61.1268,92.348235 C61.0140632,90.1982884 60.7090105,88.2719717 60.3553263,86.1640941 C59.4843789,80.9896088 58.5846947,75.637991 61.4340632,66.4315255 L61.3478526,66.4027415 C61.1511158,66.3341026 60.9521684,66.2654638 60.7532211,66.2012532 C59.3981684,65.7694925 58.3548,65.466153 57.3666947,65.2159533 C57.2650105,65.1871692 57.1721684,65.1628135 57.0793263,65.1384578 L57.0749053,65.1384578 C55.9320632,70.6937781 49.5569053,74.8652501 42.0853263,74.8896059 L42.0234316,74.8896059 C34.5828,74.8896059 28.2142737,70.7690594 27.0404842,65.240309 C26.9675368,65.2580222 26.8968,65.2779497 26.8304842,65.2978771 C25.7937474,65.5680042 24.7393263,65.8802004 23.3953263,66.3208177 C23.2118526,66.3783858 23.0350105,66.4403822 22.8581684,66.5045927 L22.7144842,66.5533042 Z M22.6105895,93.0257671 L22.6216421,92.7379266 C22.7056421,90.4595589 23.0106947,88.4269627 23.3710105,86.1950923 C24.2043789,81.0272495 25.0686947,75.6844883 22.1043789,66.4647379 L22.0203789,66.2056815 L22.6746947,65.9798375 C22.8559579,65.9178411 23.0372211,65.8558447 23.2229053,65.7916341 C24.5779579,65.3510168 25.6456421,65.0321782 26.6801684,64.7642652 C26.7641684,64.7399095 26.8636421,64.7133396 26.9609053,64.6867697 L27.4715368,64.5472778 L27.5245895,64.8484032 C28.4883789,70.2642316 34.7132211,74.3360666 42.0234316,74.3360666 L42.0853263,74.3360666 C49.4242737,74.3117108 55.6579579,70.1911644 56.5863789,64.7487661 L56.6372211,64.4454266 L56.9334316,64.5295645 C57.0262737,64.5561344 57.1191158,64.578276 57.2141684,64.6026317 C57.3136421,64.6269875 57.4131158,64.6535573 57.5103789,64.6801272 C58.5006947,64.9325411 59.5573263,65.2380948 60.9212211,65.6742838 C61.1290105,65.7407085 61.3279579,65.8093474 61.5269053,65.8779863 L62.1237474,66.0816887 L62.0419579,66.3385309 C59.1351158,75.5759946 60.0325895,80.9121133 60.8991158,86.0733136 C61.2726947,88.2896849 61.5910105,90.3112104 61.6904842,92.6139338 L61.7037474,92.9017743 L61.4141684,92.9017743 L22.6105895,93.0257671 Z M19.8584842,67.6138855 C18.3906947,68.2094937 17.1019579,68.7962454 15.9237474,69.4051386 C12.6123789,71.1211104 10.5632211,74.4733443 10.5720347,78.146631 L10.6206947,92.5120826 L20.1436421,92.4788703 C20.2431158,90.0964372 20.5636421,87.9553472 20.9129053,85.7943298 C21.7241684,80.7637648 22.4934316,76.0077552 19.8584842,67.6138855 L19.8584842,67.6138855 Z M10.0680632,93.0656219 L10.0680632,92.7888523 L10.0194046,78.146631 C10.0105895,74.2652135 12.1746947,70.7269904 15.6695368,68.9113815 C16.9339579,68.2582052 18.3288,67.6271704 19.9292211,66.9894931 L20.2033263,66.8787853 L20.2939579,67.1621974 C23.0770105,75.8571925 22.2900632,80.7261241 21.4566947,85.880682 C21.0985895,88.1059099 20.7714316,90.3067821 20.6852211,92.7667107 L20.6763789,93.0324095 L10.0680632,93.0656219 Z M20.4486947,64.704483 C18.4459579,65.4417973 16.5404842,66.2787487 14.7786947,67.1887673 C10.6339579,69.3364997 8.06974737,73.5367558 8.08295932,78.1532735 L8.13385263,94.0464935 C8.13606316,94.5778912 8.56932632,95.011866 9.10206316,95.011866 L9.10648421,95.011866 L75.2233263,94.8015211 C75.4797474,94.8015211 75.7229053,94.6996699 75.9041684,94.5158948 C76.0876421,94.3321198 76.1871158,94.0885625 76.1871158,93.827292 L76.1362737,77.9385003 C76.1208,73.3264109 73.5300632,69.1394397 69.3720632,67.016063 C67.6169053,66.1215435 65.6915368,65.2934488 63.6468,64.5539203 L63.5406947,64.5140654 C62.8797474,64.2749365 62.2011158,64.04245 61.5092211,63.8254626 C60.1519579,63.3892736 59.0444842,63.0682208 58.0254316,62.8113786 C56.7433263,62.4327577 55.3573263,62.1050625 53.7790105,61.8083654 L53.6928,61.7928663 L53.6309053,61.7264416 C52.2935368,60.3248801 51.4049053,58.6487632 50.9871158,56.7512305 L50.9495368,56.5807404 L51.0865895,56.4744608 C54.3692211,53.870612 56.8184842,50.0733325 58.1713263,45.4922414 L58.2243789,45.3106805 L58.4122737,45.2929672 C58.9870105,45.2464699 59.5352211,45.0095551 60.0414316,44.5866511 C61.1643789,43.6544909 61.9358526,41.9075209 62.1060632,39.9147795 C62.3646947,36.8990975 61.1378526,34.4148131 59.1262737,33.8745588 C58.5139579,33.708497 57.8905895,33.6929979 57.2826947,33.8391323 L57.0483789,33.892272 L56.9621684,33.6642139 C56.5045895,32.439785 55.3971158,30.1614172 53.1202737,28.6890027 C50.2244842,26.8246824 46.4997474,26.8379674 42.0543789,28.7266434 L41.9460632,28.7731407 L41.8377474,28.7266434 C37.2951158,26.775971 33.5526947,26.720617 30.7077474,28.5627958 C28.3756421,30.0706368 27.3256421,32.4552841 26.9056421,33.7417094 L26.8282737,33.97641 L26.5851158,33.9254844 C25.9772211,33.7948491 25.3892211,33.8147765 24.7901684,33.9830525 C22.7785895,34.5388059 21.5672211,37.0297327 21.8435368,40.0409865 C22.0292211,42.0337279 22.8139579,43.7762696 23.9391158,44.7017873 C24.4497474,45.120263 25.0001684,45.3549636 25.5749053,45.3970326 L25.7628,45.4125317 L25.8180632,45.5940926 C27.1974316,50.1685413 29.6710105,53.9503217 32.9713263,56.5320289 L33.1105895,56.6383085 L33.0708,56.8110127 C32.6441684,58.7196162 31.7511158,60.4422304 30.4866947,61.7995088 L30.4248,61.8659335 L30.3363789,61.8836467 C28.8022737,62.1781297 27.3963789,62.521324 26.1540632,62.8977307 C25.0642737,63.1811428 23.9435368,63.5154806 22.6216421,63.9494554 C21.9231158,64.1730852 21.2091158,64.4210708 20.4973263,64.6867697 L20.4486947,64.704483 Z M7.58122105,94.0464935 L7.53032993,78.1532735 C7.51711579,73.3330534 10.1962737,68.9401656 14.5244842,66.6950102 C16.2995368,65.7783492 18.2226947,64.9369695 20.2386947,64.1930127 L20.2784842,64.1531578 L20.3470105,64.1509437 C21.0543789,63.8896731 21.7617474,63.6461158 22.4492211,63.422486 C23.7821684,62.986297 24.9139579,62.647531 26.0059579,62.3619047 C27.2328,61.9921405 28.6254316,61.6533744 30.1418526,61.3544632 C31.2869053,60.1078927 32.0760632,58.5934092 32.4916421,56.85751 C29.2134316,54.2425904 26.7464842,50.4718808 25.3405895,45.9306445 C24.7216421,45.8442923 24.1336421,45.5763793 23.5898526,45.1291196 C22.3519579,44.1106073 21.4942737,42.2285737 21.2953263,40.0941262 C20.9924842,36.808317 22.3674316,34.0760471 24.6420632,33.4516548 C25.2411158,33.285593 25.8534316,33.2523806 26.4569053,33.3387328 C26.9476421,31.9438138 28.0661684,29.6123063 30.4071158,28.0978228 C33.3957474,26.1604353 37.2774316,26.1914335 41.9460632,28.17089 C46.5240632,26.2512157 50.3836421,26.268929 53.4164842,28.2218156 C55.6977474,29.6964442 56.8671158,31.919458 57.3932211,33.2501665 C58.0188,33.1416728 58.6465895,33.1748851 59.2699579,33.3387328 C61.5468,33.9520543 62.9394316,36.6754676 62.6586947,39.9612768 C62.4752211,42.0979384 61.6285895,43.9888287 60.3951158,45.0117693 C59.8601684,45.4568148 59.2611158,45.7357986 58.6465895,45.8243649 C57.2716421,50.3722437 54.8268,54.1606666 51.5640632,56.7999419 C51.9685895,58.4982005 52.7776421,60.0060415 53.9713263,61.281396 C55.5297474,61.5780931 56.9046947,61.9035742 58.1713263,62.2755526 C59.1925895,62.534609 60.3066947,62.8600901 61.6794316,63.296279 C62.3934316,63.5243372 63.0963789,63.7634662 63.7816421,64.0136659 L63.9032211,64.0136659 L63.9341684,64.0690199 C65.9634316,64.8063342 67.8755368,65.6322148 69.6218526,66.522306 C73.9655368,68.7408914 76.6734316,73.1138518 76.6889053,77.9385003 L76.7397704,93.827292 C76.7419579,94.2346969 76.5850105,94.6177461 76.2976421,94.9055865 C76.0102737,95.1956411 75.6278526,95.3528462 75.2233263,95.3550604 L9.10648421,95.5654053 C8.26427368,95.5654053 7.58343158,94.8856591 7.58122105,94.0464935 Z" id="Fill-13" stroke="none" fill="#FF5959" fill-rule="evenodd" mask="url(#mask-10)"></path>
                    </g>
                </g>
            </g>
        </g>
    </g>
</svg>