<?xml version="1.0" encoding="UTF-8"?>
<svg width="114px" height="104px" viewBox="0 0 114 104" version="1.1" xmlns="http://www.w3.org/2000/svg" xmlns:xlink="http://www.w3.org/1999/xlink">
    <title>Group 11</title>
    <defs>
        <polygon id="path-1" points="0 0.102390476 113.999763 0.102390476 113.999763 103.999765 0 103.999765"></polygon>
        <polygon id="path-3" points="0.608275019 0.0993571429 79.597427 0.0993571429 79.597427 77.9499718 0.608275019 77.9499718"></polygon>
    </defs>
    <g id="Page-1" stroke="none" stroke-width="1" fill="none" fill-rule="evenodd">
        <g id="V7:-Smart-Meetings" transform="translate(-497.000000, -2557.000000)">
            <g id="Group-11" transform="translate(497.000000, 2557.000000)">
                <g id="Group-3">
                    <mask id="mask-2" fill="white">
                        <use xlink:href="#path-1"></use>
                    </mask>
                    <g id="Clip-2"></g>
                    <path d="M110.544137,97.1566886 C110.544137,99.0409457 108.995637,100.57705 107.090887,100.57705 L6.9086375,100.57705 C5.0038875,100.57705 3.4553875,99.0409457 3.4553875,97.1566886 L3.4553875,93.7339743 L110.544137,93.7339743 L110.544137,97.1566886 Z M113.878637,91.4356981 C113.864387,91.3910029 113.847762,91.3463076 113.828762,91.3016124 C113.809762,91.2663267 113.802637,91.2286886 113.783637,91.1910505 L105.231262,75.9193933 L105.231262,7.3568981 C105.231262,3.3554981 101.946637,0.102155238 97.9091375,0.102155238 L70.2475125,0.102155238 C69.2951375,0.102155238 68.5232625,0.866679048 68.5232625,1.81233619 C68.5232625,2.75564095 69.2951375,3.52251714 70.2475125,3.52251714 L97.9091375,3.52251714 C100.041887,3.52251714 101.778012,5.24446 101.778012,7.3568981 L101.778012,74.65146 L93.8146375,74.65146 C92.8622625,74.65146 92.0880125,75.4159838 92.0880125,76.3639933 C92.0880125,77.3072981 92.8622625,78.0741743 93.8146375,78.0741743 L102.485762,78.0741743 L109.337637,90.3136124 L4.6595125,90.3136124 L11.5137625,78.0741743 L60.9945125,78.0741743 C61.9492625,78.0741743 62.7187625,77.3072981 62.7187625,76.3639933 C62.7187625,75.4159838 61.9492625,74.65146 60.9945125,74.65146 L12.2238875,74.65146 L12.2238875,60.998241 C12.2238875,60.0549362 11.4472625,59.2857076 10.4925125,59.2857076 C9.5401375,59.2857076 8.7658875,60.0549362 8.7658875,60.998241 L8.7658875,75.9193933 L0.2158875,91.1910505 C0.1945125,91.2286886 0.1897625,91.2663267 0.1707625,91.3016124 C0.1517625,91.3463076 0.1351375,91.3910029 0.1185125,91.4356981 C0.0543875,91.6168314 0.0092625,91.7979648 0.0068875,91.9838029 C0.0068875,91.9979171 -0.0002375,92.009679 -0.0002375,92.021441 L-0.0002375,97.1566886 C-0.0002375,100.929908 3.0991375,103.999765 6.9086375,103.999765 L107.090887,103.999765 C110.900387,103.999765 113.999762,100.929908 113.999762,97.1566886 L113.999762,92.021441 C113.999762,92.009679 113.992637,91.9979171 113.992637,91.9838029 C113.985512,91.7979648 113.945137,91.6168314 113.878637,91.4356981 Z" id="Fill-1" fill="#FF5959" mask="url(#mask-2)"></path>
                </g>
                <g id="Group-6" transform="translate(8.000000, 0.000000)">
                    <mask id="mask-4" fill="white">
                        <use xlink:href="#path-3"></use>
                    </mask>
                    <g id="Clip-5"></g>
                    <path d="M62.0167395,53.2741147 L74.9400703,66.0042828 C75.7075569,66.7629256 76.1318197,67.7728836 76.1318197,68.8462576 C76.1318197,69.914934 75.7075569,70.924892 74.9400703,71.6835349 L73.2406356,73.3558374 C71.6985118,74.8754718 69.0146921,74.8731231 67.4749519,73.3558374 L54.5254026,60.5951357 C57.3808342,58.5517324 59.921644,56.0949508 62.0167395,53.2741147 M34.5707502,67.0353794 C40.7106432,67.0353794 46.5287639,65.3936105 51.569864,62.5164046 L65.024715,75.7703416 C66.4476639,77.1748878 68.3425455,77.9499718 70.3589855,77.9499718 C72.3754255,77.9499718 74.2703071,77.1748878 75.6884889,75.7703416 L77.3879236,74.0980391 C78.8132559,72.6958416 79.597427,70.8309424 79.597427,68.8462576 C79.597427,66.8592239 78.8132559,64.9919761 77.3879236,63.5897786 L63.9402231,50.3381903 C65.7707502,47.2355055 67.1341115,43.8204382 67.8777632,40.1540559 C68.0636761,39.2310013 67.4558839,38.3290853 66.5191688,38.1458836 C65.5776868,37.9579845 64.6648067,38.556913 64.4788938,39.4846651 C61.6449137,53.4690601 49.0671902,63.6179634 34.5707502,63.6179634 C17.7551658,63.6179634 4.07626585,50.1361987 4.07626585,33.5658416 C4.07626585,16.9978332 17.7551658,3.51371975 34.5707502,3.51371975 C44.7196883,3.51371975 54.1726448,8.46721134 59.8620565,16.765308 C60.3959603,17.5474382 61.4756853,17.7541273 62.2670069,17.2233122 C63.0583285,16.6971945 63.2680764,15.6355643 62.7341727,14.853434 C56.4012162,5.6158416 45.8733018,0.098652521 34.5707502,0.098652521 C15.8459832,0.098652521 0.608275019,15.1117954 0.608275019,33.5658416 C0.608275019,52.0222366 15.8459832,67.0353794 34.5707502,67.0353794" id="Fill-4" fill="#FF5959" mask="url(#mask-4)"></path>
                </g>
                <path d="M56.2106113,45.5967518 C55.362981,41.3188028 52.69866,37.1765484 48.9867062,34.6578672 C49.9771955,33.0914285 50.5557745,31.2012273 50.5557745,29.1705704 C50.5557745,23.9808493 46.7462003,20.2171113 41.4985119,20.2171113 C36.2508234,20.2171113 32.4460112,23.9808493 32.4460112,29.1705704 C32.4460112,31.1940855 33.0198283,33.0771449 34.0031746,34.6388224 C30.2888398,37.1551229 27.6388047,41.3140416 26.7935555,45.5967518 C20.6291882,38.1240296 21.0434794,27.016122 28.0316671,20.0290434 C35.4579558,12.6063139 47.541449,12.6063139 54.9701187,20.0290434 C61.9583063,27.016122 62.3678356,38.1240296 56.2106113,45.5967518 M35.9079617,29.1705704 C35.9079617,25.9353269 38.2056112,23.680893 41.4985119,23.680893 C44.7937936,23.680893 47.093824,25.9353269 47.093824,29.1705704 C47.093824,32.6462552 44.584267,35.4744151 41.4985119,35.4744151 C38.4175188,35.4744151 35.9079617,32.6462552 35.9079617,29.1705704 M53.0296168,48.6510693 C46.2366698,53.8312679 36.7674969,53.8336485 29.969788,48.6510693 C29.969788,48.6010766 29.962645,48.5534644 29.962645,48.5058523 C29.962645,48.0225893 30.0055027,47.5298039 30.0697893,47.0370184 C30.5745579,43.2232876 32.9769706,39.2976683 36.3674916,37.2074963 C37.8270347,38.3001944 39.5937248,38.9358162 41.4985119,38.9358162 C43.403299,38.9358162 45.167608,38.3001944 46.6271512,37.2146381 C50.0676729,39.3309968 52.4938954,43.3304149 52.9510443,47.1988996 C52.9462824,47.1988996 52.9367584,47.1988996 52.9319965,47.1941384 C52.9867591,47.6321699 53.0391407,48.072582 53.0391407,48.5058523 C53.0391407,48.5534644 53.0319978,48.6010766 53.0296168,48.6510693 M25.5840157,17.5793998 C16.8053281,26.3590747 16.8053281,40.6355689 25.5840157,49.4128632 C26.0959272,49.9246935 26.6292676,50.4031953 27.1816558,50.8555104 L27.1840368,50.8602717 C31.3317107,54.2835831 36.4174923,56 41.4985119,56 C46.5842934,56 51.670075,54.2835831 55.8201299,50.8602717 L55.8201299,50.8555104 C56.3677562,50.4031953 56.9034776,49.9246935 57.4177701,49.4128632 C66.1940766,40.6355689 66.1940766,26.3590747 57.4177701,17.5793998 C48.6390825,8.80686673 34.3579412,8.80686673 25.5840157,17.5793998" id="Fill-7" fill="#FF5959"></path>
                <path d="M77.5,16 C76.5341457,16 75.7489374,16.7827997 75.7489374,17.7510626 L75.7489374,22.7465288 L70.748654,22.7465288 C69.7852083,22.7465288 69,23.531737 69,24.4975914 C69,25.4658543 69.7852083,26.248654 70.748654,26.248654 L75.7489374,26.248654 L75.7489374,31.2489374 C75.7489374,32.2147917 76.5341457,33 77.5,33 C78.468263,33 79.2558799,32.2147917 79.2558799,31.2489374 L79.2558799,26.248654 L84.251346,26.248654 C85.2172003,26.248654 86,25.4658543 86,24.4975914 C86,23.531737 85.2172003,22.7465288 84.251346,22.7465288 L79.2558799,22.7465288 L79.2558799,17.7510626 C79.2558799,16.7827997 78.468263,16 77.5,16" id="Fill-9" fill="#FF5959"></path>
            </g>
        </g>
    </g>
</svg>