<?xml version="1.0" encoding="UTF-8"?>
<svg width="269px" height="272px" viewBox="0 0 269 272" version="1.1" xmlns="http://www.w3.org/2000/svg" xmlns:xlink="http://www.w3.org/1999/xlink">
    <title>Group 2</title>
    <g id="Page-1" stroke="none" stroke-width="1" fill="none" fill-rule="evenodd">
        <g id="V7:-Contact-form---Thank-you-page" transform="translate(-865.000000, -157.000000)">
            <g id="Group-2" transform="translate(865.000000, 157.000000)">
                <g id="Group" transform="translate(206.000000, 136.000000) scale(-1, 1) translate(-206.000000, -136.000000) translate(143.000000, 0.000000)">
                    <path d="M114,58.8612729 L122.218164,60.9899211 C122.218164,60.9899211 125.574592,55.0046933 125.134697,52.2098854 C124.740571,49.7162532 122.571606,47.8632572 119.037185,49.8157943 C116.079968,51.4467369 114,58.8612729 114,58.8612729" id="Fill-22" fill="#FAE271"></path>
                    <path d="M7.11196538,137.354775 L17.4507816,137 C17.4507816,137 18.3356582,144.006162 16.7438975,146.313474 C15.1521368,148.620786 11.6177161,149.861221 8.96817194,147.556462 C6.31608504,145.24915 7.11196538,137.354775 7.11196538,137.354775" id="Fill-23" fill="#FAE271"></path>
                    <path d="M52.1214351,246.668558 C52.1214351,246.668558 53.710653,257.046356 52.1214351,260.504771 C50.5296744,263.965738 65.1123383,260.504771 65.1123383,260.504771 C65.1123383,260.504771 57.5629173,254.922812 60.6040448,246.668558 C63.6451723,238.414303 52.1214351,246.668558 52.1214351,246.668558" id="Fill-24" fill="#FAE271"></path>
                    <path d="M45,118.966846 L78.554112,114 C78.554112,114 75.5511257,150.899121 73.605923,162.609238 C71.6607202,174.316803 67.0659733,195.781949 65.652205,204.12043 C64.2384367,212.45636 62.1177843,249.355481 63.3561029,251.484129 C64.5918788,253.615329 58.2299215,254.19471 55.2243926,253.727632 C52.2214063,253.260555 48.6869856,251.308018 48.6869856,251.308018 C48.6869856,251.308018 44.4456808,217.601869 46.3883408,203.232217 C48.3335436,188.862566 45,171.123831 45,171.123831 L45,118.966846 Z" id="Fill-25" fill="#FF7979"></path>
                    <path d="M20.3498424,247 L29.6283325,247 C29.6283325,247 28.1077687,256.435986 31.484539,261.635094 C32.4787538,263.163944 22.6027178,264.593252 21.0134998,264.297181 C18.6258588,263.853074 19.0250703,261.635094 19.0250703,261.635094 C19.0250703,261.635094 21.4101686,253.385945 20.3498424,247" id="Fill-26" fill="#FAE271"></path>
                    <path d="M20.7714022,114 C21.4782863,114.709549 58.2388044,116.659534 58.3278006,116.659534 C58.4142541,116.659534 52.4057389,159.592377 46.5752161,173.42859 C40.7421506,187.267356 40.2132588,197.731933 37.5611719,209.972937 C34.909085,222.21394 32.4349905,247.405496 32.4349905,249.888919 C32.4349905,252.372342 32.6129829,253.615329 32.6129829,253.615329 C32.6129829,253.615329 19.5330836,254.146215 18.1193153,252.903228 C16.705547,251.662792 13.1711263,223.633039 16.1766553,202.698779 C19.1796415,181.767072 16.5046699,181.922765 16.8631974,161.011476 C17.221725,140.100188 16.8631974,117.902522 16.8631974,117.902522 L20.7714022,114 Z" id="Fill-27" fill="#FF5959"></path>
                    <path d="M34.6024967,42.5870634 L48.4401352,37 L63.5288061,42.5870634 L74.2210644,75.3182197 L74.2210644,131.199063 C74.2210644,131.199063 39.2201284,137.184291 34.6024967,132.263387 C30.9968791,128.417017 34.6024967,42.5870634 34.6024967,42.5870634" id="Fill-28" fill="#131A33"></path>
                    <path d="M39.0075236,15.8076787 C39.0075236,15.8076787 40.0678498,9.42173412 44.5736005,7.91330357 C49.0818939,6.40487302 53.0587529,6.67031596 55.5328474,9.42173412 C58.0069419,12.1705999 60.4810364,18.9113192 60.6564861,22.0175121 C60.8344785,25.1211526 60.6564861,30.2666619 58.1823916,32.1298671 C55.7082971,33.9930724 54.4725212,33.9011883 54.0300829,33.9011883 C53.5876447,33.9011883 54.6022014,39.171762 58.7138261,40.8205711 C60.1097951,41.382085 56.3287278,45.6980851 52.1738764,46.1421916 C48.0215677,46.586298 39.3609656,43.661321 39.0075236,40.9992346 C38.8753006,40.0038236 44.3091546,36.9052877 41.128176,25.6520385 C38.7583342,17.2650625 39.0075236,15.8076787 39.0075236,15.8076787" id="Fill-29" fill="#FAE271"></path>
                    <path d="M17.6241167,50.5508412 C17.6241167,50.5508412 31.8126545,41.007657 38.4390576,41 C44.1729559,40.9948953 46.3800618,137.166914 44.3229781,138.231238 C40.5673383,140.176118 16.2535751,137.66462 15.3864978,135.40325 C14.5168777,133.139328 15.3864978,89.1064281 15.3864978,89.1064281 L17.6241167,50.5508412 Z" id="Fill-30" fill="#A3A6B1"></path>
                    <path d="M48.7879027,16.1767053 C49.9779091,18.4712553 50.3771206,20.6662643 49.8482289,21.1103707 C49.3167944,21.5519248 47.9615094,22.381434 47.5190711,21.3171099 C47.0791756,20.2527858 47.0740901,18.5120927 45.253482,18.172632 C44.0660183,17.9505788 42.3369492,18.6856515 41.9835071,19.7959177 C41.6682063,20.7811194 42.8378707,23.9970627 43.3667624,24.7933915 C43.8981969,25.5922727 44.1931558,26.1665482 44.1931558,26.1665482 C44.1931558,26.1665482 42.5123989,31.133394 40.6587351,31.0440623 C38.8025285,30.9572828 35.0468887,19.7959177 34.3832312,15.1659803 C33.7170311,10.5105195 33.6992318,8.95869921 36.1504416,6.20728105 C37.6532061,4.52273932 43.8397137,2.00728323e-13 50.9975513,2.00728323e-13 C58.1553889,2.00728323e-13 60.4642048,3.46862457 60.8481598,5.49773165 C61.3643378,8.20831244 60.8888438,10.5232812 58.7732769,11.8836762 C56.6526244,13.249176 53.9496826,13.925545 52.2333272,13.2159956 C49.4286754,12.0521304 47.3970191,13.4916479 48.7879027,16.1767053" id="Fill-31" fill="#121A36"></path>
                    <path d="M22.6030708,48.0499088 C12.9101127,50.2449177 2.78743014,69.7371074 1.32789238,86.235407 C-0.129102635,102.733707 0.00312029839,105.793957 0.00312029839,105.793957 C0.00312029839,105.793957 4.24442515,137.726233 5.96840877,139.854881 C7.68984965,141.983529 17.4794322,139.854881 17.4794322,139.854881 C17.4794322,139.854881 19.6204266,108.721487 18.5601004,102.468264 C17.4997742,96.2150406 26.295142,79.2751869 27.4419216,76.5237687 C28.6954967,73.5120123 29.1659052,71.6003127 30.2262315,64.6809299 C31.2865577,57.7640994 26.4197366,47.1846669 22.6030708,48.0499088" id="Fill-32" fill="#121A36"></path>
                    <path d="M82.722645,52.3364767 C94.520999,63.3804343 100.882956,67.3722878 100.882956,67.3722878 L115.402051,54.0975885 L122.824335,59.1971557 C122.824335,59.1971557 107.509359,91.586299 103.268055,92.1197372 C101.30251,92.3673138 80.0934428,82.8241297 79.5416664,82.538268 C79.5416664,82.538268 77.1489398,75.8358338 77.0243451,67.1068448 C76.9048359,58.8934277 77.0040031,46.9842281 82.722645,52.3364767" id="Fill-33" fill="#121A36"></path>
                    <path d="M59,41 C59,41 77.9841619,45.6222804 83.3010494,52.8402865 C85.5539248,55.9005373 81.3558467,80.2064327 81.3558467,80.2064327 L81.0202038,83.5040507 C81.0202038,83.5040507 82.5585668,131.148506 80.5701373,133.677871 C78.5817078,136.204684 65.0085152,137.19499 65.0085152,137.19499 C65.0085152,137.19499 67.5029517,89.5709533 67.3961562,83.1773517 C67.2919035,77.0976875 65.3187305,42.329767 59,41" id="Fill-34" fill="#A3A6B1"></path>
                    <path d="M64.7938364,256.765261 C64.7938364,256.765261 62.258716,254.501339 60.8881744,255.101138 C58.7242953,256.045502 60.8500332,258.781606 59.3726962,260.688201 C57.8953592,262.597348 55.83319,262.518226 51.9402417,259.429899 C50.9943392,258.679513 50.6892093,267.099669 51.3630378,267.696915 C52.403022,268.615756 52.362338,268.620861 60.8525759,268.036376 C65.3201854,267.727543 71.9898153,269.932762 75.5267787,269.848535 C82.7888691,269.674976 84.317061,267.102221 82.7329286,265.524878 C81.5149519,264.312518 75.9361613,262.821954 73.2306767,261.762734 C70.525192,260.703515 64.7938364,256.765261 64.7938364,256.765261" id="Fill-35" fill="#131A33"></path>
                    <path d="M34.9322182,259.599945 C34.9322182,259.599945 31.8529495,255.457504 30.482408,256.059855 C28.3185288,257.004219 29.0711824,260.340122 27.5963882,262.246717 C26.1165084,264.153312 22.0659097,265.212532 20.161391,260.988416 C19.6630122,259.885807 18.1907607,268.173241 19.584187,269.25288 C20.6801117,270.102807 20.5834872,270.176825 29.0762679,269.594893 C33.5413347,269.28606 40.2109645,271.491278 43.747928,271.407051 C51.0100183,271.233492 52.5382103,268.660738 50.9540778,267.083394 C49.7361012,265.871034 44.1573105,264.38047 41.4518259,263.321251 C38.7463413,262.262031 34.9322182,259.599945 34.9322182,259.599945" id="Fill-36" fill="#131A33"></path>
                    <polygon id="Fill-105" fill="#FFE359" points="70 68.9785761 79.4641107 68.9785761 79.4641107 66 70 66"></polygon>
                </g>
                <g id="Group-38" transform="translate(0.000000, 16.000000)">
                    <path d="M68.7344687,210.735458 C68.7344687,210.735458 72.0629267,229.035707 68.6861565,235.329768 C65.3093862,241.623828 59.8094207,242.693257 59.8094207,242.693257 C59.8094207,242.693257 62.7056115,244.63048 67.0460835,244.872952 C71.3865556,245.112871 77.898535,244.63048 78.3816573,242.935729 C78.8647795,241.240978 77.898535,237.609004 78.3816573,231.314943 C78.8647795,225.01833 82.483111,212.187737 81.9999887,209.283179 C81.5168664,206.376068 68.7344687,210.735458 68.7344687,210.735458" id="Fill-90" fill="#FF5959"></path>
                    <path d="M63.9284193,240.553378 C63.9284193,240.553378 49.5669746,245.647841 49.0838524,246.98016 C48.6032729,248.31248 49.9204167,249.713712 53.0581686,249.956184 C56.1933778,250.198656 78.0177899,248.506457 79.9451935,247.291545 C81.0970586,246.566682 79.1645696,239.476293 78.442429,239.777468 C77.4151585,240.206261 79.1060864,242.449764 73.4382995,242.692236 C67.7705126,242.934708 66.2423207,243.17718 64.6353035,241.359916 C63.4122414,239.979103 63.9284193,240.553378 63.9284193,240.553378" id="Fill-91" fill="#FAE271"></path>
                    <path d="M90.9685177,213.259208 C90.9685177,213.259208 94.2969757,231.559457 90.9202054,237.853517 C87.5434352,244.15013 82.0434697,245.217007 82.0434697,245.217007 C82.0434697,245.217007 84.9396605,247.15423 89.2801325,247.396701 C93.6206046,247.639173 100.132584,247.15423 100.615706,245.459478 C101.098829,243.764727 100.132584,240.132753 100.615706,233.838693 C101.098829,227.544632 103.496641,214.74722 103.013518,211.840109 C102.530396,208.935551 90.9685177,213.259208 90.9685177,213.259208" id="Fill-92" fill="#FF5959"></path>
                    <path d="M86.1617055,243.078404 C86.1617055,243.078404 71.8002608,248.172867 71.3196813,249.505186 C70.836559,250.837506 72.1537029,252.238738 75.2914548,252.48121 C78.4266639,252.72113 100.251076,251.031483 102.17848,249.816571 C103.330345,249.089155 101.400399,242.001318 100.675715,242.302494 C99.6484447,242.731287 101.339373,244.97479 95.6715857,245.217262 C90.0037988,245.459734 88.4756068,245.702206 86.8685896,243.884942 C85.6455275,242.504129 86.1617055,243.078404 86.1617055,243.078404" id="Fill-93" fill="#FAE271"></path>
                    <path d="M6.85108478,1.90001213 C5.99417847,1.21598609 2.44958677,-1.43333864 1.0053055,1.90001213 C-0.436433017,5.23336289 4.03626196,14.5034471 5.11947291,15.9531739 C6.20268386,17.4029007 11.9747234,9.79693958 11.9747234,9.79693958 C11.9747234,9.79693958 9.30483729,3.85510147 6.85108478,1.90001213" id="Fill-94" fill="#FF5959"></path>
                    <path d="M67.2111079,228.517072 C67.2111079,228.517072 68.5333373,229.675833 72.9348353,230.061236 C77.3363333,230.449191 80.415602,230.061236 80.415602,230.061236 C80.415602,230.061236 86.5741393,184.859366 84.2627808,178.871586 C81.9539649,172.883806 76.4539995,113.386302 76.4539995,113.386302 L51.7410248,110.680826 C51.7410248,110.680826 56.5519053,158.953156 59.2446762,168.815382 C61.9399899,178.677608 67.3814721,221.605347 67.2111079,228.517072" id="Fill-95" fill="#121A36"></path>
                    <path d="M87.342558,231.373392 C87.342558,231.373392 88.9800882,232.960945 95.4895249,232.960945 C103.036403,232.960945 104.277264,230.23505 104.277264,230.23505 C104.277264,230.23505 104.086558,186.597762 99.4663839,170.951942 C94.8487522,155.303571 102.487169,115.308466 101.197996,108.94294 C100.620792,106.089429 68.8669459,112.613199 68.8669459,112.613199 C68.8669459,112.613199 68.4804481,145.645531 78.5853315,179.642646 C88.6902148,213.642314 87.342558,231.373392 87.342558,231.373392" id="Fill-96" fill="#121A36"></path>
                    <path d="M49.6229151,112.998857 C49.6229151,112.998857 51.1612781,120.145398 67.5213233,120.918756 C83.8788257,121.692114 99.074292,119.180615 101.390736,116.960083 C107.338225,111.260717 102.603627,50.014863 99.9973098,47.8019877 C96.5823983,44.902534 66.8068109,39.5834659 60.7779537,38.672282 C55.0643973,37.8121448 54.4337957,41.1378385 52.1249798,49.6371172 C49.816164,58.136396 47.8963887,110.290829 49.6229151,112.998857" id="Fill-97" fill="#FAE271"></path>
                    <path d="M11.975232,6.75302372 C11.975232,6.75302372 8.94427552,6.75302372 6.34812909,9.29004566 C2.93576032,12.6208441 2.23141893,15.5917631 2.23141893,15.5917631 C2.23141893,15.5917631 16.37673,43.335655 24.8923954,49.3489585 C33.4080609,55.3597097 45.0284225,62.82274 47.1211046,67.1693682 C49.2137868,71.5159963 49.5545152,78.8309912 49.5545152,78.8309912 C49.5545152,78.8309912 63.5625178,39.9538099 60.778208,37.8404757 C58.0905226,35.8037116 54.2662285,35.5127453 50.2969978,35.9466424 C46.327767,36.3805395 33.3368639,30.5152715 27.6360213,24.4279502 C21.9351787,18.3457336 11.975232,6.75302372 11.975232,6.75302372" id="Fill-98" fill="#000000"></path>
                    <path d="M71.513693,17.1854417 C71.513693,17.1854417 71.6586297,10.9551896 74.4734525,8.49218544 C77.2882753,6.02918124 87.6067496,2.62436507 91.3598467,9.0715657 C95.1129438,15.5187663 94.3246917,33.5714386 85.3691307,31.0931203 C83.2764485,30.5137401 85.6335766,45.2713466 99.127944,45.4091727 C100.084018,45.4193821 89.4121012,55.0314793 76.2050644,52.4229919 C62.9980276,49.8145046 60.778208,37.8414966 60.778208,37.8414966 C60.778208,37.8414966 66.606188,39.9318598 70.2143484,37.251907 C73.8225088,34.5719543 71.6764289,23.0736808 71.513693,17.1854417" id="Fill-99" fill="#FF5959"></path>
                    <path d="M60.2078694,25.8779323 C61.2656529,27.3251068 78.202902,28.9279738 78.2969837,28.1954533 C78.6173701,25.7043734 77.1425758,18.1520113 80.2218445,13.1290142 C83.3011132,8.10601701 88.7222535,8.69815895 90.6140585,11.5822986 C94.3671556,17.3046358 91.5167343,28.3230701 91.5167343,28.3230701 C91.5167343,28.3230701 95.506307,28.4302682 96.4115256,27.6160731 C96.4115256,27.6160731 100.718942,15.5715997 91.8650909,6.46486499 C87.1711767,1.63329302 75.9881679,-1.55457459 67.9047698,6.17389869 C59.8213716,13.902372 59.6967769,25.1760399 60.2078694,25.8779323" id="Fill-100" fill="#211815"></path>
                    <path d="M97.4588837,82.6712359 C97.4588837,82.6712359 115.375091,93.7994206 118.774746,86.691165 C122.174401,79.580357 108.082488,40.713385 98.5370092,45.6572598 C92.1801374,48.9497732 97.4588837,82.6712359 97.4588837,82.6712359" id="Fill-101" fill="#000000"></path>
                    <path d="M83.7102415,78.9050089 C83.4203681,78.6880604 79.5960741,76.6589533 74.2563018,77.9631969 C68.9165295,79.2674406 70.9990407,83.0397932 72.1305639,83.9688435 C75.0496394,86.3654869 77.4957636,87.0418559 82.9169039,87.2358335 C84.2874454,87.2868802 83.7102415,78.9050089 83.7102415,78.9050089" id="Fill-102" fill="#FF5959"></path>
                    <path d="M80.8956729,76.5147463 C80.8956729,76.5147463 79.0191244,78.6153188 78.6580541,81.8031864 C78.2969837,84.991054 79.3801947,89.3376821 79.3801947,89.3376821 C79.3801947,89.3376821 112.288448,96.7981601 117.918094,86.9461433 C123.54774,77.0941266 109.521938,75.8230632 107.236007,76.0808492 C106.157881,76.2033613 90.1105943,78.6612608 80.8956729,76.5147463" id="Fill-103" fill="#000000"></path>
                </g>
            </g>
        </g>
    </g>
</svg>