<?xml version="1.0" encoding="UTF-8"?>
<svg width="639px" height="301px" viewBox="0 0 639 301" version="1.1" xmlns="http://www.w3.org/2000/svg" xmlns:xlink="http://www.w3.org/1999/xlink">
    <title>Group 2</title>
    <defs>
        <polygon id="path-1" points="0.0514806841 0.99697299 64.0514807 0.99697299 64.0514807 127.996973 0.0514806841 127.996973"></polygon>
        <polygon id="path-3" points="0.0514806841 0.99697299 64.0514807 0.99697299 64.0514807 127.996973 0.0514806841 127.996973"></polygon>
        <polygon id="path-5" points="0 296 317 296 317 0 0 0"></polygon>
    </defs>
    <g id="Page-1" stroke="none" stroke-width="1" fill="none" fill-rule="evenodd">
        <g id="V7:-Reg-form---Thank-you-page" transform="translate(-646.000000, -161.000000)">
            <g id="Group-2" transform="translate(646.476566, 161.000000)">
                <g id="Group-9" transform="translate(67.500000, 69.308014) rotate(-42.000000) translate(-67.500000, -69.308014) translate(35.000000, 5.308014)">
                    <mask id="mask-2" fill="white">
                        <use xlink:href="#path-1"></use>
                    </mask>
                    <g id="Clip-8"></g>
                    <path d="M64.0514807,127.996973 C29.1427135,127.996973 0.0514806841,99.4575392 0.0514806841,64.4991563 C0.0514806841,29.5399001 29.1427135,0.99697299 64.0514807,0.99697299 L64.0514807,127.996973 Z" id="Fill-7" fill="#FF5959" mask="url(#mask-2)"></path>
                </g>
                <g id="Group-9-Copy" transform="translate(569.137579, 195.836679) rotate(-134.000000) translate(-569.137579, -195.836679) translate(536.637579, 131.836679)">
                    <mask id="mask-4" fill="white">
                        <use xlink:href="#path-3"></use>
                    </mask>
                    <g id="Clip-8"></g>
                    <path d="M64.0514807,127.996973 C29.1427135,127.996973 0.0514806841,99.4575392 0.0514806841,64.4991563 C0.0514806841,29.5399001 29.1427135,0.99697299 64.0514807,0.99697299 L64.0514807,127.996973 Z" id="Fill-7" fill="#2E66FF" mask="url(#mask-4)"></path>
                </g>
                <g id="Group-49" transform="translate(182.523434, 5.000000)">
                    <path d="M245,172 L243.017061,172 L243.017061,165.948884 L231.982939,165.948884 L231.982939,172 L230,172 L230,165.645436 C230,164.738337 230.749587,164 231.672537,164 L243.324986,164 C244.248762,164 245,164.738337 245,165.645436 L245,172 Z" id="Fill-1" fill="#FF7373"></path>
                    <path d="M143,72.5820203 L135.307499,75 C135.307499,75 131.758331,69.7173978 132.013086,67.1360308 C132.240942,64.832575 134.194329,63.0131732 137.672292,64.5958924 C140.581407,65.9182608 143,72.5820203 143,72.5820203" id="Fill-3" fill="#FF5959"></path>
                    <path d="M190.685504,88.1851033 C192.666695,80.8099627 184.986144,71.0324908 176.113645,76.9101282 C167.985911,82.2949797 159.534718,91.9933728 159.534718,91.9933728 C159.534718,91.9933728 143.688427,69.6731675 142.016949,70.0036337 C140.966513,70.2117359 134,76.3274422 134,76.3274422 C134,76.3274422 138.157266,97.9659048 147.580456,107.184831 C165.506592,124.722016 188.069524,97.9217872 190.685504,88.1851033" id="Fill-5" fill="#F1F1F6"></path>
                    <path d="M176.999143,269.503739 C177.104283,269.26447 167.4992,265 167.4992,265 C167.4992,265 167.055278,282.422598 164,286.688729 L172.110543,289 C172.110543,289 175.020962,273.986707 176.999143,269.503739" id="Fill-7" fill="#FF5959"></path>
                    <path d="M206,139.918182 C204.416734,139.918182 174.667962,136 174.667962,136 L163,275.369124 C163,275.369124 163.962426,276.820212 169.590707,277.782961 C172.450559,278.271299 176.714156,277.782961 176.714156,277.782961 L206,139.918182 Z" id="Fill-9" fill="#3F465C"></path>
                    <path d="M173.224686,294 L145.799701,294 C145.799701,294 144.514731,293.207443 145.20245,291.975399 C146.353395,289.909647 150.080144,289.749161 155.717595,287.57148 C162.922307,284.789711 164.621082,279.412173 165.742708,280.052473 C167.75393,281.20057 165.695799,285.893365 169.739184,285.893365 C172.935694,285.893365 172.567123,282.699269 173.642679,283.286074 C174.080775,283.52557 174.289352,290.669284 173.224686,294" id="Fill-11" fill="#FF7373"></path>
                    <path d="M218.000857,269.503739 C217.895717,269.26447 227.5008,265 227.5008,265 C227.5008,265 227.944722,282.422598 231,286.688729 L222.889457,289 C222.889457,289 219.979038,273.986707 218.000857,269.503739" id="Fill-13" fill="#FF5959"></path>
                    <path d="M222.775439,294 L250.200302,294 C250.200302,294 251.485267,293.207443 250.797551,291.975399 C249.646611,289.909647 245.919879,289.749161 240.281615,287.57148 C233.077772,284.789711 231.379005,279.412173 230.256546,280.052473 C228.246171,281.20057 230.304293,285.893365 226.260926,285.893365 C223.06443,285.893365 223.432161,282.699269 222.356611,283.286074 C221.919354,283.52557 221.710778,290.669284 222.775439,294" id="Fill-15" fill="#FF7373"></path>
                    <path d="M225.752558,135.453055 C223.357716,133.384346 199.520257,139.071057 199.520257,139.071057 C199.520257,139.071057 199.14958,144.346631 199.015003,153.799516 C198.946534,158.625689 199.134627,171.366852 199.134627,171.366852 C206.176707,211.709526 217.448916,275.576538 218.340587,276.220517 C219.453406,277.022437 221.671961,277.165724 225.336235,276.83193 C228.073423,276.582805 230,274.755894 230,274.755894 C230,274.755894 229.963011,139.089782 225.752558,135.453055" id="Fill-17" fill="#121A36"></path>
                    <path d="M228.174081,141.775066 C228.174081,141.775066 212.974261,146.756113 198.630484,145.901353 C179.983897,144.790902 173.196866,140.476126 173.196866,140.476126 C173.196866,140.476126 172.753918,105.481778 173.196866,91.5925436 C173.640621,77.7033089 177.11966,75.6954835 177.11966,75.6954835 C177.11966,75.6954835 191.632871,63.9017629 202.561347,66.3291828 C213.489016,68.7574223 231.247286,74.9751249 233.296628,82.2213258 C235.285457,89.2536319 232.477698,112.869756 231.966169,113.365566 C231.453834,113.863015 228.174081,141.775066 228.174081,141.775066" id="Fill-19" fill="#F5F5F9"></path>
                    <path d="M214.763138,52.9314966 C214.763138,52.9314966 216.387154,43.3909887 211.130318,40.3873763 C204.024525,36.3268333 195.51636,41.3285671 194.053015,53.4378588 C192.975281,62.354657 199.853662,61.9551935 199.853662,61.9551935 C199.853662,61.9551935 198.167849,67.0581998 193,67.7502282 C193,67.7502282 194.875323,72.0414474 200.065419,73.4544392 C208.137711,75.6518906 212.48902,70.5223606 212.765869,70.2056832 C212.989985,69.9500909 209.379412,69.9275859 209.769143,64.7008021 C210.158874,59.4748222 214.763138,52.9314966 214.763138,52.9314966" id="Fill-21" fill="#FF5959"></path>
                    <path d="M220.283889,39.0848933 C221.863915,41.2116742 223.189044,44.3401004 220.278077,50.858462 C216.83324,58.5737937 214.318317,62.184075 210.972283,61.9927858 C209.276848,61.8951234 208.165102,55.5502941 208.165102,55.5502941 C208.165102,55.5502941 211.012137,54.200777 211.31768,51.4702647 C211.624054,48.7389452 210.366178,48.2159266 208.990401,48.1771845 C207.173746,48.1271426 206.883977,50.7180218 206.180729,51.1393424 C205.477481,51.5606629 203.739702,50.8100344 204.193866,50.0077496 C204.64803,49.206272 205.969838,46.5120805 205.391962,45.8131081 C204.814086,45.1141357 200.303997,41.862219 198.929881,40.3827543 C196.522896,37.7902608 199.179796,31.7666683 202.445293,31.1185449 C207.803099,30.0563652 218.296196,36.4100728 220.283889,39.0848933" id="Fill-23" fill="#121A36"></path>
                    <path d="M228,142.240265 C228,142.240265 209.742002,145.674663 199.537863,145.342882 C184.058923,144.840516 173,141 173,141 L173.605371,144.158958 C173.605371,144.158958 185.749119,147.885229 200.718741,147.997127 C215.687555,148.109024 227.298576,144.915636 227.298576,144.915636 L228,142.240265 Z" id="Fill-25" fill="#F0F0F5"></path>
                    <path d="M241.895379,158.300496 L232.228943,158 C232.228943,158 231.402723,163.946185 232.889419,165.903965 C234.376947,167.860985 237.681825,168.91424 240.160484,166.95722 C242.639143,165.000199 241.895379,158.300496 241.895379,158.300496" id="Fill-27" fill="#FF5959"></path>
                    <path d="M228.162567,76.0456631 C237.098339,78.0571382 246.430763,95.9097985 247.775112,111.021251 C249.119461,126.132703 248.997098,128.935336 248.997098,128.935336 C248.997098,128.935336 245.086414,158.183625 243.498161,160.133675 C241.909908,162.082906 232.885444,160.133675 232.885444,160.133675 C232.885444,160.133675 230.912035,131.616757 231.889295,125.88864 C232.867377,120.161341 224.758581,104.646939 223.702483,102.125224 C222.547837,99.3676355 222.114229,97.6157849 221.136148,91.279147 C220.158888,84.9416901 224.643609,75.2536857 228.162567,76.0456631" id="Fill-29" fill="#F1F1F6"></path>
                    <mask id="mask-6" fill="white">
                        <use xlink:href="#path-5"></use>
                    </mask>
                    <g id="Clip-32"></g>
                    <polygon id="Fill-31" fill="#FF7373" mask="url(#mask-6)" points="206 212 269 212 269 170 206 170"></polygon>
                    <polygon id="Fill-33" fill="#FF8D8D" mask="url(#mask-6)" points="269 169 206 169 206 181.910779 237.573535 190 269 181.910779"></polygon>
                    <polygon id="Fill-34" fill="#FF8D8D" mask="url(#mask-6)" points="235 193 240 193 240 189 235 189"></polygon>
                    <polygon id="Fill-35" fill="#FFA9A9" mask="url(#mask-6)" points="235 193 240 193 240 189 235 189"></polygon>
                    <path d="M5.24518688,21 C5.24518688,21 1.80122684,15.6667786 0.596764246,11.4533183 C-0.601274546,7.26298697 -0.282493446,-0.919883079 4.24227102,-0.999638147 C6.89690658,-1.04749119 9.10267907,3.66204562 9.68885087,6.49016035 C10.4219671,10.0272976 11.6786231,6.97586872 12.4229809,5.45095181 C13.0822235,4.09910339 14.4231918,4.54971953 14.4231918,4.54971953 C13.2709226,11.4158334 14.4031175,15.9602772 14.995713,17.9270372 C15.2366056,18.726183 5.24518688,21 5.24518688,21" id="Fill-36" fill="#FAE271" mask="url(#mask-6)"></path>
                    <path d="M141.82895,150 C141.82895,150 148.044666,155.91822 150.257404,159.184895 C152.688848,162.774516 148.96091,169.637287 141.82895,163.619513 C134.69699,157.601739 133.165222,153.659227 134.373073,153.378371 L141.82895,150 Z" id="Fill-37" fill="#FAE271" mask="url(#mask-6)"></path>
                    <path d="M67,267.451762 C66.68025,269.193498 63.3968833,282.128915 64.630088,287.048368 C65.9998612,292.518016 52.1238547,289.003057 53.0438516,287.448586 C54.4839534,285.017447 56.9201052,273.199823 55.3197194,268.219882 C54.2664252,264.942733 67,266.07047 67,266.76153 L67,267.451762 Z" id="Fill-38" fill="#FAE271" mask="url(#mask-6)"></path>
                    <path d="M140.789778,255 C140.553672,263.312036 145.623112,268.285895 147.648148,272.67246 C149.798087,277.327926 141.57868,286.955601 137.005628,278.886072 C136.588211,278.148654 134.59299,260.376387 132.118304,259.680212 C130.809645,259.313152 140.789778,255 140.789778,255" id="Fill-39" fill="#FAE271" mask="url(#mask-6)"></path>
                    <path d="M89,153.523419 L51.3154543,152 C51.3154543,152 49.5242788,212.646323 50.1221496,219.619525 C50.7167711,226.564909 51.8085353,276.786201 53.2658454,278.280166 C54.286125,279.326596 55.5167966,279.64568 61.3890904,279.965582 C67.5903756,280.303483 69.7665929,278.042081 69.7665929,278.042081 C69.7665929,278.042081 73.9476271,238.361182 73.2652745,224.119421 C73.1832297,222.412733 89,153.523419 89,153.523419" id="Fill-40" fill="#FF7373" mask="url(#mask-6)"></path>
                    <path d="M96.4091938,147.007383 C96.4091938,147.007383 114.188196,192.083882 116.580338,202.643932 C118.773946,212.330148 143.73667,244.897963 145,261.917389 C145,261.917389 143.107031,264.460783 138.249003,266.162888 C133.70377,267.75434 131.719231,266.587601 131.719231,266.587601 C131.719231,266.587601 87.1064161,202.224915 80.7476273,193.092778 C74.1789587,183.6596 65.5285099,163.665559 64.0471966,155.057397 C62.5666935,146.448422 96.4091938,147.007383 96.4091938,147.007383" id="Fill-41" fill="#FF8D8D" mask="url(#mask-6)"></path>
                    <path d="M46.7316377,65 L67.6388207,73.4044468 C67.6388207,73.4044468 88.0708221,76.258879 92.8226386,84.6633258 C97.5744551,93.0677727 94.4068472,102.264847 94.4068472,102.264847 L99,153.801045 C99,153.801045 82.3605472,162.566145 71.1885167,163.632708 C52.4402936,165.423819 47.2974843,160.082092 47.2974843,160.082092 C47.2974843,160.082092 38.3184131,103.576978 32.1467182,89.0576277 C25.9742138,74.5390877 46.7316377,65 46.7316377,65" id="Fill-42" fill="#3F465C" mask="url(#mask-6)"></path>
                    <path d="M144.960947,147.662715 C145.230416,148.598012 144.172138,152.504443 139.688334,156.027475 C135.268224,159.501666 133.190862,158.970932 133.190862,158.970932 C133.190862,158.970932 95.5182594,124.307161 91.880426,119.235069 C88.2425926,114.162977 78.1236181,100.919046 83.5840427,88.6340173 C86.1121532,82.9465344 90.4261092,81.0881511 93.6744372,85.282741 C97.1987669,89.833053 144.481619,145.999694 144.960947,147.662715" id="Fill-43" fill="#A3A6B1" mask="url(#mask-6)"></path>
                    <path d="M15.6479421,15.8318445 C15.6479421,15.8318445 15.6438856,14.5415705 11.869683,15.1749186 C4.76668561,16.3692554 4,20.0083646 4,20.0083646 C4,20.0083646 8.02814185,36.6014343 14.8366346,52.5091221 C21.6451273,68.417623 31.2810268,84.3732794 32.1750877,89.7457624 C32.6513252,92.6092437 54.8819626,70.4257999 49.0145866,66.3070047 C44.3447005,63.0288795 40.3911989,60.8694796 31.0254649,44.4845448 C21.9209719,28.5557183 15.6479421,15.8318445 15.6479421,15.8318445" id="Fill-44" fill="#A3A6B1" mask="url(#mask-6)"></path>
                    <path d="M153.998919,286.904258 C154.058888,292.067041 151.624323,296.329348 146.392881,294.614429 C135.093766,290.909286 136.018284,272.127113 136.018284,272.127113 C139.033381,277.048185 137.265135,270.986565 140.268571,270.275361 C143.316983,269.554325 143.98247,271.996835 145.009435,271.49129 C146.236296,270.888242 145.537493,269.373246 145.009435,268 C145.009435,268 148.816618,272.153332 150.329164,275.026825 C151.987467,278.178081 153.960606,283.626821 153.998919,286.904258" id="Fill-45" fill="#FF7373" mask="url(#mask-6)"></path>
                    <path d="M65.1615458,294.247654 C65.1615458,294.247654 35.5760854,295.375851 32.3447449,294.869132 C29.1647213,294.371304 29.0343924,290.753155 33.0982084,289.803563 C37.1620245,288.855587 44.1826759,286.462615 46.2972613,285.278655 C50.6811975,282.825878 52.9806869,278.347036 54.8940772,279.08004 C56.8066528,279.813044 52.7428368,284.714557 57.6831142,285.504941 C62.6242062,286.296133 63.5405809,281.304106 64.6760709,281.625755 C65.8115608,281.947404 69.0021737,293.125115 65.1615458,294.247654" id="Fill-46" fill="#FF7373" mask="url(#mask-6)"></path>
                    <path d="M77.2740462,43.8286721 C77.2740462,43.8286721 71.1495415,35.9417111 65.8107647,38.516676 C60.4711854,41.0924635 54.8498997,57.7795519 57.2263456,62.5543429 C58.5345546,65.1836041 62.3749104,64.4473123 62.3749104,64.4473123 C62.3749104,64.4473123 61.155788,70.2529119 56,69.3068386 C56,69.3068386 56.2993632,75.2893128 60.9230392,77.9736931 C65.6012908,80.6893349 75.7804408,77.3385899 75.4698415,75.7121664 C75.3647032,75.1601532 71.8301312,73.6464359 72.4890512,69.0402927 C73.1503789,64.4209868 75.6857361,59.4890653 77.2740462,54.4526644 C78.7042477,49.9164484 80.3102147,48.8181807 77.2740462,43.8286721" id="Fill-47" fill="#FAE271" mask="url(#mask-6)"></path>
                    <path d="M61.1122341,37.9379423 C61.1122341,37.9379423 59.9268886,41.4848905 65.2605301,43.5489384 C70.5941716,45.613798 70.4545734,49.3945039 69.6781102,50.5365076 C68.7603968,51.8871076 68.1094893,52.4706901 69.6938047,53.1654699 C70.5809552,53.5542544 71.3062049,51.3863142 72.4659436,51.3303097 C74.2427227,51.2458972 74.7333814,53.186573 74.2485049,54.7222311 C73.7636284,56.2570776 71.8158621,58.0581481 70.0010859,57.5768346 C68.667882,57.2245747 72.3213893,66.1609362 73.0738978,65.9977928 C73.8264063,65.8354611 81.4225294,60.1181377 84.654764,52.9714835 C87.6218448,46.4124701 88.0488995,42.7551363 84.3317884,40.1083175 C80.6146772,37.4614987 72.7732248,32.4624932 69.5575106,32.0720854 C63.8059006,31.374059 61.6508022,35.9258406 61.1122341,37.9379423" id="Fill-48" fill="#FF7373" mask="url(#mask-6)"></path>
                </g>
            </g>
        </g>
    </g>
</svg>