<svg xmlns="http://www.w3.org/2000/svg" xmlns:xlink="http://www.w3.org/1999/xlink" width="42.385" height="42.396" viewBox="0 0 42.385 42.396">
  <defs>
    <clipPath id="clip-path">
      <rect id="Rectangle_593" data-name="Rectangle 593" width="42.385" height="42.396" transform="translate(0 0)" fill="none"/>
    </clipPath>
  </defs>
  <g id="Group_407" data-name="Group 407" transform="translate(0 0)">
    <g id="Group_406" data-name="Group 406" clip-path="url(#clip-path)">
      <path id="Path_320" data-name="Path 320" d="M21.192,0A21.194,21.194,0,1,1,6.208,6.207,21.164,21.164,0,0,1,21.192,0M35,7.381A19.536,19.536,0,1,0,40.729,21.2,19.466,19.466,0,0,0,35,7.381" fill="#fff"/>
      <path id="Path_321" data-name="Path 321" d="M30.859,19.041c-.185.018-.37.027-.556.028a6.033,6.033,0,0,1-5.048-2.728v9.29a6.866,6.866,0,1,1-6.867-6.866c.144,0,.284.013.425.022V22.17a3.5,3.5,0,1,0-.425,6.967,3.591,3.591,0,0,0,3.646-3.461L22.068,9.9h3.237a6.029,6.029,0,0,0,5.557,5.383v3.761" fill="#fff"/>
    </g>
  </g>
</svg>
