<svg xmlns="http://www.w3.org/2000/svg" xmlns:xlink="http://www.w3.org/1999/xlink" width="42.385" height="42.396" viewBox="0 0 42.385 42.396">
  <defs>
    <clipPath id="clip-path">
      <rect id="Rectangle_590" data-name="Rectangle 590" width="42.385" height="42.396" transform="translate(0 0)" fill="none"/>
    </clipPath>
  </defs>
  <g id="Group_401" data-name="Group 401" transform="translate(0 0)">
    <g id="Group_400" data-name="Group 400" clip-path="url(#clip-path)">
      <path id="Path_314" data-name="Path 314" d="M21.193,0A21.194,21.194,0,1,1,6.208,6.207,21.167,21.167,0,0,1,21.193,0M35,7.381A19.533,19.533,0,1,0,40.73,21.2,19.464,19.464,0,0,0,35,7.381" fill="#fff"/>
      <path id="Path_315" data-name="Path 315" d="M32.011,14.6a9.454,9.454,0,0,1-2.546.692,4.38,4.38,0,0,0,1.96-2.429A9.023,9.023,0,0,1,28.6,13.928a4.459,4.459,0,0,0-7.687,2.981,4.51,4.51,0,0,0,.13,1,12.6,12.6,0,0,1-9.154-4.564,4.314,4.314,0,0,0,1.362,5.832,4.314,4.314,0,0,1-2.007-.54v.058a4.135,4.135,0,0,0,.3,1.573,4.431,4.431,0,0,0,3.263,2.7,4.39,4.39,0,0,1-1.174.164,3.924,3.924,0,0,1-.833-.094,4.475,4.475,0,0,0,4.143,3.051,8.981,8.981,0,0,1-5.5,1.866c-.364,0-.7-.024-1.068-.059a12.815,12.815,0,0,0,6.806,1.96,12.35,12.35,0,0,0,12.332-9.787,12.014,12.014,0,0,0,.294-2.64v-.563A9.2,9.2,0,0,0,32.011,14.6" fill="#fff" fill-rule="evenodd"/>
    </g>
  </g>
</svg>
