<?xml version="1.0" encoding="UTF-8"?>
<svg width="243px" height="293px" viewBox="0 0 243 293" version="1.1" xmlns="http://www.w3.org/2000/svg" xmlns:xlink="http://www.w3.org/1999/xlink">
    <title>Group 28</title>
    <g id="Page-1" stroke="none" stroke-width="1" fill="none" fill-rule="evenodd">
        <g id="V7:-Events:-In-person" transform="translate(-940.000000, -1901.000000)">
            <g id="Group-28" transform="translate(940.000000, 1901.000000)">
                <path d="M42,157 L39.885371,157 L39.885371,149.43793 L28.114629,149.43793 L28.114629,157 L26,157 L26,149.058032 C26,147.924319 26.8001299,147 27.7847053,147 L40.2152947,147 C41.1998701,147 42,147.924319 42,149.058032 L42,157 Z" id="Fill-1" fill="#FF5959"></path>
                <path d="M140,46.3612458 L148.391055,49 C148.391055,49 152.263263,43.2360173 151.985767,40.4203634 C151.736276,37.9093701 149.605416,35.9241621 145.81213,37.6489344 C142.63748,39.0936155 140,46.3612458 140,46.3612458" id="Fill-3" fill="#F0F0F5"></path>
                <path d="M87.3479335,62.8768 C85.1569699,54.8165583 93.6466242,44.1286189 103.454548,50.551582 C112.437235,56.4377325 121.778491,67.0397819 121.778491,67.0397819 C121.778491,67.0397819 139.293017,42.6416479 141.138594,43.0039965 C142.298671,43.2294578 150,49.9154591 150,49.9154591 C150,49.9154591 145.404513,73.5674234 134.990186,83.6433965 C115.176598,102.812975 90.2402163,73.5191103 87.3479335,62.8768" id="Fill-5" fill="#FFE668"></path>
                <path d="M102.000999,264.879812 C101.879056,264.619626 112.962623,260 112.962623,260 C112.962623,260 113.474254,278.874094 117,283.496375 L107.642193,286 C107.642193,286 104.283456,269.73573 102.000999,264.879812" id="Fill-7" fill="#F0F0F5"></path>
                <path d="M70,120.359546 C71.7311135,120.359546 104.247106,116 104.247106,116 L117,271.074511 C117,271.074511 115.946861,272.688162 109.794173,273.75855 C106.669593,274.301812 102.009522,273.75855 102.009522,273.75855 L70,120.359546 Z" id="Fill-9" fill="#3F465C"></path>
                <path d="M106.855132,293 L137.119562,293 C137.119562,293 138.534756,292.152021 137.776713,290.830631 C136.508765,288.617043 132.394068,288.447967 126.174304,286.114725 C118.22304,283.131193 116.349748,277.36962 115.111794,278.056327 C112.892203,279.286676 115.163603,284.314722 110.702606,284.314722 C107.174164,284.314722 107.580453,280.894194 106.394308,281.521074 C105.911669,281.778589 105.679894,289.431206 106.855132,293" id="Fill-11" fill="#121A36"></path>
                <path d="M55.9990011,264.879812 C56.1209442,264.619626 45.0373769,260 45.0373769,260 C45.0373769,260 44.5257461,278.874094 41,283.496375 L50.3578073,286 C50.3578073,286 53.7165444,269.73573 55.9990011,264.879812" id="Fill-13" fill="#F0F0F5"></path>
                <path d="M52.144868,293 L21.8804383,293 C21.8804383,293 20.4652442,292.152021 21.2232865,290.830631 C22.491235,288.617043 26.6059322,288.447967 32.8256965,286.114725 C40.7769603,283.131193 42.6502519,277.36962 43.8882058,278.056327 C46.1077973,279.286676 43.8363972,284.314722 48.2973943,284.314722 C51.8258358,284.314722 51.4195469,280.894194 52.6056922,281.521074 C53.0883307,281.778589 53.3201062,289.431206 52.144868,293" id="Fill-15" fill="#121A36"></path>
                <path d="M46.9336228,115.503687 C49.7131666,113.202869 77.3953739,119.530785 77.3953739,119.530785 C77.3953739,119.530785 77.8267289,125.399072 77.9830951,135.917094 C78.0612782,141.28834 77.8429047,155.464689 77.8429047,155.464689 C69.6660314,200.353341 56.5771031,271.416797 55.5391551,272.132964 C54.2477861,273.025499 51.6731359,273.183162 47.4162012,272.81439 C44.2376541,272.536475 42,270.502884 42,270.502884 C42,270.502884 42.0458315,119.552163 46.9336228,115.503687" id="Fill-17" fill="#121A36"></path>
                <path d="M45.4947435,123.351924 C45.4947435,123.351924 62.4383907,128.832641 78.4295215,127.891266 C99.2150731,126.67067 106.779486,121.923906 106.779486,121.923906 C106.779486,121.923906 107.275643,83.4312375 106.779486,68.1538366 C106.285981,52.8764357 102.406931,50.6665976 102.406931,50.6665976 C102.406931,50.6665976 86.2300732,37.6921087 74.0463544,40.3619974 C61.8652889,43.0345453 42.066746,49.8741406 39.784952,57.8439179 C37.5668359,65.579681 40.6950163,91.5552514 41.2681181,92.1030572 C41.8385666,92.6508631 45.4947435,123.351924 45.4947435,123.351924" id="Fill-19" fill="#FFED93"></path>
                <path d="M60.2583707,23.5235883 C60.2583707,23.5235883 58.4871613,12.8925309 64.2197281,9.54522724 C71.9727462,5.02227238 81.2530346,10.5940667 82.8518957,24.0889577 C84.0265151,34.0225501 76.522739,33.5787088 76.522739,33.5787088 C76.522739,33.5787088 78.3628877,39.2641053 84,40.0355439 C84,40.0355439 81.9530335,44.8174062 76.2920576,46.3919863 C67.4863896,48.8410395 62.7401849,43.12394 62.4379127,42.7725656 C62.1913222,42.487239 66.1314675,42.4608199 65.7072257,36.6380439 C65.2803325,30.8152679 60.2583707,23.5235883 60.2583707,23.5235883" id="Fill-21" fill="#F5F5F8"></path>
                <path d="M45,122.593881 C45,122.593881 65.2505845,127.010445 76.5669322,126.583036 C93.7355615,125.938954 106,121 106,121 L105.329206,125.063358 C105.329206,125.063358 91.8605074,129.853906 75.2596762,129.996375 C58.656204,130.138845 45.7790718,126.033934 45.7790718,126.033934 L45,122.593881 Z" id="Fill-23" fill="#FFE359"></path>
                <path d="M30.1249943,141.359956 L41.7256939,141 C41.7256939,141 42.7162492,148.134654 40.93266,150.482428 C39.1461228,152.832889 35.1809536,154.098108 32.2063396,151.747648 C29.2346738,149.399873 30.1249943,141.359956 30.1249943,141.359956" id="Fill-25" fill="#F0F0F5"></path>
                <path d="M46.0703902,50.0505563 C36.1756801,52.276209 25.8437682,72.018524 24.3551361,88.7309587 C22.8665039,105.440722 23.0032971,108.54007 23.0032971,108.54007 C23.0032971,108.54007 27.3324004,140.885511 29.0919368,143.041696 C30.848791,145.19788 40.8400609,143.041696 40.8400609,143.041696 C40.8400609,143.041696 43.0260703,111.505826 41.9424534,105.170864 C40.8615187,98.8385751 49.8389094,81.6799411 51.0083574,78.8905275 C52.2877764,75.8419443 52.7678938,73.9048516 53.8488285,66.8965836 C54.9324454,59.8883156 49.967656,49.1741888 46.0703902,50.0505563" id="Fill-27" fill="#FFE668"></path>
                <path d="M86.8643005,27.7848089 C85.3173065,24.3707725 82.3892589,22.3411681 82.3892589,22.3411681 C82.3892589,22.3411681 78.1390398,25.2498197 76.3645466,24.8922867 C74.5900534,24.537442 72.4676204,21.4782502 72.4569145,21.4594327 C71.9617694,20.5535034 70.5164808,17.5131291 71.1481254,16.7227931 C71.7797701,15.9351454 76.7071336,12.26304 78.2086278,10.5909686 C80.8395883,7.66618773 77.9383053,0.864996966 74.3679072,0.133801753 C68.5144885,-1.06514334 57.0458559,6.10702147 54.8752466,9.12857816 C53.1489297,11.5291566 51.7009646,15.0614746 54.8805995,22.4191264 C58.6463792,31.13164 61.3924275,35.206978 65.0511488,34.9919206 C66.9032593,34.8817037 68.1183723,27.7176035 68.1183723,27.7176035 C68.1183723,27.7176035 65.005649,26.1933841 64.6710914,23.1099984 C64.3392103,20.0266127 65.7122345,19.437893 67.2164052,19.3921933 C68.88384,19.3438054 69.3736322,21.3976037 69.9437183,22.3384799 L69.9410418,22.3384799 C69.9410418,22.3384799 73.5542633,33.0268335 76.2467824,33.688135 C79.4906523,34.4838474 88.186472,30.7042134 86.8643005,27.7848089" id="Fill-29" fill="#FF5959"></path>
                <polygon id="Fill-31" fill="#FF5959" points="0 201 70 201 70 154 0 154"></polygon>
                <polygon id="Fill-33" fill="#FF7979" points="0 154 70 154 70 168.139452 34.9196572 177 0 168.139452"></polygon>
                <polygon id="Fill-34" fill="#FF7979" points="33 181 38 181 38 177 33 177"></polygon>
                <polygon id="Fill-35" fill="#FF9A9A" points="33 179 38 179 38 175 33 175"></polygon>
                <path d="M155.957803,76 C155.957803,76.5620198 149.285806,84.8709419 149.007046,101.203818 C148.728286,117.536695 156.791477,114.721318 160.683693,111.623613 C164.578514,108.525907 170,83.03976 170,83.03976 L155.957803,76 Z" id="Fill-39" fill="#FF5959"></path>
                <path d="M172.086333,44 L193.820104,43.1392615 L217.774377,42.8238356 C217.774377,42.8238356 221.504502,13.7859411 198.631193,9.43145981 C191.746037,8.12164039 185.816709,10.0302344 182.9013,11.9976366 C179.975242,13.970385 176.814886,16.4991385 174.277549,22.7354827 C171.740212,28.971827 171.915935,37.3145748 172.086333,44" id="Fill-40" fill="#121A36"></path>
                <path d="M208.435969,246.876954 C208.435969,246.876954 212.328646,268.349424 208.380473,275.735826 C204.432299,283.122228 198,284.37592 198,284.37592 C198,284.37592 201.385281,286.646407 206.461882,286.931216 C211.538483,287.216025 219.154706,286.646407 219.717598,284.658067 C220.283133,282.669727 219.154706,278.410901 219.717598,271.024499 C220.283133,263.638097 224.511431,248.580484 223.948539,245.170761 C223.385647,241.7637 208.435969,246.876954 208.435969,246.876954" id="Fill-41" fill="#FF7979"></path>
                <path d="M184.905909,246.453178 L196.794336,246.450546 C198.254364,256.743331 191.404465,273.940968 193.070094,281.809289 C194.735723,289.674977 176.681867,284.054748 176.681867,284.054748 L176,280.682611 C176,280.682611 182.576632,277.5 183.534368,268.905138 C184.075698,264.058842 182.654708,248.561751 181.821893,246.876999 C180.989079,245.192246 184.905909,246.453178 184.905909,246.453178" id="Fill-42" fill="#FF7979"></path>
                <path d="M167,139 C167,139 200.071348,146.059604 200.651308,147.755708 C201.231268,149.449166 200.912699,201.761149 200.912699,201.761149 C200.912699,201.761149 197.215112,270.383252 195.472508,272.124339 C192.74969,274.844456 180.619536,274.270268 179.456893,272.526535 C178.294249,270.785448 172.753315,214.684353 171.882013,210.448061 C171.010711,206.211769 170.365403,196.889811 168.557452,179.357226 C167.250499,166.666874 167,139 167,139" id="Fill-43" fill="#FAE271"></path>
                <path d="M190.128643,141.269986 L226.50939,137 C226.50939,137 228.932151,163.540055 227.600157,181.758839 C226.283895,199.734919 225.667717,207.309409 226.50939,215.846714 C227.348442,224.389352 224.094495,272.775412 222.862138,273.418177 C220.001497,274.911738 218.674747,274.981082 213.711233,275 C208.262643,275.021088 205.69567,273.66088 205.69567,273.66088 C205.69567,273.66088 205.915921,238.916905 203.561332,224.389352 C201.358822,210.797942 195.524792,190.888234 194.192798,183.012364 C188.875309,151.580894 190.128643,141.269986 190.128643,141.269986" id="Fill-44" fill="#FFED93"></path>
                <path d="M220,89.1900214 L237.414485,84 C237.414485,84 242.186658,110.94008 242.445275,116.375593 C242.701171,121.811107 243.387187,154.045276 242.709337,157.818381 C242.183936,160.742938 239.232974,163.811588 237.188535,156.340092 C235.146818,148.865928 232.740314,136.441897 231.49895,127.660221 C230.812933,122.790407 227.676856,110.22762 225.188683,103.684724 C222.703233,97.1391595 220,89.1900214 220,89.1900214" id="Fill-45" fill="#FF5959"></path>
                <path d="M151,83.4751701 L169.153579,90.1401472 C169.153579,90.1401472 166.094938,122.022592 165.84644,146.400629 C165.84644,146.400629 173.943777,147.967922 190.886589,148 C214.874587,148.039645 229.168515,142.145032 229.168515,142.145032 C224.888532,122.150101 221.784949,93.7980481 222.350679,92.9479912 C223.016865,91.9438616 239.235332,89.4441631 238.997408,87.9857843 C236.504496,72.8175821 231.714299,66.4102785 226.699395,60.1437656 C222.419412,54.7937202 204.300199,49.7730718 200.889959,49.3692948 C189.879379,48.0623324 180.872644,50.6443801 180.872644,50.6443801 C180.872644,50.6443801 176.407609,51.475842 170.152859,55.2081229 C160.419136,61.0203867 153.257632,76.387821 151,83.4751701" id="Fill-46" fill="#121A36"></path>
                <path d="M134.913827,73.5521881 C131.687878,71.0728204 128.207321,70.5065614 131.051356,80.0403522 C135.368873,94.5196481 145.171314,110.134108 150.73208,112.790763 C154.40224,114.542461 161.10062,115.291299 161.942996,108.586157 C163.213332,98.4834612 142.912337,79.6990091 134.913827,73.5521881" id="Fill-47" fill="#FF5959"></path>
                <path d="M176.174485,279.922731 C176.174485,279.922731 159.664368,285.910336 159.111,287.475217 C158.557632,289.040099 160.07225,290.687624 163.678236,290.972875 C167.281624,291.25546 192.372845,289.269366 194.588916,287.843111 C195.911284,286.990024 193.692615,278.656429 192.861264,279.010994 C191.679187,279.514848 193.62247,282.151421 187.106754,282.436672 C180.591039,282.721923 178.834809,283.004508 176.985053,280.87179 C175.579549,279.248259 176.174485,279.922731 176.174485,279.922731" id="Fill-48" fill="#FF5959"></path>
                <path d="M183.89722,23.4391759 C183.189137,23.676825 181.513075,27.7978756 182.136294,32.853319 C182.698517,37.4064588 185.567977,40.1394229 189.233036,40.2501458 C191.582704,40.3230608 191.131865,49.5643683 184.531047,50.2314059 C184.531047,50.2314059 185.642233,53.9770791 191.174297,55.5569051 C198.395682,57.620131 205.945915,51.8949493 203.545859,50.3394282 C200.729439,48.5138514 201.018507,43.6987576 201.018507,43.6987576 C200.875299,43.6771531 198.255127,43.7851754 198.255127,43.7851754 C197.66108,43.2288606 198.077443,36.4234559 197.600084,32.499546 C196.960953,27.2415608 195.473183,23.0016856 195.473183,23.0016856 C194.666976,22.9773806 184.544307,23.2204308 183.89722,23.4391759" id="Fill-49" fill="#FF5959"></path>
                <path d="M203.175088,281.922882 C203.175088,281.922882 186.664398,287.910405 186.11101,289.475265 C185.557623,291.040126 187.072293,292.687628 190.675807,292.972875 C194.281918,293.255456 219.374011,291.26939 221.587561,289.843154 C222.912573,288.987413 220.693827,280.653932 219.859849,281.011157 C218.680329,281.515005 220.62368,284.151541 214.107738,284.436788 C207.591795,284.71937 205.835505,285.004617 203.985684,282.871928 C202.580132,281.248419 203.175088,281.922882 203.175088,281.922882" id="Fill-50" fill="#FF5959"></path>
            </g>
        </g>
    </g>
</svg>