<?xml version="1.0" encoding="UTF-8"?>
<svg width="101px" height="101px" viewBox="0 0 101 101" version="1.1" xmlns="http://www.w3.org/2000/svg" xmlns:xlink="http://www.w3.org/1999/xlink">
    <title>Group 22</title>
    <defs>
        <polygon id="path-1" points="0 0 100.99979 0 100.99979 100.99979 0 100.99979"></polygon>
    </defs>
    <g id="Page-1" stroke="none" stroke-width="1" fill="none" fill-rule="evenodd">
        <g id="V7:-Wyred-World-2020" transform="translate(-590.000000, -3636.000000)">
            <g id="Group-22" transform="translate(590.000000, 3636.000000)">
                <g id="Group-3">
                    <mask id="mask-2" fill="white">
                        <use xlink:href="#path-1"></use>
                    </mask>
                    <g id="Clip-2"></g>
                    <path d="M97.9382271,81.1069979 L97.9382271,85.6982896 C97.9382271,87.3858312 96.5663104,88.7598521 94.8787687,88.7598521 L61.2121021,88.7598521 L39.7874771,88.7598521 L6.12081042,88.7598521 C4.43326875,88.7598521 3.06135208,87.3858312 3.06135208,85.6982896 L3.06135208,81.1069979 L97.9382271,81.1069979 Z M45.6097062,32.2208937 C44.4755604,31.0888521 44.4755604,29.2434979 45.6097062,28.1093521 C46.7417479,26.9773104 48.5871021,26.9752063 49.7191437,28.1093521 L64.2421021,42.6344146 C66.2663104,44.6586229 68.9575396,45.7717271 71.8171021,45.7717271 L77.7761021,45.7717271 L77.7761021,47.5707896 C77.7761021,48.4187687 78.4599562,49.1047271 79.3058312,49.1047271 C80.1517062,49.1047271 80.8355604,48.4187687 80.8355604,47.5707896 L80.8355604,45.7717271 L90.5967896,45.7717271 C94.6452062,45.7717271 97.9382271,49.0668521 97.9382271,53.1152687 L97.9382271,78.0475396 L92.1265187,78.0475396 L92.1265187,54.6555187 C92.1265187,53.8075396 91.4405604,53.1236854 90.5967896,53.1236854 C89.7488104,53.1236854 89.0649562,53.8075396 89.0649562,54.6555187 L89.0649562,78.0475396 L69.5424979,78.0475396 L69.5424979,60.0611229 C69.5424979,57.6181854 68.5956229,55.3162271 66.8702062,53.5823937 L45.6097062,32.2208937 Z M37.6727896,97.9403312 L40.7343521,91.8193104 L60.2673312,91.8193104 L63.3267896,97.9403312 L37.6727896,97.9403312 Z M99.4721646,38.7669562 C100.315935,38.7669562 100.99979,38.0831021 100.99979,37.2351229 L100.99979,6.12081042 C100.99979,2.74783125 98.2538521,-0.000210416667 94.8787687,-0.000210416667 L6.12081042,-0.000210416667 C2.74572708,-0.000210416667 -0.000210416667,2.74783125 -0.000210416667,6.12081042 L-0.000210416667,79.5751646 L-0.000210416667,85.6982896 C-0.000210416667,89.0733729 2.74572708,91.8193104 6.12081042,91.8193104 L37.3129771,91.8193104 L34.2493104,97.9403312 L26.2703104,97.9403312 C25.4244354,97.9403312 24.7405812,98.6262896 24.7405812,99.4721646 C24.7405812,100.315935 25.4244354,100.99979 26.2703104,100.99979 L35.1982896,100.99979 L65.8033937,100.99979 L74.7292687,100.99979 C75.5751437,100.99979 76.2589979,100.315935 76.2589979,99.4721646 C76.2589979,98.6262896 75.5751437,97.9403312 74.7292687,97.9403312 L66.7502687,97.9403312 L63.6887062,91.8193104 L94.8787687,91.8193104 C98.2538521,91.8193104 100.99979,89.0733729 100.99979,85.6982896 L100.99979,53.1152687 C100.99979,47.3793104 96.3306437,42.7122687 90.5967896,42.7122687 L71.8171021,42.7122687 C69.8013104,42.7122687 67.8297062,41.8937479 66.4072896,40.4713312 L51.8843312,25.9462687 C49.5571229,23.6211646 45.7717271,23.6211646 43.4466229,25.9441646 C41.1194146,28.2734771 41.1194146,32.0567687 43.4424146,34.3839771 L64.7008104,55.7433729 C65.8496854,56.8964562 66.4830396,58.4324979 66.4830396,60.0611229 L66.4830396,78.0475396 L3.06135208,78.0475396 L3.06135208,6.12081042 C3.06135208,4.43537292 4.43326875,3.06135208 6.12081042,3.06135208 L94.8787687,3.06135208 C96.5663104,3.06135208 97.9382271,4.43537292 97.9382271,6.12081042 L97.9382271,37.2351229 C97.9382271,38.0831021 98.6241854,38.7669562 99.4721646,38.7669562 L99.4721646,38.7669562 Z" id="Fill-1" fill="#FF5959" mask="url(#mask-2)"></path>
                </g>
                <path d="M85.0393665,31 C85.0393665,34.3284325 82.3312217,37.0380005 79,37.0380005 C75.6687783,37.0380005 72.9606335,34.3284325 72.9606335,31 C72.9606335,27.6695318 75.6687783,24.9599638 79,24.9599638 C82.3312217,24.9599638 85.0393665,27.6695318 85.0393665,31 M70,31 C70,35.9631305 74.0377828,40 79,40 C83.9642534,40 88,35.9631305 88,31 C88,26.0368695 83.9642534,22 79,22 C74.0377828,22 70,26.0368695 70,31" id="Fill-4" fill="#FF5959"></path>
                <path d="M78.4989691,72 C79.3278351,72 80,71.353684 80,70.5522522 L80,53.4457592 C80,52.6483047 79.3278351,52 78.4989691,52 C77.6721649,52 77,52.6483047 77,53.4457592 L77,70.5522522 C77,71.353684 77.6721649,72 78.4989691,72" id="Fill-6" fill="#FF5959"></path>
                <path d="M10.5014179,25 L23.5006445,25 C24.3276618,25 25,24.3298969 25,23.4989691 C25,22.6701031 24.3276618,22 23.5006445,22 L10.5014179,22 C9.67233823,22 9,22.6701031 9,23.4989691 C9,24.3298969 9.67233823,25 10.5014179,25" id="Fill-8" fill="#FF5959"></path>
                <path d="M34.4136965,34 L9.58412451,34 C8.70817121,34 8,34.6701031 8,35.5010309 C8,36.3278351 8.70817121,37 9.58412451,37 L34.4136965,37 C35.2874708,37 36,36.3278351 36,35.5010309 C36,34.6701031 35.2874708,34 34.4136965,34" id="Fill-10" fill="#FF5959"></path>
                <path d="M42.5638451,45 L34.4341822,45 C33.6431133,45 33,45.6721649 33,46.5010309 C33,47.3278351 33.6431133,48 34.4341822,48 L42.5638451,48 C43.3568867,48 44,47.3278351 44,46.5010309 C44,45.6721649 43.3568867,45 42.5638451,45" id="Fill-12" fill="#FF5959"></path>
                <path d="M10.458574,48 L24.5434296,48 C25.3488509,48 26,47.3278351 26,46.4989691 C26,45.6721649 25.3488509,45 24.5434296,45 L10.458574,45 C9.65315262,45 9,45.6721649 9,46.4989691 C9,47.3278351 9.65315262,48 10.458574,48" id="Fill-14" fill="#FF5959"></path>
                <path d="M11.3514851,57 L17.6503713,57 C18.3966584,57 19,56.329436 19,55.5 C19,54.670564 18.3966584,54 17.6503713,54 L11.3514851,54 C10.605198,54 10,54.670564 10,55.5 C10,56.329436 10.605198,57 11.3514851,57" id="Fill-16" fill="#FF5959"></path>
                <path d="M44,55.5010309 C44,54.6721649 43.3296787,54 42.4984802,54 L26.5015198,54 C25.6723838,54 25,54.6721649 25,55.5010309 C25,56.3278351 25.6723838,57 26.5015198,57 L42.4984802,57 C43.3296787,57 44,56.3278351 44,55.5010309" id="Fill-18" fill="#FF5959"></path>
                <path d="M9.5863035,68 L34.4158755,68 C35.2896498,68 36,67.329436 36,66.4979367 C36,65.670564 35.2896498,65 34.4158755,65 L9.5863035,65 C8.71035019,65 8,65.670564 8,66.4979367 C8,67.329436 8.71035019,68 9.5863035,68" id="Fill-20" fill="#FF5959"></path>
            </g>
        </g>
    </g>
</svg>