<?xml version="1.0" encoding="UTF-8"?>
<svg width="273px" height="109px" viewBox="0 0 273 109" version="1.1" xmlns="http://www.w3.org/2000/svg" xmlns:xlink="http://www.w3.org/1999/xlink">
    <title>Group 23</title>
    <defs>
        <polygon id="path-1" points="0.12571433 0.0457341333 15.384743 0.0457341333 15.384743 18.3790221 0.12571433 18.3790221"></polygon>
    </defs>
    <g id="Page-1" stroke="none" stroke-width="1" fill="none" fill-rule="evenodd">
        <g id="V7:-Wyred-World-2020" transform="translate(-911.000000, -4609.000000)">
            <g id="Group-23" transform="translate(911.000000, 4609.000000)">
                <polygon id="Fill-1" fill="#352E35" points="0 36.9420525 36.4998797 72.884105 36.4998797 109 73 73.0579475 36.4998797 37.1156581 36.4998797 1"></polygon>
                <polygon id="Fill-2" fill="#352E35" points="185.303662 71 188 71 182.607569 89 179.911721 89 174.973049 74.4021179 170.088034 89 167.472304 89 162 71 164.696093 71 168.860288 85.0903607 173.611772 71 176.361277 71 181.219586 85.2427569"></polygon>
                <g id="Group-22" transform="translate(67.000000, 0.000000)">
                    <path d="M135.357991,86.4530099 C138.801189,86.4530099 142.035622,83.9963725 142.035622,79.2126819 C142.035622,74.4292285 138.801189,71.9986979 135.357991,71.9986979 C131.915032,71.9986979 128.68036,74.4292285 128.68036,79.2126819 C128.68036,83.9963725 131.915032,86.4530099 135.357991,86.4530099 M135.357991,69.6714072 C140.001114,69.6714072 144.643757,73.0847352 144.643757,79.2126819 C144.643757,85.3411032 140.001114,88.7803005 135.357991,88.7803005 C130.714868,88.7803005 126.072224,85.3411032 126.072224,79.2126819 C126.072224,73.0847352 130.714868,69.6714072 135.357991,69.6714072" id="Fill-3" fill="#352E35"></path>
                    <path d="M158.553446,78.6182331 C160.640385,78.6182331 162.048836,77.4028491 162.048836,75.5153371 C162.048836,73.5758491 160.640385,72.3345957 158.553446,72.3345957 L154.641003,72.3345957 L154.641003,78.6182331 L158.553446,78.6182331 Z M157.405953,80.8935477 L154.641003,80.8935477 L154.641003,88.3923317 L152.058724,88.3923317 L152.058724,70.0592811 L159.023169,70.0592811 C162.518559,70.0592811 164.683306,72.4898117 164.683306,75.5153371 C164.683306,78.1525851 162.987803,80.1955504 160.196758,80.7124624 L164.605019,88.3923317 L161.631304,88.3923317 L157.405953,80.8935477 Z" id="Fill-5" fill="#352E35"></path>
                    <polygon id="Fill-7" fill="#352E35" points="172.082688 88.3922368 172.082688 70.0591861 174.638871 70.0591861 174.638871 86.0134448 183.377106 86.0134448 183.377106 88.3922368"></polygon>
                    <g id="Group-11" transform="translate(189.852340, 70.013333)">
                        <mask id="mask-2" fill="white">
                            <use xlink:href="#path-1"></use>
                        </mask>
                        <g id="Clip-10"></g>
                        <path d="M6.46410109,16.1293395 C9.88096438,16.1293395 12.7502964,13.8537875 12.7502964,9.25141947 C12.7502964,4.6229448 9.93315582,2.2954168 6.51653193,2.2954168 L2.68189773,2.2954168 L2.68189773,16.1293395 L6.46410109,16.1293395 Z M0.12571433,18.3790221 L0.12571433,0.0457341333 L6.59457968,0.0457341333 C11.2896544,0.0457341333 15.3850064,3.22647547 15.3850064,9.25141947 C15.3850064,15.2502568 11.2374629,18.3790221 6.54238824,18.3790221 L0.12571433,18.3790221 Z" id="Fill-9" fill="#352E35" mask="url(#mask-2)"></path>
                    </g>
                    <polygon id="Fill-12" fill="#352E35" points="67.8339059 70.2332227 78.3760975 49.4535027 62.4095875 16.7271347 70.7398677 16.7271347 82.3096081 42.11302 93.4168079 16.7271347 101.206979 16.7271347 76.3454196 70.2332227"></polygon>
                    <polygon id="Fill-14" fill="#352E35" points="33.4226545 16.7271821 43.0641847 44.4068941 51.2402847 16.7271821 58.876275 16.7271821 46.8437546 53.5060168 39.3619444 53.5060168 29.4889045 25.5203821 19.8473743 53.5060168 12.2113839 53.5060168 0.024443788 16.7271821 7.96927342 16.7271821 16.2993142 44.4068941 25.9408443 16.7271821"></polygon>
                    <path d="M125.394645,23.9912197 C124.314666,23.8381397 123.234925,23.7617184 122.232275,23.7617184 C116.138805,23.7617184 112.050875,26.9733131 112.050875,35.0784837 L112.050875,53.5059931 L104.800335,53.5059931 L104.800335,16.7271584 L111.896455,16.7271584 L111.896455,23.1501104 C114.596285,17.4918464 119.224085,16.1155504 123.003655,16.1155504 C124.006305,16.1155504 125.008956,16.2683931 125.394645,16.3448144 L125.394645,23.9912197 Z" id="Fill-16" fill="#352E35"></path>
                    <path d="M157.009657,31.3315363 C156.855237,26.0558536 153.384267,21.9267283 146.828256,21.9267283 C140.734786,21.9267283 137.032546,26.5910403 136.724186,31.3315363 L157.009657,31.3315363 Z M164.337047,43.0304083 C162.254417,49.5297816 156.315606,54.6528589 147.676726,54.6528589 C137.726596,54.6528589 129.010626,47.4652189 129.010626,35.0018963 C129.010626,23.4558669 137.417997,15.5801976 146.751166,15.5801976 C158.166727,15.5801976 164.568557,23.3796829 164.568557,34.8488163 C164.568557,35.7665843 164.491467,36.6841149 164.414377,37.1428803 L136.492436,37.1428803 C136.646617,43.7186749 141.429076,48.3065656 147.676726,48.3065656 C153.692867,48.3065656 156.701057,45.0185496 158.089636,40.8894243 L164.337047,43.0304083 Z" id="Fill-18" fill="#352E35"></path>
                    <path d="M186.337199,48.1535805 C192.970299,48.1535805 197.05823,42.4186579 197.05823,34.8489112 C197.05823,27.2791645 193.047629,22.0796659 186.414049,22.0796659 C179.780709,22.0796659 175.461269,27.4320072 175.461269,35.0017539 C175.461269,42.5717379 179.395019,48.1535805 186.337199,48.1535805 L186.337199,48.1535805 Z M197.135559,47.9240792 C195.361529,51.4415965 191.428019,54.5001112 185.642909,54.5001112 C174.767219,54.5001112 168.056788,45.9361752 168.056788,35.0017539 C168.056788,24.6029939 175.152909,15.7331352 185.642909,15.7331352 C192.199159,15.7331352 195.747459,18.9447299 196.981379,21.9268232 L196.981379,7.12e-05 L204.154589,7.12e-05 L204.154589,46.7006259 C204.154589,50.2181432 204.463189,52.8943139 204.540279,53.5059219 L197.521489,53.5059219 C197.367069,52.6648125 197.135559,50.7530925 197.135559,48.5356872 L197.135559,47.9240792 Z" id="Fill-20" fill="#352E35"></path>
                </g>
            </g>
        </g>
    </g>
</svg>