<svg xmlns="http://www.w3.org/2000/svg" xmlns:xlink="http://www.w3.org/1999/xlink" width="42.385" height="42.396" viewBox="0 0 42.385 42.396">
  <defs>
    <clipPath id="clip-path">
      <rect id="Rectangle_592" data-name="Rectangle 592" width="42.385" height="42.396" transform="translate(0 0)" fill="none"/>
    </clipPath>
  </defs>
  <g id="Group_405" data-name="Group 405" transform="translate(0 0)">
    <g id="Group_404" data-name="Group 404" clip-path="url(#clip-path)">
      <path id="Path_318" data-name="Path 318" d="M21.192,0A21.194,21.194,0,1,1,6.208,6.207,21.164,21.164,0,0,1,21.192,0M35,7.381A19.536,19.536,0,1,0,40.729,21.2,19.466,19.466,0,0,0,35,7.381" fill="#fff"/>
      <path id="Path_319" data-name="Path 319" d="M31.8,16.686a5.082,5.082,0,0,0-.868-2.241,3.1,3.1,0,0,0-2.159-.962c-3.027-.223-7.568-.223-7.568-.223H21.18s-4.529,0-7.558.223a3.09,3.09,0,0,0-2.17.962,5.1,5.1,0,0,0-.868,2.241,34.564,34.564,0,0,0-.223,3.638v1.725a33.991,33.991,0,0,0,.223,3.638,5.175,5.175,0,0,0,.868,2.253,3.55,3.55,0,0,0,2.394.962c1.725.176,7.358.235,7.358.235s4.541-.024,7.568-.235a3.048,3.048,0,0,0,2.159-.962,5.162,5.162,0,0,0,.868-2.253,35.9,35.9,0,0,0,.211-3.638V20.324c0-1.807-.211-3.638-.211-3.638m-6.993,4.272L18.95,24.114V17.778L21.6,19.221Z" fill="#fff" fill-rule="evenodd"/>
    </g>
  </g>
</svg>
