<svg xmlns="http://www.w3.org/2000/svg" xmlns:xlink="http://www.w3.org/1999/xlink" width="155" height="40" viewBox="0 0 155 40">
  <defs>
    <clipPath id="clip-path">
      <rect id="Rectangle_101" data-name="Rectangle 101" width="34.355" height="34.344" fill="none"/>
    </clipPath>
  </defs>
  <g id="Group_200" data-name="Group 200" transform="translate(-1036 -530)">
    <g id="Group_198" data-name="Group 198" transform="translate(927.819 -700)">
      <g id="Rectangle" transform="translate(108.181 1230)" fill="#f8f8f8" stroke="#f8f8f8" stroke-width="1">
        <rect width="155" height="40" rx="20" stroke="none"/>
        <rect x="0.5" y="0.5" width="154" height="39" rx="19.5" fill="none"/>
      </g>
      <text id="register" transform="translate(171.181 1255)" fill="#121a36" font-size="16" font-family="CircularStd-Book, Circular Std"><tspan x="-45" y="0">Watch video</tspan></text>
    </g>
    <g id="Group_199" data-name="Group 199" transform="translate(1153.192 532.828)">
      <g id="Group_193" data-name="Group 193" clip-path="url(#clip-path)">
        <path id="Path_267" data-name="Path 267" d="M17.177,0A17.172,17.172,0,1,0,34.355,17.172,17.194,17.194,0,0,0,17.177,0" fill="#d4ace5"/>
        <path id="Path_268" data-name="Path 268" d="M295.178,213.774l12.283,7.978a.67.67,0,0,1,0,1.123l-12.283,7.978a.67.67,0,0,1-1.035-.562V214.336a.67.67,0,0,1,1.035-.562" transform="translate(-282.209 -204.996)" fill="#ffe0e0"/>
      </g>
    </g>
  </g>
</svg>
