<?xml version="1.0" encoding="UTF-8"?>
<svg width="247px" height="362px" viewBox="0 0 247 362" version="1.1" xmlns="http://www.w3.org/2000/svg" xmlns:xlink="http://www.w3.org/1999/xlink">
    <title>Group 79</title>
    <defs>
        <polygon id="path-1" points="0 0.442858025 113.297717 0.442858025 113.297717 73.4602111 0 73.4602111"></polygon>
        <polygon id="path-3" points="0.0278911892 0.591608128 31.2736281 0.591608128 31.2736281 13 0.0278911892 13"></polygon>
        <polygon id="path-5" points="0.757076098 0.591608128 32.0028179 0.591608128 32.0028179 13 0.757076098 13"></polygon>
        <polygon id="path-7" points="0.727287598 0.189270833 112.547699 0.189270833 112.547699 78.7138719 0.727287598 78.7138719"></polygon>
    </defs>
    <g id="Page-1" stroke="none" stroke-width="1" fill="none" fill-rule="evenodd">
        <g id="Event-Page---Europe-Summer-2021" transform="translate(-923.000000, -4020.000000)">
            <g id="Group-79" transform="translate(923.000000, 4020.000000)">
                <path d="M123.190045,127.361618 L131.581465,130 C131.581465,130 135.45348,124.236468 135.175793,121.420503 C134.927681,118.908173 132.796553,116.923837 129.001765,118.649726 C125.828076,120.093384 123.190045,127.361618 123.190045,127.361618" id="Fill-1" fill="#3571FF"></path>
                <path d="M72.5266568,143.03112 C70.4062678,135.312726 78.6258641,125.08096 88.1214831,131.232126 C96.8188671,136.866687 105.863883,147.016359 105.863883,147.016359 C105.863883,147.016359 122.822052,123.658016 124.611284,124.003802 C125.734909,124.221887 133.190045,130.622648 133.190045,130.622648 C133.190045,130.622648 128.740853,153.266202 118.657061,162.914195 C99.4722365,181.267357 75.3258338,153.220595 72.5266568,143.03112" id="Fill-3" fill="#F2F2F6"></path>
                <path d="M87.1909705,334.691413 C87.0775983,334.442632 97.4208179,330 97.4208179,330 C97.4208179,330 97.8998555,348.147819 101.190045,352.592922 L92.4555934,355 C92.4555934,355 89.3210909,339.361408 87.1909705,334.691413" id="Fill-5" fill="#3571FF"></path>
                <path d="M56.1900452,198.13841 C57.846746,198.13841 88.979639,194 88.979639,194 L101.190045,341.221286 C101.190045,341.221286 100.183275,342.753726 94.292507,343.770409 C91.3003448,344.286989 86.8385954,343.770409 86.8385954,343.770409 L56.1900452,198.13841 Z" id="Fill-7" fill="#111C3E"></path>
                <path d="M90.9917983,362 L119.363264,362 C119.363264,362 120.691307,361.151375 119.981092,359.830173 C118.789978,357.616698 114.934527,357.445462 109.102683,355.112793 C101.649142,352.131275 99.8929898,346.369692 98.7315703,347.056314 C96.6512437,348.286862 98.7794129,353.314817 94.5973129,353.314817 C91.2904019,353.314817 91.6714927,349.892618 90.5595655,350.521322 C90.1067109,350.777336 89.8905945,358.430908 90.9917983,362" id="Fill-9" fill="#242424"></path>
                <path d="M43.18912,334.691413 C43.3024922,334.442632 32.9592726,330 32.9592726,330 C32.9592726,330 32.480235,348.147819 29.1900452,352.592922 L37.924497,355 C37.924497,355 41.0589996,339.361408 43.18912,334.691413" id="Fill-11" fill="#3571FF"></path>
                <path d="M38.3882922,362 L10.016827,362 C10.016827,362 8.68878342,361.151375 9.39899803,359.830173 C10.5901129,357.616698 14.4455636,357.445462 20.2774072,355.112793 C27.7309487,352.131275 29.4871007,346.369692 30.6485202,347.056314 C32.7288468,348.286862 30.6006776,353.314817 34.7827776,353.314817 C38.0896886,353.314817 37.7085978,349.892618 38.820525,350.521322 C39.2733796,350.777336 39.489496,358.430908 38.3882922,362" id="Fill-13" fill="#242424"></path>
                <path d="M34.8480853,193.478774 C37.4749603,191.293014 63.6196379,197.300171 63.6196379,197.300171 C63.6196379,197.300171 64.026364,202.87345 64.1734427,212.858364 C64.2490362,217.956834 64.0419757,231.416042 64.0419757,231.416042 C56.3182895,274.031001 43.9554616,341.4965 42.9776758,342.176787 C41.7574978,343.024076 39.323715,343.174705 35.3049332,342.822691 C32.3017339,342.55909 30.1900452,340.629563 30.1900452,340.629563 C30.1900452,340.629563 30.230307,197.319818 34.8480853,193.478774" id="Fill-15" fill="#111C3E"></path>
                <path d="M32.3979764,199.563465 C32.3979764,199.563465 48.5945637,204.793467 63.8786557,203.896544 C83.7473206,202.730135 90.9801759,198.198831 90.9801759,198.198831 C90.9801759,198.198831 91.452382,161.455299 90.9801759,146.871906 C90.5071514,132.288513 86.8007018,130.179311 86.8007018,130.179311 C86.8007018,130.179311 71.3349291,117.796041 59.6901794,120.345923 C48.0454298,122.894986 29.1228138,129.423274 26.9393721,137.031147 C24.8205825,144.416221 27.8117667,169.212249 28.3576272,169.73402 C28.9026692,170.255792 32.3979764,199.563465 32.3979764,199.563465" id="Fill-17" fill="#FFE4E4"></path>
                <path d="M46.4377954,105.125789 C46.4377954,105.125789 44.7396583,94.7681574 50.2350301,91.5061139 C57.6646876,87.097745 66.5587936,92.5286694 68.088839,105.675693 C69.215464,115.356328 62.0252348,114.923549 62.0252348,114.923549 C62.0252348,114.923549 63.7881488,120.463291 69.1900452,121.215048 C69.1900452,121.215048 67.2295209,125.87428 61.8030257,127.407698 C53.3639975,129.793384 48.8148594,124.224568 48.5254135,123.88067 C48.2917249,123.603226 52.0668207,123.578306 51.6593006,117.903995 C51.2509606,112.229684 46.4377954,105.125789 46.4377954,105.125789" id="Fill-19" fill="#3571FF"></path>
                <path d="M41.978011,91.6061492 C40.3314494,93.8708831 38.9516307,97.2005079 41.983774,104.140294 C45.5724551,112.352714 48.1913114,116.195973 51.6770824,115.992319 C53.4438431,115.889265 54.6013759,109.134322 54.6013759,109.134322 C54.6013759,109.134322 51.6350951,107.697292 51.3173087,104.790515 C50.998699,101.883739 52.3085388,101.325939 53.742694,101.285044 C55.6345933,101.231881 55.9367374,103.989802 56.6686341,104.438005 C57.401354,104.887026 59.2117485,104.087949 58.738362,103.234073 C58.2657988,102.380197 56.88845,99.5126793 57.4902683,98.7684006 C58.0920866,98.0249398 62.7905503,94.5628169 64.2214123,92.9875633 C66.7283024,90.2280068 63.9620789,83.8157594 60.5602825,83.1262792 C54.9792618,81.9951391 44.0485623,88.7590787 41.978011,91.6061492" id="Fill-21" fill="#242424"></path>
                <path d="M32.1900452,199.418054 C32.1900452,199.418054 51.7759385,203.34196 62.7215541,202.96404 C79.327075,202.389498 91.1900452,198 91.1900452,198 L90.5405614,201.610675 C90.5405614,201.610675 77.5137953,205.869092 61.4555552,205.996768 C45.3973151,206.123593 32.9433805,202.475466 32.9433805,202.475466 L32.1900452,199.418054 Z" id="Fill-23" fill="#F2F2F6"></path>
                <path d="M17.2946484,217.331315 L26.9612556,217 C26.9612556,217 27.787353,223.541281 26.3000607,225.693635 C24.8127683,227.846783 21.508379,229.005987 19.0292942,226.852839 C16.5510022,224.699691 17.2946484,217.331315 17.2946484,217.331315" id="Fill-25" fill="#3571FF"></path>
                <path d="M32.7717439,130.048361 C23.5166651,132.178067 13.8510952,151.08127 12.4593114,167.081304 C11.066718,183.081338 11.193023,186.049719 11.193023,186.049719 C11.193023,186.049719 15.2436886,217.017128 16.888892,219.082447 C18.5340954,221.146941 27.8798547,219.082447 27.8798547,219.082447 C27.8798547,219.082447 29.9242142,188.888501 28.9113454,182.823792 C27.8992862,176.759083 36.2977581,160.332283 37.3915916,157.661896 C38.5874408,154.742217 39.036795,152.887392 40.0488542,146.177993 C41.061723,139.467769 36.4167762,129.209686 32.7717439,130.048361" id="Fill-27" fill="#F2F2F6"></path>
                <g id="Group-31" transform="translate(0.190045, 2.000000)">
                    <mask id="mask-2" fill="white">
                        <use xlink:href="#path-1"></use>
                    </mask>
                    <g id="Clip-30"></g>
                    <path d="M102.163765,0.591588889 C96.7721396,0.256944444 52.8386719,0.591588889 52.8386719,0.591588889 C17.6881252,2.64714444 -3.26983165,-1.87507778 0.418355396,24.4368556 C4.10654245,50.7496111 4.72657122,62.0617444 16.1807007,61.4672778 C19.0372619,61.3184556 46.3562547,60.0127667 70.0411899,58.4941222 L75.769895,73.4602111 L80.7489885,57.7713889 C92.8805568,56.9055889 102.546773,56.0184111 104.943233,55.2718333 C116.774629,51.5899222 116.208729,1.46232222 102.163765,0.591588889" id="Fill-29" fill="#F2F2F6" mask="url(#mask-2)"></path>
                </g>
                <path d="M167.725433,129 C167.725433,129 164.516239,130.91853 162.182279,136.90205 C159.907468,142.73635 156.125974,160.345835 153.231705,184.556213 C152.513933,190.553671 161.291858,187.493861 162.564345,184.556213 C163.836833,181.619386 172.604367,133.678263 167.725433,129" id="Fill-32" fill="#3571FF"></path>
                <polygon id="Fill-34" fill="#242424" points="178.190045 280.194347 122.439303 284 120.190045 249.804821 175.940788 246"></polygon>
                <polygon id="Fill-36" fill="#F2F2F6" points="188.190045 279.618166 127.4643 284 125.190045 249.804905 181.559552 246"></polygon>
                <path d="M183.190045,340.36329 L174.016976,339 C173.723301,351.134193 172.190045,351.084347 172.190045,351.084347 L172.296758,353.919758 L181.243596,356 C180.778326,353.282559 181.414337,348.028784 183.190045,340.36329" id="Fill-38" fill="#F2F2F6"></path>
                <g id="Group-42" transform="translate(152.190045, 349.000000)">
                    <mask id="mask-4" fill="white">
                        <use xlink:href="#path-3"></use>
                    </mask>
                    <g id="Clip-41"></g>
                    <path d="M1.64676923,13.0001625 L29.598359,13.0001625 C30.4697436,13.0001625 31.1885128,12.3306625 31.2459487,11.4694125 C31.4281026,8.7540375 30.7044103,2.8032875 29.2758974,2.3515375 C28.7113846,2.1736 26.8767179,5.5146 24.16,5.129475 C20.2650256,4.5786 22.3967179,0.5746 20.6941538,0.591608128 C18.2793846,0.61685 17.4211282,5.88835 6.68389744,8.17635 C0.601435897,9.4731 0.0303589744,10.6041 0.0278911892,11.392225 C0.0254358974,12.279475 0.750769231,13.0001625 1.64676923,13.0001625" id="Fill-40" fill="#242424" mask="url(#mask-4)"></path>
                </g>
                <path d="M213.190045,341.468306 L204.890054,341 C205.470879,350.995624 204.190045,351.072198 204.190045,351.072198 L204.548393,353.800622 L213.027955,355 C212.40184,352.621394 212.443952,348.0802 213.190045,341.468306" id="Fill-43" fill="#F2F2F6"></path>
                <g id="Group-47" transform="translate(183.190045, 349.000000)">
                    <mask id="mask-6" fill="white">
                        <use xlink:href="#path-5"></use>
                    </mask>
                    <g id="Clip-46"></g>
                    <path d="M2.37595897,13.0001625 L30.3267282,13.0001625 C31.1989333,13.0001625 31.9168821,12.3306625 31.9751385,11.4694125 C32.1572923,8.7540375 31.4336,2.8032875 30.0050872,2.3515375 C29.4405744,2.1736 27.6059077,5.5146 24.8891897,5.129475 C20.9933949,4.5786 23.1259077,0.5746 21.4233436,0.591608128 C19.0085744,0.61685 18.1503179,5.88835 7.41308718,8.17635 C1.33062564,9.4731 0.759548718,10.6041 0.757076098,11.392225 C0.753805128,12.279475 1.47995897,13.0001625 2.37595897,13.0001625" id="Fill-45" fill="#242424" mask="url(#mask-6)"></path>
                </g>
                <path d="M193.465822,132.5 C202.310955,129.771115 209.190045,124.351169 209.190045,124.351169 C208.093045,123.82135 202.360332,120.681105 205.259607,110.449188 C207.799249,101.483406 207.762216,94.4690675 203.175882,88.4650046 C199.883234,84.1548805 191.818264,82.1417341 186.685487,83.3428758 C181.553532,84.5431948 176.777095,89.2498602 175.666927,96.0396014 C175.264501,98.498651 174.465411,104.335706 177.304609,111.322072 C180.143808,118.308439 171.190045,125.897844 171.190045,125.897844 C171.190045,125.897844 184.62069,135.228905 193.465822,132.5" id="Fill-48" fill="#242424"></path>
                <path d="M158.190045,204 L198.190045,207.262674 C198.190045,207.262674 189.675482,268.46015 190.526528,280.822416 C192.515583,309.694748 184.37243,344.694941 183.937888,345.691527 C183.611571,346.441426 171.753495,345.588263 171.753495,345.588263 C171.753495,345.588263 172.289703,292.300375 169.794776,283.56221 C167.329365,274.930588 162.903596,214.113389 158.190045,204" id="Fill-50" fill="#FFE4E4"></path>
                <path d="M182.190045,207 C182.190045,207 195.773667,275.701205 195.845885,278.387895 C195.927131,281.421307 201.190045,317.007212 201.133419,345.825452 C201.133419,346.218185 213.270211,345.825452 213.270211,345.825452 C213.270211,345.825452 219.691903,301.753058 216.362471,278.15702 C216.041592,275.879496 220.190045,212.831021 220.190045,212.831021 L182.190045,207 Z" id="Fill-52" fill="#FFE4E4"></path>
                <path d="M166.850836,210.292979 C166.850836,210.292979 173.235423,218.136189 207.190045,211.005625 L204.717478,122.296802 C204.717478,122.296802 196.302851,119.443755 190.818127,120.097287 C185.334225,120.75082 178.924961,122.2147 176.287885,123.940485 C159.332783,135.037401 166.850836,210.292979 166.850836,210.292979" id="Fill-54" fill="#FFFFFF"></path>
                <path d="M204.313169,123 L219.789811,128.675058 C220.955871,137.920837 222.190045,219.300279 222.190045,219.300279 C222.190045,219.300279 219.730617,223.066409 209.848303,224.857927 C203.572826,225.994253 192.273077,226 192.273077,226 C192.273077,226 192.680955,185.475719 192.680955,181.771168 C192.680955,178.067437 188.539741,141.803555 204.313169,123" id="Fill-56" fill="#3571FF"></path>
                <path d="M181.045625,95 C181.045625,95 179.202711,106.214523 181.657459,111.496438 C184.061153,116.670309 187.994021,113.652421 187.994021,113.652421 C187.994021,113.652421 186.765412,120.645149 183.10511,122.008276 C182.426575,122.260918 176.050487,128.355997 181.154322,128.953888 C187.232316,129.665509 201.190045,121.905108 201.190045,121.905108 C196.576172,121.067572 197.799017,118.35919 197.689496,115.233258 C197.580799,112.108139 193.825799,111.050456 193.155499,108.173105 C192.164047,103.918816 193.501354,100.281915 193.501354,100.281915 C193.501354,100.281915 185.525274,101.521564 181.045625,95" id="Fill-58" fill="#F2F2F6"></path>
                <polygon id="Fill-60" fill="#FFE4E4" points="179.190045 156.931298 201.637918 146 218.190045 182.179673 195.217276 192"></polygon>
                <path d="M206.190045,169.495589 C206.190045,169.495589 199.511569,165.258628 196.056296,164.214631 C192.490394,163.136851 189.491775,166.254833 192.295754,170.506626 C194.999917,174.607629 202.587544,178 202.587544,178 L206.190045,169.495589 Z" id="Fill-62" fill="#F2F2F6"></path>
                <path d="M214.564597,127.244165 C216.47246,126.611527 220.638379,126.880665 225.35021,132.099315 C230.061233,137.317145 237.297202,159.636723 241.442901,170.648404 C245.534414,181.515669 246.458826,189.629193 243.302239,191.961175 C239.907068,194.468753 232.003064,192.670945 227.07125,183.990425 C224.759007,179.921355 208.414792,129.282393 214.564597,127.244165" id="Fill-64" fill="#3571FF"></path>
                <path d="M203.762224,167 C203.762224,167 202.056489,168.500207 200.437806,171.253548 C199.068782,173.581372 198.190045,177.579771 198.190045,177.579771 C198.190045,177.579771 230.193325,195.77604 239.059537,194.974261 C247.80174,194.183786 248.549898,184.370267 241.057637,179.011346 C236.51859,175.765473 203.762224,167 203.762224,167" id="Fill-66" fill="#3571FF"></path>
                <path d="M148.540998,228.264055 C148.540998,228.264055 146.261185,237.743509 146.191162,240.885957 C146.127653,243.739719 148.784449,247.251915 151.135913,243.081286 C154.094784,237.832845 154.969255,233.916159 155.185023,230.403963 C155.401605,226.891768 148.540998,228.264055 148.540998,228.264055" id="Fill-68" fill="#F2F2F6"></path>
                <path d="M146.205304,233.530436 L155.166258,236 C155.166258,236 160.942969,217.528487 162.017894,211.248386 C162.848003,206.403926 163.995887,183.39994 162.361611,180.77644 C160.727335,178.152117 154.258327,178.797496 153.079639,180.386249 C150.78306,183.483905 145.881854,229.054764 146.205304,233.530436" id="Fill-70" fill="#3571FF"></path>
                <path d="M180.190045,123 C180.190045,123 170.513255,126.292432 166.922558,130.623026 C158.747732,140.481462 161.714988,224.167463 161.714988,224.167463 C161.714988,224.167463 163.664363,226.957215 169.734157,225.652542 C171.734059,225.222025 162.775246,131.47422 180.190045,123" id="Fill-72" fill="#3571FF"></path>
                <path d="M143.724938,254 L143.203575,245.843049 C142.978404,242.309394 145.590871,239.245454 149.026543,239.013916 C152.451724,238.782378 155.443511,241.467889 155.669489,245.001544 L156.190045,253.158495 L153.625195,253.331942 L153.104639,245.174991 C152.97228,243.095296 151.220951,241.513533 149.195219,241.651294 C147.173524,241.787395 145.636066,243.590738 145.769232,245.669603 L146.289788,253.827384 L143.724938,254 Z" id="Fill-74" fill="#242424"></path>
                <g id="Group-78" transform="translate(131.190045, 0.000000)">
                    <mask id="mask-8" fill="white">
                        <use xlink:href="#path-7"></use>
                    </mask>
                    <g id="Clip-77"></g>
                    <path d="M104.477098,8.94617396 C99.1767428,7.94386146 55.6103297,2.81215312 55.6103297,2.81215312 C20.5320181,0.482476042 0.327945652,-6.61518021 0.733271739,19.9749031 C1.13941667,46.5649865 0.357423913,57.876799 11.7786123,58.7104135 C13.1747355,58.8124552 20.4329384,59.3695698 30.250837,60.0797469 L34.6537428,78.7138719 L42.3426558,60.937226 C66.1782862,62.5921115 95.8809094,64.423101 100.481156,63.5968927 C112.658134,61.411226 118.284388,11.5572885 104.477098,8.94617396" id="Fill-76" fill="#111C3E" mask="url(#mask-8)"></path>
                </g>
            </g>
        </g>
    </g>
</svg>