<?xml version="1.0" encoding="UTF-8"?>
<svg width="16px" height="17px" viewBox="0 0 16 17" version="1.1" xmlns="http://www.w3.org/2000/svg" xmlns:xlink="http://www.w3.org/1999/xlink">
    <title>Fill 1</title>
    <g id="Page-1" stroke="none" stroke-width="1" fill="none" fill-rule="evenodd">
        <g id="Sign-up-form-V6b" transform="translate(-626.000000, -889.000000)" fill="#FF5959">
            <g id="Group-4" transform="translate(480.000000, 876.000000)">
                <g id="Group-3" transform="translate(146.000000, 13.000000)">
                    <path d="M8.002,1 C6.363,1 5.029,2.334 5.029,3.974 C5.029,5.062 5.623,6.062 6.58,6.585 L7.711,7.203 L6.458,7.509 C3.27,8.288 1.024,11.315 1,14.87 C1.009,15.183 1.283,15.451 1.613,15.451 L14.392,15.451 C14.722,15.451 14.996,15.183 15.005,14.854 C14.981,11.315 12.735,8.288 9.547,7.509 L8.294,7.203 L9.425,6.585 C10.382,6.062 10.976,5.062 10.976,3.974 C10.976,2.334 9.642,1 8.002,1 M14.392,16.451 L1.613,16.451 C0.731,16.451 0.023,15.761 0,14.879 C0.025,11.217 2.14,8.056 5.254,6.843 C4.482,6.103 4.029,5.071 4.029,3.974 C4.029,1.782 5.812,0 8.002,0 C10.193,0 11.976,1.782 11.976,3.974 C11.976,5.071 11.523,6.103 10.751,6.843 C13.865,8.056 15.98,11.216 16.005,14.862 C15.981,15.761 15.273,16.451 14.392,16.451" id="Fill-1"></path>
                </g>
            </g>
        </g>
    </g>
</svg>