<?xml version="1.0" encoding="UTF-8"?>
<svg width="17px" height="18px" viewBox="0 0 17 18" version="1.1" xmlns="http://www.w3.org/2000/svg" xmlns:xlink="http://www.w3.org/1999/xlink">
    <title>Group 6</title>
    <defs>
        <polygon id="path-1" points="0 0.726 16.273 0.726 16.273 16.9995 0 16.9995"></polygon>
    </defs>
    <g id="Page-1" stroke="none" stroke-width="1" fill="none" fill-rule="evenodd">
        <g id="Sign-up-form-V6b" transform="translate(-387.000000, -887.000000)">
            <g id="Group" transform="translate(255.000000, 876.000000)">
                <g id="Group-6" transform="translate(132.000000, 11.000000)">
                    <path d="M15.5459,14.3955 C15.5459,14.6595 15.3309,14.8735 15.0669,14.8735 L10.2079,14.8735 L6.0659,14.8735 L1.2059,14.8735 C0.9419,14.8735 0.7279,14.6595 0.7279,14.3955 L0.7279,13.4395 L15.5459,13.4395 L15.5459,14.3955 Z M10.3689,16.5455 L5.9039,16.5455 L6.2459,15.3515 L10.0269,15.3515 L10.3689,16.5455 Z M0.7279,2.2065 C0.7279,1.9425 0.9419,1.7285 1.2059,1.7285 L15.0669,1.7285 C15.3309,1.7285 15.5459,1.9425 15.5459,2.2065 L15.5459,12.9605 L0.7279,12.9605 L0.7279,2.2065 Z M15.0669,1.2495 L1.2059,1.2495 C0.6789,1.2495 0.2499,1.6785 0.2499,2.2065 L0.2499,13.2005 L0.2499,14.3955 C0.2499,14.9225 0.6789,15.3515 1.2059,15.3515 L5.7489,15.3515 L5.4069,16.5455 L3.3569,16.5455 C3.2249,16.5455 3.1179,16.6535 3.1179,16.7855 C3.1179,16.9165 3.2249,17.0245 3.3569,17.0245 L5.5879,17.0245 L10.6869,17.0245 L12.9169,17.0245 C13.0489,17.0245 13.1549,16.9165 13.1549,16.7855 C13.1549,16.6535 13.0489,16.5455 12.9169,16.5455 L10.8659,16.5455 L10.5249,15.3515 L15.0669,15.3515 C15.5949,15.3515 16.0239,14.9225 16.0239,14.3955 L16.0239,13.2005 L16.0239,2.2065 C16.0239,1.6785 15.5949,1.2495 15.0669,1.2495 L15.0669,1.2495 Z" id="Fill-1" fill="#1A171B"></path>
                    <g id="Group-5" transform="translate(0.000000, 0.274400)">
                        <mask id="mask-2" fill="white">
                            <use xlink:href="#path-1"></use>
                        </mask>
                        <g id="Clip-4"></g>
                        <path d="M0.9775,12.4365 L15.2955,12.4365 L15.2955,1.9315 C15.2955,1.8065 15.1935,1.7045 15.0675,1.7045 L1.2065,1.7045 C1.0805,1.7045 0.9775,1.8065 0.9775,1.9315 L0.9775,12.4365 Z M0.9775,13.4155 L0.9775,14.1215 C0.9775,14.2465 1.0805,14.3485 1.2065,14.3485 L15.0675,14.3485 C15.1935,14.3485 15.2955,14.2465 15.2955,14.1215 L15.2955,13.4155 L0.9775,13.4155 Z M6.2365,16.0215 L10.0375,16.0215 L9.8385,15.3275 L6.4345,15.3275 L6.2365,16.0215 Z M12.9165,16.9995 L3.3565,16.9995 C3.0865,16.9995 2.8685,16.7805 2.8685,16.5105 C2.8685,16.2415 3.0865,16.0215 3.3565,16.0215 L5.2185,16.0215 L5.4165,15.3275 L1.2065,15.3275 C0.5405,15.3275 -0.0005,14.7865 -0.0005,14.1215 L-0.0005,1.9315 C-0.0005,1.2665 0.5405,0.7255 1.2065,0.7255 L15.0675,0.7255 C15.7325,0.7255 16.2735,1.2665 16.2735,1.9315 L16.2735,14.1215 C16.2735,14.7865 15.7325,15.3275 15.0675,15.3275 L10.8565,15.3275 L11.0545,16.0215 L12.9165,16.0215 C13.1865,16.0215 13.4055,16.2415 13.4055,16.5105 C13.4055,16.7805 13.1865,16.9995 12.9165,16.9995 L12.9165,16.9995 Z" id="Fill-3" fill="#2E66FF" mask="url(#mask-2)"></path>
                    </g>
                </g>
            </g>
        </g>
    </g>
</svg>