<svg xmlns="http://www.w3.org/2000/svg" xmlns:xlink="http://www.w3.org/1999/xlink" width="165.801" height="35.023" viewBox="0 0 165.801 35.023">
  <defs>
    <clipPath id="clip-path">
      <rect id="Rectangle_687" data-name="Rectangle 687" width="165.801" height="35.023" fill="none"/>
    </clipPath>
  </defs>
  <g id="Group_687" data-name="Group 687" transform="translate(0 -0.001)">
    <g id="Group_606" data-name="Group 606" transform="translate(0 0.001)" clip-path="url(#clip-path)">
      <path id="Path_369" data-name="Path 369" d="M207.937,21.159c0,2.394-.007,4.789.007,7.183a5.29,5.29,0,0,0,.17.965c.046.23.1.459.151.688a.348.348,0,0,0,.025.1c.361.654.764,1.274,1.628,1.253a11.422,11.422,0,0,0,1.231-.165c.166-.023.333-.044.5-.053a1.114,1.114,0,0,1,1.039,1.393,1.3,1.3,0,0,1-.318.522,8.906,8.906,0,0,1-1,.754,6.627,6.627,0,0,1-.924.508c-.351.159-.718.284-1.083.41-.259.089-.524.16-.788.233a1.687,1.687,0,0,1-.407.082c-.778.009-1.556.019-2.333,0a4.5,4.5,0,0,1-.821-.153c-.131-.029-.255-.092-.385-.112a1.62,1.62,0,0,1-.688-.252c-.218-.146-.488-.213-.712-.353a6.633,6.633,0,0,1-.816-.6,6.3,6.3,0,0,1-.807-.792,2.308,2.308,0,0,1-.461-.641,5.829,5.829,0,0,0-.482-.866.455.455,0,0,1-.075-.141,10.229,10.229,0,0,1-.4-1.912A6.992,6.992,0,0,0,200,27.982a5.175,5.175,0,0,1-.023-.682q0-5.916,0-11.831c0-.522.014-1.044.018-1.567,0-.358-.061-.415-.426-.412-.4,0-.805,0-1.208,0a1.675,1.675,0,0,1-.969-.346,1.053,1.053,0,0,1-.344-1.061,1.083,1.083,0,0,1,.305-.44,1.307,1.307,0,0,1,.886-.4c.14.006.282-.018.423-.007a5.106,5.106,0,0,0,1.954-.374,3.693,3.693,0,0,0,.84-.478,3.433,3.433,0,0,0,.515-.4,5.2,5.2,0,0,0,.884-1.164,6.608,6.608,0,0,0,.474-1.376,2.858,2.858,0,0,0-.072-1.838c-.013-.038-.045-.073-.047-.11a3.015,3.015,0,0,0-.439-1.118,1.739,1.739,0,0,0-.3-.411c-.15-.167-.312-.325-.477-.479a2.474,2.474,0,0,0-.368-.3c-.3-.189-.615-.366-.927-.542a.76.76,0,0,0-.224-.085c-.275-.057-.554-.1-.828-.16a3.885,3.885,0,0,0-1.81.075.449.449,0,0,1-.118.026,2.617,2.617,0,0,0-1.237.431,3.809,3.809,0,0,0-1.459,1.227c-.177.264-.373.516-.554.778a1.469,1.469,0,0,0-.08.2c-.065.137-.138.27-.2.407a2.177,2.177,0,0,0-.1.26c-.08.255-.158.509-.236.764a1.369,1.369,0,0,0-.072.25,15.01,15.01,0,0,0-.129,1.562c.01.924.076,1.848.121,2.771a.5.5,0,0,0,.034.177,4.012,4.012,0,0,1,.3,1.328.331.331,0,0,0,.053.17,1.541,1.541,0,0,1,.239.736,5.522,5.522,0,0,0,.2.75,2.9,2.9,0,0,1,.054,1.55,2.965,2.965,0,0,1-.451.924,4.379,4.379,0,0,1-.824.771.233.233,0,0,1-.086.051,2.854,2.854,0,0,1-1.752.127,2.507,2.507,0,0,1-.851-.41,2.322,2.322,0,0,1-.453-.5c-.192-.267-.358-.553-.534-.833-.034-.056-.052-.122-.084-.181-.073-.132-.147-.264-.227-.394a6.284,6.284,0,0,0-.361-.569c-.248-.326-.509-.644-.777-.954a1.659,1.659,0,0,0-.385-.317c-.266-.162-.554-.29-.818-.454a3.821,3.821,0,0,0-1.791-.376c-.309-.026-.627.078-.939.064a2.886,2.886,0,0,0-1.325.417,1.37,1.37,0,0,0-.524.552,1.514,1.514,0,0,0-.3.952,2.5,2.5,0,0,0,.434,1.086,3.177,3.177,0,0,0,1.05.977c.333.207.656.426.99.628.2.119.41.212.609.325.272.155.538.321.81.478a1.732,1.732,0,0,0,.206.08,9.407,9.407,0,0,1,.941.415,13.3,13.3,0,0,0,1.318.634c.449.2.887.42,1.317.656.4.219.794.445,1.2.649a12.649,12.649,0,0,1,1.62.97,16.253,16.253,0,0,1,1.567,1.245,9.869,9.869,0,0,1,1.037,1.143c.189.234.292.537.479.773a1.918,1.918,0,0,1,.314.767c.029.116.154.206.189.323a3.5,3.5,0,0,1,.089.533c.036.258.078.516.1.775a5.611,5.611,0,0,1,.036.9c-.034.433-.1.863-.18,1.292a2.6,2.6,0,0,1-.173.462c-.01.024-.035.046-.037.07a3.27,3.27,0,0,1-.436,1.042,2.941,2.941,0,0,1-.322.5,4.75,4.75,0,0,1-1.021,1.072,3.982,3.982,0,0,0-.418.342,3.44,3.44,0,0,1-1,.651,7.473,7.473,0,0,0-.825.481.2.2,0,0,1-.035.018c-.433.135-.866.268-1.3.405-.2.065-.4.139-.606.209a.552.552,0,0,1-.169.06,3.823,3.823,0,0,0-1.257.206,2.229,2.229,0,0,1-.459.121c-.285.026-.572.027-.859.03-.127,0-.253-.026-.38-.026-.986,0-1.971-.008-2.957.016a5.161,5.161,0,0,1-1.38-.237,2.218,2.218,0,0,0-.415-.068,1.973,1.973,0,0,1-.926-.234L181.3,34.5c-.478-.143-.957-.285-1.434-.433a2.458,2.458,0,0,1-.3-.138c-.023-.012-.041-.037-.064-.048-.339-.152-.685-.29-1.015-.459a8.851,8.851,0,0,1-.783-.471c-.168-.108-.323-.233-.486-.348-.223-.157-.456-.3-.668-.47a5.608,5.608,0,0,1-.483-.469,3.8,3.8,0,0,1-.3-.34c-.185-.241-.365-.486-.541-.733a.983.983,0,0,1-.1-.193c-.026-.061-.025-.14-.063-.189a2.739,2.739,0,0,1-.328-1.643,3.13,3.13,0,0,1,.061-.761,2.666,2.666,0,0,1,.2-.508c.015-.037.044-.068.058-.105a3.279,3.279,0,0,1,1.042-1.418h0a5.224,5.224,0,0,1,2.249-.3,3.963,3.963,0,0,1,1.148.428c.416.19.641.6.948.908a.119.119,0,0,1,.036.048c.082.337.361.587.4.948a1.6,1.6,0,0,0,.189.432c.011.024.032.044.042.068q.214.545.426,1.091a.329.329,0,0,0,.016.058c.159.256.315.515.483.766.121.182.271.345.387.53a4.646,4.646,0,0,0,1.453,1.392c.28.181.608.282.885.44a3.771,3.771,0,0,0,1.531.283,5.316,5.316,0,0,0,1.578-.084,1.44,1.44,0,0,0,.34-.151.683.683,0,0,1,.18-.082,1.559,1.559,0,0,0,1.11-.782,1.41,1.41,0,0,0,.265-1.272c-.072-.193-.091-.407-.165-.6-.053-.138-.174-.249-.233-.385a3.5,3.5,0,0,0-.9-1.039,5.623,5.623,0,0,0-.7-.523c-.254-.179-.509-.358-.772-.521s-.509-.286-.765-.429q-.441-.247-.882-.5c-.018-.01-.03-.029-.048-.037-.3-.143-.6-.28-.895-.429s-.607-.323-.908-.486c-.036-.019-.064-.051-.1-.069-.3-.149-.614-.286-.911-.447-.262-.141-.51-.309-.764-.465-.034-.021-.067-.045-.1-.064-.286-.154-.582-.29-.855-.462-.407-.257-.8-.535-1.194-.814-.331-.236-.666-.47-.975-.734a11.8,11.8,0,0,1-.946-.91,9.891,9.891,0,0,1-.826-1c-.183-.257-.274-.581-.464-.831-.278-.37-.244-.844-.469-1.228a.907.907,0,0,1-.1-.426c-.017-.711-.026-1.421-.023-2.132a1.417,1.417,0,0,1,.2-.829.244.244,0,0,0,.044-.111,3.257,3.257,0,0,1,.437-1.069,1.835,1.835,0,0,1,.325-.426c.215-.248.423-.5.66-.728a6.308,6.308,0,0,1,.723-.566c.283-.2.583-.372.875-.555a.379.379,0,0,1,.069-.041c.458-.154.916-.306,1.374-.464a1.881,1.881,0,0,0,.211-.118.59.59,0,0,1,.164-.06c.292-.047.584-.09.875-.133a8.675,8.675,0,0,1,1.261-.246c.931,0,1.864-.042,2.794-.038a10.994,10.994,0,0,1,1.359.112c.266.035.523.137.788.192.2.042.413.045.614.091a2.851,2.851,0,0,1,.374.164.943.943,0,0,0,.232.061,1.763,1.763,0,0,1,.894.255c.1.07.245.062.364.107.259.1.507.225.771.3.328.094.412.018.368-.32-.071-.537-.2-1.068-.238-1.607a9.868,9.868,0,0,1,.009-2.327c.076-.489.17-.975.263-1.461a2.209,2.209,0,0,1,.1-.282c.056-.163.107-.329.168-.492.067-.178.146-.353.219-.529.007-.018.023-.034.031-.051.144-.319.279-.643.436-.955a3.352,3.352,0,0,1,.348-.557,7.984,7.984,0,0,1,1.532-1.608,6.949,6.949,0,0,1,1.324-.81c.306-.133.633-.194.922-.336a5.594,5.594,0,0,1,2.339-.362,11.4,11.4,0,0,1,2.154.225,2.8,2.8,0,0,1,.982.306c.268.157.565.191.825.321.466.233.9.521,1.355.783a6.854,6.854,0,0,1,1.485,1.217,6.928,6.928,0,0,1,.517.639,7.747,7.747,0,0,1,.527.742c.167.286.294.595.437.895.014.029.007.07.023.1a13.888,13.888,0,0,1,.594,1.951,1.358,1.358,0,0,1,.042.5c0,.884,0,1.769,0,2.654,0,.148,0,.295-.005.443-.007.252.011.285.265.288.663.01,1.327.007,1.991.007a3.177,3.177,0,0,0,.442-.013,1.16,1.16,0,0,1,1.016.418,1.069,1.069,0,0,1,.227.7c-.02.61-.131.763-.679,1.023a2.143,2.143,0,0,1-.971.143c-.63,0-1.261-.011-1.891-.012-.392,0-.417.031-.417.426q0,3.622,0,7.243h.027" transform="translate(-46.929 -0.044)" fill="#352e35"/>
      <path id="Path_370" data-name="Path 370" d="M150.2,30.213a2.179,2.179,0,0,0,.005.376,1.174,1.174,0,0,0,.129.3c.014.029.052.049.06.078a3.929,3.929,0,0,0,.831,1.328,7.945,7.945,0,0,0,1.231,1.17,6.937,6.937,0,0,0,1.138.69,7.131,7.131,0,0,0,.933.317,7.926,7.926,0,0,0,3.262.219,2.976,2.976,0,0,0,.421-.026c.188-.035.37-.1.557-.143s.407-.083.6-.143c.168-.051.327-.132.49-.2a1,1,0,0,1,.148-.06,3.921,3.921,0,0,0,1.239-.617c.22-.148.454-.279.671-.432a3.453,3.453,0,0,0,.442-.372,10,10,0,0,1,.738-.755c.166-.132,2.213-2.347,3.878-2.347.5-.025-.524.521-.555,1.11a20.816,20.816,0,0,1-1.977,2.673,7.922,7.922,0,0,0-.436.687,6.493,6.493,0,0,1-.448.563c-.152.175-.314.342-.478.505s-.362.351-.548.521a4.207,4.207,0,0,1-.392.339c-.544.394-1.088.791-1.646,1.166a5.28,5.28,0,0,1-.762.393,9.181,9.181,0,0,1-1.318.56,7.69,7.69,0,0,1-1.616.448,5.988,5.988,0,0,0-.974.272,2.481,2.481,0,0,1-.593.057c-1.019-.006-2.038-.006-3.056-.041a10.339,10.339,0,0,1-1.207-.175c-.046-.007-.089-.037-.135-.04a7.585,7.585,0,0,1-1.682-.445,10.194,10.194,0,0,1-1.118-.481.878.878,0,0,0-.105-.058,6.8,6.8,0,0,1-1.462-.767,8.05,8.05,0,0,1-1.114-.834c-.285-.227-.566-.461-.828-.713-.278-.267-.541-.55-.793-.841s-.5-.6-.735-.916c-.2-.271-.37-.562-.546-.848s-.35-.592-.522-.889a.921.921,0,0,1-.069-.166c-.013-.037-.015-.08-.03-.116-.159-.393-.323-.783-.478-1.177a3.766,3.766,0,0,1-.134-.437c-.058-.219-.11-.44-.159-.661a6.413,6.413,0,0,1-.154-.743c-.053-.533-.094-1.068-.114-1.6-.013-.354.014-.709.03-1.064.023-.509.045-1.018.086-1.526a3.506,3.506,0,0,1,.128-.522c.053-.221.1-.444.157-.663.066-.242.146-.481.219-.72a1.614,1.614,0,0,0,.067-.209,1.472,1.472,0,0,1,.271-.745c.048-.057.048-.152.079-.225.067-.157.139-.312.211-.468.008-.018.025-.031.034-.05.147-.3.285-.612.442-.911a4.323,4.323,0,0,1,.312-.483c.176-.249.346-.5.542-.737.338-.4.688-.8,1.044-1.181a6.33,6.33,0,0,1,.506-.451c.12-.105.236-.216.364-.31.4-.288.8-.569,1.2-.853a.189.189,0,0,1,.034-.022,9.317,9.317,0,0,0,1.009-.471c.3-.184.666-.188.941-.361a2.646,2.646,0,0,1,.99-.263,4.86,4.86,0,0,1,1.068-.255c.434.01.87-.067,1.3-.061.783.01,1.567.048,2.349.088a1.917,1.917,0,0,1,.392.132,3.9,3.9,0,0,0,.428.1,6.809,6.809,0,0,1,.674.1,3.645,3.645,0,0,1,.982.35,5.345,5.345,0,0,0,.737.277c.3.138.585.3.877.451l.212.11a6.847,6.847,0,0,1,1.427.9c.284.252.635.429.91.688a12.76,12.76,0,0,1,1.2,1.268,10.62,10.62,0,0,1,.781,1.221,3.429,3.429,0,0,1,.478.9,5.179,5.179,0,0,1,.326,2.267,3.33,3.33,0,0,1-.308.971,4.685,4.685,0,0,1-.713.848,6.275,6.275,0,0,1-.547.462.477.477,0,0,1-.091.078c-.306.146-.611.3-.923.43-.389.167-.783.323-1.177.478a3.121,3.121,0,0,1-.366.105c-.362.094-.726.185-1.088.277a.606.606,0,0,1-.175.043,3.888,3.888,0,0,0-1.365.293.252.252,0,0,1-.078.02,5.683,5.683,0,0,0-1.3.214c-.34.061-.688.078-1.027.145-.268.052-.526.151-.79.224-.121.034-.247.053-.37.084q-.359.091-.715.189c-.064.018-.125.048-.187.071a11.469,11.469,0,0,0-1.194.454,2.255,2.255,0,0,0-.729.575,1.224,1.224,0,0,0-.268,1.012m-1.62-6.482a9.653,9.653,0,0,0,.158,2.321c.083.407.114.824.2,1.23a1.481,1.481,0,0,0,.227.525c.11.16.252.123.377-.026a4.3,4.3,0,0,1,.5-.513,6.311,6.311,0,0,1,.677-.5,5.322,5.322,0,0,1,.715-.4c.363-.161.739-.292,1.108-.437a1.049,1.049,0,0,0,.1-.062,2.259,2.259,0,0,1,.276-.146c.387-.151.777-.3,1.165-.443a.31.31,0,0,0,.051-.031c.233-.161.469-.315.7-.483a2.418,2.418,0,0,0,.907-1.082.313.313,0,0,1,.068-.122.809.809,0,0,0,.222-.524,1.767,1.767,0,0,1,.094-.389,2.745,2.745,0,0,0,.125-1.445,7.514,7.514,0,0,1-.188-.881c-.016-.487-.373-.84-.444-1.3,0-.023-.033-.042-.048-.064-.173-.26-.336-.525-.519-.777a4.405,4.405,0,0,0-.459-.544,3.366,3.366,0,0,0-.552-.452,3.293,3.293,0,0,0-.939-.5,2.676,2.676,0,0,0-2.322.324,3.389,3.389,0,0,0-.878.978,2.4,2.4,0,0,0-.451.947c-.005.041-.057.074-.076.116a2.252,2.252,0,0,0-.132.325c-.06.219-.1.443-.159.66-.052.19-.133.373-.176.565-.039.169-.029.348-.064.519a8,8,0,0,0-.259,2.3c.009.1,0,.2,0,.3" transform="translate(-37.815 -3.864)" fill="#352e35"/>
      <path id="Path_371" data-name="Path 371" d="M130.264,21.782v6.66c0,.328.007.657,0,.984a4.5,4.5,0,0,0,.233,1.4,2.061,2.061,0,0,1,.069.334.708.708,0,0,0,.209.524.069.069,0,0,1,.012.017c.212.427.434.85.631,1.284a.865.865,0,0,1-.064.714c-.156.379-.5.516-.794.722a.258.258,0,0,1-.137.017l-4.526-.02c-1.174-.005-2.347-.016-3.521-.007a1.625,1.625,0,0,1-1.011-.381,1.33,1.33,0,0,1-.246-1.013,5.551,5.551,0,0,1,.7-1.273.194.194,0,0,0,.039-.069,9.508,9.508,0,0,0,.418-1.842c-.028-1.1.023-2.2.023-3.3q.005-6.208,0-12.416c0-.127-.014-.254-.018-.381-.006-.186-.1-.26-.284-.258-.476,0-.952,0-1.428,0a1.534,1.534,0,0,1-.9-.363,1.064,1.064,0,0,1,.08-1.6,1.827,1.827,0,0,1,1.156-.3c.375,0,.75,0,1.126.009.157,0,.234-.069.2-.22-.039-.181-.1-.358-.149-.535-.046-.158-.1-.314-.14-.475-.059-.26-.106-.524-.156-.786a4.83,4.83,0,0,1-.113-.671c-.021-.522-.031-1.045-.015-1.567a3.667,3.667,0,0,1,.139-.662.93.93,0,0,0,.04-.155,5.048,5.048,0,0,1,.449-1.509,4.466,4.466,0,0,1,.493-.829c.122-.19.256-.373.39-.555a4.846,4.846,0,0,1,1.072-1.077c.393-.285.792-.561,1.191-.836a1.741,1.741,0,0,1,.22-.1c.124-.062.244-.129.367-.193A1.68,1.68,0,0,1,126.2.977c.212-.08.456-.061.631-.261.064-.073.226-.068.345-.081.328-.036.62-.218.933-.263.769-.113,1.545-.177,2.32-.229a6.316,6.316,0,0,1,.919.071c.52.042,1.046.053,1.56.135A4.316,4.316,0,0,1,134.15.7c.261.13.538.181.791.3a5.339,5.339,0,0,1,.716.46,7.785,7.785,0,0,1,.9.666c.3.287.524.66.834.936a2.578,2.578,0,0,1,.469.821,3.77,3.77,0,0,1,.274.94,4.508,4.508,0,0,1,.1.655,2.089,2.089,0,0,1-.445,1.349,3.026,3.026,0,0,1-.813.725.2.2,0,0,1-.087.048c-.481.039-.936.306-1.439.157a3.771,3.771,0,0,0-.4-.068,2.129,2.129,0,0,1-.967-.522,2.262,2.262,0,0,1-.447-.7.889.889,0,0,1-.094-.4c-.024-.462-.023-.925-.054-1.387a3.819,3.819,0,0,0-.124-.606,5.813,5.813,0,0,1-.15-.6,1.054,1.054,0,0,0-.36-.566,1.492,1.492,0,0,0-.658-.432,2.859,2.859,0,0,0-1.618-.021,2.778,2.778,0,0,0-1.427.837,6.182,6.182,0,0,0-.538.788c-.011.017-.011.04-.023.056a3.942,3.942,0,0,0-.521,1.562,3.29,3.29,0,0,0,.054,1.692c.087.33.153.665.23,1,.012.051.019.121.055.147a.839.839,0,0,1,.268.565.18.18,0,0,0,.029.075,5.85,5.85,0,0,0,1.377,1.43,8.53,8.53,0,0,0,.857.395,3.884,3.884,0,0,0,1.708.215c.127,0,.255-.005.382,0a1.143,1.143,0,0,1,1.026,1.71c-.074.172-.325.282-.513.388a2.1,2.1,0,0,1-1.113.186c-.644-.012-1.287-.005-1.931-.016-.175,0-.23.051-.23.23q.009,4.035,0,8.069h-.008" transform="translate(-32.054 -0.038)" fill="#352e35"/>
      <path id="Path_372" data-name="Path 372" d="M98.689,0a4.128,4.128,0,1,1-4.081,4.128A4.147,4.147,0,0,1,98.689,0" transform="translate(-25.41 0)" fill="#ff5a5a"/>
      <path id="Path_373" data-name="Path 373" d="M65.453,12.422l-1.3.927-.788-.835a4.925,4.925,0,0,1-1.67-3.2,2.659,2.659,0,0,1,2.783-2.829,2.783,2.783,0,0,1,2.875,2.782,3.94,3.94,0,0,1-1.9,3.154m6.771,18.83,2.793,3.011a.592.592,0,0,0,.434.189H83.4a.3.3,0,0,0,.219-.51l-6.892-7.282L81.19,22.15a.594.594,0,0,0,.171-.417V14.125a.316.316,0,0,0-.542-.222L72.6,22.3l-4.406-4.638,1.067-.788c2.411-1.763,4.638-4.314,4.638-7.607,0-4.963-3.989-8.441-9.416-8.441-4.592,0-9.323,3.108-9.323,8.72,0,2.968,1.856,5.334,3.433,7.049l.464.511m0,0,3.988,4.313,5.1,5.473h0l4.082,4.359" transform="translate(-14.814 -0.222)" fill="#ff5a5a"/>
      <path id="Path_374" data-name="Path 374" d="M71.595,37.231l-4.081-4.36a9.042,9.042,0,0,1-1.486,1.262,5.094,5.094,0,0,1-2.874.918,3.493,3.493,0,0,1-2.8-1.317,3.358,3.358,0,0,1-.728-2.068c0-1.809,1.02-2.969,2.551-4.082l.232-.185-3.989-4.313C54.9,25.636,52.811,28,52.811,32.036a8.766,8.766,0,0,0,3.381,6.873,10.75,10.75,0,0,0,6.776,2.171,11.148,11.148,0,0,0,5.086-1.211,13.534,13.534,0,0,0,3.541-2.638" transform="translate(-14.184 -6.201)" fill="#352e35"/>
      <path id="Path_375" data-name="Path 375" d="M25.142,14.452a10.557,10.557,0,0,0-7.264,2.891A10.6,10.6,0,0,0,0,25.055H0V37.517a.593.593,0,0,0,.592.592h5.64a.592.592,0,0,0,.592-.592V25.061a3.785,3.785,0,0,1,7.57,0V37.517a.593.593,0,0,0,.592.592h5.789a.592.592,0,0,0,.592-.592V25.05a3.774,3.774,0,1,1,7.548,0V37.517a.593.593,0,0,0,.592.592h5.64a.594.594,0,0,0,.592-.6V25.05a10.61,10.61,0,0,0-10.6-10.6" transform="translate(0 -3.882)" fill="#352e35"/>
      <path id="Path_376" data-name="Path 376" d="M95.363,37.989V16.64a.574.574,0,0,1,.574-.573h5.9a.574.574,0,0,1,.574.573V37.989a.575.575,0,0,1-.574.574h-5.9a.574.574,0,0,1-.574-.574" transform="translate(-25.613 -4.316)" fill="#ff5a5a"/>
    </g>
  </g>
</svg>
