<svg xmlns="http://www.w3.org/2000/svg" xmlns:xlink="http://www.w3.org/1999/xlink" width="798.997" height="168.778" viewBox="0 0 798.997 168.778">
  <defs>
    <clipPath id="clip-path">
      <rect id="Rectangle_687" data-name="Rectangle 687" width="798.997" height="168.778" fill="none"/>
    </clipPath>
  </defs>
  <g id="Group_686" data-name="Group 686" transform="translate(0 0)">
    <g id="Group_606" data-name="Group 606" transform="translate(0 0.001)" clip-path="url(#clip-path)">
      <path id="Path_369" data-name="Path 369" d="M334.752,101.346c0,11.536-.035,23.076.035,34.613a25.487,25.487,0,0,0,.821,4.649c.222,1.107.479,2.21.726,3.313a1.675,1.675,0,0,0,.12.465c1.741,3.151,3.683,6.14,7.846,6.038a55.042,55.042,0,0,0,5.932-.793c.8-.109,1.6-.212,2.4-.254,3.764-.187,5.918,4.23,5.009,6.715a6.277,6.277,0,0,1-1.533,2.517,42.925,42.925,0,0,1-4.822,3.634,31.937,31.937,0,0,1-4.452,2.446c-1.692.768-3.461,1.368-5.22,1.974-1.248.43-2.524.772-3.8,1.121a8.128,8.128,0,0,1-1.96.395c-3.75.042-7.5.092-11.24,0a21.69,21.69,0,0,1-3.955-.737c-.631-.137-1.227-.444-1.857-.539a7.8,7.8,0,0,1-3.313-1.216c-1.05-.7-2.351-1.026-3.43-1.7a31.967,31.967,0,0,1-3.93-2.873,30.375,30.375,0,0,1-3.888-3.817,11.12,11.12,0,0,1-2.221-3.091,28.1,28.1,0,0,0-2.323-4.173,2.191,2.191,0,0,1-.36-.68c-.412-3.112-2.1-5.915-1.935-9.214.1-1.949-.645-3.927-.909-5.907a24.93,24.93,0,0,1-.113-3.289q0-28.508.011-57.016c0-2.517.067-5.033.088-7.554.014-1.727-.293-2-2.051-1.984-1.939.014-3.881,0-5.819.007a8.072,8.072,0,0,1-4.67-1.667,5.073,5.073,0,0,1-1.66-5.111,5.218,5.218,0,0,1,1.47-2.118c1.223-1.015,2.513-2.02,4.272-1.949.677.028,1.361-.088,2.037-.032,3.306.275,6.366-.846,9.415-1.8a17.793,17.793,0,0,0,4.046-2.305A16.541,16.541,0,0,0,306,47.47a25.05,25.05,0,0,0,4.258-5.611c1.23-2.111,1.568-4.427,2.284-6.63a13.772,13.772,0,0,0-.345-8.858c-.063-.183-.218-.352-.226-.532-.071-2.044-1.322-3.63-2.115-5.389a8.38,8.38,0,0,0-1.459-1.981c-.723-.807-1.505-1.565-2.3-2.309a11.92,11.92,0,0,0-1.773-1.442c-1.463-.913-2.964-1.762-4.466-2.612a3.666,3.666,0,0,0-1.079-.409c-1.325-.275-2.668-.476-3.99-.772a18.724,18.724,0,0,0-8.724.36,2.162,2.162,0,0,1-.567.127c-2.238-.039-4.131,1.124-5.96,2.076a18.357,18.357,0,0,0-7.032,5.911c-.853,1.272-1.8,2.488-2.672,3.75a7.083,7.083,0,0,0-.388.98c-.314.659-.666,1.3-.973,1.96a10.5,10.5,0,0,0-.469,1.255c-.388,1.227-.761,2.453-1.135,3.683a6.59,6.59,0,0,0-.345,1.205,72.334,72.334,0,0,0-.62,7.529c.049,4.452.367,8.9.582,13.352a2.384,2.384,0,0,0,.166.853,19.334,19.334,0,0,1,1.438,6.4,1.593,1.593,0,0,0,.257.821,7.425,7.425,0,0,1,1.153,3.546,26.608,26.608,0,0,0,.959,3.613,13.987,13.987,0,0,1,.261,7.469,14.287,14.287,0,0,1-2.171,4.452c-1.043,1.653-2.672,2.464-3.972,3.715a1.121,1.121,0,0,1-.412.247c-2.76.9-5.485,1.48-8.442.61a12.081,12.081,0,0,1-4.1-1.977,11.191,11.191,0,0,1-2.185-2.386c-.927-1.287-1.727-2.665-2.573-4.015-.166-.268-.25-.589-.405-.871-.352-.638-.708-1.272-1.093-1.9a30.27,30.27,0,0,0-1.741-2.742c-1.195-1.572-2.453-3.105-3.747-4.6a7.993,7.993,0,0,0-1.854-1.53c-1.283-.782-2.668-1.4-3.944-2.189-2.665-1.65-5.7-1.565-8.629-1.812-1.487-.127-3.021.374-4.526.31-2.4-.1-4.371,1.086-6.387,2.009a6.6,6.6,0,0,0-2.524,2.661,7.3,7.3,0,0,0-1.452,4.586,12.061,12.061,0,0,0,2.09,5.234,15.309,15.309,0,0,0,5.058,4.709c1.6,1,3.162,2.051,4.772,3.028.948.575,1.974,1.022,2.933,1.569,1.311.747,2.594,1.547,3.9,2.3a8.351,8.351,0,0,0,.99.384,45.337,45.337,0,0,1,4.533,2,64.1,64.1,0,0,0,6.352,3.056c2.164.941,4.276,2.023,6.348,3.162,1.932,1.057,3.828,2.147,5.805,3.126a60.958,60.958,0,0,1,7.807,4.674,78.323,78.323,0,0,1,7.554,6,47.567,47.567,0,0,1,5,5.509c.909,1.128,1.406,2.587,2.309,3.726a9.241,9.241,0,0,1,1.516,3.7c.141.557.74.994.909,1.554a16.846,16.846,0,0,1,.426,2.57c.173,1.244.377,2.488.479,3.736a27.037,27.037,0,0,1,.173,4.332c-.162,2.087-.5,4.159-.867,6.225a12.522,12.522,0,0,1-.835,2.224c-.046.116-.169.222-.18.338-.19,1.886-1.329,3.384-2.1,5.023a14.178,14.178,0,0,1-1.551,2.411,22.889,22.889,0,0,1-4.92,5.164,19.189,19.189,0,0,0-2.013,1.65,16.579,16.579,0,0,1-4.808,3.137,36.008,36.008,0,0,0-3.976,2.316.965.965,0,0,1-.169.088c-2.087.649-4.173,1.29-6.256,1.953-.98.314-1.946.67-2.919,1.008a2.662,2.662,0,0,1-.814.289,18.421,18.421,0,0,0-6.056.99,10.745,10.745,0,0,1-2.213.585c-1.371.127-2.756.13-4.142.145-.61.007-1.22-.127-1.833-.123-4.751,0-9.5-.039-14.251.078a24.87,24.87,0,0,1-6.651-1.142,10.689,10.689,0,0,0-2-.328,9.506,9.506,0,0,1-4.462-1.128l-.088-.039c-2.305-.691-4.614-1.371-6.912-2.087a11.846,11.846,0,0,1-1.466-.663c-.109-.056-.2-.176-.307-.229-1.635-.733-3.3-1.4-4.892-2.21a42.645,42.645,0,0,1-3.775-2.27c-.811-.518-1.558-1.124-2.34-1.678-1.075-.754-2.2-1.445-3.218-2.263a27.036,27.036,0,0,1-2.326-2.259,18.326,18.326,0,0,1-1.456-1.639c-.892-1.16-1.759-2.344-2.608-3.532a4.737,4.737,0,0,1-.479-.931c-.123-.3-.12-.673-.3-.913-1.815-2.386-1.42-5.217-1.579-7.917a15.081,15.081,0,0,1,.293-3.666,12.844,12.844,0,0,1,.969-2.446c.074-.176.212-.328.278-.508a15.8,15.8,0,0,1,5.023-6.834h0c2.33-1.357,8.495-1.706,10.839-1.449,1.9.208,3.736,1.241,5.53,2.062,2.006.916,3.088,2.869,4.568,4.374a.576.576,0,0,1,.173.233c.395,1.625,1.738,2.83,1.942,4.568a7.708,7.708,0,0,0,.909,2.083c.053.116.155.211.2.328q1.031,2.628,2.051,5.259a1.6,1.6,0,0,0,.078.278c.768,1.234,1.519,2.481,2.326,3.69.585.878,1.3,1.664,1.865,2.552a22.389,22.389,0,0,0,7,6.708c1.35.871,2.929,1.361,4.265,2.122,2.4,1.368,4.9,1.043,7.377,1.364a25.619,25.619,0,0,0,7.606-.405,6.94,6.94,0,0,0,1.639-.726,3.288,3.288,0,0,1,.867-.395,7.514,7.514,0,0,0,5.347-3.768c1.086-1.727,2.147-3.8,1.276-6.129-.349-.931-.441-1.96-.8-2.887-.254-.666-.839-1.2-1.124-1.858-.92-2.136-2.774-3.461-4.346-5.009a27.091,27.091,0,0,0-3.373-2.52c-1.223-.864-2.453-1.727-3.722-2.513-1.2-.74-2.453-1.378-3.687-2.066q-2.125-1.19-4.251-2.39c-.085-.046-.145-.141-.229-.18-1.435-.691-2.89-1.35-4.311-2.069-1.477-.751-2.926-1.558-4.378-2.344-.173-.092-.307-.247-.479-.331-1.459-.719-2.957-1.378-4.388-2.154-1.262-.68-2.457-1.491-3.68-2.242-.166-.1-.321-.219-.49-.31-1.378-.74-2.806-1.4-4.12-2.228-1.96-1.241-3.86-2.577-5.756-3.923-1.6-1.135-3.208-2.263-4.7-3.535a56.907,56.907,0,0,1-4.558-4.385,47.674,47.674,0,0,1-3.979-4.822c-.881-1.237-1.322-2.8-2.238-4-1.339-1.784-1.174-4.068-2.259-5.918a4.368,4.368,0,0,1-.479-2.055c-.081-3.426-.127-6.849-.113-10.275a6.832,6.832,0,0,1,.966-3.994,1.174,1.174,0,0,0,.211-.536c.123-1.949,1.368-3.451,2.1-5.15a8.842,8.842,0,0,1,1.568-2.051c1.036-1.195,2.041-2.432,3.183-3.511a30.4,30.4,0,0,1,3.486-2.728c1.364-.948,2.809-1.791,4.216-2.675a1.826,1.826,0,0,1,.331-.2c2.206-.744,4.416-1.473,6.619-2.235a9.06,9.06,0,0,0,1.015-.571,2.842,2.842,0,0,1,.79-.289c1.406-.226,2.813-.434,4.215-.642,2.041-.3,3.955-1.181,6.077-1.188,4.487-.014,8.981-.2,13.464-.183a52.98,52.98,0,0,1,6.549.539c1.283.169,2.52.659,3.8.927.973.2,1.988.215,2.957.441a13.737,13.737,0,0,1,1.8.79,4.543,4.543,0,0,0,1.117.293,8.5,8.5,0,0,1,4.307,1.23c.462.338,1.181.3,1.752.515,1.248.465,2.443,1.086,3.715,1.452,1.583.455,1.984.088,1.773-1.544-.342-2.587-.941-5.146-1.149-7.744a47.562,47.562,0,0,1,.042-11.216c.367-2.355.818-4.7,1.265-7.039a10.644,10.644,0,0,1,.486-1.361c.271-.786.515-1.586.811-2.369.324-.86.7-1.7,1.054-2.548.035-.088.113-.162.152-.247.694-1.537,1.343-3.1,2.1-4.6a16.158,16.158,0,0,1,1.678-2.686,38.478,38.478,0,0,1,7.381-7.747,33.49,33.49,0,0,1,6.38-3.9c1.473-.642,3.052-.934,4.441-1.618,3.6-1.784,7.508-1.583,11.272-1.745,3.444-.148,6.937.567,10.38,1.086a13.478,13.478,0,0,1,4.73,1.473c1.29.754,2.721.92,3.976,1.547,2.245,1.124,4.357,2.51,6.531,3.771a33.025,33.025,0,0,1,7.155,5.865,33.374,33.374,0,0,1,2.492,3.081,37.336,37.336,0,0,1,2.538,3.574c.807,1.378,1.417,2.866,2.108,4.311.067.141.032.338.109.469,1.71,2.9,1.611,6.352,2.862,9.4a6.544,6.544,0,0,1,.2,2.393c.018,4.261,0,8.526,0,12.791,0,.712-.014,1.42-.025,2.132-.032,1.216.053,1.371,1.276,1.389,3.193.046,6.394.032,9.594.032a15.312,15.312,0,0,0,2.129-.063,5.591,5.591,0,0,1,4.9,2.013,5.152,5.152,0,0,1,1.1,3.384c-.1,2.94-.631,3.676-3.275,4.928a10.328,10.328,0,0,1-4.677.687c-3.038.014-6.077-.053-9.115-.056-1.889,0-2.009.148-2.009,2.055q.005,17.453,0,34.9h.13" transform="translate(441.147 0.408)" fill="#352e35"/>
      <path id="Path_370" data-name="Path 370" d="M186.132,90.664a10.493,10.493,0,0,0,.025,1.812,5.655,5.655,0,0,0,.624,1.428c.067.141.25.236.289.377.7,2.524,2.464,4.448,4,6.4a38.285,38.285,0,0,0,5.932,5.64,33.429,33.429,0,0,0,5.484,3.327,34.369,34.369,0,0,0,4.5,1.53c5.136,1.949,10.44,1.294,15.72,1.057a14.343,14.343,0,0,0,2.03-.127c.906-.169,1.784-.472,2.682-.691.969-.24,1.96-.4,2.911-.691.811-.247,1.576-.638,2.362-.966a4.823,4.823,0,0,1,.716-.289,18.9,18.9,0,0,0,5.971-2.975c1.061-.716,2.189-1.343,3.236-2.08a16.641,16.641,0,0,0,2.129-1.791,48.2,48.2,0,0,1,3.556-3.638c.8-.638,10.662-11.311,18.688-11.311,2.4-.12-2.527,2.51-2.675,5.351-.07,1.35-8.572,11.769-9.527,12.879a38.173,38.173,0,0,0-2.1,3.31,31.307,31.307,0,0,1-2.161,2.714c-.733.842-1.512,1.646-2.3,2.436-.86.86-1.745,1.692-2.64,2.513a20.262,20.262,0,0,1-1.889,1.635c-2.622,1.9-5.241,3.81-7.931,5.618a25.44,25.44,0,0,1-3.673,1.893,44.244,44.244,0,0,1-6.352,2.7c-2.587.719-5.005,1.995-7.79,2.157-1.583.1-3.112.931-4.695,1.311a11.956,11.956,0,0,1-2.859.275c-4.91-.028-9.82-.028-14.726-.2a49.822,49.822,0,0,1-5.816-.842c-.222-.035-.43-.176-.649-.19-2.837-.194-5.435-1.332-8.1-2.147a49.127,49.127,0,0,1-5.389-2.316,4.232,4.232,0,0,0-.508-.278c-2.622-.7-4.727-2.425-7.046-3.694a38.79,38.79,0,0,1-5.368-4.018c-1.371-1.093-2.728-2.221-3.99-3.437-1.339-1.287-2.6-2.651-3.821-4.053-1.237-1.424-2.432-2.894-3.542-4.416-.952-1.308-1.784-2.707-2.629-4.089-.864-1.413-1.685-2.852-2.513-4.286a4.445,4.445,0,0,1-.331-.8c-.063-.18-.07-.384-.145-.56-.765-1.893-1.554-3.771-2.3-5.671a18.128,18.128,0,0,1-.645-2.1c-.278-1.057-.532-2.122-.768-3.186a30.907,30.907,0,0,1-.74-3.581c-.257-2.57-.451-5.146-.55-7.723-.063-1.706.067-3.419.145-5.128.113-2.453.219-4.906.416-7.353a16.9,16.9,0,0,1,.617-2.517c.254-1.064.465-2.14.754-3.193.317-1.167.7-2.316,1.057-3.472a7.787,7.787,0,0,0,.324-1.008,7.1,7.1,0,0,1,1.3-3.592c.233-.275.233-.733.381-1.086.321-.758.67-1.505,1.015-2.256.039-.085.12-.152.162-.24.708-1.463,1.375-2.95,2.129-4.388a20.825,20.825,0,0,1,1.505-2.33c.846-1.2,1.667-2.429,2.612-3.553,1.628-1.939,3.313-3.831,5.033-5.689a30.5,30.5,0,0,1,2.439-2.175c.578-.508,1.135-1.043,1.755-1.494,1.921-1.389,3.867-2.742,5.8-4.11a.912.912,0,0,1,.162-.106,44.905,44.905,0,0,0,4.861-2.27c1.445-.888,3.211-.906,4.536-1.738,1.537-.966,3.172-.948,4.769-1.265,1.731-.342,3.289-1.269,5.146-1.23,2.09.046,4.191-.321,6.285-.3,3.775.049,7.55.229,11.321.423a9.239,9.239,0,0,1,1.889.634,18.816,18.816,0,0,0,2.062.483,32.808,32.808,0,0,1,3.25.493,17.566,17.566,0,0,1,4.73,1.688c1.153.733,2.411.807,3.549,1.336,1.438.663,2.82,1.442,4.226,2.171l1.022.529a32.991,32.991,0,0,1,6.877,4.335c1.368,1.213,3.059,2.069,4.385,3.317a61.5,61.5,0,0,1,5.788,6.108,51.191,51.191,0,0,1,3.764,5.886,16.526,16.526,0,0,1,2.305,4.357c.846,3.581,2.358,7.12,1.572,10.923a16.049,16.049,0,0,1-1.484,4.677,22.578,22.578,0,0,1-3.437,4.089,30.241,30.241,0,0,1-2.636,2.228,2.3,2.3,0,0,1-.441.374c-1.477.7-2.947,1.428-4.448,2.073-1.875.807-3.771,1.558-5.671,2.3a15.048,15.048,0,0,1-1.762.508c-1.745.451-3.5.892-5.241,1.336a2.918,2.918,0,0,1-.842.208c-2.337-.19-4.413.807-6.577,1.41a1.217,1.217,0,0,1-.374.1c-2.168-.109-4.184.652-6.271,1.029-1.639.3-3.317.377-4.949.7-1.29.25-2.534.726-3.807,1.079-.585.162-1.191.254-1.784.405q-1.729.439-3.447.909c-.307.085-.6.229-.9.342a55.259,55.259,0,0,0-5.752,2.189,10.868,10.868,0,0,0-3.514,2.77,5.9,5.9,0,0,0-1.294,4.875m-7.807-31.236a46.515,46.515,0,0,0,.761,11.184c.4,1.96.55,3.969.952,5.925a7.137,7.137,0,0,0,1.1,2.531c.532.772,1.213.592,1.815-.123a20.742,20.742,0,0,1,2.407-2.474,30.426,30.426,0,0,1,3.26-2.386,25.651,25.651,0,0,1,3.444-1.907c1.748-.775,3.56-1.406,5.34-2.108a5.058,5.058,0,0,0,.49-.3,10.884,10.884,0,0,1,1.329-.7c1.865-.73,3.743-1.424,5.615-2.132a1.5,1.5,0,0,0,.247-.152c1.121-.775,2.259-1.519,3.352-2.33a11.655,11.655,0,0,0,4.371-5.213,1.508,1.508,0,0,1,.328-.589,3.9,3.9,0,0,0,1.068-2.527,8.513,8.513,0,0,1,.451-1.875,13.227,13.227,0,0,0,.6-6.965,36.181,36.181,0,0,1-.906-4.244c-.078-2.347-1.8-4.05-2.139-6.253-.018-.109-.159-.2-.229-.307-.832-1.251-1.618-2.531-2.5-3.743a21.227,21.227,0,0,0-2.21-2.622,16.221,16.221,0,0,0-2.661-2.178,15.869,15.869,0,0,0-4.526-2.432c-3.856-.885-7.726-1.008-11.191,1.561a16.334,16.334,0,0,0-4.23,4.713c-.871,1.428-1.967,2.8-2.175,4.565-.025.2-.275.356-.367.557a10.857,10.857,0,0,0-.634,1.565c-.289,1.054-.479,2.132-.765,3.183-.25.916-.641,1.8-.849,2.721-.187.814-.141,1.678-.307,2.5-.751,3.666-1.576,7.317-1.248,11.106.042.479.007.969.007,1.452" transform="translate(355.475 36.313)" fill="#352e35"/>
      <path id="Path_371" data-name="Path 371" d="M171.953,104.436v32.1c0,1.583.035,3.165,0,4.744a21.68,21.68,0,0,0,1.124,6.757,9.935,9.935,0,0,1,.331,1.607,3.414,3.414,0,0,0,1.008,2.527.331.331,0,0,1,.056.081c1.022,2.058,2.094,4.1,3.042,6.189a4.168,4.168,0,0,1-.31,3.44c-.751,1.826-2.407,2.485-3.824,3.479a1.243,1.243,0,0,1-.659.081q-10.9-.048-21.811-.1c-5.657-.025-11.311-.078-16.968-.035a7.833,7.833,0,0,1-4.871-1.836c-.927-.691-1.568-3.8-1.184-4.882a26.753,26.753,0,0,1,3.356-6.137.934.934,0,0,0,.187-.335c.493-2.992,2.094-5.685,2.013-8.875-.134-5.294.109-10.6.113-15.9q.026-29.914,0-59.832c0-.61-.067-1.223-.085-1.836-.028-.9-.493-1.251-1.368-1.244-2.295.021-4.589.007-6.884.011A7.391,7.391,0,0,1,120.9,62.7c-2.2-1.576-2.066-5.915.384-7.687a8.8,8.8,0,0,1,5.569-1.463c1.808.007,3.616.014,5.425.042.758.014,1.128-.335.973-1.061-.187-.871-.469-1.724-.719-2.58-.222-.761-.5-1.512-.673-2.288-.286-1.255-.511-2.524-.751-3.789a23.27,23.27,0,0,1-.546-3.232c-.1-2.517-.152-5.037-.074-7.554a17.675,17.675,0,0,1,.67-3.19,4.487,4.487,0,0,0,.194-.747c.109-2.6,1.3-4.9,2.164-7.272a21.527,21.527,0,0,1,2.376-4c.589-.916,1.234-1.8,1.879-2.675a23.352,23.352,0,0,1,5.167-5.188c1.893-1.375,3.817-2.7,5.742-4.029a8.389,8.389,0,0,1,1.061-.462c.6-.3,1.177-.624,1.769-.931a8.092,8.092,0,0,1,.864-.416c1.022-.388,2.2-.293,3.042-1.258.307-.352,1.089-.328,1.664-.391,1.579-.173,2.989-1.05,4.494-1.269,3.7-.543,7.444-.853,11.18-1.1A30.438,30.438,0,0,1,177.187.5c2.506.2,5.04.254,7.518.649a20.8,20.8,0,0,1,5.974,1.7c1.258.627,2.594.874,3.81,1.463a25.724,25.724,0,0,1,3.451,2.217,37.515,37.515,0,0,1,4.321,3.211c1.456,1.382,2.527,3.179,4.018,4.512,1.248,1.114,1.544,2.644,2.259,3.958a18.167,18.167,0,0,1,1.318,4.529,21.726,21.726,0,0,1,.5,3.158c.212,2.464-.821,4.491-2.147,6.5a14.586,14.586,0,0,1-3.919,3.493.962.962,0,0,1-.42.233c-2.319.187-4.512,1.473-6.937.754a18.169,18.169,0,0,0-1.91-.328,10.258,10.258,0,0,1-4.66-2.513c-1.135-.923-1.47-2.245-2.154-3.384a4.287,4.287,0,0,1-.455-1.946c-.116-2.228-.113-4.459-.261-6.683a18.421,18.421,0,0,0-.6-2.918,27.993,27.993,0,0,1-.723-2.894,5.082,5.082,0,0,0-1.734-2.728,7.191,7.191,0,0,0-3.172-2.08,13.777,13.777,0,0,0-7.8-.1,13.385,13.385,0,0,0-6.877,4.032,29.782,29.782,0,0,0-2.594,3.8c-.053.081-.053.194-.113.268-1.762,2.185-1.819,5.012-2.513,7.525a15.856,15.856,0,0,0,.261,8.153c.419,1.59.737,3.2,1.11,4.808.056.247.092.582.264.708a4.041,4.041,0,0,1,1.29,2.725.869.869,0,0,0,.137.36c1.995,2.5,3.828,5.114,6.637,6.891a41.093,41.093,0,0,0,4.127,1.9c2.693,1.315,5.46.962,8.23,1.036.613.018,1.23-.025,1.84.014,4.582.286,6.764,4.025,4.945,8.241-.356.828-1.565,1.361-2.471,1.868a10.118,10.118,0,0,1-5.361.9c-3.1-.06-6.2-.025-9.305-.078-.842-.014-1.107.247-1.107,1.107q.042,19.446.018,38.885h-.039" transform="translate(301.32 0.349)" fill="#352e35"/>
      <path id="Path_372" data-name="Path 372" d="M114.276,0A19.893,19.893,0,1,1,94.608,19.894,19.985,19.985,0,0,1,114.276,0" transform="translate(238.86 -0.002)" fill="#ff5a5a"/>
      <path id="Path_373" data-name="Path 373" d="M104.777,56.7l-6.26,4.469-3.8-4.022c-3.8-4.022-8.047-9.164-8.047-15.421,0-9.39,6.708-13.634,13.412-13.634,7.825,0,13.856,5.809,13.856,13.408,0,5.143-2.679,10.5-9.161,15.2m32.632,90.744,13.457,14.511a2.854,2.854,0,0,0,2.094.913h38.286a1.456,1.456,0,0,0,1.057-2.457L159.09,125.324l21.526-21.741a2.862,2.862,0,0,0,.825-2.009V64.91a1.523,1.523,0,0,0-2.612-1.068L139.2,104.313l-21.233-22.35,5.143-3.8c11.621-8.495,22.35-20.789,22.35-36.657,0-23.915-19.224-40.679-45.374-40.679C77.954.827,55.156,15.8,55.156,42.849c0,14.3,8.942,25.7,16.542,33.971l2.235,2.46m0,0,19.22,20.785,24.589,26.376h0l19.671,21.007" transform="translate(139.254 2.086)" fill="#ff5a5a"/>
      <path id="Path_374" data-name="Path 374" d="M143.33,91.253,123.662,70.242a43.574,43.574,0,0,1-7.159,6.084,24.548,24.548,0,0,1-13.852,4.424A16.833,16.833,0,0,1,89.176,74.4a16.182,16.182,0,0,1-3.511-9.968c0-8.717,4.917-14.307,12.294-19.672l1.117-.892L79.853,23.085C62.867,35.379,52.811,46.775,52.811,66.221A42.245,42.245,0,0,0,69.106,99.343c8.11,6.39,19.1,10.461,32.653,10.461a53.723,53.723,0,0,0,24.507-5.837A65.218,65.218,0,0,0,143.33,91.253" transform="translate(133.334 58.282)" fill="#352e35"/>
      <path id="Path_375" data-name="Path 375" d="M121.159,14.452a50.876,50.876,0,0,0-35,13.933A51.087,51.087,0,0,0,0,65.55H0V125.6a2.857,2.857,0,0,0,2.855,2.855H30.034a2.854,2.854,0,0,0,2.852-2.855V65.578a18.241,18.241,0,0,1,36.481-.014V125.6a2.857,2.857,0,0,0,2.855,2.855h27.9a2.854,2.854,0,0,0,2.852-2.855V65.525a18.186,18.186,0,1,1,36.372,0V125.6a2.857,2.857,0,0,0,2.855,2.855h27.179a2.861,2.861,0,0,0,2.852-2.89V65.525a51.13,51.13,0,0,0-51.07-51.073" transform="translate(0 36.486)" fill="#352e35"/>
      <path id="Path_376" data-name="Path 376" d="M95.363,121.71V18.83a2.764,2.764,0,0,1,2.767-2.763h28.445a2.766,2.766,0,0,1,2.767,2.763V121.71a2.769,2.769,0,0,1-2.767,2.767H98.13a2.767,2.767,0,0,1-2.767-2.767" transform="translate(240.766 40.563)" fill="#ff5a5a"/>
    </g>
  </g>
</svg>
