<svg xmlns="http://www.w3.org/2000/svg" xmlns:xlink="http://www.w3.org/1999/xlink" width="1457.791" height="307.94" viewBox="0 0 1457.791 307.94">
  <defs>
    <clipPath id="clip-path">
      <rect id="Rectangle_687" data-name="Rectangle 687" width="1457.791" height="307.94" fill="#f8f8f8"/>
    </clipPath>
  </defs>
  <g id="Group_671" data-name="Group 671" transform="translate(0 0)">
    <g id="Group_606" data-name="Group 606" transform="translate(0 0.001)" clip-path="url(#clip-path)">
      <path id="Path_369" data-name="Path 369" d="M466.694,184.774c0,21.049-.064,42.1.064,63.152.013,2.83.945,5.659,1.5,8.482.405,2.019.875,4.032,1.325,6.045a3.056,3.056,0,0,0,.219.849c3.177,5.749,6.72,11.2,14.315,11.016,3.614-.09,7.216-.958,10.823-1.447,1.46-.2,2.926-.386,4.38-.463,6.868-.341,10.8,7.717,9.138,12.251a11.452,11.452,0,0,1-2.8,4.592,78.322,78.322,0,0,1-8.8,6.63,58.268,58.268,0,0,1-8.122,4.463c-3.087,1.4-6.315,2.5-9.524,3.6-2.276.785-4.6,1.408-6.926,2.045a14.831,14.831,0,0,1-3.576.72c-6.843.077-13.685.167-20.508-.006a39.57,39.57,0,0,1-7.216-1.344c-1.151-.251-2.238-.81-3.389-.984a14.241,14.241,0,0,1-6.045-2.219c-1.916-1.286-4.289-1.871-6.257-3.1a58.319,58.319,0,0,1-7.17-5.241,55.418,55.418,0,0,1-7.093-6.965c-1.415-1.769-3.19-3.273-4.052-5.64-.978-2.695-2.791-5.093-4.238-7.614a4,4,0,0,1-.656-1.241c-.753-5.679-3.827-10.791-3.531-16.811.18-3.556-1.177-7.164-1.659-10.778a45.48,45.48,0,0,1-.206-6q0-52.014.019-104.027c0-4.592.122-9.183.161-13.782.026-3.151-.534-3.646-3.743-3.621-3.537.026-7.08-.006-10.617.013a14.728,14.728,0,0,1-8.521-3.042c-2.514-1.756-4.1-6.47-3.029-9.325a9.52,9.52,0,0,1,2.682-3.865c2.231-1.852,4.585-3.685,7.794-3.556,1.235.051,2.482-.161,3.717-.058,6.032.5,11.614-1.543,17.177-3.286,2.643-.823,4.99-2.669,7.383-4.206a30.175,30.175,0,0,0,4.527-3.537,45.7,45.7,0,0,0,7.769-10.238c2.244-3.852,2.862-8.077,4.167-12.1,1.717-5.273,1.222-10.836-.63-16.161-.116-.334-.4-.643-.411-.971-.129-3.73-2.412-6.624-3.859-9.833a15.29,15.29,0,0,0-2.662-3.614c-1.318-1.473-2.746-2.855-4.193-4.212a21.741,21.741,0,0,0-3.235-2.63c-2.669-1.666-5.408-3.215-8.148-4.765a6.688,6.688,0,0,0-1.968-.746c-2.418-.5-4.868-.868-7.28-1.408-5.376-1.2-10.656-.65-15.917.656a3.944,3.944,0,0,1-1.035.232c-4.084-.071-7.537,2.051-10.875,3.788-4.977,2.579-9.582,5.949-12.83,10.785-1.556,2.322-3.28,4.54-4.875,6.843a12.917,12.917,0,0,0-.707,1.788c-.572,1.2-1.215,2.373-1.775,3.576a19.171,19.171,0,0,0-.855,2.289c-.707,2.238-1.389,4.476-2.071,6.72a12.021,12.021,0,0,0-.63,2.2c-.437,4.579-1.177,9.164-1.132,13.737.09,8.122.669,16.245,1.061,24.36a4.35,4.35,0,0,0,.3,1.556,35.275,35.275,0,0,1,2.624,11.679,2.906,2.906,0,0,0,.47,1.5c1.518,1.91,1.685,4.2,2.1,6.47a48.544,48.544,0,0,0,1.749,6.592,25.52,25.52,0,0,1,.476,13.627c-.617,2.888-2.309,5.511-3.961,8.122-1.9,3.016-4.875,4.5-7.248,6.778a2.044,2.044,0,0,1-.752.45c-5.035,1.64-10.007,2.7-15.4,1.113a22.041,22.041,0,0,1-7.486-3.608,20.417,20.417,0,0,1-3.987-4.354c-1.691-2.347-3.151-4.862-4.695-7.325-.3-.489-.456-1.074-.74-1.588-.643-1.164-1.293-2.322-1.994-3.46a55.219,55.219,0,0,0-3.177-5c-2.18-2.868-4.476-5.666-6.836-8.386a14.583,14.583,0,0,0-3.383-2.791c-2.341-1.428-4.868-2.547-7.2-3.994-4.862-3.01-10.392-2.855-15.743-3.306-2.714-.232-5.511.682-8.257.566-4.379-.18-7.974,1.981-11.653,3.666-1.9.868-3.473,2.958-4.6,4.855-1.5,2.5-2.977,5.061-2.649,8.367.36,3.633,2,6.656,3.814,9.55a27.931,27.931,0,0,0,9.228,8.592c2.926,1.82,5.769,3.743,8.708,5.524,1.73,1.048,3.6,1.865,5.351,2.862,2.392,1.363,4.733,2.823,7.119,4.2a15.238,15.238,0,0,0,1.807.7,82.717,82.717,0,0,1,8.27,3.653A116.954,116.954,0,0,0,296,168.953c3.949,1.717,7.8,3.691,11.582,5.769,3.524,1.929,6.984,3.916,10.592,5.7a111.226,111.226,0,0,1,14.245,8.527A142.906,142.906,0,0,1,346.2,199.9a86.8,86.8,0,0,1,9.119,10.052c1.659,2.058,2.566,4.72,4.212,6.8,1.627,2.051,2.148,4.354,2.765,6.746.257,1.016,1.351,1.814,1.659,2.836a30.743,30.743,0,0,1,.778,4.688c.315,2.27.688,4.54.875,6.817a49.323,49.323,0,0,1,.315,7.9c-.3,3.807-.919,7.589-1.582,11.357a22.848,22.848,0,0,1-1.524,4.058c-.084.212-.309.405-.328.617-.347,3.441-2.424,6.174-3.833,9.164a25.868,25.868,0,0,1-2.83,4.4c-2.624,3.486-5.363,6.868-8.978,9.421a35.006,35.006,0,0,0-3.672,3.01,30.25,30.25,0,0,1-8.772,5.724,65.7,65.7,0,0,0-7.254,4.225,1.756,1.756,0,0,1-.309.161c-3.807,1.183-7.614,2.354-11.415,3.563-1.788.572-3.55,1.222-5.325,1.839a4.856,4.856,0,0,1-1.486.527,33.611,33.611,0,0,0-11.048,1.807,19.6,19.6,0,0,1-4.038,1.068c-2.5.232-5.029.238-7.557.264-1.113.013-2.225-.232-3.344-.225-8.669.006-17.331-.071-26,.141-4.238.1-8.142-1.093-12.135-2.084a19.5,19.5,0,0,0-3.653-.6,17.345,17.345,0,0,1-8.142-2.058l-.161-.071c-4.206-1.26-8.418-2.5-12.611-3.807a21.613,21.613,0,0,1-2.675-1.209c-.2-.1-.36-.322-.559-.418-2.984-1.338-6.026-2.553-8.926-4.032a77.807,77.807,0,0,1-6.888-4.142c-1.479-.945-2.842-2.051-4.27-3.061-1.961-1.376-4.013-2.637-5.872-4.129a49.319,49.319,0,0,1-4.244-4.122,33.436,33.436,0,0,1-2.656-2.99c-1.627-2.116-3.209-4.277-4.759-6.444a8.643,8.643,0,0,1-.875-1.7c-.225-.54-.219-1.228-.553-1.666-3.312-4.354-2.592-9.518-2.881-14.444a27.517,27.517,0,0,1,.534-6.688,23.437,23.437,0,0,1,1.769-4.463c.135-.322.386-.6.508-.926,1.711-4.572,5.286-9.711,9.164-12.47h0c4.251-2.476,15.5-3.113,19.775-2.643,3.466.379,6.817,2.264,10.09,3.762,3.659,1.672,5.633,5.235,8.335,7.981a1.05,1.05,0,0,1,.315.424c.72,2.965,3.17,5.164,3.544,8.335.161,1.312,1.074,2.54,1.659,3.8.1.212.283.386.367.6q1.881,4.794,3.743,9.6a2.922,2.922,0,0,0,.142.508c1.4,2.251,2.772,4.527,4.244,6.733,1.067,1.6,2.379,3.035,3.4,4.656,3.261,5.145,7.736,8.971,12.772,12.238,2.463,1.588,5.344,2.482,7.781,3.871,4.38,2.5,8.939,1.9,13.46,2.489a46.741,46.741,0,0,0,13.878-.74,12.66,12.66,0,0,0,2.99-1.325,6,6,0,0,1,1.582-.72c4.476-.566,7.653-3.524,9.756-6.875,1.981-3.151,3.916-6.939,2.328-11.183-.637-1.7-.8-3.576-1.453-5.267-.463-1.215-1.531-2.187-2.051-3.389-1.679-3.9-5.061-6.315-7.93-9.138a49.427,49.427,0,0,0-6.154-4.6c-2.231-1.576-4.476-3.151-6.791-4.585-2.187-1.351-4.476-2.515-6.727-3.769q-3.878-2.17-7.756-4.36c-.154-.084-.264-.257-.418-.328-2.617-1.26-5.273-2.463-7.865-3.775-2.695-1.37-5.338-2.843-7.987-4.277-.315-.167-.56-.45-.875-.6-2.662-1.312-5.4-2.515-8.007-3.929-2.3-1.241-4.482-2.72-6.714-4.09-.3-.186-.585-.4-.894-.566-2.514-1.351-5.119-2.547-7.518-4.064-3.576-2.264-7.042-4.7-10.5-7.158-2.913-2.071-5.852-4.129-8.572-6.45a103.826,103.826,0,0,1-8.315-8,86.984,86.984,0,0,1-7.261-8.8c-1.608-2.257-2.412-5.106-4.084-7.306-2.444-3.254-2.141-7.421-4.122-10.8a7.97,7.97,0,0,1-.875-3.749c-.148-6.251-.231-12.5-.206-18.746.006-2.527.251-5.08,1.762-7.286a2.143,2.143,0,0,0,.386-.978c.225-3.556,2.5-6.3,3.839-9.4a16.132,16.132,0,0,1,2.862-3.743c1.891-2.18,3.724-4.437,5.807-6.405a55.47,55.47,0,0,1,6.36-4.978c2.489-1.73,5.126-3.267,7.692-4.881a3.331,3.331,0,0,1,.6-.36c4.026-1.357,8.058-2.688,12.077-4.077a16.529,16.529,0,0,0,1.852-1.042,5.185,5.185,0,0,1,1.441-.527c2.566-.412,5.132-.791,7.691-1.17,3.724-.553,7.216-2.154,11.087-2.167,8.187-.026,16.386-.373,24.566-.334a96.661,96.661,0,0,1,11.949.984c2.341.309,4.6,1.2,6.926,1.691,1.775.373,3.627.392,5.4.8a25.066,25.066,0,0,1,3.293,1.441,8.287,8.287,0,0,0,2.039.534c2.733.328,5.473.5,7.859,2.244.842.617,2.154.547,3.2.939,2.277.849,4.457,1.981,6.778,2.65,2.888.83,3.621.161,3.235-2.817-.624-4.72-1.717-9.389-2.1-14.129-.553-6.8-.984-13.659.077-20.463.669-4.3,1.492-8.572,2.309-12.843a19.415,19.415,0,0,1,.887-2.482c.5-1.434.939-2.894,1.479-4.322.592-1.569,1.28-3.106,1.923-4.65.064-.161.206-.3.276-.45,1.267-2.8,2.45-5.653,3.833-8.4a29.482,29.482,0,0,1,3.061-4.9c4-5.17,8.18-10.251,13.466-14.135a61.1,61.1,0,0,1,11.64-7.119c2.688-1.17,5.569-1.7,8.1-2.952C374.056.128,381.181.494,388.05.2c6.283-.27,12.656,1.035,18.939,1.981a24.59,24.59,0,0,1,8.63,2.688c2.354,1.376,4.965,1.678,7.254,2.823,4.1,2.051,7.949,4.579,11.917,6.881a60.255,60.255,0,0,1,13.055,10.7,60.888,60.888,0,0,1,4.547,5.621,68.1,68.1,0,0,1,4.63,6.521c1.473,2.515,2.585,5.228,3.846,7.865.122.257.058.617.2.855,3.119,5.293,2.939,11.589,5.222,17.151a11.94,11.94,0,0,1,.373,4.367c.032,7.775,0,15.557-.007,23.338,0,1.3-.026,2.592-.045,3.891-.058,2.219.1,2.5,2.328,2.534,5.826.084,11.666.058,17.505.058a27.937,27.937,0,0,0,3.884-.116c3.711-.508,6.688,1.28,8.933,3.672a9.4,9.4,0,0,1,2,6.174c-.18,5.363-1.151,6.707-5.974,8.99-2.894,1.37-5.659,1.235-8.534,1.254-5.544.026-11.087-.1-16.63-.1-3.447-.006-3.666.27-3.666,3.749q.01,31.843,0,63.679h.238" transform="translate(948.955 0.879)" fill="#f8f8f8"/>
      <path id="Path_370" data-name="Path 370" d="M223.511,153.558a19.142,19.142,0,0,0,.045,3.306,10.317,10.317,0,0,0,1.138,2.6c.122.257.457.431.527.688,1.286,4.6,4.5,8.116,7.306,11.672a69.849,69.849,0,0,0,10.823,10.29,60.993,60.993,0,0,0,10.007,6.071c2.7,1.441,5.511,1.775,8.206,2.791,9.37,3.556,19.049,2.36,28.682,1.929a26.168,26.168,0,0,0,3.7-.232c1.653-.309,3.254-.862,4.894-1.26,1.768-.437,3.576-.727,5.312-1.26,1.479-.45,2.875-1.164,4.309-1.762a8.8,8.8,0,0,1,1.306-.527c4.039-1,7.5-3.138,10.894-5.428,1.936-1.305,3.994-2.45,5.9-3.794a30.359,30.359,0,0,0,3.884-3.267c2.193-2.187,4.1-4.714,6.489-6.637,1.46-1.164,19.454-20.637,34.1-20.637,4.373-.219-4.611,4.579-4.881,9.762-.129,2.463-15.64,21.473-17.383,23.5-1.537,1.788-2.476,4.077-3.833,6.039A57.123,57.123,0,0,1,341,192.356c-1.338,1.537-2.759,3-4.2,4.444-1.569,1.569-3.183,3.087-4.817,4.585a36.968,36.968,0,0,1-3.447,2.984c-4.785,3.466-9.563,6.952-14.47,10.251a46.416,46.416,0,0,1-6.7,3.453c-3.82,1.736-7.576,3.814-11.589,4.92-4.72,1.312-9.132,3.64-14.212,3.936-2.888.174-5.679,1.7-8.566,2.392a21.813,21.813,0,0,1-5.216.5c-8.958-.051-17.917-.051-26.869-.36-3.55-.122-7.074-.99-10.611-1.537-.405-.064-.785-.322-1.183-.347-5.177-.354-9.917-2.431-14.785-3.916-3.389-1.029-6.566-2.785-9.833-4.225a7.729,7.729,0,0,0-.926-.508c-4.785-1.273-8.624-4.424-12.856-6.74-3.543-1.936-6.6-4.778-9.794-7.331-2.5-1.994-4.978-4.051-7.28-6.27-2.444-2.347-4.753-4.836-6.971-7.4-2.257-2.6-4.437-5.28-6.463-8.058-1.736-2.386-3.254-4.939-4.8-7.46-1.576-2.579-3.074-5.2-4.585-7.82a8.105,8.105,0,0,1-.6-1.46c-.116-.328-.129-.7-.264-1.023-1.4-3.453-2.836-6.881-4.2-10.347a33.073,33.073,0,0,1-1.177-3.839c-.508-1.929-.971-3.871-1.4-5.814a56.379,56.379,0,0,1-1.351-6.534c-.47-4.688-.823-9.389-1-14.09-.116-3.113.122-6.238.264-9.357.206-4.476.4-8.952.759-13.415a30.843,30.843,0,0,1,1.125-4.592c.463-1.942.849-3.9,1.376-5.826.579-2.129,1.28-4.225,1.929-6.335a14.214,14.214,0,0,0,.592-1.839c.405-2.334.772-4.643,2.379-6.553.424-.5.424-1.338.695-1.981.585-1.383,1.222-2.746,1.852-4.116.071-.154.219-.277.3-.437,1.293-2.669,2.508-5.383,3.884-8.007a38,38,0,0,1,2.746-4.251c1.543-2.193,3.042-4.431,4.765-6.482,2.971-3.537,6.045-6.99,9.183-10.38a55.639,55.639,0,0,1,4.45-3.968c1.055-.926,2.071-1.9,3.2-2.727,3.5-2.534,7.055-5,10.585-7.5a1.663,1.663,0,0,1,.3-.193,81.928,81.928,0,0,0,8.868-4.142c2.637-1.621,5.859-1.653,8.277-3.17,2.8-1.762,5.788-1.73,8.7-2.309,3.158-.624,6-2.315,9.389-2.244,3.813.084,7.646-.585,11.466-.54,6.888.09,13.775.418,20.656.772,1.164.064,2.283.817,3.447,1.158a34.329,34.329,0,0,0,3.762.881,59.859,59.859,0,0,1,5.929.9c2.952.817,6.109,1.486,8.63,3.08,2.1,1.338,4.4,1.473,6.476,2.437,2.624,1.209,5.145,2.63,7.711,3.961.624.322,1.241.643,1.865.965,4.4,2.3,8.778,4.566,12.547,7.91,2.5,2.212,5.582,3.775,8,6.052a112.211,112.211,0,0,1,10.56,11.145,93.4,93.4,0,0,1,6.868,10.74c1.55,2.579,3.544,5.125,4.206,7.949,1.543,6.534,4.3,12.991,2.868,19.93a29.281,29.281,0,0,1-2.707,8.534c-1.588,2.778-4.026,5.1-6.27,7.46a55.17,55.17,0,0,1-4.81,4.064,4.193,4.193,0,0,1-.8.682c-2.695,1.286-5.376,2.6-8.116,3.781-3.421,1.473-6.881,2.843-10.347,4.2a27.456,27.456,0,0,1-3.215.926c-3.184.823-6.38,1.627-9.563,2.437a5.324,5.324,0,0,1-1.537.379c-4.264-.347-8.052,1.473-12,2.572a2.22,2.22,0,0,1-.682.174c-3.955-.2-7.634,1.19-11.441,1.878-2.99.54-6.052.688-9.029,1.273-2.354.457-4.624,1.325-6.945,1.968-1.068.3-2.174.463-3.254.74q-3.154.8-6.29,1.659c-.559.154-1.1.418-1.646.624a100.825,100.825,0,0,0-10.5,3.994,19.829,19.829,0,0,0-6.412,5.055c-2.238,2.682-2.772,5.46-2.36,8.894M209.266,96.567a84.867,84.867,0,0,0,1.389,20.405c.727,3.576,1,7.241,1.736,10.81a13.022,13.022,0,0,0,2,4.617c.971,1.408,2.212,1.08,3.312-.225a37.845,37.845,0,0,1,4.392-4.515,55.508,55.508,0,0,1,5.949-4.354,46.8,46.8,0,0,1,6.283-3.479c3.19-1.415,6.5-2.566,9.743-3.846a9.222,9.222,0,0,0,.894-.547,19.858,19.858,0,0,1,2.424-1.28c3.4-1.331,6.83-2.6,10.245-3.891a2.73,2.73,0,0,0,.45-.277c2.045-1.415,4.122-2.772,6.116-4.251,3.415-2.521,6.444-5.4,7.974-9.511a2.75,2.75,0,0,1,.6-1.074c1.37-1.241,1.691-2.888,1.948-4.611a15.535,15.535,0,0,1,.823-3.421,24.133,24.133,0,0,0,1.1-12.708c-.412-2.611-1.569-5.151-1.653-7.743-.141-4.283-3.28-7.389-3.9-11.409-.032-.2-.289-.367-.418-.559-1.518-2.283-2.952-4.617-4.56-6.83a38.732,38.732,0,0,0-4.032-4.785,29.6,29.6,0,0,0-4.856-3.974c-2.65-1.672-5.312-3.762-8.257-4.437-7.036-1.614-14.1-1.839-20.418,2.849a29.8,29.8,0,0,0-7.717,8.6c-1.588,2.6-3.588,5.1-3.968,8.328-.045.36-.5.65-.669,1.016a19.811,19.811,0,0,0-1.158,2.855c-.527,1.923-.875,3.891-1.4,5.807-.457,1.672-1.17,3.28-1.55,4.965-.341,1.486-.257,3.061-.559,4.56-1.37,6.688-2.875,13.351-2.277,20.264.077.875.013,1.769.013,2.65" transform="translate(764.665 78.114)" fill="#f8f8f8"/>
      <path id="Path_371" data-name="Path 371" d="M215.327,190.431v58.56c0,2.888.064,5.775-.006,8.656a39.554,39.554,0,0,0,2.051,12.328,18.126,18.126,0,0,1,.6,2.933c.225,1.7.341,3.428,1.839,4.611a.605.605,0,0,1,.1.148c1.865,3.756,3.82,7.473,5.55,11.293.958,2.1.309,4.129-.566,6.277-1.37,3.331-4.392,4.534-6.978,6.347a2.267,2.267,0,0,1-1.2.148q-19.891-.087-39.795-.174c-10.322-.045-20.637-.141-30.959-.064a14.291,14.291,0,0,1-8.888-3.351c-1.691-1.26-2.862-6.926-2.161-8.907a48.812,48.812,0,0,1,6.122-11.2,1.7,1.7,0,0,0,.341-.611c.9-5.46,3.82-10.373,3.672-16.193-.244-9.659.2-19.338.206-29q.048-54.58.006-109.166c0-1.113-.122-2.232-.154-3.351-.051-1.633-.9-2.283-2.5-2.27-4.187.039-8.373.013-12.56.019-3.055.006-5.531-1.511-7.871-3.19-4.013-2.875-3.769-10.791.7-14.026,3.164-2.3,6.54-2.682,10.161-2.669,3.3.013,6.6.026,9.9.077,1.383.026,2.058-.611,1.775-1.936-.341-1.588-.855-3.145-1.312-4.707-.405-1.389-.913-2.759-1.228-4.174-.521-2.289-.932-4.6-1.37-6.913a42.458,42.458,0,0,1-1-5.9c-.187-4.592-.277-9.19-.135-13.782a32.25,32.25,0,0,1,1.222-5.82,8.185,8.185,0,0,0,.354-1.363c.2-4.752,2.367-8.945,3.949-13.267.952-2.611,2.8-4.907,4.334-7.293,1.074-1.672,2.251-3.28,3.428-4.881a42.606,42.606,0,0,1,9.428-9.466c3.453-2.508,6.965-4.933,10.476-7.351a15.307,15.307,0,0,1,1.936-.842c1.087-.547,2.148-1.138,3.228-1.7a14.763,14.763,0,0,1,1.576-.759c1.865-.707,4.006-.534,5.55-2.3.56-.643,1.987-.6,3.035-.714,2.881-.315,5.453-1.916,8.2-2.315,6.759-.99,13.582-1.556,20.4-2.013,2.669-.174,5.383.4,8.084.624,4.572.373,9.2.463,13.717,1.183a37.949,37.949,0,0,1,10.9,3.093c2.3,1.145,4.733,1.595,6.952,2.669a46.934,46.934,0,0,1,6.3,4.045,68.442,68.442,0,0,1,7.884,5.859c2.656,2.521,4.611,5.8,7.331,8.232,2.277,2.032,2.817,4.823,4.122,7.222,1.344,2.463,1.743,5.466,2.405,8.264a39.643,39.643,0,0,1,.913,5.762c.386,4.5-1.5,8.193-3.916,11.865-1.878,2.842-4.585,4.47-7.151,6.373a1.756,1.756,0,0,1-.765.424c-4.232.341-8.232,2.688-12.656,1.376a33.15,33.15,0,0,0-3.486-.6c-3.338-.6-5.923-2.476-8.5-4.585-2.071-1.685-2.682-4.1-3.929-6.174a7.821,7.821,0,0,1-.83-3.55c-.212-4.064-.206-8.135-.476-12.193a33.607,33.607,0,0,0-1.093-5.325,51.073,51.073,0,0,1-1.318-5.28c-.283-2.225-1.859-3.537-3.164-4.978a13.121,13.121,0,0,0-5.788-3.794c-4.8-1.582-9.376-1.344-14.225-.186a24.422,24.422,0,0,0-12.547,7.357c-1.878,2.032-3.177,4.6-4.733,6.926-.1.148-.1.354-.206.489-3.216,3.987-3.318,9.145-4.585,13.73-1.3,4.688-.83,9.929.476,14.875.765,2.9,1.344,5.846,2.026,8.772.1.45.167,1.061.482,1.293,1.7,1.248,1.942,3.138,2.354,4.971a1.586,1.586,0,0,0,.251.656c3.64,4.566,6.984,9.331,12.109,12.573,2.437,1.531,5.074,2.27,7.531,3.473,4.913,2.4,9.961,1.756,15.016,1.891,1.119.032,2.244-.045,3.357.026,8.36.521,12.341,7.344,9.023,15.036-.65,1.511-2.855,2.482-4.508,3.408-3.029,1.7-6.4,1.7-9.781,1.633-5.659-.109-11.319-.045-16.978-.141-1.537-.026-2.019.45-2.019,2.019q.077,35.48.032,70.946h-.071" transform="translate(648.171 0.752)" fill="#f8f8f8"/>
      <path id="Path_372" data-name="Path 372" d="M130.493,0a36.3,36.3,0,1,1,0,72.586c-19.576,0-35.885-16.309-35.885-36.29S110.917,0,130.493,0" transform="translate(513.813 -0.003)" fill="#f8f8f8"/>
      <path id="Path_373" data-name="Path 373" d="M145.691,102.777l-11.421,8.154-6.933-7.338c-6.933-7.338-14.682-16.72-14.682-28.135,0-17.132,12.238-24.875,24.47-24.875,14.277,0,25.28,10.6,25.28,24.463,0,9.383-4.888,19.164-16.714,27.73m59.538,165.565,24.553,26.476a5.207,5.207,0,0,0,3.82,1.666h69.853A2.656,2.656,0,0,0,305.385,292l-60.6-64.027,39.274-39.666a5.221,5.221,0,0,0,1.5-3.666V117.748A2.779,2.779,0,0,0,280.8,115.8l-72.31,73.84-38.74-40.779,9.383-6.933c21.2-15.5,40.779-37.93,40.779-66.882,0-43.634-35.075-74.22-82.786-74.22C96.751.827,55.156,28.152,55.156,77.5c0,26.1,16.315,46.895,30.181,61.982l4.077,4.489m0,0,35.068,37.923,44.862,48.123h-.006l35.891,38.329" transform="translate(299.55 4.488)" fill="#f8f8f8"/>
      <path id="Path_374" data-name="Path 374" d="M217.965,147.46,182.08,109.125a79.5,79.5,0,0,1-13.061,11.1c-7.878,5.228-16.155,8.071-25.274,8.071a30.712,30.712,0,0,1-24.586-11.582,29.524,29.524,0,0,1-6.405-18.187c0-15.9,8.971-26.1,22.431-35.891l2.039-1.627L102.149,23.085c-30.991,22.431-49.338,43.223-49.338,78.7a77.076,77.076,0,0,0,29.73,60.432c14.8,11.659,34.849,19.087,59.576,19.087a98.02,98.02,0,0,0,44.715-10.65,118.992,118.992,0,0,0,31.132-23.2" transform="translate(286.815 125.371)" fill="#f8f8f8"/>
      <path id="Path_375" data-name="Path 375" d="M221.058,14.452a92.824,92.824,0,0,0-63.866,25.422A93.21,93.21,0,0,0,.006,107.682H0V217.246a5.212,5.212,0,0,0,5.209,5.209H54.8a5.206,5.206,0,0,0,5.2-5.209V107.733a33.28,33.28,0,0,1,66.561-.026V217.246a5.212,5.212,0,0,0,5.209,5.209h50.9a5.206,5.206,0,0,0,5.2-5.209V107.637a33.181,33.181,0,1,1,66.361,0V217.246a5.212,5.212,0,0,0,5.209,5.209h49.589a5.221,5.221,0,0,0,5.2-5.273V107.637a93.287,93.287,0,0,0-93.178-93.185" transform="translate(0 78.485)" fill="#f8f8f8"/>
      <path id="Path_376" data-name="Path 376" d="M95.363,208.816V21.109a5.043,5.043,0,0,1,5.048-5.042h51.9a5.047,5.047,0,0,1,5.048,5.042V208.816a5.053,5.053,0,0,1-5.048,5.048h-51.9a5.049,5.049,0,0,1-5.048-5.048" transform="translate(517.913 87.256)" fill="#f8f8f8"/>
    </g>
  </g>
</svg>
