<?xml version="1.0" encoding="UTF-8"?>
<svg width="39px" height="32px" viewBox="0 0 39 32" version="1.1" xmlns="http://www.w3.org/2000/svg" xmlns:xlink="http://www.w3.org/1999/xlink">
    <title>“</title>
    <g id="Page-1" stroke="none" stroke-width="1" fill="none" fill-rule="evenodd">
        <g id="LDS-showcase-page_Desktop" transform="translate(-701.000000, -1768.000000)" fill-rule="nonzero" stroke="#FF5959">
            <path d="M730.888889,1799 C735.555556,1799 739,1795.69118 739,1791.72059 C739,1787.30882 736,1784.33088 731.555556,1784.33088 C730.444444,1784.33088 729.555556,1784.77206 729.333333,1784.88235 C729.555556,1780.13971 733.555556,1775.83824 738,1775.06618 L738,1769 C731.444444,1769.66176 722,1775.17647 722,1788.96324 C722,1795.02941 725.777778,1799 730.888889,1799 Z M710.888889,1799 C715.555556,1799 719,1795.69118 719,1791.72059 C719,1787.30882 715.888889,1784.33088 711.555556,1784.33088 C710.444444,1784.33088 709.444444,1784.77206 709.222222,1784.88235 C709.444444,1780.13971 713.444444,1775.83824 718,1775.06618 L718,1769 C711.333333,1769.66176 702,1775.17647 702,1788.96324 C702,1795.02941 705.666667,1799 710.888889,1799 Z" id="“"></path>
        </g>
    </g>
</svg>