<?xml version="1.0" encoding="utf-8"?>
<!-- Generator: Adobe Illustrator 24.1.2, SVG Export Plug-In . SVG Version: 6.00 Build 0)  -->
<svg version="1.1" id="Layer_1" xmlns="http://www.w3.org/2000/svg" xmlns:xlink="http://www.w3.org/1999/xlink" x="0px" y="0px"
	 viewBox="0 0 36.3 16.4" style="enable-background:new 0 0 36.3 16.4;" xml:space="preserve">
<style type="text/css">
	.st0{fill:#FD5A5A;}
	.st1{fill:#121A35;}
</style>
<g>
	<path class="st0" d="M34.4,0c1.1,0,2,0.9,2,1.9c0,1.1-0.9,1.9-2,1.9c-1,0-1.9-0.9-1.9-1.9C32.5,0.9,33.3,0,34.4,0"/>
	<path class="st0" d="M20.7,7.9l1.9,2l2.4,2.6l1.9,2 M26.9,14.6l1.3,1.4c0.1,0.1,0.1,0.1,0.2,0.1h3.7c0.1,0,0.2-0.1,0.1-0.2L29,12.4
		l2.1-2.1c0.1-0.1,0.1-0.1,0.1-0.2V6.5c0-0.1-0.2-0.2-0.3-0.1l-3.9,3.9L25,8.2l0.5-0.4c1.1-0.8,2.2-2,2.2-3.6c0-2.3-1.9-4-4.4-4
		c-2.2,0-4.4,1.5-4.4,4.1c0,1.4,0.9,2.5,1.6,3.3l0.2,0.2 M23.8,5.7l-0.6,0.4l-0.4-0.4C22.4,5.4,22,4.9,22,4.3c0-0.9,0.7-1.3,1.3-1.3
		c0.8,0,1.3,0.6,1.3,1.3C24.6,4.7,24.4,5.3,23.8,5.7"/>
	<path class="st1" d="M26.9,14.6l-1.9-2c-0.2,0.2-0.5,0.4-0.7,0.6c-0.4,0.3-0.9,0.4-1.3,0.4c-0.6,0-1-0.3-1.3-0.6
		c-0.2-0.3-0.3-0.6-0.3-1c0-0.8,0.5-1.4,1.2-1.9l0.1-0.1l-1.9-2c-1.7,1.2-2.6,2.3-2.6,4.2c0,1.2,0.6,2.4,1.6,3.2
		c0.8,0.6,1.9,1,3.2,1c0.9,0,1.7-0.2,2.4-0.6C25.9,15.5,26.4,15.1,26.9,14.6"/>
	<path class="st1" d="M11.8,5c-1.3,0-2.5,0.5-3.4,1.4C7.5,5.5,6.3,5,5,5c-2.7,0-5,2.2-5,5v5.8c0,0.2,0.1,0.3,0.3,0.3h2.6
		c0.2,0,0.3-0.1,0.3-0.3V9.9C3.2,9,4,8.2,5,8.2S6.8,9,6.8,9.9v5.8c0,0.2,0.1,0.3,0.3,0.3h2.7c0.2,0,0.3-0.1,0.3-0.3V9.9
		c0-1,0.8-1.8,1.8-1.8c1,0,1.8,0.8,1.8,1.8v5.8c0,0.2,0.1,0.3,0.3,0.3h2.6c0.2,0,0.3-0.1,0.3-0.3V9.9C16.8,7.2,14.5,5,11.8,5"/>
	<path class="st0" d="M32.7,16.1V5.8c0-0.1,0.1-0.3,0.3-0.3h2.8c0.1,0,0.3,0.1,0.3,0.3v10.3c0,0.1-0.1,0.3-0.3,0.3H33
		C32.8,16.3,32.7,16.2,32.7,16.1"/>
</g>
</svg>
