<?xml version="1.0" encoding="utf-8"?>
<!-- Generator: Adobe Illustrator 25.3.1, SVG Export Plug-In . SVG Version: 6.00 Build 0)  -->
<svg version="1.1" id="Layer_1" xmlns="http://www.w3.org/2000/svg" xmlns:xlink="http://www.w3.org/1999/xlink" x="0px" y="0px"
	 viewBox="0 0 600 595.3" style="enable-background:new 0 0 600 595.3;" xml:space="preserve">
<style type="text/css">
	.st0{fill:#FF5A5A;}
	.st1{fill:#F0F0F5;}
</style>
<g>
	<path class="st0" d="M495,199.2c13.1,0,23.6,10.5,23.6,23.3s-10.5,23.3-23.6,23.3c-12.6,0-23-10.5-23-23.3S482.4,199.2,495,199.2z"
		/>
	<path class="st0" d="M331.1,294.5l22.5,24.3l0,0l28.8,30.9h0l23,24.6 M405.4,374.3l15.8,17c0.6,0.7,1.5,1.1,2.4,1.1h44.8
		c1.5,0,2.3-1.8,1.2-2.9l-38.9-41.1L456,323c0.6-0.6,1-1.5,1-2.4v-42.9c0-1.6-1.9-2.4-3.1-1.2l-46.4,47.4l-24.9-26.2l6-4.4
		c13.6-9.9,26.2-24.3,26.2-42.9c0-28-22.5-47.6-53.1-47.6c-25.9,0-52.6,17.5-52.6,49.2c0,16.7,10.5,30.1,19.4,39.8l2.6,2.9
		 M367.2,268.1l-7.3,5.2l-4.4-4.7c-4.4-4.7-9.4-10.7-9.4-18.1c0-11,7.9-16,15.7-16c9.2,0,16.2,6.8,16.2,15.7
		C377.9,256.3,374.8,262.6,367.2,268.1z"/>
	<path class="st1" d="M405.4,374.3l-23-24.6c-2.7,2.8-5.5,5.2-8.4,7.1c-5.1,3.4-10.4,5.2-16.2,5.2c-6.8,0-12.3-3-15.8-7.4
		c-2.6-3.3-4.1-7.5-4.1-11.7c0-10.2,5.8-16.7,14.4-23l1.3-1l-22.5-24.3c-19.9,14.4-31.7,27.7-31.7,50.5c0,14.5,6.7,29,19.1,38.8
		c9.5,7.5,22.4,12.2,38.2,12.2c10.5,0,20.1-2.5,28.7-6.8C392.8,385.5,399.5,380.4,405.4,374.3z"/>
	<path class="st1" d="M223.3,258.9c-15.9,0-30.3,6.2-41,16.3c-10.7-10.1-25.2-16.3-41-16.3c-33,0-59.8,26.8-59.9,59.8h0V389
		c0,1.8,1.5,3.3,3.3,3.3h31.8c1.8,0,3.3-1.5,3.3-3.3v-70.3c0-11.8,9.6-21.4,21.4-21.4c11.8,0,21.3,9.6,21.4,21.3V389
		c0,1.8,1.5,3.3,3.3,3.3h32.7c1.8,0,3.3-1.5,3.3-3.3v-70.3c0-11.7,9.6-21.3,21.3-21.3c11.7,0,21.3,9.6,21.3,21.3h0V389
		c0,1.8,1.5,3.3,3.3,3.3h31.8c1.8,0,3.3-1.5,3.3-3.4v-70.3C283.1,285.7,256.3,258.9,223.3,258.9z"/>
	<path class="st0" d="M475.1,389.2V268.8c0-1.8,1.4-3.2,3.2-3.2h33.3c1.8,0,3.2,1.4,3.2,3.2v120.5c0,1.8-1.4,3.2-3.2,3.2h-33.3
		C476.5,392.5,475.1,391,475.1,389.2z"/>
</g>
</svg>
