<svg xmlns="http://www.w3.org/2000/svg" viewBox="0 0 269.32 40.6">
  <g data-name="Layer 2">
    <g fill="#af9751" data-name="Layer 1">
      <path d="M2.48 10.8A17.53 17.53 0 0 0 0 20.28a17.53 17.53 0 0 0 2.48 9.48l5.68-9.48zM9.17 19.64l5.88-9.82-.05-.1L9.17 0 3.35 9.72l-.07.1zM9.17 21l-5.89 9.78.07.1 5.82 9.72L15 30.88l.06-.1zM15.8 29.76a17.53 17.53 0 0 0 2.48-9.48 17.53 17.53 0 0 0-2.48-9.48l-5.68 9.48z" data-name="&lt;Compound Path&gt;"/>
      <path d="M150.43 8.81c-.48 0-1.06.31-1.06 1.76V30c0 1.45.58 1.76 1.06 1.76s1.06-.31 1.06-1.76V10.57c0-1.45-.58-1.76-1.06-1.76zM78.44 10.34c-.12-1.34-.83-1.53-1.24-1.53S76 9 75.54 10.15l-7.61 18.37-7.6-18.37c-.47-1.15-1.15-1.34-1.64-1.34s-1.15.2-1.26 1.53l-1.84 19.85v.23c0 1.19.75 1.29 1 1.29.39 0 1.06-.17 1.16-1.31l1.55-17.11 7.1 17.16c.44 1 1.08 1.26 1.53 1.26s1.1-.22 1.53-1.26l7.11-17.17 1.58 17.12c.11 1.18.86 1.31 1.17 1.31s1-.1 1-1.29a1 1 0 0 0 0-.29zM122.77 11.7a12 12 0 0 0-8.13-2.7H109c-1.75 0-2 1.1-2 1.76v19.03c0 .65.26 1.75 2 1.75h5.6a12 12 0 0 0 8.15-2.72 8.89 8.89 0 0 0 3.17-7v-3.15a8.88 8.88 0 0 0-3.15-6.97zm1.06 7v3.17a7.08 7.08 0 0 1-2.51 5.62 10.1 10.1 0 0 1-6.72 2.16h-5.46V10.91h5.48a10.07 10.07 0 0 1 6.7 2.14 7.11 7.11 0 0 1 2.51 5.62zM141.4 22.81a9.84 9.84 0 0 0 1.89-1.25 6.75 6.75 0 0 0 2.61-5.27 6.55 6.55 0 0 0-2.62-5.2A9.39 9.39 0 0 0 137.19 9h-6.53c-1.74 0-2 1.1-2 1.76V30c0 1.45.58 1.76 1.06 1.76s1.06-.31 1.06-1.76v-6.24h6.41a10.67 10.67 0 0 0 2.21-.24l4.22 6.09.82 1.2c.27.42.71 1 1.27 1a1 1 0 0 0 .45-.14.87.87 0 0 0 .47-.79 2.11 2.11 0 0 0-.45-1.15zm2.39-6.52a5 5 0 0 1-1.95 3.86 6.94 6.94 0 0 1-4.65 1.68h-6.41V10.91h6.41a7.22 7.22 0 0 1 4.66 1.6 4.75 4.75 0 0 1 1.94 3.78zM43.7 10.11a3.13 3.13 0 0 0-.52-.82 1.85 1.85 0 0 0-.25-.24 1.16 1.16 0 0 0-1.41 0 1.65 1.65 0 0 0-.24.22 3.18 3.18 0 0 0-.52.83l-8.87 19.46a2.75 2.75 0 0 0-.31 1.19.92.92 0 0 0 .55.84.93.93 0 0 0 1-.14 2.86 2.86 0 0 0 .7-1L42.23 12l8.4 18.43c.44 1 .92 1.25 1.31 1.25a.86.86 0 0 0 .39-.09.92.92 0 0 0 .54-.84 2.87 2.87 0 0 0-.3-1.19zM95.11 10.11a3.13 3.13 0 0 0-.51-.82 2.73 2.73 0 0 0-.26-.24 1.16 1.16 0 0 0-1.41 0 2.34 2.34 0 0 0-.23.22 3 3 0 0 0-.53.83L83.3 29.56a2.87 2.87 0 0 0-.3 1.19.92.92 0 0 0 .54.84.94.94 0 0 0 1-.14 2.74 2.74 0 0 0 .69-1L93.64 12l8.41 18.43a2.86 2.86 0 0 0 .7 1 1 1 0 0 0 .61.23.85.85 0 0 0 .38-.09.92.92 0 0 0 .55-.84 2.75 2.75 0 0 0-.31-1.19zM166.35 10.11a3.13 3.13 0 0 0-.52-.82 2.71 2.71 0 0 0-.25-.24 1.16 1.16 0 0 0-1.41 0 1.65 1.65 0 0 0-.24.22 3.18 3.18 0 0 0-.52.83l-8.87 19.45a2.75 2.75 0 0 0-.31 1.19.92.92 0 0 0 .54.84.94.94 0 0 0 1-.14 2.86 2.86 0 0 0 .7-1L164.88 12l8.4 18.43c.44 1 .91 1.25 1.31 1.25a.86.86 0 0 0 .39-.09.92.92 0 0 0 .54-.84 2.75 2.75 0 0 0-.31-1.19zM206.14 11.09A9.39 9.39 0 0 0 200.05 9h-6.53c-1.73 0-2 1.1-2 1.76V30c0 1.45.57 1.76 1.05 1.76s1.06-.31 1.06-1.76v-6.24h6.41a9.12 9.12 0 0 0 6.09-2.2 6.75 6.75 0 0 0 2.62-5.27 6.55 6.55 0 0 0-2.61-5.2zm.5 5.2a5 5 0 0 1-1.93 3.86 7 7 0 0 1-4.66 1.68h-6.41V10.91h6.41a7.22 7.22 0 0 1 4.66 1.6 4.74 4.74 0 0 1 1.93 3.78zM243.92 22.81a10.5 10.5 0 0 0 1.89-1.25 6.73 6.73 0 0 0 2.62-5.27 6.56 6.56 0 0 0-2.63-5.2A9.36 9.36 0 0 0 239.72 9h-6.54c-1.73 0-2 1.1-2 1.76V30c0 1.45.57 1.76 1.06 1.76.7 0 1.05-.6 1.05-1.76v-6.24h6.42a10.82 10.82 0 0 0 2.21-.24l4.21 6.09.82 1.2c.44.66.84 1 1.27 1a1 1 0 0 0 .45-.14.85.85 0 0 0 .48-.79 2.17 2.17 0 0 0-.46-1.15zm2.39-6.52a4.94 4.94 0 0 1-1.94 3.86 7 7 0 0 1-4.65 1.68h-6.42V10.91h6.42a7.21 7.21 0 0 1 4.65 1.6 4.74 4.74 0 0 1 1.94 3.78zM219.29 10.11a3.13 3.13 0 0 0-.52-.82 1.85 1.85 0 0 0-.25-.24 1.16 1.16 0 0 0-1.41 0 1.65 1.65 0 0 0-.24.22 3 3 0 0 0-.52.83l-8.87 19.45a2.75 2.75 0 0 0-.31 1.19.92.92 0 0 0 .55.84.83.83 0 0 0 .39.09c.39 0 .86-.28 1.3-1.25L217.82 12l8.41 18.43a2.74 2.74 0 0 0 .69 1 1 1 0 0 0 1 .14.91.91 0 0 0 .54-.84 2.87 2.87 0 0 0-.3-1.19zM268.71 29.82l-11.52-9.46L268.08 11c1-.88.88-1.47.59-1.82s-.87-.57-1.89.31l-11.61 10h-1v-8.92c0-1.16-.36-1.76-1.06-1.76-.48 0-1.06.31-1.06 1.76V30c0 1.45.58 1.76 1.06 1.76s1.06-.31 1.06-1.76v-8.61h1.08l12 9.81a2 2 0 0 0 1.15.51 1 1 0 0 0 .63-.25.8.8 0 0 0 .26-.58 1.54 1.54 0 0 0-.58-1.06z"/>
    </g>
  </g>
</svg>
