<?xml version="1.0" encoding="UTF-8"?>
<svg width="145px" height="51px" viewBox="0 0 145 51" version="1.1" xmlns="http://www.w3.org/2000/svg" xmlns:xlink="http://www.w3.org/1999/xlink">
    <title>Group 3</title>
    <defs>
        <polygon id="path-1" points="0 0 145 0 145 51 0 51"></polygon>
    </defs>
    <g id="Page-1" stroke="none" stroke-width="1" fill="none" fill-rule="evenodd">
        <g id="Event-Page---Europe-Summer-2021" transform="translate(-255.000000, -4538.000000)">
            <g id="Group-3" transform="translate(255.000000, 4538.000000)">
                <mask id="mask-2" fill="white">
                    <use xlink:href="#path-1"></use>
                </mask>
                <g id="Clip-2"></g>
                <path d="M17.9908921,21.1434392 C17.9908921,18.5126887 16.5954742,17.2348217 13.7229131,17.2348217 L7.08924438,17.2348217 L7.08924438,24.7183627 L13.6011944,24.7183627 C16.5546115,24.7183627 17.9908921,23.5491403 17.9908921,21.1434392 L17.9908921,21.1434392 Z M16.8076125,8.86832806 C16.8076125,6.77045328 15.516525,5.79351446 12.743947,5.79351446 L7.08924438,5.79351446 L7.08924438,12.0664446 L13.2334301,12.0664446 C14.8644605,12.0664446 16.8076125,11.5120124 16.8076125,8.86832806 L16.8076125,8.86832806 Z M20.2548598,13.8840854 C23.3743359,15.0921095 25.0801365,17.7737332 25.0801365,21.5193839 C25.0801365,28.1570494 19.3576191,30.5127394 14.4575723,30.5127394 L0.342551176,30.5127394 C0.153017784,30.5127394 0,30.3558084 0,30.1618003 L0,0.349214669 C0,0.156068778 0.153017784,0 0.342551176,0 L14.0489453,0 C20.5391598,0 23.6934128,2.53159078 23.6934128,7.74049402 C23.6934128,10.466093 22.5666455,12.4837777 20.2548598,13.8840854 L20.2548598,13.8840854 Z M41.1443955,21.8108273 L41.1443955,20.2475527 C40.3349662,20.6691971 39.2360203,20.8235413 38.0857787,20.9856459 C37.6380278,21.0485908 37.1737579,21.1132602 36.7338318,21.196037 C34.5002938,21.6116456 33.5891425,22.4316533 33.5891425,24.0242447 C33.5891425,25.643566 34.637662,26.4290835 36.7955606,26.4290835 C39.7220257,26.4290835 41.1443955,24.9192689 41.1443955,21.8108273 L41.1443955,21.8108273 Z M47.6233076,30.1618003 C47.6233076,30.3558084 47.4711593,30.5127394 47.2816259,30.5127394 L41.4799914,30.5127394 C41.290458,30.5127394 41.1374402,30.3558084 41.1374402,30.1618003 C41.1374402,29.6401339 41.1435261,29.313338 41.1496121,29.059834 C41.1504815,28.9943023 41.1522203,28.9339442 41.1530897,28.8770352 C39.4785883,30.3696045 37.3372087,31.0973507 34.6333149,31.0973507 C29.9940939,31.0973507 27.1119692,28.4829831 27.1119692,24.2742996 C27.1615261,18.206587 32.2641475,17.6142154 36.3634592,17.1382488 C39.3812133,16.7864473 41.226121,16.4906927 41.145265,14.8981013 C41.1443955,12.7372817 39.8393973,12.3070147 37.7336639,12.3070147 C35.5409886,12.3070147 34.4333485,13.2270445 34.2446846,15.2024786 C34.2368598,15.2990515 34.1881723,15.3870019 34.1134022,15.4464977 C34.0377628,15.5051313 33.9429961,15.5292745 33.8490988,15.5137539 L28.1665747,14.553198 C28.0761551,14.5376773 27.9961686,14.4859418 27.943134,14.4092008 C27.8909688,14.3333221 27.8701028,14.2384736 27.8866217,14.1453497 C28.6117174,10.0108205 32.3058797,7.64047204 38.0205723,7.64047204 C44.3916764,7.64047204 47.6224382,9.82371042 47.6224382,14.1289668 L47.6233076,30.1618003 Z M63.157221,13.6348927 C63.1076641,13.769405 62.9842066,13.8582177 62.8450995,13.8608044 C59.4048076,13.9401322 57.6598832,16.1509629 57.6598832,20.4338005 L57.6598832,30.1618003 C57.6598832,30.3558084 57.5068654,30.5127394 57.317332,30.5127394 L51.5252611,30.5127394 C51.3365972,30.5127394 51.1835794,30.3558084 51.1835794,30.1618003 L51.1835794,8.57516019 C51.1835794,8.38115204 51.3365972,8.22508327 51.5252611,8.22508327 L57.0330319,8.22508327 C57.2216959,8.22508327 57.3747137,8.38115204 57.3747137,8.57516019 L57.3747137,11.0645003 C58.5614709,8.94765584 60.8645625,7.64047204 63.8449316,7.64047204 C64.1909604,7.64047204 64.5413364,7.687034 64.9177949,7.78274469 C65.0125616,7.80775018 65.0925482,7.87155731 65.1386274,7.96036993 C65.1829678,8.04918255 65.1890537,8.15437807 65.1551464,8.24663973 L63.157221,13.6348927 Z M85.9020974,22.9421103 C84.8266258,28.1242836 81.0637794,31.0973507 75.5786135,31.0973507 C69.1075262,31.0973507 64.588285,26.4032157 64.588285,19.6827734 C64.588285,12.3673728 68.9501613,7.64047204 75.7003322,7.64047204 C81.1359412,7.64047204 85.1187507,10.5919827 85.847324,15.1619524 C85.8777537,15.3525115 85.7508185,15.5318613 85.5647627,15.5629026 L79.9961326,16.5053511 C79.905713,16.5200095 79.8135545,16.498453 79.7396539,16.4432685 C79.6657533,16.3880839 79.6161964,16.3061694 79.6022857,16.2139077 C79.2553874,13.9220248 77.9660387,12.8079869 75.6594695,12.8079869 C71.2871602,12.8079869 71.0654583,18.360069 71.0654583,19.4732446 C71.0654583,22.5946202 72.2400437,25.9289736 75.5377508,25.9289736 C78.5798487,25.9289736 79.5336016,23.7379749 79.7987744,21.8996399 C79.8126851,21.8073782 79.8631114,21.7237392 79.9361427,21.6676924 C80.0100433,21.6125078 80.1030711,21.5900891 80.1926213,21.6056098 L85.6230138,22.5247772 C85.7151723,22.5394356 85.7977671,22.5928957 85.8499322,22.6722234 C85.9029668,22.7515512 85.922094,22.8481242 85.9020974,22.9421103 L85.9020974,22.9421103 Z M103.217451,16.701946 C102.641026,13.942719 101.404712,12.8079869 99.0242418,12.8079869 C95.5622144,12.8079869 94.7710429,15.4361506 94.5910732,16.701946 L103.217451,16.701946 Z M109.806926,19.8224593 C109.806926,20.5605525 109.222529,21.1572354 108.501781,21.1572354 L108.346155,21.1598221 L94.5719459,21.1598221 C94.8136445,24.4105365 96.3507777,25.9289736 99.3902673,25.9289736 C101.424708,25.9289736 103.112251,24.7295721 103.566957,23.5689722 C103.626947,23.4172147 103.782573,23.3258153 103.940808,23.3542699 L108.74261,24.1673796 C108.845201,24.1846247 108.934752,24.2484319 108.986047,24.342418 C109.036474,24.435542 109.043429,24.545911 109.003436,24.6450708 C107.292419,28.9270462 103.990364,31.0973507 99.1859538,31.0973507 C92.5401132,31.0973507 88.074776,26.3920064 88.074776,19.3896056 C88.074776,12.5820752 92.7479044,7.64047204 99.1859538,7.64047204 C102.222835,7.64047204 104.825876,8.73467801 106.711647,10.8040983 C108.718266,13.0045818 109.821559,16.2208058 109.806926,19.7526164 L109.806926,19.8224593 Z M119.707725,30.1618003 C119.707725,30.3558084 119.554707,30.5127394 119.365174,30.5127394 L113.17317,30.5127394 C112.984506,30.5127394 112.830619,30.3558084 112.830619,30.1618003 L112.830619,0.349214669 C112.830619,0.156068778 112.984506,0 113.17317,0 L119.365174,0 C119.554707,0 119.707725,0.156068778 119.707725,0.349214669 L119.707725,30.1618003 Z M140.837221,0.541498301 L135.217295,5.82455577 C135.160783,5.87715353 135.086013,5.90733258 135.009504,5.90733258 L131.395328,5.90733258 C131.282303,5.90733258 131.178843,5.84352545 131.124939,5.74177896 C131.072773,5.64089472 131.079729,5.5167295 131.142327,5.42101882 L134.646086,0.137099092 C134.703468,0.0517355065 134.798235,0 134.899957,0 L140.62943,0 C140.756365,0 140.86852,0.0793277766 140.914599,0.1991817 C140.961548,0.319035623 140.930249,0.454410198 140.837221,0.541498301 L140.837221,0.541498301 Z M138.522827,19.3896056 C138.522827,16.932169 137.899453,12.8079869 133.724502,12.8079869 C129.586067,12.8079869 128.96704,16.932169 128.96704,19.3896056 C128.96704,21.8315215 129.586067,25.9289736 133.724502,25.9289736 C137.899453,25.9289736 138.522827,21.8315215 138.522827,19.3896056 L138.522827,19.3896056 Z M145,19.3896056 C145,26.5015132 140.574656,31.0973507 133.724502,31.0973507 C126.899561,31.0973507 122.490736,26.5015132 122.490736,19.3896056 C122.490736,12.2518302 126.899561,7.64047204 133.724502,7.64047204 C140.574656,7.64047204 145,12.2518302 145,19.3896056 L145,19.3896056 Z M115.947487,41.5893114 C116.400454,41.5893114 116.78126,41.6703637 117.089904,41.8307437 C117.397678,41.9902616 117.648071,42.1997904 117.836735,42.4593301 C118.026268,42.7197322 118.161898,43.0163491 118.244493,43.3483186 C118.327088,43.6828749 118.36795,44.0226047 118.36795,44.3683703 C118.36795,44.844337 118.300136,45.2590833 118.163637,45.6134715 C118.028877,45.968722 117.839343,46.2584408 117.596775,46.4834903 C117.353338,46.7085397 117.059474,46.8766801 116.712576,46.989636 C116.367417,47.1017296 115.984872,47.1586386 115.564943,47.1586386 L114.614667,47.1586386 L114.614667,50.8577274 L112.836705,50.8577274 L112.836705,41.5893114 L115.947487,41.5893114 Z M115.4041,45.7833364 C115.758823,45.7833364 116.044862,45.6703806 116.263086,45.4453311 C116.48131,45.2202817 116.590857,44.8702047 116.590857,44.3933758 C116.590857,43.9260318 116.495221,43.5716435 116.306557,43.3293489 C116.117024,43.0870543 115.799686,42.9654758 115.355413,42.9654758 L114.614667,42.9654758 L114.614667,45.7833364 L115.4041,45.7833364 Z M105.391868,48.0536629 C105.391868,48.2881972 105.40491,48.5020373 105.43447,48.6969077 C105.463161,48.8909159 105.517065,49.0599185 105.595312,49.2030534 C105.67356,49.3461883 105.780499,49.4582819 105.916128,49.5401965 C106.052627,49.6229733 106.223033,49.6643617 106.429085,49.6643617 C106.642963,49.6643617 106.815977,49.6229733 106.947259,49.5401965 C107.078542,49.4582819 107.183741,49.3461883 107.261989,49.2030534 C107.340237,49.0599185 107.394141,48.8909159 107.422832,48.6969077 C107.451522,48.5020373 107.466303,48.2881972 107.466303,48.0536629 L107.466303,41.5893114 L109.243395,41.5893114 L109.243395,48.0536629 C109.243395,48.6425854 109.166017,49.1297614 109.009522,49.5143287 C108.853026,49.8997582 108.642627,50.2049977 108.379193,50.4291849 C108.115759,50.6550966 107.815809,50.8059919 107.478474,50.8835951 C107.14114,50.9620606 106.790764,51 106.429085,51 C106.066538,51 105.716162,50.9655097 105.379696,50.896529 C105.041492,50.8284106 104.741543,50.6870002 104.478109,50.4748846 C104.213805,50.262769 104.004275,49.9618408 103.84778,49.5729623 C103.692154,49.1840837 103.613906,48.6770758 103.613906,48.0536629 L103.613906,41.5893114 L105.391868,41.5893114 L105.391868,48.0536629 Z M94.2980789,44.2830067 C94.3598076,43.6914975 94.4963065,43.1819027 94.7058365,42.7585338 C94.9144971,42.3343027 95.2179244,42.0031954 95.6135102,41.7660744 C96.0082265,41.5272288 96.5394417,41.4073748 97.2062862,41.4073748 C97.8722613,41.4073748 98.4034765,41.5272288 98.7981928,41.7660744 C99.1937786,42.0031954 99.4963364,42.3343027 99.7058665,42.7585338 C99.9162659,43.1819027 100.051026,43.6914975 100.113624,44.2830067 C100.175353,44.8762406 100.205783,45.5229344 100.205783,46.2230882 C100.205783,46.9335892 100.175353,47.5828698 100.113624,48.1709301 C100.051026,48.7598526 99.9162659,49.2659983 99.7058665,49.6893672 C99.4963364,50.1135983 99.1937786,50.4378075 98.7981928,50.6637192 C98.4034765,50.8887687 97.8722613,51 97.2062862,51 C96.5394417,51 96.0082265,50.8887687 95.6135102,50.6637192 C95.2179244,50.4378075 94.9144971,50.1135983 94.7058365,49.6893672 C94.4963065,49.2659983 94.3598076,48.7598526 94.2980789,48.1709301 C94.2363501,47.5828698 94.205051,46.9335892 94.205051,46.2230882 C94.205051,45.5229344 94.2363501,44.8762406 94.2980789,44.2830067 L94.2980789,44.2830067 Z M96.0256149,47.8139551 C96.0560446,48.2511201 96.1134262,48.6055083 96.2003682,48.8788442 C96.2855712,49.1513179 96.4098982,49.3496373 96.5690019,49.4755271 C96.7307139,49.6005546 96.9419828,49.6643617 97.2062862,49.6643617 C97.4697202,49.6643617 97.6818585,49.6005546 97.8418317,49.4755271 C98.0026742,49.3496373 98.1252623,49.1513179 98.2122042,48.8788442 C98.2991462,48.6055083 98.3565278,48.2511201 98.3843493,47.8139551 C98.4130401,47.37679 98.4278202,46.8473633 98.4278202,46.2230882 C98.4278202,45.6005376 98.4130401,45.0728355 98.3843493,44.6399817 C98.3565278,44.2079903 98.2991462,43.8527398 98.2122042,43.5759548 C98.1252623,43.2991699 98.0026742,43.0974014 97.8418317,42.9723739 C97.6818585,42.8464842 97.4697202,42.7844016 97.2062862,42.7844016 C96.9419828,42.7844016 96.7307139,42.8464842 96.5690019,42.9723739 C96.4098982,43.0974014 96.2855712,43.2991699 96.2003682,43.5759548 C96.1134262,43.8527398 96.0560446,44.2079903 96.0256149,44.6399817 C95.9977935,45.0728355 95.9830133,45.6005376 95.9830133,46.2230882 C95.9830133,46.8473633 95.9977935,47.37679 96.0256149,47.8139551 L96.0256149,47.8139551 Z M87.5757294,45.6402015 C88.0034837,45.6402015 88.3321241,45.5341437 88.5625202,45.3220282 C88.7929163,45.1090503 88.9085491,44.7529376 88.9085491,44.2511032 C88.9085491,43.3940183 88.4964444,42.9654758 87.6731044,42.9654758 L86.8341148,42.9654758 L86.8341148,45.6402015 L87.5757294,45.6402015 Z M88.3408183,41.5893114 C89.0815635,41.5893114 89.657119,41.7876308 90.0700932,42.1799584 C90.4804591,42.5748728 90.6865114,43.1732801 90.6865114,43.9786295 C90.6865114,44.6020424 90.567401,45.1090503 90.3291801,45.5031024 C90.0900898,45.8971545 89.7188478,46.1506585 89.2171929,46.2627521 L89.2171929,46.2886199 C89.6614661,46.3584628 89.9866289,46.509358 90.1918119,46.7430301 C90.3987336,46.9758399 90.5256689,47.3535091 90.5760952,47.8725886 C90.5917447,48.0459026 90.604786,48.2338749 90.6126108,48.4365057 C90.6204355,48.6399986 90.6291297,48.8676349 90.6369545,49.1185521 C90.6534735,49.6117639 90.6778172,49.9885708 90.7108551,50.2481106 C90.7612815,50.5067882 90.86822,50.6844134 91.0325403,50.7809864 L91.0325403,50.8577274 L89.1059073,50.8577274 C89.0154877,50.7283886 88.958106,50.5783556 88.9328928,50.4102152 C88.9085491,50.2420748 88.8920301,50.0661741 88.8842054,49.8850998 L88.8346485,48.1062607 C88.8181295,47.7423876 88.7311876,47.4569801 88.5755615,47.2491758 C88.4181966,47.0422338 88.155632,46.9379005 87.7852594,46.9379005 L86.8341148,46.9379005 L86.8341148,50.8577274 L85.0561525,50.8577274 L85.0561525,41.5893114 L88.3408183,41.5893114 Z M79.5805502,43.8104891 C79.5431652,43.6285526 79.4840447,43.4612745 79.4014498,43.3103792 C79.3197244,43.159484 79.2136553,43.0335943 79.0867201,42.9335723 C78.9589154,42.8344126 78.8050282,42.7844016 78.624189,42.7844016 C78.1964348,42.7844016 77.8869215,43.0353188 77.6973881,43.5371532 C77.5087242,44.0389876 77.4139575,44.8702047 77.4139575,46.0290801 C77.4139575,46.5835123 77.4304764,47.0844844 77.4635144,47.5354456 C77.4956829,47.9846822 77.5556728,48.3683872 77.6426147,48.6839738 C77.7286872,49.0004227 77.8521448,49.2409928 78.0129873,49.4108577 C78.1729605,49.5789981 78.3807517,49.6643617 78.6354915,49.6643617 C78.7424301,49.6643617 78.8598017,49.6333204 78.9884757,49.5729623 C79.1162803,49.5126042 79.2345213,49.4212048 79.3466764,49.3004886 C79.4570927,49.1789102 79.5501205,49.0245659 79.6231517,48.8400426 C79.6979218,48.6537948 79.7353068,48.4347811 79.7353068,48.1838639 L79.7353068,47.2362419 L78.5624603,47.2362419 L78.5624603,45.8609397 L81.4384991,45.8609397 L81.4384991,50.8577274 L80.1300231,50.8577274 L80.1300231,50.0006425 L80.1056794,50.0006425 C79.8909329,50.3645155 79.6344542,50.6223308 79.3336351,50.773226 C79.0319467,50.9258458 78.6728765,51 78.2538165,51 C77.7104294,51 77.267895,50.9008403 76.9262133,50.7025208 C76.5845315,50.5033391 76.3167504,50.1963751 76.1237393,49.7799043 C75.9298589,49.3660203 75.8003154,48.8521142 75.7351089,48.2416352 C75.6681637,47.6320185 75.6351257,46.9249666 75.6351257,46.1204795 C75.6351257,45.3409979 75.6829438,44.6580892 75.7777105,44.0691667 C75.8733466,43.4811064 76.0350586,42.9896191 76.2654547,42.595567 C76.4958508,42.2023771 76.8001475,41.9066225 77.1792143,41.7065785 C77.5574116,41.5082591 78.0312451,41.4073748 78.5981065,41.4073748 C79.5709866,41.4073748 80.2699996,41.6617411 80.6977539,42.1670245 C81.1263776,42.6731702 81.3402547,43.3983296 81.3402547,44.3425026 L79.636193,44.3425026 C79.636193,44.1691886 79.6170658,43.9924257 79.5805502,43.8104891 L79.5805502,43.8104891 Z M62.1034849,41.5893114 L63.8823166,41.5893114 L63.8823166,49.3263564 L67.0304836,49.3263564 L67.0304836,50.8577274 L62.1034849,50.8577274 L62.1034849,41.5893114 Z M58.6223303,43.1215446 L55.4732938,43.1215446 L55.4732938,45.3021962 L58.437144,45.3021962 L58.437144,46.8335672 L55.4732938,46.8335672 L55.4732938,49.3263564 L58.7457878,49.3263564 L58.7457878,50.8577274 L53.6962009,50.8577274 L53.6962009,41.5893114 L58.6223303,41.5893114 L58.6223303,43.1215446 Z M50.461092,43.1215446 L48.5353284,43.1215446 L48.5353284,50.8577274 L46.7573661,50.8577274 L46.7573661,43.1215446 L44.8316025,43.1215446 L44.8316025,41.5893114 L50.461092,41.5893114 L50.461092,43.1215446 Z M35.8731068,44.2830067 C35.9357049,43.6914975 36.0713343,43.1819027 36.2808644,42.7585338 C36.4903944,42.3343027 36.7929523,42.0031954 37.1885381,41.7660744 C37.5841238,41.5272288 38.1144695,41.4073748 38.7813141,41.4073748 C39.4481586,41.4073748 39.9793738,41.5272288 40.3740901,41.7660744 C40.7688064,42.0031954 41.0713643,42.3343027 41.2817638,42.7585338 C41.4912938,43.1819027 41.6269232,43.6914975 41.688652,44.2830067 C41.7512502,44.8762406 41.7808104,45.5229344 41.7808104,46.2230882 C41.7808104,46.9335892 41.7512502,47.5828698 41.688652,48.1709301 C41.6269232,48.7598526 41.4912938,49.2659983 41.2817638,49.6893672 C41.0713643,50.1135983 40.7688064,50.4378075 40.3740901,50.6637192 C39.9793738,50.8887687 39.4481586,51 38.7813141,51 C38.1144695,51 37.5841238,50.8887687 37.1885381,50.6637192 C36.7929523,50.4378075 36.4903944,50.1135983 36.2808644,49.6893672 C36.0713343,49.2659983 35.9357049,48.7598526 35.8731068,48.1709301 C35.8122474,47.5828698 35.7809483,46.9335892 35.7809483,46.2230882 C35.7809483,45.5229344 35.8122474,44.8762406 35.8731068,44.2830067 L35.8731068,44.2830067 Z M37.6023816,47.8139551 C37.6310724,48.2511201 37.6875847,48.6055083 37.7745266,48.8788442 C37.8614685,49.1513179 37.9849261,49.3496373 38.1457686,49.4755271 C38.3066112,49.6005546 38.5178801,49.6643617 38.7813141,49.6643617 C39.0438787,49.6643617 39.2568864,49.6005546 39.417729,49.4755271 C39.5777021,49.3496373 39.7011596,49.1513179 39.7872321,48.8788442 C39.8741741,48.6055083 39.9306863,48.2511201 39.9602466,47.8139551 C39.9889374,47.37679 40.0037175,46.8473633 40.0037175,46.2230882 C40.0037175,45.6005376 39.9889374,45.0728355 39.9602466,44.6399817 C39.9306863,44.2079903 39.8741741,43.8527398 39.7872321,43.5759548 C39.7011596,43.2991699 39.5777021,43.0974014 39.417729,42.9723739 C39.2568864,42.8464842 39.0438787,42.7844016 38.7813141,42.7844016 C38.5178801,42.7844016 38.3066112,42.8464842 38.1457686,42.9723739 C37.9849261,43.0974014 37.8614685,43.2991699 37.7745266,43.5759548 C37.6875847,43.8527398 37.6310724,44.2079903 37.6023816,44.6399817 C37.5728214,45.0728355 37.5589106,45.6005376 37.5589106,46.2230882 C37.5589106,46.8473633 37.5728214,47.37679 37.6023816,47.8139551 L37.6023816,47.8139551 Z M28.4100121,41.5893114 L28.4100121,45.1340558 L30.4844464,45.1340558 L30.4844464,41.5893114 L32.2624087,41.5893114 L32.2624087,50.8577274 L30.4844464,50.8577274 L30.4844464,46.7430301 L28.4100121,46.7430301 L28.4100121,50.8577274 L26.6320498,50.8577274 L26.6320498,41.5893114 L28.4100121,41.5893114 Z" id="Fill-1" fill="#384044" mask="url(#mask-2)"></path>
            </g>
        </g>
    </g>
</svg>